<?xml version="1.0" encoding="UTF-8" standalone="no"?>
<!-- Created with Inkscape (http://www.inkscape.org/) -->

<svg
   xmlns:dc="http://purl.org/dc/elements/1.1/"
   xmlns:cc="http://creativecommons.org/ns#"
   xmlns:rdf="http://www.w3.org/1999/02/22-rdf-syntax-ns#"
   xmlns:svg="http://www.w3.org/2000/svg"
   xmlns="http://www.w3.org/2000/svg"
   xmlns:sodipodi="http://sodipodi.sourceforge.net/DTD/sodipodi-0.dtd"
   xmlns:inkscape="http://www.inkscape.org/namespaces/inkscape"
   width="1052.3622"
   height="744.09448"
   id="svg2"
   version="1.1"
   inkscape:version="0.47 r22583"
   sodipodi:docname="central-composite-design.svg">
  <defs
     id="defs4">
    <marker
       inkscape:stockid="Arrow1Mend"
       orient="auto"
       refY="0.0"
       refX="0.0"
       id="Arrow1Mend"
       style="overflow:visible;">
      <path
         id="path3812"
         d="M 0.0,0.0 L 5.0,-5.0 L -12.5,0.0 L 5.0,5.0 L 0.0,0.0 z "
         style="fill-rule:evenodd;stroke:#000000;stroke-width:1.0pt;marker-start:none;"
         transform="scale(0.4) rotate(180) translate(10,0)" />
    </marker>
    <inkscape:perspective
       sodipodi:type="inkscape:persp3d"
       inkscape:vp_x="0 : 526.18109 : 1"
       inkscape:vp_y="0 : 1000 : 0"
       inkscape:vp_z="744.09448 : 526.18109 : 1"
       inkscape:persp3d-origin="372.04724 : 350.78739 : 1"
       id="perspective10" />
  </defs>
  <sodipodi:namedview
     id="base"
     pagecolor="#ffffff"
     bordercolor="#666666"
     borderopacity="1.0"
     inkscape:pageopacity="0.0"
     inkscape:pageshadow="2"
     inkscape:zoom="0.5"
     inkscape:cx="543.65341"
     inkscape:cy="187.0328"
     inkscape:document-units="px"
     inkscape:current-layer="layer1"
     showgrid="false"
     inkscape:window-width="1440"
     inkscape:window-height="796"
     inkscape:window-x="0"
     inkscape:window-y="0"
     inkscape:window-maximized="0" />
  <metadata
     id="metadata7">
    <rdf:RDF>
      <cc:Work
         rdf:about="">
        <dc:format>image/svg+xml</dc:format>
        <dc:type
           rdf:resource="http://purl.org/dc/dcmitype/StillImage" />
      </cc:Work>
    </rdf:RDF>
  </metadata>
  <g
     inkscape:label="Layer 1"
     inkscape:groupmode="layer"
     id="layer1"
     transform="translate(0,-308.2677)">
    <path
       style="fill:none;stroke:#000000;stroke-width:3.920892;stroke-linecap:butt;stroke-linejoin:miter;stroke-miterlimit:4;stroke-opacity:1;stroke-dasharray:none"
       d="M 619.61,790.96485 719.79723,730.48411"
       id="path4339" />
    <path
       style="fill:none;stroke:#000000;stroke-width:4;stroke-linecap:butt;stroke-linejoin:miter;stroke-miterlimit:4;stroke-opacity:1;stroke-dasharray:none"
       d="m 720.42745,730.24437 0,-198.79247"
       id="path4323" />
    <path
       id="path4325"
       d="m 920.42745,730.24437 0,-198.79247"
       style="fill:none;stroke:#000000;stroke-width:4;stroke-linecap:butt;stroke-linejoin:miter;stroke-miterlimit:4;stroke-opacity:1;stroke-dasharray:none" />
    <path
       id="path4327"
       d="m 919.82368,530.84814 -198.79246,0"
       style="fill:none;stroke:#000000;stroke-width:4;stroke-linecap:butt;stroke-linejoin:miter;stroke-miterlimit:4;stroke-opacity:1;stroke-dasharray:none" />
    <path
       style="fill:none;stroke:#000000;stroke-width:4;stroke-linecap:butt;stroke-linejoin:miter;stroke-miterlimit:4;stroke-opacity:1;stroke-dasharray:none"
       d="m 917.61658,730.84814 -198.79246,0"
       id="path4329" />
    <path
       sodipodi:type="arc"
       style="fill:#000000;fill-opacity:1;stroke:none"
       id="path4331"
       sodipodi:cx="48.06535"
       sodipodi:cy="497.85199"
       sodipodi:rx="13.063916"
       sodipodi:ry="13.063916"
       d="m 61.129266,497.85199 a 13.063916,13.063916 0 1 1 -26.127833,0 13.063916,13.063916 0 1 1 26.127833,0 z"
       transform="matrix(0.6123738,0,0,0.6123738,690.28058,226.55563)" />
    <path
       transform="matrix(0.6123738,0,0,0.6123738,890.28058,226.55563)"
       d="m 61.129266,497.85199 a 13.063916,13.063916 0 1 1 -26.127833,0 13.063916,13.063916 0 1 1 26.127833,0 z"
       sodipodi:ry="13.063916"
       sodipodi:rx="13.063916"
       sodipodi:cy="497.85199"
       sodipodi:cx="48.06535"
       id="path4333"
       style="fill:#000000;fill-opacity:1;stroke:none"
       sodipodi:type="arc" />
    <path
       sodipodi:type="arc"
       style="fill:#000000;fill-opacity:1;stroke:none"
       id="path4335"
       sodipodi:cx="48.06535"
       sodipodi:cy="497.85199"
       sodipodi:rx="13.063916"
       sodipodi:ry="13.063916"
       d="m 61.129266,497.85199 a 13.063916,13.063916 0 1 1 -26.127833,0 13.063916,13.063916 0 1 1 26.127833,0 z"
       transform="matrix(0.6123738,0,0,0.6123738,890.28058,426.55563)" />
    <path
       transform="matrix(0.6123738,0,0,0.6123738,690.28058,426.55563)"
       d="m 61.129266,497.85199 a 13.063916,13.063916 0 1 1 -26.127833,0 13.063916,13.063916 0 1 1 26.127833,0 z"
       sodipodi:ry="13.063916"
       sodipodi:rx="13.063916"
       sodipodi:cy="497.85199"
       sodipodi:cx="48.06535"
       id="path4337"
       style="fill:#000000;fill-opacity:1;stroke:none"
       sodipodi:type="arc" />
    <path
       style="fill:none;stroke:#000000;stroke-width:2.5;stroke-linecap:butt;stroke-linejoin:miter;stroke-miterlimit:4;stroke-opacity:1;stroke-dasharray:none"
       d="m 100.50817,661.85401 280.96704,0"
       id="path2816" />
    <path
       id="path2818"
       d="m 240.50817,800.3457 0,-280.96704"
       style="fill:none;stroke:#000000;stroke-width:2.5;stroke-linecap:butt;stroke-linejoin:miter;stroke-miterlimit:4;stroke-opacity:1;stroke-dasharray:none" />
    <path
       style="fill:none;stroke:#000000;stroke-width:4;stroke-linecap:butt;stroke-linejoin:miter;stroke-miterlimit:4;stroke-opacity:1;stroke-dasharray:none"
       d="m 140.42745,760.24437 0,-198.79247"
       id="path2820" />
    <path
       id="path2822"
       d="m 340.42745,760.24437 0,-198.79247"
       style="fill:none;stroke:#000000;stroke-width:4;stroke-linecap:butt;stroke-linejoin:miter;stroke-miterlimit:4;stroke-opacity:1;stroke-dasharray:none" />
    <path
       id="path2824"
       d="m 339.82368,560.84814 -198.79246,0"
       style="fill:none;stroke:#000000;stroke-width:4;stroke-linecap:butt;stroke-linejoin:miter;stroke-miterlimit:4;stroke-opacity:1;stroke-dasharray:none" />
    <path
       style="fill:none;stroke:#000000;stroke-width:4;stroke-linecap:butt;stroke-linejoin:miter;stroke-miterlimit:4;stroke-opacity:1;stroke-dasharray:none"
       d="m 339.82368,760.84814 -198.79246,0"
       id="path2826" />
    <path
       sodipodi:type="arc"
       style="fill:#000000;fill-opacity:1;stroke:none"
       id="path2828"
       sodipodi:cx="48.06535"
       sodipodi:cy="497.85199"
       sodipodi:rx="13.063916"
       sodipodi:ry="13.063916"
       d="m 61.129266,497.85199 a 13.063916,13.063916 0 1 1 -26.127833,0 13.063916,13.063916 0 1 1 26.127833,0 z"
       transform="matrix(0.6123738,0,0,0.6123738,110.28058,256.55563)" />
    <path
       transform="matrix(0.6123738,0,0,0.6123738,310.28058,256.55563)"
       d="m 61.129266,497.85199 a 13.063916,13.063916 0 1 1 -26.127833,0 13.063916,13.063916 0 1 1 26.127833,0 z"
       sodipodi:ry="13.063916"
       sodipodi:rx="13.063916"
       sodipodi:cy="497.85199"
       sodipodi:cx="48.06535"
       id="path3602"
       style="fill:#000000;fill-opacity:1;stroke:none"
       sodipodi:type="arc" />
    <path
       sodipodi:type="arc"
       style="fill:#000000;fill-opacity:1;stroke:none"
       id="path3604"
       sodipodi:cx="48.06535"
       sodipodi:cy="497.85199"
       sodipodi:rx="13.063916"
       sodipodi:ry="13.063916"
       d="m 61.129266,497.85199 a 13.063916,13.063916 0 1 1 -26.127833,0 13.063916,13.063916 0 1 1 26.127833,0 z"
       transform="matrix(0.6123738,0,0,0.6123738,310.28058,456.55563)" />
    <path
       transform="matrix(0.6123738,0,0,0.6123738,110.28058,456.55563)"
       d="m 61.129266,497.85199 a 13.063916,13.063916 0 1 1 -26.127833,0 13.063916,13.063916 0 1 1 26.127833,0 z"
       sodipodi:ry="13.063916"
       sodipodi:rx="13.063916"
       sodipodi:cy="497.85199"
       sodipodi:cx="48.06535"
       id="path3606"
       style="fill:#000000;fill-opacity:1;stroke:none"
       sodipodi:type="arc" />
    <path
       sodipodi:type="arc"
       style="fill:#000000;fill-opacity:1;stroke:none"
       id="path3608"
       sodipodi:cx="48.06535"
       sodipodi:cy="497.85199"
       sodipodi:rx="13.063916"
       sodipodi:ry="13.063916"
       d="m 61.129266,497.85199 a 13.063916,13.063916 0 1 1 -26.127833,0 13.063916,13.063916 0 1 1 26.127833,0 z"
       transform="matrix(0.6123738,0,0,0.6123738,210.4433,215.2199)" />
    <path
       transform="matrix(0.6123738,0,0,0.6123738,210.4433,491.2199)"
       d="m 61.129266,497.85199 a 13.063916,13.063916 0 1 1 -26.127833,0 13.063916,13.063916 0 1 1 26.127833,0 z"
       sodipodi:ry="13.063916"
       sodipodi:rx="13.063916"
       sodipodi:cy="497.85199"
       sodipodi:cx="48.06535"
       id="path3610"
       style="fill:#000000;fill-opacity:1;stroke:none"
       sodipodi:type="arc" />
    <path
       sodipodi:type="arc"
       style="fill:#000000;fill-opacity:1;stroke:none"
       id="path3612"
       sodipodi:cx="48.06535"
       sodipodi:cy="497.85199"
       sodipodi:rx="13.063916"
       sodipodi:ry="13.063916"
       d="m 61.129266,497.85199 a 13.063916,13.063916 0 1 1 -26.127833,0 13.063916,13.063916 0 1 1 26.127833,0 z"
       transform="matrix(0.6123738,0,0,0.6123738,354.4433,357.2199)" />
    <path
       transform="matrix(0.6123738,0,0,0.6123738,70.4433,357.2199)"
       d="m 61.129266,497.85199 a 13.063916,13.063916 0 1 1 -26.127833,0 13.063916,13.063916 0 1 1 26.127833,0 z"
       sodipodi:ry="13.063916"
       sodipodi:rx="13.063916"
       sodipodi:cy="497.85199"
       sodipodi:cx="48.06535"
       id="path3614"
       style="fill:#000000;fill-opacity:1;stroke:none"
       sodipodi:type="arc" />
    <path
       style="fill:none;stroke:#000000;stroke-width:1.55903077;stroke-linecap:butt;stroke-linejoin:miter;stroke-miterlimit:4;stroke-opacity:1;stroke-dasharray:9.35418463, 9.35418463;stroke-dashoffset:0;marker-start:none;marker-end:url(#Arrow1Mend)"
       d="m 240.03769,608.14798 97.27503,0"
       id="path3616" />
    <text
       xml:space="preserve"
       style="font-size:40px;font-style:normal;font-variant:normal;font-weight:normal;font-stretch:normal;text-align:start;line-height:125%;writing-mode:lr-tb;text-anchor:start;fill:#000000;fill-opacity:1;stroke:none;font-family:Times New Roman;-inkscape-font-specification:'Times New Roman,'"
       x="347.8515"
       y="619.1452"
       id="text4248"
       sodipodi:linespacing="125%"><tspan
         sodipodi:role="line"
         id="tspan4250"
         x="347.8515"
         y="619.1452">1</tspan></text>
    <path
       id="path4252"
       d="m 240.01307,705.9184 138.34831,0"
       style="fill:none;stroke:#000000;stroke-width:1.50980425;stroke-linecap:butt;stroke-linejoin:miter;stroke-miterlimit:4;stroke-opacity:1;stroke-dasharray:9.05882549, 9.05882549;stroke-dashoffset:0;marker-start:none;marker-end:url(#Arrow1Mend)" />
    <text
       sodipodi:linespacing="125%"
       id="text4254"
       y="717.92395"
       x="383.44446"
       style="font-size:40px;font-style:normal;font-variant:normal;font-weight:normal;font-stretch:normal;text-align:start;line-height:125%;writing-mode:lr-tb;text-anchor:start;fill:#000000;fill-opacity:1;stroke:none;font-family:Times New Roman;-inkscape-font-specification:'Times New Roman,'"
       xml:space="preserve"><tspan
         y="717.92395"
         x="383.44446"
         id="tspan4256"
         sodipodi:role="line">1.41</tspan></text>
    <path
       transform="matrix(0.6123738,0,0,0.6123738,211.00922,356.86468)"
       d="m 61.129266,497.85199 a 13.063916,13.063916 0 1 1 -26.127833,0 13.063916,13.063916 0 1 1 26.127833,0 z"
       sodipodi:ry="13.063916"
       sodipodi:rx="13.063916"
       sodipodi:cy="497.85199"
       sodipodi:cx="48.06535"
       id="path4279"
       style="fill:#000000;fill-opacity:1;stroke:none"
       sodipodi:type="arc" />
    <path
       id="path4285"
       d="m 620.42745,790.24437 0,-198.79247"
       style="fill:none;stroke:#000000;stroke-width:4;stroke-linecap:butt;stroke-linejoin:miter;stroke-miterlimit:4;stroke-opacity:1;stroke-dasharray:none" />
    <path
       style="fill:none;stroke:#000000;stroke-width:4;stroke-linecap:butt;stroke-linejoin:miter;stroke-miterlimit:4;stroke-opacity:1;stroke-dasharray:none"
       d="m 820.42745,790.24437 0,-198.79247"
       id="path4287" />
    <path
       style="fill:none;stroke:#000000;stroke-width:4;stroke-linecap:butt;stroke-linejoin:miter;stroke-miterlimit:4;stroke-opacity:1;stroke-dasharray:none"
       d="m 819.82368,590.84814 -198.79246,0"
       id="path4289" />
    <path
       id="path4291"
       d="m 819.82368,790.84814 -198.79246,0"
       style="fill:none;stroke:#000000;stroke-width:4;stroke-linecap:butt;stroke-linejoin:miter;stroke-miterlimit:4;stroke-opacity:1;stroke-dasharray:none" />
    <path
       transform="matrix(0.6123738,0,0,0.6123738,590.28058,286.55563)"
       d="m 61.129266,497.85199 a 13.063916,13.063916 0 1 1 -26.127833,0 13.063916,13.063916 0 1 1 26.127833,0 z"
       sodipodi:ry="13.063916"
       sodipodi:rx="13.063916"
       sodipodi:cy="497.85199"
       sodipodi:cx="48.06535"
       id="path4293"
       style="fill:#000000;fill-opacity:1;stroke:none"
       sodipodi:type="arc" />
    <path
       sodipodi:type="arc"
       style="fill:#000000;fill-opacity:1;stroke:none"
       id="path4295"
       sodipodi:cx="48.06535"
       sodipodi:cy="497.85199"
       sodipodi:rx="13.063916"
       sodipodi:ry="13.063916"
       d="m 61.129266,497.85199 a 13.063916,13.063916 0 1 1 -26.127833,0 13.063916,13.063916 0 1 1 26.127833,0 z"
       transform="matrix(0.6123738,0,0,0.6123738,790.28058,286.55563)" />
    <path
       transform="matrix(0.6123738,0,0,0.6123738,790.28058,486.55563)"
       d="m 61.129266,497.85199 a 13.063916,13.063916 0 1 1 -26.127833,0 13.063916,13.063916 0 1 1 26.127833,0 z"
       sodipodi:ry="13.063916"
       sodipodi:rx="13.063916"
       sodipodi:cy="497.85199"
       sodipodi:cx="48.06535"
       id="path4297"
       style="fill:#000000;fill-opacity:1;stroke:none"
       sodipodi:type="arc" />
    <path
       sodipodi:type="arc"
       style="fill:#000000;fill-opacity:1;stroke:none"
       id="path4299"
       sodipodi:cx="48.06535"
       sodipodi:cy="497.85199"
       sodipodi:rx="13.063916"
       sodipodi:ry="13.063916"
       d="m 61.129266,497.85199 a 13.063916,13.063916 0 1 1 -26.127833,0 13.063916,13.063916 0 1 1 26.127833,0 z"
       transform="matrix(0.6123738,0,0,0.6123738,590.28058,486.55563)" />
    <path
       style="fill:none;stroke:#000000;stroke-width:1.64334238;stroke-linecap:butt;stroke-linejoin:miter;stroke-miterlimit:4;stroke-opacity:1;stroke-dasharray:9.86005425, 9.86005425;stroke-dashoffset:0;marker-start:none;marker-end:url(#Arrow1Mend)"
       d="m 771.31469,704.29897 168.153,0"
       id="path4315" />
    <text
       xml:space="preserve"
       style="font-size:40px;font-style:normal;font-variant:normal;font-weight:normal;font-stretch:normal;text-align:start;line-height:125%;writing-mode:lr-tb;text-anchor:start;fill:#000000;fill-opacity:1;stroke:none;font-family:Times New Roman;-inkscape-font-specification:'Times New Roman,'"
       x="947.12878"
       y="716.3045"
       id="text4317"
       sodipodi:linespacing="125%"><tspan
         sodipodi:role="line"
         id="tspan4319"
         x="947.12878"
         y="716.3045">1.7</tspan></text>
    <path
       id="path4341"
       d="M 819.61,790.96485 919.79723,730.48411"
       style="fill:none;stroke:#000000;stroke-width:3.920892;stroke-linecap:butt;stroke-linejoin:miter;stroke-miterlimit:4;stroke-opacity:1;stroke-dasharray:none" />
    <path
       style="fill:none;stroke:#000000;stroke-width:3.920892;stroke-linecap:butt;stroke-linejoin:miter;stroke-miterlimit:4;stroke-opacity:1;stroke-dasharray:none"
       d="M 819.61,590.96485 919.79723,530.48411"
       id="path4343" />
    <path
       id="path4345"
       d="M 619.61,590.96485 719.79723,530.48411"
       style="fill:none;stroke:#000000;stroke-width:3.920892;stroke-linecap:butt;stroke-linejoin:miter;stroke-miterlimit:4;stroke-opacity:1;stroke-dasharray:none" />
    <path
       style="fill:none;stroke:#000000;stroke-width:2.5;stroke-linecap:butt;stroke-linejoin:miter;stroke-miterlimit:4;stroke-opacity:1;stroke-dasharray:none"
       d="m 602.00749,661.85401 337.00142,0"
       id="path4347" />
    <path
       id="path4349"
       d="m 770.5082,830.3547 0,-337.0014"
       style="fill:none;stroke:#000000;stroke-width:2.73796678;stroke-linecap:butt;stroke-linejoin:miter;stroke-miterlimit:4;stroke-opacity:1;stroke-dasharray:none" />
    <path
       sodipodi:type="arc"
       style="fill:#000000;fill-opacity:1;stroke:none"
       id="path4351"
       sodipodi:cx="48.06535"
       sodipodi:cy="497.85199"
       sodipodi:rx="13.063916"
       sodipodi:ry="13.063916"
       d="m 61.129266,497.85199 a 13.063916,13.063916 0 1 1 -26.127833,0 13.063916,13.063916 0 1 1 26.127833,0 z"
       transform="matrix(0.6123738,0,0,0.6123738,741.1426,184.11501)" />
    <path
       transform="matrix(0.6123738,0,0,0.6123738,740.4433,525.2199)"
       d="m 61.129266,497.85199 a 13.063916,13.063916 0 1 1 -26.127833,0 13.063916,13.063916 0 1 1 26.127833,0 z"
       sodipodi:ry="13.063916"
       sodipodi:rx="13.063916"
       sodipodi:cy="497.85199"
       sodipodi:cx="48.06535"
       id="path4353"
       style="fill:#000000;fill-opacity:1;stroke:none"
       sodipodi:type="arc" />
    <path
       sodipodi:type="arc"
       style="fill:#000000;fill-opacity:1;stroke:none"
       id="path4355"
       sodipodi:cx="48.06535"
       sodipodi:cy="497.85199"
       sodipodi:rx="13.063916"
       sodipodi:ry="13.063916"
       d="m 61.129266,497.85199 a 13.063916,13.063916 0 1 1 -26.127833,0 13.063916,13.063916 0 1 1 26.127833,0 z"
       transform="matrix(0.6123738,0,0,0.6123738,910.4433,357.2199)" />
    <path
       transform="matrix(0.6123738,0,0,0.6123738,570.4433,357.2199)"
       d="m 61.129266,497.85199 a 13.063916,13.063916 0 1 1 -26.127833,0 13.063916,13.063916 0 1 1 26.127833,0 z"
       sodipodi:ry="13.063916"
       sodipodi:rx="13.063916"
       sodipodi:cy="497.85199"
       sodipodi:cx="48.06535"
       id="path4357"
       style="fill:#000000;fill-opacity:1;stroke:none"
       sodipodi:type="arc" />
    <path
       transform="matrix(0.6123738,0,0,0.6123738,741.0092,356.86468)"
       d="m 61.129266,497.85199 a 13.063916,13.063916 0 1 1 -26.127833,0 13.063916,13.063916 0 1 1 26.127833,0 z"
       sodipodi:ry="13.063916"
       sodipodi:rx="13.063916"
       sodipodi:cy="497.85199"
       sodipodi:cx="48.06535"
       id="path4359"
       style="fill:#000000;fill-opacity:1;stroke:none"
       sodipodi:type="arc" />
    <path
       id="path4361"
       d="M 654.50912,731.98727 886.50728,591.72076"
       style="fill:none;stroke:#000000;stroke-width:2.5;stroke-linecap:butt;stroke-linejoin:miter;stroke-miterlimit:4;stroke-opacity:1;stroke-dasharray:none" />
    <path
       sodipodi:type="arc"
       style="fill:#000000;fill-opacity:1;stroke:none"
       id="path4363"
       sodipodi:cx="48.06535"
       sodipodi:cy="497.85199"
       sodipodi:rx="13.063916"
       sodipodi:ry="13.063916"
       d="m 61.129266,497.85199 a 13.063916,13.063916 0 1 1 -26.127833,0 13.063916,13.063916 0 1 1 26.127833,0 z"
       transform="matrix(0.6123738,0,0,0.6123738,859.20039,283.85958)" />
    <path
       sodipodi:type="arc"
       style="fill:#000000;fill-opacity:1;stroke:none"
       id="path4365"
       sodipodi:cx="48.06535"
       sodipodi:cy="497.85199"
       sodipodi:rx="13.063916"
       sodipodi:ry="13.063916"
       d="m 61.129266,497.85199 a 13.063916,13.063916 0 1 1 -26.127833,0 13.063916,13.063916 0 1 1 26.127833,0 z"
       transform="matrix(0.6123738,0,0,0.6123738,628.8765,424.58022)" />
    <text
       xml:space="preserve"
       style="font-size:40px;font-style:normal;font-variant:normal;font-weight:normal;font-stretch:normal;text-align:center;line-height:125%;writing-mode:lr-tb;text-anchor:middle;fill:#000000;fill-opacity:1;stroke:none;font-family:Bitstream Vera Sans;-inkscape-font-specification:Bitstream Vera Sans"
       x="239.04332"
       y="889.35193"
       id="text4367"
       sodipodi:linespacing="125%"><tspan
         sodipodi:role="line"
         id="tspan4369"
         x="245.41051"
         y="889.35193">2-factor </tspan><tspan
         sodipodi:role="line"
         x="239.04332"
         y="939.35193"
         id="tspan4371">system</tspan></text>
    <text
       sodipodi:linespacing="125%"
       id="text4373"
       y="889.35193"
       x="718.96259"
       style="font-size:40px;font-style:normal;font-variant:normal;font-weight:normal;font-stretch:normal;text-align:center;line-height:125%;writing-mode:lr-tb;text-anchor:middle;fill:#000000;fill-opacity:1;stroke:none;font-family:Bitstream Vera Sans;-inkscape-font-specification:Bitstream Vera Sans"
       xml:space="preserve"><tspan
         y="889.35193"
         x="725.32977"
         id="tspan4375"
         sodipodi:role="line">3-factor </tspan><tspan
         id="tspan4377"
         y="939.35193"
         x="718.96259"
         sodipodi:role="line">system</tspan></text>
  </g>
</svg>
