<?xml version="1.0" encoding="UTF-8" standalone="no"?>
<!-- Created with Inkscape (http://www.inkscape.org/) -->

<svg
   xmlns:dc="http://purl.org/dc/elements/1.1/"
   xmlns:cc="http://creativecommons.org/ns#"
   xmlns:rdf="http://www.w3.org/1999/02/22-rdf-syntax-ns#"
   xmlns:svg="http://www.w3.org/2000/svg"
   xmlns="http://www.w3.org/2000/svg"
   xmlns:sodipodi="http://sodipodi.sourceforge.net/DTD/sodipodi-0.dtd"
   xmlns:inkscape="http://www.inkscape.org/namespaces/inkscape"
   width="1052.3622"
   height="744.09448"
   id="svg2"
   version="1.1"
   inkscape:version="0.47 r22583"
   sodipodi:docname="central-composite-question.svg">
  <defs
     id="defs4">
    <marker
       inkscape:stockid="Arrow1Mend"
       orient="auto"
       refY="0.0"
       refX="0.0"
       id="Arrow1Mend"
       style="overflow:visible;">
      <path
         id="path3812"
         d="M 0.0,0.0 L 5.0,-5.0 L -12.5,0.0 L 5.0,5.0 L 0.0,0.0 z "
         style="fill-rule:evenodd;stroke:#000000;stroke-width:1.0pt;marker-start:none;"
         transform="scale(0.4) rotate(180) translate(10,0)" />
    </marker>
    <inkscape:perspective
       sodipodi:type="inkscape:persp3d"
       inkscape:vp_x="0 : 526.18109 : 1"
       inkscape:vp_y="0 : 1000 : 0"
       inkscape:vp_z="744.09448 : 526.18109 : 1"
       inkscape:persp3d-origin="372.04724 : 350.78739 : 1"
       id="perspective10" />
  </defs>
  <sodipodi:namedview
     id="base"
     pagecolor="#ffffff"
     bordercolor="#666666"
     borderopacity="1.0"
     inkscape:pageopacity="0.0"
     inkscape:pageshadow="2"
     inkscape:zoom="1.8164178"
     inkscape:cx="146.5104"
     inkscape:cy="370.77649"
     inkscape:document-units="px"
     inkscape:current-layer="layer1"
     showgrid="false"
     inkscape:window-width="1680"
     inkscape:window-height="946"
     inkscape:window-x="1440"
     inkscape:window-y="22"
     inkscape:window-maximized="0" />
  <metadata
     id="metadata7">
    <rdf:RDF>
      <cc:Work
         rdf:about="">
        <dc:format>image/svg+xml</dc:format>
        <dc:type
           rdf:resource="http://purl.org/dc/dcmitype/StillImage" />
      </cc:Work>
    </rdf:RDF>
  </metadata>
  <g
     inkscape:label="Layer 1"
     inkscape:groupmode="layer"
     id="layer1"
     transform="translate(0,-308.2677)">
    <path
       style="fill:none;stroke:#000000;stroke-width:2.5;stroke-linecap:butt;stroke-linejoin:miter;stroke-miterlimit:4;stroke-opacity:1;stroke-dasharray:none"
       d="m 100.50817,661.85401 280.96704,0"
       id="path2816" />
    <path
       id="path2818"
       d="m 240.50817,800.3457 0,-280.96704"
       style="fill:none;stroke:#000000;stroke-width:2.5;stroke-linecap:butt;stroke-linejoin:miter;stroke-miterlimit:4;stroke-opacity:1;stroke-dasharray:none" />
    <path
       style="fill:none;stroke:#000000;stroke-width:4;stroke-linecap:butt;stroke-linejoin:miter;stroke-miterlimit:4;stroke-opacity:1;stroke-dasharray:none"
       d="m 140.42745,760.24437 0,-198.79247"
       id="path2820" />
    <path
       id="path2822"
       d="m 340.42745,760.24437 0,-198.79247"
       style="fill:none;stroke:#000000;stroke-width:4;stroke-linecap:butt;stroke-linejoin:miter;stroke-miterlimit:4;stroke-opacity:1;stroke-dasharray:none" />
    <path
       id="path2824"
       d="m 339.82368,560.84814 -198.79246,0"
       style="fill:none;stroke:#000000;stroke-width:4;stroke-linecap:butt;stroke-linejoin:miter;stroke-miterlimit:4;stroke-opacity:1;stroke-dasharray:none" />
    <path
       style="fill:none;stroke:#000000;stroke-width:4;stroke-linecap:butt;stroke-linejoin:miter;stroke-miterlimit:4;stroke-opacity:1;stroke-dasharray:none"
       d="m 339.82368,760.84814 -198.79246,0"
       id="path2826" />
    <path
       sodipodi:type="arc"
       style="fill:#000000;fill-opacity:1;stroke:none"
       id="path2828"
       sodipodi:cx="48.06535"
       sodipodi:cy="497.85199"
       sodipodi:rx="13.063916"
       sodipodi:ry="13.063916"
       d="m 61.129266,497.85199 c 0,7.215 -5.848915,13.06392 -13.063916,13.06392 -7.215002,0 -13.063917,-5.84892 -13.063917,-13.06392 0,-7.215 5.848915,-13.06392 13.063917,-13.06392 7.215001,0 13.063916,5.84892 13.063916,13.06392 z"
       transform="matrix(0.6123738,0,0,0.6123738,110.28058,256.55563)" />
    <path
       transform="matrix(0.6123738,0,0,0.6123738,310.28058,256.55563)"
       d="m 61.129266,497.85199 c 0,7.215 -5.848915,13.06392 -13.063916,13.06392 -7.215002,0 -13.063917,-5.84892 -13.063917,-13.06392 0,-7.215 5.848915,-13.06392 13.063917,-13.06392 7.215001,0 13.063916,5.84892 13.063916,13.06392 z"
       sodipodi:ry="13.063916"
       sodipodi:rx="13.063916"
       sodipodi:cy="497.85199"
       sodipodi:cx="48.06535"
       id="path3602"
       style="fill:#000000;fill-opacity:1;stroke:none"
       sodipodi:type="arc" />
    <path
       sodipodi:type="arc"
       style="fill:#000000;fill-opacity:1;stroke:none"
       id="path3604"
       sodipodi:cx="48.06535"
       sodipodi:cy="497.85199"
       sodipodi:rx="13.063916"
       sodipodi:ry="13.063916"
       d="m 61.129266,497.85199 c 0,7.215 -5.848915,13.06392 -13.063916,13.06392 -7.215002,0 -13.063917,-5.84892 -13.063917,-13.06392 0,-7.215 5.848915,-13.06392 13.063917,-13.06392 7.215001,0 13.063916,5.84892 13.063916,13.06392 z"
       transform="matrix(0.6123738,0,0,0.6123738,310.28058,456.55563)" />
    <path
       transform="matrix(0.6123738,0,0,0.6123738,110.28058,456.55563)"
       d="m 61.129266,497.85199 c 0,7.215 -5.848915,13.06392 -13.063916,13.06392 -7.215002,0 -13.063917,-5.84892 -13.063917,-13.06392 0,-7.215 5.848915,-13.06392 13.063917,-13.06392 7.215001,0 13.063916,5.84892 13.063916,13.06392 z"
       sodipodi:ry="13.063916"
       sodipodi:rx="13.063916"
       sodipodi:cy="497.85199"
       sodipodi:cx="48.06535"
       id="path3606"
       style="fill:#000000;fill-opacity:1;stroke:none"
       sodipodi:type="arc" />
    <path
       sodipodi:type="arc"
       style="fill:#000000;fill-opacity:1;stroke:none"
       id="path3608"
       sodipodi:cx="48.06535"
       sodipodi:cy="497.85199"
       sodipodi:rx="13.063916"
       sodipodi:ry="13.063916"
       d="m 61.129266,497.85199 c 0,7.215 -5.848915,13.06392 -13.063916,13.06392 -7.215002,0 -13.063917,-5.84892 -13.063917,-13.06392 0,-7.215 5.848915,-13.06392 13.063917,-13.06392 7.215001,0 13.063916,5.84892 13.063916,13.06392 z"
       transform="matrix(0.6123738,0,0,0.6123738,210.4433,215.2199)" />
    <path
       transform="matrix(0.6123738,0,0,0.6123738,210.4433,491.2199)"
       d="m 61.129266,497.85199 c 0,7.215 -5.848915,13.06392 -13.063916,13.06392 -7.215002,0 -13.063917,-5.84892 -13.063917,-13.06392 0,-7.215 5.848915,-13.06392 13.063917,-13.06392 7.215001,0 13.063916,5.84892 13.063916,13.06392 z"
       sodipodi:ry="13.063916"
       sodipodi:rx="13.063916"
       sodipodi:cy="497.85199"
       sodipodi:cx="48.06535"
       id="path3610"
       style="fill:#000000;fill-opacity:1;stroke:none"
       sodipodi:type="arc" />
    <path
       sodipodi:type="arc"
       style="fill:#000000;fill-opacity:1;stroke:none"
       id="path3612"
       sodipodi:cx="48.06535"
       sodipodi:cy="497.85199"
       sodipodi:rx="13.063916"
       sodipodi:ry="13.063916"
       d="m 61.129266,497.85199 c 0,7.215 -5.848915,13.06392 -13.063916,13.06392 -7.215002,0 -13.063917,-5.84892 -13.063917,-13.06392 0,-7.215 5.848915,-13.06392 13.063917,-13.06392 7.215001,0 13.063916,5.84892 13.063916,13.06392 z"
       transform="matrix(0.6123738,0,0,0.6123738,354.4433,357.2199)" />
    <path
       transform="matrix(0.6123738,0,0,0.6123738,70.4433,357.2199)"
       d="m 61.129266,497.85199 c 0,7.215 -5.848915,13.06392 -13.063916,13.06392 -7.215002,0 -13.063917,-5.84892 -13.063917,-13.06392 0,-7.215 5.848915,-13.06392 13.063917,-13.06392 7.215001,0 13.063916,5.84892 13.063916,13.06392 z"
       sodipodi:ry="13.063916"
       sodipodi:rx="13.063916"
       sodipodi:cy="497.85199"
       sodipodi:cx="48.06535"
       id="path3614"
       style="fill:#000000;fill-opacity:1;stroke:none"
       sodipodi:type="arc" />
    <path
       transform="matrix(0.6123738,0,0,0.6123738,211.00922,364.86468)"
       d="m 61.129266,497.85199 c 0,7.215 -5.848915,13.06392 -13.063916,13.06392 -7.215002,0 -13.063917,-5.84892 -13.063917,-13.06392 0,-7.215 5.848915,-13.06392 13.063917,-13.06392 7.215001,0 13.063916,5.84892 13.063916,13.06392 z"
       sodipodi:ry="13.063916"
       sodipodi:rx="13.063916"
       sodipodi:cy="497.85199"
       sodipodi:cx="48.06535"
       id="path4279"
       style="fill:#000000;fill-opacity:1;stroke:none"
       sodipodi:type="arc" />
    <path
       sodipodi:type="arc"
       style="fill:#000000;fill-opacity:1;stroke:none"
       id="path2976"
       sodipodi:cx="48.06535"
       sodipodi:cy="497.85199"
       sodipodi:rx="13.063916"
       sodipodi:ry="13.063916"
       d="m 61.129266,497.85199 c 0,7.215 -5.848915,13.06392 -13.063916,13.06392 -7.215002,0 -13.063917,-5.84892 -13.063917,-13.06392 0,-7.215 5.848915,-13.06392 13.063917,-13.06392 7.215001,0 13.063916,5.84892 13.063916,13.06392 z"
       transform="matrix(0.6123738,0,0,0.6123738,211.00922,348.86468)" />
    <path
       sodipodi:type="arc"
       style="fill:#000000;fill-opacity:1;stroke:none"
       id="path2978"
       sodipodi:cx="48.06535"
       sodipodi:cy="497.85199"
       sodipodi:rx="13.063916"
       sodipodi:ry="13.063916"
       d="m 61.129266,497.85199 c 0,7.215 -5.848915,13.06392 -13.063916,13.06392 -7.215002,0 -13.063917,-5.84892 -13.063917,-13.06392 0,-7.215 5.848915,-13.06392 13.063917,-13.06392 7.215001,0 13.063916,5.84892 13.063916,13.06392 z"
       transform="matrix(0.6123738,0,0,0.6123738,219.00922,356.86468)" />
    <path
       transform="matrix(0.6123738,0,0,0.6123738,203.00922,356.86468)"
       d="m 61.129266,497.85199 c 0,7.215 -5.848915,13.06392 -13.063916,13.06392 -7.215002,0 -13.063917,-5.84892 -13.063917,-13.06392 0,-7.215 5.848915,-13.06392 13.063917,-13.06392 7.215001,0 13.063916,5.84892 13.063916,13.06392 z"
       sodipodi:ry="13.063916"
       sodipodi:rx="13.063916"
       sodipodi:cy="497.85199"
       sodipodi:cx="48.06535"
       id="path2980"
       style="fill:#000000;fill-opacity:1;stroke:none"
       sodipodi:type="arc" />
    <text
       xml:space="preserve"
       style="font-size:24px;font-style:normal;font-variant:normal;font-weight:normal;font-stretch:normal;text-align:start;line-height:125%;writing-mode:lr-tb;text-anchor:start;fill:#000000;fill-opacity:1;stroke:none;font-family:Gill Sans;-inkscape-font-specification:Gill Sans"
       x="121.77726"
       y="790.03131"
       id="text2982"
       sodipodi:linespacing="125%"><tspan
         sodipodi:role="line"
         id="tspan2984"
         x="121.77726"
         y="790.03131">234</tspan></text>
    <text
       sodipodi:linespacing="125%"
       id="text2986"
       y="790.03131"
       x="321.77725"
       style="font-size:24px;font-style:normal;font-variant:normal;font-weight:normal;font-stretch:normal;text-align:start;line-height:125%;writing-mode:lr-tb;text-anchor:start;fill:#000000;fill-opacity:1;stroke:none;font-family:Gill Sans;-inkscape-font-specification:Gill Sans"
       xml:space="preserve"><tspan
         y="790.03131"
         x="321.77725"
         id="tspan2988"
         sodipodi:role="line">252</tspan></text>
    <text
       xml:space="preserve"
       style="font-size:24px;font-style:normal;font-variant:normal;font-weight:normal;font-stretch:normal;text-align:start;line-height:125%;writing-mode:lr-tb;text-anchor:start;fill:#000000;fill-opacity:1;stroke:none;font-family:Gill Sans;-inkscape-font-specification:Gill Sans"
       x="321.77725"
       y="550.03131"
       id="text2990"
       sodipodi:linespacing="125%"><tspan
         sodipodi:role="line"
         id="tspan2992"
         x="321.77725"
         y="550.03131">231</tspan></text>
    <text
       sodipodi:linespacing="125%"
       id="text2994"
       y="550.03131"
       x="121.77725"
       style="font-size:24px;font-style:normal;font-variant:normal;font-weight:normal;font-stretch:normal;text-align:start;line-height:125%;writing-mode:lr-tb;text-anchor:start;fill:#000000;fill-opacity:1;stroke:none;font-family:Gill Sans;-inkscape-font-specification:Gill Sans"
       xml:space="preserve"><tspan
         y="550.03131"
         x="121.77725"
         id="tspan2996"
         sodipodi:role="line">273</tspan></text>
    <text
       xml:space="preserve"
       style="font-size:24px;font-style:normal;font-variant:normal;font-weight:normal;font-stretch:normal;text-align:start;line-height:125%;writing-mode:lr-tb;text-anchor:start;fill:#000000;fill-opacity:1;stroke:none;font-family:Gill Sans;-inkscape-font-specification:Gill Sans"
       x="53.777252"
       y="670.03131"
       id="text2998"
       sodipodi:linespacing="125%"><tspan
         sodipodi:role="line"
         id="tspan3000"
         x="53.777252"
         y="670.03131">249</tspan></text>
    <text
       sodipodi:linespacing="125%"
       id="text3002"
       y="670.03131"
       x="391.77725"
       style="font-size:24px;font-style:normal;font-variant:normal;font-weight:normal;font-stretch:normal;text-align:start;line-height:125%;writing-mode:lr-tb;text-anchor:start;fill:#000000;fill-opacity:1;stroke:none;font-family:Gill Sans;-inkscape-font-specification:Gill Sans"
       xml:space="preserve"><tspan
         y="670.03131"
         x="391.77725"
         id="tspan3004"
         sodipodi:role="line">243</tspan></text>
    <text
       xml:space="preserve"
       style="font-size:24px;font-style:normal;font-variant:normal;font-weight:normal;font-stretch:normal;text-align:start;line-height:125%;writing-mode:lr-tb;text-anchor:start;fill:#000000;fill-opacity:1;stroke:none;font-family:Gill Sans;-inkscape-font-specification:Gill Sans"
       x="221.77725"
       y="824.03131"
       id="text3006"
       sodipodi:linespacing="125%"><tspan
         sodipodi:role="line"
         id="tspan3008"
         x="221.77725"
         y="824.03131">243</tspan></text>
    <text
       sodipodi:linespacing="125%"
       id="text3010"
       y="506.03131"
       x="221.77725"
       style="font-size:24px;font-style:normal;font-variant:normal;font-weight:normal;font-stretch:normal;text-align:start;line-height:125%;writing-mode:lr-tb;text-anchor:start;fill:#000000;fill-opacity:1;stroke:none;font-family:Gill Sans;-inkscape-font-specification:Gill Sans"
       xml:space="preserve"><tspan
         y="506.03131"
         x="221.77725"
         id="tspan3012"
         sodipodi:role="line">240</tspan></text>
    <text
       xml:space="preserve"
       style="font-size:24px;font-style:normal;font-variant:normal;font-weight:normal;font-stretch:normal;text-align:start;line-height:125%;writing-mode:lr-tb;text-anchor:start;fill:#000000;fill-opacity:1;stroke:none;font-family:Gill Sans;-inkscape-font-specification:Gill Sans"
       x="245.77725"
       y="648.03131"
       id="text3014"
       sodipodi:linespacing="125%"><tspan
         sodipodi:role="line"
         id="tspan3016"
         x="245.77725"
         y="648.03131">258</tspan></text>
    <text
       sodipodi:linespacing="125%"
       id="text3018"
       y="692.03131"
       x="245.77725"
       style="font-size:24px;font-style:normal;font-variant:normal;font-weight:normal;font-stretch:normal;text-align:start;line-height:125%;writing-mode:lr-tb;text-anchor:start;fill:#000000;fill-opacity:1;stroke:none;font-family:Gill Sans;-inkscape-font-specification:Gill Sans"
       xml:space="preserve"><tspan
         y="692.03131"
         x="245.77725"
         id="tspan3020"
         sodipodi:role="line">267</tspan></text>
    <text
       xml:space="preserve"
       style="font-size:24px;font-style:normal;font-variant:normal;font-weight:normal;font-stretch:normal;text-align:start;line-height:125%;writing-mode:lr-tb;text-anchor:start;fill:#000000;fill-opacity:1;stroke:none;font-family:Gill Sans;-inkscape-font-specification:Gill Sans"
       x="197.77725"
       y="692.03131"
       id="text3022"
       sodipodi:linespacing="125%"><tspan
         sodipodi:role="line"
         id="tspan3024"
         x="197.77725"
         y="692.03131">258</tspan></text>
    <text
       sodipodi:linespacing="125%"
       id="text3026"
       y="648.03131"
       x="197.77725"
       style="font-size:24px;font-style:normal;font-variant:normal;font-weight:normal;font-stretch:normal;text-align:start;line-height:125%;writing-mode:lr-tb;text-anchor:start;fill:#000000;fill-opacity:1;stroke:none;font-family:Gill Sans;-inkscape-font-specification:Gill Sans"
       xml:space="preserve"><tspan
         y="648.03131"
         x="197.77725"
         id="tspan3028"
         sodipodi:role="line">261</tspan></text>
    <text
       xml:space="preserve"
       style="font-size:40px;font-style:normal;font-weight:normal;fill:#000000;fill-opacity:1;stroke:none;font-family:Bitstream Vera Sans"
       x="226.83629"
       y="873.72211"
       id="text2866"><tspan
         sodipodi:role="line"
         id="tspan2868"
         x="226.83629"
         y="873.72211">A</tspan></text>
    <text
       xml:space="preserve"
       style="font-size:40px;font-style:normal;font-weight:normal;fill:#000000;fill-opacity:1;stroke:none;font-family:Bitstream Vera Sans"
       x="7.8894882"
       y="676.44458"
       id="text2870"><tspan
         sodipodi:role="line"
         id="tspan2872"
         x="7.8894882"
         y="676.44458">B</tspan></text>
    <text
       xml:space="preserve"
       style="font-size:51.03015137px;font-style:normal;font-weight:normal;fill:#000000;fill-opacity:1;stroke:none;font-family:Bitstream Vera Sans"
       x="100.86724"
       y="1110.0321"
       id="text2874"
       transform="scale(1.2757538,0.78385031)"><tspan
         sodipodi:role="line"
         id="tspan2876"
         x="100.86724"
         y="1110.0321">-</tspan></text>
    <text
       xml:space="preserve"
       style="font-size:30px;font-style:normal;font-variant:normal;font-weight:normal;font-stretch:normal;text-align:start;line-height:125%;writing-mode:lr-tb;text-anchor:start;fill:#000000;fill-opacity:1;stroke:none;font-family:Bitstream Vera Sans;-inkscape-font-specification:Bitstream Vera Sans"
       x="327.8591"
       y="868.54633"
       id="text2878"
       sodipodi:linespacing="125%"><tspan
         sodipodi:role="line"
         id="tspan2880"
         x="327.8591"
         y="868.54633">+</tspan></text>
    <text
       sodipodi:linespacing="125%"
       id="text2882"
       y="570.54633"
       x="9.588707"
       style="font-size:30px;font-style:normal;font-variant:normal;font-weight:normal;font-stretch:normal;text-align:start;line-height:125%;writing-mode:lr-tb;text-anchor:start;fill:#000000;fill-opacity:1;stroke:none;font-family:Bitstream Vera Sans;-inkscape-font-specification:Bitstream Vera Sans"
       xml:space="preserve"><tspan
         y="570.54633"
         x="9.588707"
         id="tspan2884"
         sodipodi:role="line">+</tspan></text>
    <text
       transform="scale(1.2757538,0.78385031)"
       id="text2886"
       y="985.00842"
       x="8.1609669"
       style="font-size:51.03015137px;font-style:normal;font-weight:normal;fill:#000000;fill-opacity:1;stroke:none;font-family:Bitstream Vera Sans"
       xml:space="preserve"><tspan
         y="985.00842"
         x="8.1609669"
         id="tspan2888"
         sodipodi:role="line">-</tspan></text>
  </g>
</svg>
