<?xml version="1.0" encoding="UTF-8" standalone="no"?>
<!-- Created with Inkscape (http://www.inkscape.org/) -->

<svg
   xmlns:dc="http://purl.org/dc/elements/1.1/"
   xmlns:cc="http://creativecommons.org/ns#"
   xmlns:rdf="http://www.w3.org/1999/02/22-rdf-syntax-ns#"
   xmlns:svg="http://www.w3.org/2000/svg"
   xmlns="http://www.w3.org/2000/svg"
   xmlns:sodipodi="http://sodipodi.sourceforge.net/DTD/sodipodi-0.dtd"
   xmlns:inkscape="http://www.inkscape.org/namespaces/inkscape"
   width="1052.3622"
   height="744.09448"
   id="svg2"
   version="1.1"
   inkscape:version="0.47 r22583"
   sodipodi:docname="projectivity-of-a-half-fraction-in-3-factors.svg">
  <defs
     id="defs4">
    <inkscape:perspective
       sodipodi:type="inkscape:persp3d"
       inkscape:vp_x="0 : 526.18109 : 1"
       inkscape:vp_y="0 : 1000 : 0"
       inkscape:vp_z="744.09448 : 526.18109 : 1"
       inkscape:persp3d-origin="372.04724 : 350.78739 : 1"
       id="perspective10" />
  </defs>
  <sodipodi:namedview
     id="base"
     pagecolor="#ffffff"
     bordercolor="#666666"
     borderopacity="1.0"
     inkscape:pageopacity="0.0"
     inkscape:pageshadow="2"
     inkscape:zoom="0.50574713"
     inkscape:cx="453.9647"
     inkscape:cy="491.5"
     inkscape:document-units="px"
     inkscape:current-layer="layer1"
     showgrid="false"
     inkscape:window-width="1440"
     inkscape:window-height="796"
     inkscape:window-x="0"
     inkscape:window-y="0"
     inkscape:window-maximized="0" />
  <metadata
     id="metadata7">
    <rdf:RDF>
      <cc:Work
         rdf:about="">
        <dc:format>image/svg+xml</dc:format>
        <dc:type
           rdf:resource="http://purl.org/dc/dcmitype/StillImage" />
        <dc:title />
      </cc:Work>
    </rdf:RDF>
  </metadata>
  <g
     inkscape:label="Layer 1"
     inkscape:groupmode="layer"
     id="layer1"
     transform="translate(0,-308.2677)">
    <path
       id="path3812"
       d="m 843.49751,103.5768 0,202.6969"
       style="fill:none;stroke:#000000;stroke-width:2;stroke-linecap:butt;stroke-linejoin:miter;stroke-miterlimit:4;stroke-opacity:1;stroke-dasharray:8,8;stroke-dashoffset:0" />
    <path
       id="path3784"
       d="M 360.77878,799.5834 704.97726,455.38492"
       style="fill:none;stroke:#000000;stroke-width:2;stroke-linecap:butt;stroke-linejoin:miter;stroke-miterlimit:4;stroke-opacity:1;stroke-dasharray:8, 8;stroke-dashoffset:0" />
    <path
       style="fill:none;stroke:#000000;stroke-width:2;stroke-linecap:butt;stroke-linejoin:miter;stroke-miterlimit:4;stroke-opacity:1;stroke-dasharray:8, 8;stroke-dashoffset:0"
       d="M 358.77878,1093.5834 702.97726,749.38492"
       id="path3782" />
    <path
       id="path3808"
       d="m 697.06947,750.86467 259.00173,0"
       style="fill:none;stroke:#000000;stroke-width:2;stroke-linecap:butt;stroke-linejoin:miter;stroke-miterlimit:4;stroke-opacity:1;stroke-dasharray:8, 8;stroke-dashoffset:0" />
    <path
       style="fill:none;stroke:#000000;stroke-width:2;stroke-linecap:butt;stroke-linejoin:miter;stroke-miterlimit:4;stroke-opacity:1;stroke-dasharray:8, 8;stroke-dashoffset:0"
       d="m 837.06947,610.86467 259.00173,0"
       id="path3810" />
    <path
       id="path3802"
       d="m 837.06947,310.86467 259.00173,0"
       style="fill:none;stroke:#000000;stroke-width:2;stroke-linecap:butt;stroke-linejoin:miter;stroke-miterlimit:4;stroke-opacity:1;stroke-dasharray:8,8;stroke-dashoffset:0" />
    <path
       style="fill:none;stroke:#000000;stroke-width:2;stroke-linecap:butt;stroke-linejoin:miter;stroke-miterlimit:4;stroke-opacity:1;stroke-dasharray:8, 8;stroke-dashoffset:0"
       d="M 58.77878,793.5834 402.97726,449.38492"
       id="path3786" />
    <path
       style="fill:none;stroke:#000000;stroke-width:3;stroke-linecap:butt;stroke-linejoin:miter;stroke-miterlimit:4;stroke-opacity:1;stroke-dasharray:none"
       d="M 401.5,450.86218 541.50953,310.85266"
       id="path2905" />
    <path
       style="fill:none;stroke:#000000;stroke-width:2.99501872;stroke-linecap:butt;stroke-linejoin:miter;stroke-miterlimit:4;stroke-opacity:1;stroke-dasharray:none"
       d="m 543.49751,610.86467 297.00996,0"
       id="path3642" />
    <path
       style="fill:none;stroke:#000000;stroke-width:2.99501872;stroke-linecap:butt;stroke-linejoin:miter;stroke-miterlimit:4;stroke-opacity:1;stroke-dasharray:none"
       d="m 843.49751,313.85471 0,297.00996"
       id="path3640" />
    <path
       id="path2903"
       d="M 401.5,750.86218 541.50953,610.85266"
       style="fill:none;stroke:#000000;stroke-width:3;stroke-linecap:butt;stroke-linejoin:miter;stroke-miterlimit:4;stroke-opacity:1;stroke-dasharray:none" />
    <path
       id="path2891"
       d="m 401.49751,453.85471 0,297.00996"
       style="fill:none;stroke:#000000;stroke-width:2.99501872;stroke-linecap:butt;stroke-linejoin:miter;stroke-miterlimit:4;stroke-opacity:1;stroke-dasharray:none" />
    <path
       id="path3668"
       d="m 543.49751,312.86467 297.00996,0"
       style="fill:none;stroke:#000000;stroke-width:2.99501872;stroke-linecap:butt;stroke-linejoin:miter;stroke-miterlimit:4;stroke-opacity:1;stroke-dasharray:none" />
    <path
       id="path3596"
       d="M 401.5,750.86218 541.50953,610.85266"
       style="fill:none;stroke:#000000;stroke-width:3;stroke-linecap:butt;stroke-linejoin:miter;stroke-miterlimit:4;stroke-opacity:1;stroke-dasharray:none" />
    <path
       style="fill:none;stroke:#000000;stroke-width:3;stroke-linecap:butt;stroke-linejoin:miter;stroke-miterlimit:4;stroke-opacity:1;stroke-dasharray:none"
       d="M 701.5,750.86218 841.50953,610.85266"
       id="path3654" />
    <path
       id="path3656"
       d="M 705.5,450.86218 845.50953,310.85266"
       style="fill:none;stroke:#000000;stroke-width:3;stroke-linecap:butt;stroke-linejoin:miter;stroke-miterlimit:4;stroke-opacity:1;stroke-dasharray:none" />
    <path
       style="fill:none;stroke:#000000;stroke-width:3;stroke-linecap:butt;stroke-linejoin:miter;stroke-miterlimit:4;stroke-opacity:1;stroke-dasharray:none"
       d="M 401.5,450.86218 541.50953,310.85266"
       id="path3658" />
    <path
       style="fill:none;stroke:#000000;stroke-width:2.99501872;stroke-linecap:butt;stroke-linejoin:miter;stroke-miterlimit:4;stroke-opacity:1;stroke-dasharray:none"
       d="m 401.49751,453.85471 0,297.00996"
       id="path2816" />
    <path
       id="path3590"
       d="m 701.49751,453.85471 0,297.00996"
       style="fill:none;stroke:#000000;stroke-width:2.99501872;stroke-linecap:butt;stroke-linejoin:miter;stroke-miterlimit:4;stroke-opacity:1;stroke-dasharray:none" />
    <path
       id="path3594"
       d="m 401.49751,750.86467 297.00996,0"
       style="fill:none;stroke:#000000;stroke-width:2.99501872;stroke-linecap:butt;stroke-linejoin:miter;stroke-miterlimit:4;stroke-opacity:1;stroke-dasharray:none" />
    <path
       sodipodi:type="arc"
       style="fill:#000000;fill-opacity:1;stroke:#000000;stroke-width:3;stroke-miterlimit:4;stroke-opacity:1;stroke-dasharray:none;stroke-dashoffset:0"
       id="path3614"
       sodipodi:cx="293.31021"
       sodipodi:cy="441.72131"
       sodipodi:rx="37.899635"
       sodipodi:ry="42.843067"
       d="m 331.20985,441.72131 c 0,23.66158 -16.96825,42.84307 -37.89964,42.84307 -20.93139,0 -37.89963,-19.18149 -37.89963,-42.84307 0,-23.66157 16.96824,-42.84306 37.89963,-42.84306 20.93139,0 37.89964,19.18149 37.89964,42.84306 z"
       transform="matrix(0.38157797,0,0,0.33754974,428.07929,163.25927)" />
    <path
       sodipodi:type="arc"
       style="fill:#000000;fill-opacity:1;stroke:#000000;stroke-width:3;stroke-miterlimit:4;stroke-opacity:1;stroke-dasharray:none;stroke-dashoffset:0"
       id="path3618"
       sodipodi:cx="293.31021"
       sodipodi:cy="441.72131"
       sodipodi:rx="37.899635"
       sodipodi:ry="42.843067"
       d="m 331.20985,441.72131 c 0,23.66158 -16.96825,42.84307 -37.89964,42.84307 -20.93139,0 -37.89963,-19.18149 -37.89963,-42.84307 0,-23.66157 16.96824,-42.84306 37.89963,-42.84306 20.93139,0 37.89964,19.18149 37.89964,42.84306 z"
       transform="matrix(0.38157797,0,0,0.33754974,730.07929,461.25927)" />
    <path
       style="fill:none;stroke:#000000;stroke-width:2.99501872;stroke-linecap:butt;stroke-linejoin:miter;stroke-miterlimit:4;stroke-opacity:1;stroke-dasharray:none"
       d="m 401.49751,450.86467 297.00996,0"
       id="path3630" />
    <path
       id="path3638"
       d="m 541.49751,313.85471 0,297.00996"
       style="fill:none;stroke:#000000;stroke-width:2.99501872;stroke-linecap:butt;stroke-linejoin:miter;stroke-miterlimit:4;stroke-opacity:1;stroke-dasharray:none" />
    <path
       transform="matrix(0.38157797,0,0,0.33754974,730.07929,161.25927)"
       d="m 331.20985,441.72131 c 0,23.66158 -16.96825,42.84307 -37.89964,42.84307 -20.93139,0 -37.89963,-19.18149 -37.89963,-42.84307 0,-23.66157 16.96824,-42.84306 37.89963,-42.84306 20.93139,0 37.89964,19.18149 37.89964,42.84306 z"
       sodipodi:ry="42.843067"
       sodipodi:rx="37.899635"
       sodipodi:cy="441.72131"
       sodipodi:cx="293.31021"
       id="path3616"
       style="fill:#ffffff;fill-opacity:1;stroke:#000000;stroke-width:13.93187141;stroke-miterlimit:4;stroke-opacity:1;stroke-dasharray:none;stroke-dashoffset:0"
       sodipodi:type="arc" />
    <path
       transform="matrix(0.38157797,0,0,0.33754974,589.50018,301.75746)"
       d="m 331.20985,441.72131 c 0,23.66158 -16.96825,42.84307 -37.89964,42.84307 -20.93139,0 -37.89963,-19.18149 -37.89963,-42.84307 0,-23.66157 16.96824,-42.84306 37.89963,-42.84306 20.93139,0 37.89964,19.18149 37.89964,42.84306 z"
       sodipodi:ry="42.843067"
       sodipodi:rx="37.899635"
       sodipodi:cy="441.72131"
       sodipodi:cx="293.31021"
       id="path3662"
       style="fill:#000000;fill-opacity:1;stroke:#000000;stroke-width:3;stroke-miterlimit:4;stroke-opacity:1;stroke-dasharray:none;stroke-dashoffset:0"
       sodipodi:type="arc" />
    <path
       sodipodi:type="arc"
       style="fill:#000000;fill-opacity:1;stroke:#000000;stroke-width:3;stroke-miterlimit:4;stroke-opacity:1;stroke-dasharray:none;stroke-dashoffset:0"
       id="path3666"
       sodipodi:cx="293.31021"
       sodipodi:cy="441.72131"
       sodipodi:rx="37.899635"
       sodipodi:ry="42.843067"
       d="m 331.20985,441.72131 c 0,23.66158 -16.96825,42.84307 -37.89964,42.84307 -20.93139,0 -37.89963,-19.18149 -37.89963,-42.84307 0,-23.66157 16.96824,-42.84306 37.89963,-42.84306 20.93139,0 37.89964,19.18149 37.89964,42.84306 z"
       transform="matrix(0.38157797,0,0,0.33754974,290.77612,599.76585)" />
    <path
       transform="matrix(0.38157797,0,0,0.33754974,430.07929,461.25927)"
       d="m 331.20985,441.72131 c 0,23.66158 -16.96825,42.84307 -37.89964,42.84307 -20.93139,0 -37.89963,-19.18149 -37.89963,-42.84307 0,-23.66157 16.96824,-42.84306 37.89963,-42.84306 20.93139,0 37.89964,19.18149 37.89964,42.84306 z"
       sodipodi:ry="42.843067"
       sodipodi:rx="37.899635"
       sodipodi:cy="441.72131"
       sodipodi:cx="293.31021"
       id="path3620"
       style="fill:#ffffff;fill-opacity:1;stroke:#000000;stroke-width:13.93187141;stroke-miterlimit:4;stroke-opacity:1;stroke-dasharray:none;stroke-dashoffset:0"
       sodipodi:type="arc" />
    <text
       xml:space="preserve"
       style="font-size:24px;font-style:normal;font-variant:normal;font-weight:normal;font-stretch:normal;text-align:start;line-height:125%;writing-mode:lr-tb;text-anchor:start;fill:#000000;fill-opacity:1;stroke:none;font-family:Times New Roman;-inkscape-font-specification:'Times New Roman,'"
       x="738.35474"
       y="475.82178"
       id="text3831"
       sodipodi:linespacing="125%"><tspan
         y="475.82178"
         x="738.35474"
         id="tspan3833"
         sodipodi:role="line" /></text>
    <text
       xml:space="preserve"
       style="font-size:40px;font-style:normal;font-variant:normal;font-weight:bold;font-stretch:normal;text-align:start;line-height:125%;writing-mode:lr-tb;text-anchor:start;fill:#000000;fill-opacity:1;stroke:none;font-family:Bitstream Vera Sans;-inkscape-font-specification:Bitstream Vera Sans Bold"
       x="534.52399"
       y="786.36218"
       id="text2935"
       sodipodi:linespacing="125%"><tspan
         sodipodi:role="line"
         id="tspan2937"
         x="534.52399"
         y="786.36218">A</tspan></text>
    <path
       style="fill:none;stroke:#000000;stroke-width:2.99501872;stroke-linecap:butt;stroke-linejoin:miter;stroke-miterlimit:4;stroke-opacity:1;stroke-dasharray:none"
       d="m 401.49751,750.86467 297.00996,0"
       id="path2939" />
    <text
       sodipodi:linespacing="125%"
       id="text2941"
       y="616.93976"
       x="367.08273"
       style="font-size:40px;font-style:normal;font-variant:normal;font-weight:bold;font-stretch:normal;text-align:start;line-height:125%;writing-mode:lr-tb;text-anchor:start;fill:#000000;fill-opacity:1;stroke:none;font-family:Bitstream Vera Sans;-inkscape-font-specification:Bitstream Vera Sans Bold"
       xml:space="preserve"><tspan
         y="616.93976"
         x="367.08273"
         id="tspan2943"
         sodipodi:role="line">B</tspan></text>
    <text
       xml:space="preserve"
       style="font-size:40px;font-style:normal;font-variant:normal;font-weight:bold;font-stretch:normal;text-align:start;line-height:125%;writing-mode:lr-tb;text-anchor:start;fill:#000000;fill-opacity:1;stroke:none;font-family:Bitstream Vera Sans;-inkscape-font-specification:Bitstream Vera Sans Bold"
       x="777.75806"
       y="703.41797"
       id="text2945"
       sodipodi:linespacing="125%"><tspan
         sodipodi:role="line"
         id="tspan2947"
         x="777.75806"
         y="703.41797">C</tspan></text>
    <path
       sodipodi:type="arc"
       style="fill:#ffffff;fill-opacity:1;stroke:#000000;stroke-width:13.93187141;stroke-miterlimit:4;stroke-opacity:1;stroke-dasharray:none;stroke-dashoffset:0"
       id="path3664"
       sodipodi:cx="293.31021"
       sodipodi:cy="441.72131"
       sodipodi:rx="37.899635"
       sodipodi:ry="42.843067"
       d="m 331.20985,441.72131 c 0,23.66158 -16.96825,42.84307 -37.89964,42.84307 -20.93139,0 -37.89963,-19.18149 -37.89963,-42.84307 0,-23.66157 16.96824,-42.84306 37.89963,-42.84306 20.93139,0 37.89964,19.18149 37.89964,42.84306 z"
       transform="matrix(0.38157797,0,0,0.33754974,589.99952,600.62435)" />
    <path
       style="fill:none;stroke:#000000;stroke-width:3;stroke-linecap:butt;stroke-linejoin:miter;stroke-miterlimit:4;stroke-opacity:1;stroke-dasharray:none"
       d="M 401.5,750.86218 541.50953,610.85266"
       id="path2887" />
    <path
       id="path2889"
       d="M 401.5,450.86218 541.50953,310.85266"
       style="fill:none;stroke:#000000;stroke-width:3;stroke-linecap:butt;stroke-linejoin:miter;stroke-miterlimit:4;stroke-opacity:1;stroke-dasharray:none" />
    <path
       style="fill:none;stroke:#000000;stroke-width:2.99501872;stroke-linecap:butt;stroke-linejoin:miter;stroke-miterlimit:4;stroke-opacity:1;stroke-dasharray:none"
       d="m 541.49751,313.85471 0,297.00996"
       id="path2893" />
    <path
       transform="matrix(0.38157797,0,0,0.33754974,428.07929,163.25927)"
       d="m 331.20985,441.72131 c 0,23.66158 -16.96825,42.84307 -37.89964,42.84307 -20.93139,0 -37.89963,-19.18149 -37.89963,-42.84307 0,-23.66157 16.96824,-42.84306 37.89963,-42.84306 20.93139,0 37.89964,19.18149 37.89964,42.84306 z"
       sodipodi:ry="42.843067"
       sodipodi:rx="37.899635"
       sodipodi:cy="441.72131"
       sodipodi:cx="293.31021"
       id="path2895"
       style="fill:#000000;fill-opacity:1;stroke:#000000;stroke-width:3;stroke-miterlimit:4;stroke-opacity:1;stroke-dasharray:none;stroke-dashoffset:0"
       sodipodi:type="arc" />
    <path
       transform="matrix(0.38157797,0,0,0.33754974,290.77612,599.76585)"
       d="m 331.20985,441.72131 c 0,23.66158 -16.96825,42.84307 -37.89964,42.84307 -20.93139,0 -37.89963,-19.18149 -37.89963,-42.84307 0,-23.66157 16.96824,-42.84306 37.89963,-42.84306 20.93139,0 37.89964,19.18149 37.89964,42.84306 z"
       sodipodi:ry="42.843067"
       sodipodi:rx="37.899635"
       sodipodi:cy="441.72131"
       sodipodi:cx="293.31021"
       id="path2899"
       style="fill:#000000;fill-opacity:1;stroke:#000000;stroke-width:3;stroke-miterlimit:4;stroke-opacity:1;stroke-dasharray:none;stroke-dashoffset:0"
       sodipodi:type="arc" />
    <path
       style="fill:none;stroke:#000000;stroke-width:2.99501872;stroke-linecap:butt;stroke-linejoin:miter;stroke-miterlimit:4;stroke-opacity:1;stroke-dasharray:none"
       d="m 961.4975,453.85471 0,297.00996"
       id="path2907" />
    <path
       id="path2909"
       d="m 1101.4975,313.85471 0,297.00996"
       style="fill:none;stroke:#000000;stroke-width:2.99501872;stroke-linecap:butt;stroke-linejoin:miter;stroke-miterlimit:4;stroke-opacity:1;stroke-dasharray:none" />
    <path
       sodipodi:type="arc"
       style="fill:#000000;fill-opacity:1;stroke:#000000;stroke-width:3;stroke-miterlimit:4;stroke-opacity:1;stroke-dasharray:none;stroke-dashoffset:0"
       id="path2911"
       sodipodi:cx="293.31021"
       sodipodi:cy="441.72131"
       sodipodi:rx="37.899635"
       sodipodi:ry="42.843067"
       d="m 331.20985,441.72131 c 0,23.66158 -16.96825,42.84307 -37.89964,42.84307 -20.93139,0 -37.89963,-19.18149 -37.89963,-42.84307 0,-23.66157 16.96824,-42.84306 37.89963,-42.84306 20.93139,0 37.89964,19.18149 37.89964,42.84306 z"
       transform="matrix(0.38157797,0,0,0.33754974,988.0793,163.25927)" />
    <path
       sodipodi:type="arc"
       style="fill:#000000;fill-opacity:1;stroke:#000000;stroke-width:3;stroke-miterlimit:4;stroke-opacity:1;stroke-dasharray:none;stroke-dashoffset:0"
       id="path2915"
       sodipodi:cx="293.31021"
       sodipodi:cy="441.72131"
       sodipodi:rx="37.899635"
       sodipodi:ry="42.843067"
       d="m 331.20985,441.72131 c 0,23.66158 -16.96825,42.84307 -37.89964,42.84307 -20.93139,0 -37.89963,-19.18149 -37.89963,-42.84307 0,-23.66157 16.96824,-42.84306 37.89963,-42.84306 20.93139,0 37.89964,19.18149 37.89964,42.84306 z"
       transform="matrix(0.38157797,0,0,0.33754974,850.77612,599.76585)" />
    <path
       style="fill:none;stroke:#000000;stroke-width:3;stroke-linecap:butt;stroke-linejoin:miter;stroke-miterlimit:4;stroke-opacity:1;stroke-dasharray:none"
       d="M 961.5,750.86218 1101.5095,610.85266"
       id="path2919" />
    <path
       id="path2921"
       d="M 961.5,450.86218 1101.5095,310.85266"
       style="fill:none;stroke:#000000;stroke-width:3;stroke-linecap:butt;stroke-linejoin:miter;stroke-miterlimit:4;stroke-opacity:1;stroke-dasharray:none" />
    <path
       sodipodi:type="arc"
       style="fill:#ffffff;fill-opacity:1;stroke:#000000;stroke-width:13.93187141;stroke-miterlimit:4;stroke-opacity:1;stroke-dasharray:none;stroke-dashoffset:0"
       id="path2901"
       sodipodi:cx="293.31021"
       sodipodi:cy="441.72131"
       sodipodi:rx="37.899635"
       sodipodi:ry="42.843067"
       d="m 331.20985,441.72131 c 0,23.66158 -16.96825,42.84307 -37.89964,42.84307 -20.93139,0 -37.89963,-19.18149 -37.89963,-42.84307 0,-23.66157 16.96824,-42.84306 37.89963,-42.84306 20.93139,0 37.89964,19.18149 37.89964,42.84306 z"
       transform="matrix(0.38157797,0,0,0.33754974,430.07929,461.25927)" />
    <path
       transform="matrix(0.38157797,0,0,0.33754974,289.50018,301.75746)"
       d="m 331.20985,441.72131 c 0,23.66158 -16.96825,42.84307 -37.89964,42.84307 -20.93139,0 -37.89963,-19.18149 -37.89963,-42.84307 0,-23.66157 16.96824,-42.84306 37.89963,-42.84306 20.93139,0 37.89964,19.18149 37.89964,42.84306 z"
       sodipodi:ry="42.843067"
       sodipodi:rx="37.899635"
       sodipodi:cy="441.72131"
       sodipodi:cx="293.31021"
       id="path2897"
       style="fill:#ffffff;fill-opacity:1;stroke:#000000;stroke-width:13.93187141;stroke-miterlimit:4;stroke-opacity:1;stroke-dasharray:none;stroke-dashoffset:0"
       sodipodi:type="arc" />
    <path
       sodipodi:type="arc"
       style="fill:#000000;fill-opacity:1;stroke:#000000;stroke-width:3;stroke-miterlimit:4;stroke-opacity:1;stroke-dasharray:none;stroke-dashoffset:0"
       id="path2927"
       sodipodi:cx="293.31021"
       sodipodi:cy="441.72131"
       sodipodi:rx="37.899635"
       sodipodi:ry="42.843067"
       d="m 331.20985,441.72131 c 0,23.66158 -16.96825,42.84307 -37.89964,42.84307 -20.93139,0 -37.89963,-19.18149 -37.89963,-42.84307 0,-23.66157 16.96824,-42.84306 37.89963,-42.84306 20.93139,0 37.89964,19.18149 37.89964,42.84306 z"
       transform="matrix(0.38157797,0,0,0.33754974,849.50018,301.75746)" />
    <path
       transform="matrix(0.38157797,0,0,0.33754974,990.0793,461.25927)"
       d="m 331.20985,441.72131 c 0,23.66158 -16.96825,42.84307 -37.89964,42.84307 -20.93139,0 -37.89963,-19.18149 -37.89963,-42.84307 0,-23.66157 16.96824,-42.84306 37.89963,-42.84306 20.93139,0 37.89964,19.18149 37.89964,42.84306 z"
       sodipodi:ry="42.843067"
       sodipodi:rx="37.899635"
       sodipodi:cy="441.72131"
       sodipodi:cx="293.31021"
       id="path2929"
       style="fill:#000000;fill-opacity:1;stroke:#000000;stroke-width:3;stroke-miterlimit:4;stroke-opacity:1;stroke-dasharray:none;stroke-dashoffset:0"
       sodipodi:type="arc" />
    <path
       id="path2931"
       d="M 701.5,230.8622 841.50953,90.8527"
       style="fill:none;stroke:#000000;stroke-width:3;stroke-linecap:butt;stroke-linejoin:miter;stroke-miterlimit:4;stroke-opacity:1;stroke-dasharray:none" />
    <path
       transform="matrix(0.38157797,0,0,0.33754974,730.07929,-58.74073)"
       d="m 331.20985,441.72131 a 37.899635,42.843067 0 1 1 -75.79927,0 37.899635,42.843067 0 1 1 75.79927,0 z"
       sodipodi:ry="42.843067"
       sodipodi:rx="37.899635"
       sodipodi:cy="441.72131"
       sodipodi:cx="293.31021"
       id="path2933"
       style="fill:#000000;fill-opacity:1;stroke:#000000;stroke-width:3;stroke-miterlimit:4;stroke-opacity:1;stroke-dasharray:none;stroke-dashoffset:0"
       sodipodi:type="arc" />
    <path
       id="path2935"
       d="m 543.49751,90.8647 297.00996,0"
       style="fill:none;stroke:#000000;stroke-width:2.99501872;stroke-linecap:butt;stroke-linejoin:miter;stroke-miterlimit:4;stroke-opacity:1;stroke-dasharray:none" />
    <path
       id="path2937"
       d="m 401.49751,230.8647 297.00996,0"
       style="fill:none;stroke:#000000;stroke-width:2.99501872;stroke-linecap:butt;stroke-linejoin:miter;stroke-miterlimit:4;stroke-opacity:1;stroke-dasharray:none" />
    <path
       sodipodi:type="arc"
       style="fill:#000000;fill-opacity:1;stroke:#000000;stroke-width:3;stroke-miterlimit:4;stroke-opacity:1;stroke-dasharray:none;stroke-dashoffset:0"
       id="path2940"
       sodipodi:cx="293.31021"
       sodipodi:cy="441.72131"
       sodipodi:rx="37.899635"
       sodipodi:ry="42.843067"
       d="m 331.20985,441.72131 a 37.899635,42.843067 0 1 1 -75.79927,0 37.899635,42.843067 0 1 1 75.79927,0 z"
       transform="matrix(0.38157797,0,0,0.33754974,290.77612,79.7658)" />
    <path
       style="fill:none;stroke:#000000;stroke-width:3;stroke-linecap:butt;stroke-linejoin:miter;stroke-miterlimit:4;stroke-opacity:1;stroke-dasharray:none"
       d="M 401.5,230.8622 541.50953,90.8527"
       id="path2942" />
    <path
       sodipodi:type="arc"
       style="fill:#000000;fill-opacity:1;stroke:#000000;stroke-width:3;stroke-miterlimit:4;stroke-opacity:1;stroke-dasharray:none;stroke-dashoffset:0"
       id="path2944"
       sodipodi:cx="293.31021"
       sodipodi:cy="441.72131"
       sodipodi:rx="37.899635"
       sodipodi:ry="42.843067"
       d="m 331.20985,441.72131 a 37.899635,42.843067 0 1 1 -75.79927,0 37.899635,42.843067 0 1 1 75.79927,0 z"
       transform="matrix(0.38157797,0,0,0.33754974,589.50018,81.75746)" />
    <path
       sodipodi:type="arc"
       style="fill:#000000;fill-opacity:1;stroke:#000000;stroke-width:3;stroke-miterlimit:4;stroke-opacity:1;stroke-dasharray:none;stroke-dashoffset:0"
       id="path2946"
       sodipodi:cx="293.31021"
       sodipodi:cy="441.72131"
       sodipodi:rx="37.899635"
       sodipodi:ry="42.843067"
       d="m 331.20985,441.72131 a 37.899635,42.843067 0 1 1 -75.79927,0 37.899635,42.843067 0 1 1 75.79927,0 z"
       transform="matrix(0.38157797,0,0,0.33754974,428.07929,-56.74073)" />
    <text
       sodipodi:linespacing="125%"
       id="text2948"
       y="266.36218"
       x="546.52399"
       style="font-size:40px;font-style:normal;font-variant:normal;font-weight:bold;font-stretch:normal;text-align:start;line-height:125%;writing-mode:lr-tb;text-anchor:start;fill:#000000;fill-opacity:1;stroke:none;font-family:Bitstream Vera Sans;-inkscape-font-specification:Bitstream Vera Sans Bold"
       xml:space="preserve"><tspan
         y="266.36218"
         x="546.52399"
         id="tspan2950"
         sodipodi:role="line">A</tspan></text>
    <text
       sodipodi:linespacing="125%"
       id="text2952"
       y="703.41797"
       x="1037.7581"
       style="font-size:40px;font-style:normal;font-variant:normal;font-weight:bold;font-stretch:normal;text-align:start;line-height:125%;writing-mode:lr-tb;text-anchor:start;fill:#000000;fill-opacity:1;stroke:none;font-family:Bitstream Vera Sans;-inkscape-font-specification:Bitstream Vera Sans Bold"
       xml:space="preserve"><tspan
         y="703.41797"
         x="1037.7581"
         id="tspan2954"
         sodipodi:role="line">C</tspan></text>
    <text
       xml:space="preserve"
       style="font-size:40px;font-style:normal;font-variant:normal;font-weight:bold;font-stretch:normal;text-align:start;line-height:125%;writing-mode:lr-tb;text-anchor:start;fill:#000000;fill-opacity:1;stroke:none;font-family:Bitstream Vera Sans;-inkscape-font-specification:Bitstream Vera Sans Bold"
       x="931.08282"
       y="600.93976"
       id="text2956"
       sodipodi:linespacing="125%"><tspan
         sodipodi:role="line"
         id="tspan2958"
         x="931.08282"
         y="600.93976">B</tspan></text>
    <text
       sodipodi:linespacing="125%"
       id="text2976"
       y="183.41797"
       x="777.75806"
       style="font-size:40px;font-style:normal;font-variant:normal;font-weight:bold;font-stretch:normal;text-align:start;line-height:125%;writing-mode:lr-tb;text-anchor:start;fill:#000000;fill-opacity:1;stroke:none;font-family:Bitstream Vera Sans;-inkscape-font-specification:Bitstream Vera Sans Bold"
       xml:space="preserve"><tspan
         y="183.41797"
         x="777.75806"
         id="tspan2978"
         sodipodi:role="line">C</tspan></text>
    <path
       id="path2980"
       d="m 63.49751,1090.8647 297.00999,0"
       style="fill:none;stroke:#000000;stroke-width:2.99501872;stroke-linecap:butt;stroke-linejoin:miter;stroke-miterlimit:4;stroke-opacity:1;stroke-dasharray:none" />
    <path
       id="path2982"
       d="m 363.4975,793.85471 0,297.00999"
       style="fill:none;stroke:#000000;stroke-width:2.99501872;stroke-linecap:butt;stroke-linejoin:miter;stroke-miterlimit:4;stroke-opacity:1;stroke-dasharray:none" />
    <path
       style="fill:none;stroke:#000000;stroke-width:2.99501872;stroke-linecap:butt;stroke-linejoin:miter;stroke-miterlimit:4;stroke-opacity:1;stroke-dasharray:none"
       d="m 63.49751,792.86467 297.00999,0"
       id="path2984" />
    <path
       transform="matrix(0.38157797,0,0,0.33754974,250.0793,941.2593)"
       d="m 331.20985,441.72131 c 0,23.66158 -16.96825,42.84307 -37.89964,42.84307 -20.93139,0 -37.89963,-19.18149 -37.89963,-42.84307 0,-23.66157 16.96824,-42.84306 37.89963,-42.84306 20.93139,0 37.89964,19.18149 37.89964,42.84306 z"
       sodipodi:ry="42.843067"
       sodipodi:rx="37.899635"
       sodipodi:cy="441.72131"
       sodipodi:cx="293.31021"
       id="path2986"
       style="fill:#000000;fill-opacity:1;stroke:#000000;stroke-width:3;stroke-miterlimit:4;stroke-opacity:1;stroke-dasharray:none;stroke-dashoffset:0"
       sodipodi:type="arc" />
    <path
       id="path2988"
       d="m 61.49751,793.85471 0,297.00999"
       style="fill:none;stroke:#000000;stroke-width:2.99501872;stroke-linecap:butt;stroke-linejoin:miter;stroke-miterlimit:4;stroke-opacity:1;stroke-dasharray:none" />
    <path
       sodipodi:type="arc"
       style="fill:#000000;fill-opacity:1;stroke:#000000;stroke-width:3;stroke-miterlimit:4;stroke-opacity:1;stroke-dasharray:none;stroke-dashoffset:0"
       id="path2994"
       sodipodi:cx="293.31021"
       sodipodi:cy="441.72131"
       sodipodi:rx="37.899635"
       sodipodi:ry="42.843067"
       d="m 331.20985,441.72131 c 0,23.66158 -16.96825,42.84307 -37.89964,42.84307 -20.93139,0 -37.89963,-19.18149 -37.89963,-42.84307 0,-23.66157 16.96824,-42.84306 37.89963,-42.84306 20.93139,0 37.89964,19.18149 37.89964,42.84306 z"
       transform="matrix(0.38157797,0,0,0.33754974,-51.92071,643.25927)" />
    <path
       sodipodi:type="arc"
       style="fill:#000000;fill-opacity:1;stroke:#000000;stroke-width:3;stroke-miterlimit:4;stroke-opacity:1;stroke-dasharray:none;stroke-dashoffset:0"
       id="path2996"
       sodipodi:cx="293.31021"
       sodipodi:cy="441.72131"
       sodipodi:rx="37.899635"
       sodipodi:ry="42.843067"
       d="m 331.20985,441.72131 c 0,23.66158 -16.96825,42.84307 -37.89964,42.84307 -20.93139,0 -37.89963,-19.18149 -37.89963,-42.84307 0,-23.66157 16.96824,-42.84306 37.89963,-42.84306 20.93139,0 37.89964,19.18149 37.89964,42.84306 z"
       transform="matrix(0.38157797,0,0,0.33754974,249.50018,641.75746)" />
    <path
       sodipodi:type="arc"
       style="fill:#000000;fill-opacity:1;stroke:#000000;stroke-width:3;stroke-miterlimit:4;stroke-opacity:1;stroke-dasharray:none;stroke-dashoffset:0"
       id="path2998"
       sodipodi:cx="293.31021"
       sodipodi:cy="441.72131"
       sodipodi:rx="37.899635"
       sodipodi:ry="42.843067"
       d="m 331.20985,441.72131 c 0,23.66158 -16.96825,42.84307 -37.89964,42.84307 -20.93139,0 -37.89963,-19.18149 -37.89963,-42.84307 0,-23.66157 16.96824,-42.84306 37.89963,-42.84306 20.93139,0 37.89964,19.18149 37.89964,42.84306 z"
       transform="matrix(0.38157797,0,0,0.33754974,-49.22388,939.76585)" />
    <text
       sodipodi:linespacing="125%"
       id="text3000"
       y="1126.3622"
       x="194.52399"
       style="font-size:40px;font-style:normal;font-variant:normal;font-weight:bold;font-stretch:normal;text-align:start;line-height:125%;writing-mode:lr-tb;text-anchor:start;fill:#000000;fill-opacity:1;stroke:none;font-family:Bitstream Vera Sans;-inkscape-font-specification:Bitstream Vera Sans Bold"
       xml:space="preserve"><tspan
         y="1126.3622"
         x="194.52399"
         id="tspan3002"
         sodipodi:role="line">A</tspan></text>
    <text
       xml:space="preserve"
       style="font-size:40px;font-style:normal;font-variant:normal;font-weight:bold;font-stretch:normal;text-align:start;line-height:125%;writing-mode:lr-tb;text-anchor:start;fill:#000000;fill-opacity:1;stroke:none;font-family:Bitstream Vera Sans;-inkscape-font-specification:Bitstream Vera Sans Bold"
       x="27.082764"
       y="956.93982"
       id="text3004"
       sodipodi:linespacing="125%"><tspan
         sodipodi:role="line"
         id="tspan3006"
         x="27.082764"
         y="956.93982">B</tspan></text>
    <path
       id="path3008"
       d="M 58.778781,1093.5834 402.97726,749.38492"
       style="fill:none;stroke:#000000;stroke-width:2;stroke-linecap:butt;stroke-linejoin:miter;stroke-miterlimit:4;stroke-opacity:1;stroke-dasharray:8,8;stroke-dashoffset:0" />
    <path
       style="fill:none;stroke:#000000;stroke-width:2;stroke-linecap:butt;stroke-linejoin:miter;stroke-miterlimit:4;stroke-opacity:1;stroke-dasharray:8, 8;stroke-dashoffset:0"
       d="m 697.06947,450.86467 259.00173,0"
       id="path3806" />
    <path
       sodipodi:type="arc"
       style="fill:#000000;fill-opacity:1;stroke:#000000;stroke-width:3;stroke-miterlimit:4;stroke-opacity:1;stroke-dasharray:none;stroke-dashoffset:0"
       id="path2898"
       sodipodi:cx="293.31021"
       sodipodi:cy="441.72131"
       sodipodi:rx="37.899635"
       sodipodi:ry="42.843067"
       d="m 331.20985,441.72131 a 37.899635,42.843067 0 1 1 -75.79927,0 37.899635,42.843067 0 1 1 75.79927,0 z"
       transform="matrix(0.38157797,0,0,0.33754974,540.26579,761.07745)" />
    <path
       sodipodi:type="arc"
       style="fill:#ffffff;fill-opacity:1;stroke:#000000;stroke-width:13.93187141;stroke-miterlimit:4;stroke-opacity:1;stroke-dasharray:none;stroke-dashoffset:0"
       id="path2900"
       sodipodi:cx="293.31021"
       sodipodi:cy="441.72131"
       sodipodi:rx="37.899635"
       sodipodi:ry="42.843067"
       d="m 331.20985,441.72131 a 37.899635,42.843067 0 1 1 -75.79927,0 37.899635,42.843067 0 1 1 75.79927,0 z"
       transform="matrix(0.38157797,0,0,0.33754974,540.26579,817.57564)" />
    <text
       xml:space="preserve"
       style="font-size:30px;font-style:normal;font-variant:normal;font-weight:normal;font-stretch:normal;text-align:start;line-height:125%;writing-mode:lr-tb;text-anchor:start;fill:#000000;fill-opacity:1;stroke:none;font-family:Bitstream Vera Sans;-inkscape-font-specification:Bitstream Vera Sans"
       x="677.88635"
       y="919.86218"
       id="text2902"
       sodipodi:linespacing="125%"><tspan
         sodipodi:role="line"
         id="tspan2904"
         x="677.88635"
         y="919.86218">Half-fraction runs</tspan></text>
    <text
       sodipodi:linespacing="125%"
       id="text2906"
       y="979.86218"
       x="677.88635"
       style="font-size:30px;font-style:normal;font-variant:normal;font-weight:normal;font-stretch:normal;text-align:start;line-height:125%;writing-mode:lr-tb;text-anchor:start;fill:#000000;fill-opacity:1;stroke:none;font-family:Bitstream Vera Sans;-inkscape-font-specification:Bitstream Vera Sans"
       xml:space="preserve"><tspan
         y="979.86218"
         x="677.88635"
         id="tspan2908"
         sodipodi:role="line">Experiments not run</tspan></text>
    <path
       style="fill:none;stroke:#000000;stroke-width:2;stroke-linecap:butt;stroke-linejoin:miter;stroke-miterlimit:4;stroke-opacity:1;stroke-dasharray:8, 8;stroke-dashoffset:0"
       d="m 701.49751,229.5768 0,202.6969"
       id="path3682" />
    <path
       id="path3684"
       d="m 401.49751,233.5768 0,202.6969"
       style="fill:none;stroke:#000000;stroke-width:2;stroke-linecap:butt;stroke-linejoin:miter;stroke-miterlimit:4;stroke-opacity:1;stroke-dasharray:8, 8;stroke-dashoffset:0" />
    <path
       style="fill:none;stroke:#000000;stroke-width:2;stroke-linecap:butt;stroke-linejoin:miter;stroke-miterlimit:4;stroke-opacity:1;stroke-dasharray:8, 8;stroke-dashoffset:0"
       d="m 541.49751,93.5768 0,202.6969"
       id="path3686" />
  </g>
</svg>
