<?xml version="1.0" encoding="UTF-8" standalone="no"?>
<!-- Created with Inkscape (http://www.inkscape.org/) -->

<svg
   xmlns:dc="http://purl.org/dc/elements/1.1/"
   xmlns:cc="http://creativecommons.org/ns#"
   xmlns:rdf="http://www.w3.org/1999/02/22-rdf-syntax-ns#"
   xmlns:svg="http://www.w3.org/2000/svg"
   xmlns="http://www.w3.org/2000/svg"
   xmlns:sodipodi="http://sodipodi.sourceforge.net/DTD/sodipodi-0.dtd"
   xmlns:inkscape="http://www.inkscape.org/namespaces/inkscape"
   width="744.09448819"
   height="1052.3622047"
   id="svg2"
   version="1.1"
   inkscape:version="0.47 r22583"
   sodipodi:docname="two-factors-with-constraint.svg">
  <defs
     id="defs4">
    <marker
       inkscape:stockid="Arrow1Mstart"
       orient="auto"
       refY="0.0"
       refX="0.0"
       id="Arrow1Mstart"
       style="overflow:visible">
      <path
         id="path3669"
         d="M 0.0,0.0 L 5.0,-5.0 L -12.5,0.0 L 5.0,5.0 L 0.0,0.0 z "
         style="fill-rule:evenodd;stroke:#000000;stroke-width:1.0pt;marker-start:none"
         transform="scale(0.4) translate(10,0)" />
    </marker>
    <inkscape:perspective
       sodipodi:type="inkscape:persp3d"
       inkscape:vp_x="0 : 526.18109 : 1"
       inkscape:vp_y="0 : 1000 : 0"
       inkscape:vp_z="744.09448 : 526.18109 : 1"
       inkscape:persp3d-origin="372.04724 : 350.78739 : 1"
       id="perspective10" />
  </defs>
  <sodipodi:namedview
     id="base"
     pagecolor="#ffffff"
     bordercolor="#666666"
     borderopacity="1.0"
     inkscape:pageopacity="0.0"
     inkscape:pageshadow="2"
     inkscape:zoom="1.607425"
     inkscape:cx="348.25377"
     inkscape:cy="434.57568"
     inkscape:document-units="px"
     inkscape:current-layer="layer1"
     showgrid="false"
     inkscape:window-width="1440"
     inkscape:window-height="796"
     inkscape:window-x="0"
     inkscape:window-y="0"
     inkscape:window-maximized="0" />
  <metadata
     id="metadata7">
    <rdf:RDF>
      <cc:Work
         rdf:about="">
        <dc:format>image/svg+xml</dc:format>
        <dc:type
           rdf:resource="http://purl.org/dc/dcmitype/StillImage" />
        <dc:title></dc:title>
      </cc:Work>
    </rdf:RDF>
  </metadata>
  <g
     inkscape:label="Layer 1"
     inkscape:groupmode="layer"
     id="layer1">
    <rect
       style="fill:none;stroke:#000000;stroke-width:5.20952082;stroke-miterlimit:4;stroke-opacity:1;stroke-dasharray:none;stroke-dashoffset:0"
       id="rect2816"
       width="294.79047"
       height="294.79047"
       x="102.60476"
       y="454.96695" />
    <path
       sodipodi:type="arc"
       style="fill:#000000;fill-opacity:1;stroke:none"
       id="path3590"
       sodipodi:cx="151.96912"
       sodipodi:cy="370.35446"
       sodipodi:rx="13.590734"
       sodipodi:ry="14.826255"
       d="m 165.55985,370.35446 a 13.590734,14.826255 0 1 1 -27.18147,0 13.590734,14.826255 0 1 1 27.18147,0 z"
       transform="matrix(0.91974432,0,0,0.84309896,-37.272732,142.61672)" />
    <path
       transform="matrix(0.91974432,0,0,0.84309896,257.72727,142.61672)"
       d="m 165.55985,370.35446 a 13.590734,14.826255 0 1 1 -27.18147,0 13.590734,14.826255 0 1 1 27.18147,0 z"
       sodipodi:ry="14.826255"
       sodipodi:rx="13.590734"
       sodipodi:cy="370.35446"
       sodipodi:cx="151.96912"
       id="path3592"
       style="fill:#ffffff;fill-opacity:1;stroke:#000000;stroke-width:5.67802330000000044;stroke-miterlimit:4;stroke-dasharray:none;stroke-opacity:1"
       sodipodi:type="arc" />
    <path
       sodipodi:type="arc"
       style="fill:#000000;fill-opacity:1;stroke:none"
       id="path3594"
       sodipodi:cx="151.96912"
       sodipodi:cy="370.35446"
       sodipodi:rx="13.590734"
       sodipodi:ry="14.826255"
       d="m 165.55985,370.35446 a 13.590734,14.826255 0 1 1 -27.18147,0 13.590734,14.826255 0 1 1 27.18147,0 z"
       transform="matrix(0.91974432,0,0,0.84309896,257.72727,437.61672)" />
    <path
       transform="matrix(0.91974432,0,0,0.84309896,-37.272731,437.61672)"
       d="m 165.55985,370.35446 a 13.590734,14.826255 0 1 1 -27.18147,0 13.590734,14.826255 0 1 1 27.18147,0 z"
       sodipodi:ry="14.826255"
       sodipodi:rx="13.590734"
       sodipodi:cy="370.35446"
       sodipodi:cx="151.96912"
       id="path3596"
       style="fill:#000000;fill-opacity:1;stroke:none"
       sodipodi:type="arc" />
    <path
       style="fill:#ffccaa;fill-opacity:0.66115699;stroke:none"
       d="m 330.05508,506.46803 c -35.22184,-25.11483 -64.84581,-46.22916 -65.83103,-46.92074 -1.54563,-1.08495 6.44556,-1.26386 58.26191,-1.3044 l 60.05323,-0.047 1.11754,3.09049 c 1.24844,3.45251 5.41562,7.37434 8.71578,8.20263 l 2.17012,0.54466 0,41.10328 c 0,22.60681 -0.10076,41.07879 -0.22391,41.04884 -0.12316,-0.0299 -29.04179,-20.60294 -64.26364,-45.71778 z"
       id="path3616" />
    <path
       transform="matrix(0.91974432,0,0,0.84309896,120.72727,142.61672)"
       d="m 165.55985,370.35446 a 13.590734,14.826255 0 1 1 -27.18147,0 13.590734,14.826255 0 1 1 27.18147,0 z"
       sodipodi:ry="14.826255"
       sodipodi:rx="13.590734"
       sodipodi:cy="370.35446"
       sodipodi:cx="151.96912"
       id="path3618"
       style="fill:#000000;fill-opacity:1;stroke:none"
       sodipodi:type="arc" />
    <path
       sodipodi:type="arc"
       style="fill:#000000;fill-opacity:1;stroke:none"
       id="path3620"
       sodipodi:cx="151.96912"
       sodipodi:cy="370.35446"
       sodipodi:rx="13.590734"
       sodipodi:ry="14.826255"
       d="m 165.55985,370.35446 a 13.590734,14.826255 0 1 1 -27.18147,0 13.590734,14.826255 0 1 1 27.18147,0 z"
       transform="matrix(0.91974432,0,0,0.84309896,257.72727,238.97511)" />
    <text
       xml:space="preserve"
       style="font-size:24px;font-style:normal;font-variant:normal;font-weight:bold;font-stretch:normal;text-align:start;line-height:125%;writing-mode:lr-tb;text-anchor:start;fill:#000000;fill-opacity:1;stroke:none;font-family:Bitstream Vera Sans;-inkscape-font-specification:Bitstream Vera Sans Bold"
       x="164.17188"
       y="774.19"
       id="text3622"
       sodipodi:linespacing="125%"><tspan
         sodipodi:role="line"
         id="tspan3624"
         x="164.17188"
         y="774.19">Temperature</tspan></text>
    <text
       sodipodi:linespacing="125%"
       id="text3632"
       y="88.035339"
       x="-697.84656"
       style="font-size:24px;font-style:normal;font-variant:normal;font-weight:bold;font-stretch:normal;text-align:start;line-height:125%;writing-mode:lr-tb;text-anchor:start;fill:#000000;fill-opacity:1;stroke:none;font-family:Bitstream Vera Sans;-inkscape-font-specification:Bitstream Vera Sans Bold"
       xml:space="preserve"
       transform="matrix(0,-1,1,0,0,0)"><tspan
         sodipodi:role="line"
         id="tspan3636"
         x="-697.84656"
         y="88.035339">Concentration</tspan></text>
    <text
       xml:space="preserve"
       style="font-size:24px;font-style:normal;font-variant:normal;font-weight:normal;font-stretch:normal;text-align:start;line-height:125%;writing-mode:lr-tb;text-anchor:start;fill:#000000;fill-opacity:1;stroke:none;font-family:Bitstream Vera Sans;-inkscape-font-specification:Bitstream Vera Sans"
       x="370.42395"
       y="795.37097"
       id="text3638"
       sodipodi:linespacing="125%"><tspan
         id="tspan3640"
         sodipodi:role="line"
         x="370.42395"
         y="795.37097">475K</tspan></text>
    <text
       sodipodi:linespacing="125%"
       id="text3642"
       y="795.37097"
       x="70.42395"
       style="font-size:24px;font-style:normal;font-variant:normal;font-weight:normal;font-stretch:normal;text-align:start;line-height:125%;writing-mode:lr-tb;text-anchor:start;fill:#000000;fill-opacity:1;stroke:none;font-family:Bitstream Vera Sans;-inkscape-font-specification:Bitstream Vera Sans"
       xml:space="preserve"><tspan
         sodipodi:role="line"
         id="tspan3646"
         x="70.42395"
         y="795.37097">425K</tspan></text>
    <text
       xml:space="preserve"
       style="font-size:24px;font-style:normal;font-variant:normal;font-weight:normal;font-stretch:normal;text-align:start;line-height:125%;writing-mode:lr-tb;text-anchor:start;fill:#000000;fill-opacity:1;stroke:none;font-family:Bitstream Vera Sans;-inkscape-font-specification:Bitstream Vera Sans"
       x="7.2770972"
       y="748.46802"
       id="text3648"
       sodipodi:linespacing="125%"><tspan
         id="tspan3650"
         sodipodi:role="line"
         x="7.2770972"
         y="748.46802">Low</tspan></text>
    <text
       sodipodi:linespacing="100%"
       id="text3652"
       y="461.48813"
       x="7.2770972"
       style="font-size:24px;font-style:normal;font-variant:normal;font-weight:normal;font-stretch:normal;text-align:start;line-height:100%;writing-mode:lr;text-anchor:start;fill:#000000;fill-opacity:1;stroke:none;font-family:Bitstream Vera Sans;-inkscape-font-specification:Bitstream Vera Sans"
       xml:space="preserve"><tspan
         sodipodi:role="line"
         id="tspan3656">High</tspan></text>
    <path
       style="fill:none;stroke:#000000;stroke-width:2;stroke-linecap:butt;stroke-linejoin:miter;stroke-miterlimit:4;stroke-opacity:1;stroke-dasharray:none;marker-start:url(#Arrow1Mstart)"
       d="m 359.30473,500.94019 c 8.34681,-6.22122 16.86558,-13.7817 25.38056,-17.47161 4.20314,-1.82143 8.44513,-2.98885 12.69028,-3.49434 5.54744,-0.66054 11.10399,0 16.65599,0 4.23009,0 8.46019,0 12.69028,0 4.89105,0 9.78209,0 14.67314,0 1.58628,0 3.17257,0 4.75886,0 0.79314,0 1.55034,0.0143 2.37942,0 7.88083,-0.13555 8.89909,12.30343 9.29566,11.91525"
       id="path3658"
       sodipodi:nodetypes="csssssssc" />
    <text
       xml:space="preserve"
       style="font-size:18px;font-style:normal;font-variant:normal;font-weight:normal;font-stretch:normal;text-align:start;line-height:125%;writing-mode:lr-tb;text-anchor:start;fill:#000000;fill-opacity:1;stroke:none;font-family:Bitstream Vera Sans;-inkscape-font-specification:Bitstream Vera Sans"
       x="403.75131"
       y="507.3912"
       id="text4108"
       sodipodi:linespacing="125%"><tspan
         sodipodi:role="line"
         x="403.75131"
         y="507.3912"
         id="tspan4112">Constraint</tspan></text>
    <path
       sodipodi:type="arc"
       style="fill:#ffffff;fill-opacity:1;stroke:#000000;stroke-width:5.67802330000000044;stroke-miterlimit:4;stroke-dasharray:none;stroke-opacity:1"
       id="path4137"
       sodipodi:cx="151.96912"
       sodipodi:cy="370.35446"
       sodipodi:rx="13.590734"
       sodipodi:ry="14.826255"
       d="m 165.55985,370.35446 a 13.590734,14.826255 0 1 1 -27.18147,0 13.590734,14.826255 0 1 1 27.18147,0 z"
       transform="matrix(0.91974432,0,0,0.84309896,257.72727,142.61672)" />
    <path
       style="fill:#ff5555;fill-opacity:0.66115699;stroke:none"
       id="path4157"
       d="m 390.66449,441.44035 c 6.70225,8.73867 15.49096,15.55071 24.06716,22.33337 0,0 -9.30885,5.84966 -9.30885,5.84966 l 0,0 c -8.73902,-7.01567 -17.57215,-13.95473 -25.69115,-21.69495 0,0 10.93284,-6.48808 10.93284,-6.48808 z" />
    <path
       d="m 383.14013,462.09901 c 8.73867,-6.70224 15.55071,-15.49095 22.33337,-24.06714 0,0 5.84966,9.30885 5.84966,9.30885 l 0,0 c -7.01567,8.73901 -13.95473,17.57214 -21.69495,25.69115 0,0 -6.48808,-10.93286 -6.48808,-10.93286 z"
       id="path4159"
       style="fill:#ff5555;fill-opacity:0.66115699;stroke:none" />
  </g>
</svg>
