<?xml version="1.0" encoding="UTF-8" standalone="no"?>
<!-- Created with Inkscape (http://www.inkscape.org/) -->

<svg
   xmlns:dc="http://purl.org/dc/elements/1.1/"
   xmlns:cc="http://creativecommons.org/ns#"
   xmlns:rdf="http://www.w3.org/1999/02/22-rdf-syntax-ns#"
   xmlns:svg="http://www.w3.org/2000/svg"
   xmlns="http://www.w3.org/2000/svg"
   xmlns:xlink="http://www.w3.org/1999/xlink"
   xmlns:sodipodi="http://sodipodi.sourceforge.net/DTD/sodipodi-0.dtd"
   xmlns:inkscape="http://www.inkscape.org/namespaces/inkscape"
   width="1052.3622"
   height="744.09448"
   id="svg2"
   version="1.1"
   inkscape:version="0.47 r22583"
   sodipodi:docname="geometric-interpretation-of-PLS.svg"
   enable-background="new"
   inkscape:export-xdpi="300"
   inkscape:export-ydpi="300">
  <sodipodi:namedview
     id="base"
     pagecolor="#ffffff"
     bordercolor="#666666"
     borderopacity="1.0"
     inkscape:pageopacity="0.0"
     inkscape:pageshadow="2"
     inkscape:zoom="0.89345016"
     inkscape:cx="655.94358"
     inkscape:cy="565.14219"
     inkscape:document-units="px"
     inkscape:current-layer="g6420"
     showgrid="false"
     inkscape:window-width="1440"
     inkscape:window-height="796"
     inkscape:window-x="0"
     inkscape:window-y="0"
     inkscape:window-maximized="0" />
  <defs
     id="defs4">
    <marker
       style="overflow:visible;"
       id="Arrow1Mend"
       refX="0.0"
       refY="0.0"
       orient="auto"
       inkscape:stockid="Arrow1Mend">
      <path
         transform="scale(0.4) rotate(180) translate(10,0)"
         style="fill-rule:evenodd;stroke:#000000;stroke-width:1.0pt;marker-start:none;"
         d="M 0.0,0.0 L 5.0,-5.0 L -12.5,0.0 L 5.0,5.0 L 0.0,0.0 z "
         id="path3602" />
    </marker>
    <inkscape:perspective
       id="perspective10"
       inkscape:persp3d-origin="372.04724 : 350.78739 : 1"
       inkscape:vp_z="744.09448 : 526.18109 : 1"
       inkscape:vp_y="0 : 1000 : 0"
       inkscape:vp_x="0 : 526.18109 : 1"
       sodipodi:type="inkscape:persp3d" />
    <marker
       style="overflow:visible;"
       id="Arrow1Mend7"
       refX="0.0"
       refY="0.0"
       orient="auto"
       inkscape:stockid="Arrow1Mend7">
      <path
         transform="scale(0.4) rotate(180) translate(10,0)"
         style="marker-start:none;stroke:#f56912;stroke-width:1.0pt;fill:#f56912;fill-rule:evenodd"
         d="M 0.0,0.0 L 5.0,-5.0 L -12.5,0.0 L 5.0,5.0 L 0.0,0.0 z "
         id="path4059" />
    </marker>
    <marker
       style="overflow:visible;"
       id="Arrow1Mend7a"
       refX="0.0"
       refY="0.0"
       orient="auto"
       inkscape:stockid="Arrow1Mend7a">
      <path
         transform="scale(0.4) rotate(180) translate(10,0)"
         style="fill-rule:evenodd;marker-start:none;stroke:#4e009e;stroke-width:1.0pt;fill:#4e009e"
         d="M 0.0,0.0 L 5.0,-5.0 L -12.5,0.0 L 5.0,5.0 L 0.0,0.0 z "
         id="path4267" />
    </marker>
    <marker
       style="overflow:visible;"
       id="Arrow1Mend7D"
       refX="0.0"
       refY="0.0"
       orient="auto"
       inkscape:stockid="Arrow1Mend7D">
      <path
         transform="scale(0.4) rotate(180) translate(10,0)"
         style="fill-rule:evenodd;marker-start:none;stroke:#4e009e;stroke-width:1.0pt;fill:#4e009e"
         d="M 0.0,0.0 L 5.0,-5.0 L -12.5,0.0 L 5.0,5.0 L 0.0,0.0 z "
         id="path4478" />
    </marker>
  </defs>
  <metadata
     id="metadata7">
    <rdf:RDF>
      <cc:Work
         rdf:about="">
        <dc:format>image/svg+xml</dc:format>
        <dc:type
           rdf:resource="http://purl.org/dc/dcmitype/StillImage" />
        <dc:title></dc:title>
      </cc:Work>
    </rdf:RDF>
  </metadata>
  <g
     style="display:inline"
     transform="translate(0,-308.2677)"
     id="g6470"
     inkscape:groupmode="layer"
     inkscape:label="All points - 2">
    <path
       sodipodi:type="arc"
       style="fill:#2f7eb4;fill-opacity:1;fill-rule:nonzero;stroke:none;stroke-width:1.67974794;marker-start:none;marker-mid:none"
       id="path6532"
       sodipodi:cx="321.55823"
       sodipodi:cy="234.58609"
       sodipodi:rx="15.117731"
       sodipodi:ry="15.117731"
       d="m 336.67596,234.58609 c 0,8.34929 -6.76844,15.11773 -15.11773,15.11773 -8.34929,0 -15.11773,-6.76844 -15.11773,-15.11773 0,-8.34929 6.76844,-15.11773 15.11773,-15.11773 8.34929,0 15.11773,6.76844 15.11773,15.11773 z"
       transform="matrix(0.58953374,0.08285357,0.08285357,-0.58953374,669.92229,663.3582)" />
    <path
       transform="matrix(0.58953374,0.08285357,0.08285357,-0.58953374,431.42731,646.95908)"
       d="m 336.67596,234.58609 c 0,8.34929 -6.76844,15.11773 -15.11773,15.11773 -8.34929,0 -15.11773,-6.76844 -15.11773,-15.11773 0,-8.34929 6.76844,-15.11773 15.11773,-15.11773 8.34929,0 15.11773,6.76844 15.11773,15.11773 z"
       sodipodi:ry="15.117731"
       sodipodi:rx="15.117731"
       sodipodi:cy="234.58609"
       sodipodi:cx="321.55823"
       id="path6490"
       style="fill:#2f7eb4;fill-opacity:1;fill-rule:nonzero;stroke:none;stroke-width:1.67974794;marker-start:none;marker-mid:none"
       sodipodi:type="arc" />
    <path
       transform="matrix(0.58953374,0.08285357,0.08285357,-0.58953374,455.95875,713.4554)"
       d="m 336.67596,234.58609 c 0,8.34929 -6.76844,15.11773 -15.11773,15.11773 -8.34929,0 -15.11773,-6.76844 -15.11773,-15.11773 0,-8.34929 6.76844,-15.11773 15.11773,-15.11773 8.34929,0 15.11773,6.76844 15.11773,15.11773 z"
       sodipodi:ry="15.117731"
       sodipodi:rx="15.117731"
       sodipodi:cy="234.58609"
       sodipodi:cx="321.55823"
       id="path6518"
       style="fill:#2f7eb4;fill-opacity:1;fill-rule:nonzero;stroke:none;stroke-width:1.67974794;marker-start:none;marker-mid:none"
       sodipodi:type="arc" />
    <path
       sodipodi:type="arc"
       style="fill:#2f7eb4;fill-opacity:1;fill-rule:nonzero;stroke:none;stroke-width:1.67974794;marker-start:none;marker-mid:none"
       id="path6534"
       sodipodi:cx="321.55823"
       sodipodi:cy="234.58609"
       sodipodi:rx="15.117731"
       sodipodi:ry="15.117731"
       d="m 336.67596,234.58609 c 0,8.34929 -6.76844,15.11773 -15.11773,15.11773 -8.34929,0 -15.11773,-6.76844 -15.11773,-15.11773 0,-8.34929 6.76844,-15.11773 15.11773,-15.11773 8.34929,0 15.11773,6.76844 15.11773,15.11773 z"
       transform="matrix(0.58953374,0.08285357,0.08285357,-0.58953374,381.06467,559.30355)" />
  </g>
  <g
     style="display:none"
     transform="translate(0,-308.2677)"
     id="layer1"
     inkscape:groupmode="layer"
     inkscape:label="Axis-initial position">
    <path
       id="path2816"
       d="m 502,682.43397 0,-295.13132"
       style="fill:none;stroke:#000000;stroke-width:3;stroke-linecap:butt;stroke-linejoin:miter;stroke-miterlimit:4;stroke-opacity:1;stroke-dasharray:none;marker-end:url(#Arrow1Mend)" />
    <path
       style="fill:none;stroke:#000000;stroke-width:3;stroke-linecap:butt;stroke-linejoin:miter;stroke-miterlimit:4;stroke-opacity:1;stroke-dasharray:none;marker-end:url(#Arrow1Mend)"
       d="M 502.68287,681.5487 247.09165,829.11436"
       id="path4038" />
    <path
       id="path4040"
       d="M 502.53258,681.53524 758.1238,829.1009"
       style="fill:none;stroke:#000000;stroke-width:3;stroke-linecap:butt;stroke-linejoin:miter;stroke-miterlimit:4;stroke-opacity:1;stroke-dasharray:none;marker-end:url(#Arrow1Mend)" />
    <text
       sodipodi:linespacing="125%"
       id="text4044"
       y="848.36218"
       x="774"
       style="font-size:40px;font-style:italic;font-variant:normal;font-weight:normal;font-stretch:normal;text-align:start;line-height:125%;writing-mode:lr-tb;text-anchor:start;fill:#000000;fill-opacity:1;stroke:none;font-family:Times New Roman;-inkscape-font-specification:'Times New Roman, Italic'"
       xml:space="preserve"><tspan
         y="848.36218"
         x="774"
         id="tspan4046"
         sodipodi:role="line">x</tspan></text>
    <text
       xml:space="preserve"
       style="font-size:20px;font-style:normal;font-variant:normal;font-weight:normal;font-stretch:normal;text-align:start;line-height:125%;writing-mode:lr-tb;text-anchor:start;fill:#000000;fill-opacity:1;stroke:none;font-family:Times New Roman;-inkscape-font-specification:'Times New Roman,'"
       x="791.50842"
       y="857.69232"
       id="text4048"
       sodipodi:linespacing="125%"><tspan
         y="857.69232"
         x="791.50842"
         id="tspan4052"
         sodipodi:role="line">1</tspan></text>
    <text
       xml:space="preserve"
       style="font-size:40px;font-style:italic;font-variant:normal;font-weight:normal;font-stretch:normal;text-align:start;line-height:125%;writing-mode:lr-tb;text-anchor:start;fill:#000000;fill-opacity:1;stroke:none;font-family:Times New Roman;-inkscape-font-specification:'Times New Roman, Italic'"
       x="219.39502"
       y="848.36218"
       id="text4054"
       sodipodi:linespacing="125%"><tspan
         sodipodi:role="line"
         id="tspan4056"
         x="219.39502"
         y="848.36218">x</tspan></text>
    <text
       sodipodi:linespacing="125%"
       id="text4058"
       y="857.69232"
       x="236.90344"
       style="font-size:20px;font-style:normal;font-variant:normal;font-weight:normal;font-stretch:normal;text-align:start;line-height:125%;writing-mode:lr-tb;text-anchor:start;fill:#000000;fill-opacity:1;stroke:none;font-family:Times New Roman;-inkscape-font-specification:'Times New Roman,'"
       xml:space="preserve"><tspan
         y="857.69232"
         x="236.90344"
         id="tspan4062"
         sodipodi:role="line">2</tspan></text>
    <text
       sodipodi:linespacing="125%"
       id="text4064"
       y="364.70511"
       x="494.53445"
       style="font-size:40px;font-style:italic;font-variant:normal;font-weight:normal;font-stretch:normal;text-align:start;line-height:125%;writing-mode:lr-tb;text-anchor:start;fill:#000000;fill-opacity:1;stroke:none;font-family:Times New Roman;-inkscape-font-specification:'Times New Roman, Italic'"
       xml:space="preserve"><tspan
         y="364.70511"
         x="494.53445"
         id="tspan4066"
         sodipodi:role="line">x</tspan></text>
    <text
       xml:space="preserve"
       style="font-size:20px;font-style:normal;font-variant:normal;font-weight:normal;font-stretch:normal;text-align:start;line-height:125%;writing-mode:lr-tb;text-anchor:start;fill:#000000;fill-opacity:1;stroke:none;font-family:Times New Roman;-inkscape-font-specification:'Times New Roman,'"
       x="512.04291"
       y="374.03525"
       id="text4068"
       sodipodi:linespacing="125%"><tspan
         y="374.03525"
         x="512.04291"
         id="tspan4072"
         sodipodi:role="line">3</tspan></text>
  </g>
  <g
     style="display:inline"
     inkscape:label="Plane"
     id="layer4"
     inkscape:groupmode="layer">
    <rect
       ry="0"
       transform="matrix(0.93292468,-0.36007158,0.52142983,0.85329416,0,0)"
       y="310.00882"
       x="165.47681"
       height="221.89494"
       width="496.71527"
       id="rect6537"
       style="fill:none;stroke:#f56912;stroke-width:3.02861476;stroke-miterlimit:4;stroke-opacity:1;stroke-dasharray:6.05722956, 6.05722956;stroke-dashoffset:0" />
  </g>
  <g
     inkscape:label="Axis-centered"
     inkscape:groupmode="layer"
     id="g5997"
     transform="translate(0,-308.2677)"
     style="display:inline">
    <path
       style="fill:none;stroke:#000000;stroke-width:3;stroke-linecap:butt;stroke-linejoin:miter;stroke-miterlimit:4;stroke-opacity:1;stroke-dasharray:none;marker-end:url(#Arrow1Mend)"
       d="m 622.05824,515.94833 0,-295.13132"
       id="path5999" />
    <path
       id="path6001"
       d="M 622.74111,515.06306 367.14989,662.62872"
       style="fill:none;stroke:#000000;stroke-width:3;stroke-linecap:butt;stroke-linejoin:miter;stroke-miterlimit:4;stroke-opacity:1;stroke-dasharray:none;marker-end:url(#Arrow1Mend)" />
    <path
       style="fill:none;stroke:#000000;stroke-width:3;stroke-linecap:butt;stroke-linejoin:miter;stroke-miterlimit:4;stroke-opacity:1;stroke-dasharray:none;marker-end:url(#Arrow1Mend)"
       d="M 622.59082,515.0496 878.18204,662.61526"
       id="path6003" />
    <text
       xml:space="preserve"
       style="font-size:40px;font-style:italic;font-variant:normal;font-weight:normal;font-stretch:normal;text-align:start;line-height:125%;writing-mode:lr-tb;text-anchor:start;fill:#000000;fill-opacity:1;stroke:none;font-family:Times New Roman;-inkscape-font-specification:'Times New Roman, Italic'"
       x="894.05823"
       y="681.87653"
       id="text6005"
       sodipodi:linespacing="125%"><tspan
         sodipodi:role="line"
         id="tspan6007"
         x="894.05823"
         y="681.87653">x</tspan></text>
    <text
       sodipodi:linespacing="125%"
       id="text6009"
       y="691.20667"
       x="911.56665"
       style="font-size:20px;font-style:normal;font-variant:normal;font-weight:normal;font-stretch:normal;text-align:start;line-height:125%;writing-mode:lr-tb;text-anchor:start;fill:#000000;fill-opacity:1;stroke:none;font-family:Times New Roman;-inkscape-font-specification:'Times New Roman,'"
       xml:space="preserve"><tspan
         sodipodi:role="line"
         id="tspan6011"
         x="911.56665"
         y="691.20667">1</tspan></text>
    <text
       sodipodi:linespacing="125%"
       id="text6013"
       y="681.87653"
       x="339.45325"
       style="font-size:40px;font-style:italic;font-variant:normal;font-weight:normal;font-stretch:normal;text-align:start;line-height:125%;writing-mode:lr-tb;text-anchor:start;fill:#000000;fill-opacity:1;stroke:none;font-family:Times New Roman;-inkscape-font-specification:'Times New Roman, Italic'"
       xml:space="preserve"><tspan
         y="681.87653"
         x="339.45325"
         id="tspan6015"
         sodipodi:role="line">x</tspan></text>
    <text
       xml:space="preserve"
       style="font-size:20px;font-style:normal;font-variant:normal;font-weight:normal;font-stretch:normal;text-align:start;line-height:125%;writing-mode:lr-tb;text-anchor:start;fill:#000000;fill-opacity:1;stroke:none;font-family:Times New Roman;-inkscape-font-specification:'Times New Roman,'"
       x="356.96167"
       y="691.20667"
       id="text6017"
       sodipodi:linespacing="125%"><tspan
         sodipodi:role="line"
         id="tspan6019"
         x="356.96167"
         y="691.20667">2</tspan></text>
    <text
       xml:space="preserve"
       style="font-size:40px;font-style:italic;font-variant:normal;font-weight:normal;font-stretch:normal;text-align:start;line-height:125%;writing-mode:lr-tb;text-anchor:start;fill:#000000;fill-opacity:1;stroke:none;font-family:Times New Roman;-inkscape-font-specification:'Times New Roman, Italic'"
       x="614.59271"
       y="198.21947"
       id="text6021"
       sodipodi:linespacing="125%"><tspan
         sodipodi:role="line"
         id="tspan6023"
         x="614.59271"
         y="198.21947">x</tspan></text>
    <text
       sodipodi:linespacing="125%"
       id="text6025"
       y="207.54961"
       x="632.10114"
       style="font-size:20px;font-style:normal;font-variant:normal;font-weight:normal;font-stretch:normal;text-align:start;line-height:125%;writing-mode:lr-tb;text-anchor:start;fill:#000000;fill-opacity:1;stroke:none;font-family:Times New Roman;-inkscape-font-specification:'Times New Roman,'"
       xml:space="preserve"><tspan
         sodipodi:role="line"
         id="tspan6027"
         x="632.10114"
         y="207.54961">3</tspan></text>
  </g>
  <g
     style="display:inline"
     inkscape:label="Point-to-1st component"
     id="layer3"
     inkscape:groupmode="layer">
    <path
       id="path6046"
       d="m 370.52917,250.74862 2.75589,56.72279"
       style="fill:none;stroke:#005a00;stroke-width:3;stroke-linecap:butt;stroke-linejoin:miter;stroke-miterlimit:4;stroke-opacity:1;stroke-dasharray:none;marker-start:none" />
    <path
       style="fill:none;stroke:#005a00;stroke-width:3;stroke-linecap:butt;stroke-linejoin:miter;stroke-miterlimit:4;stroke-opacity:1;stroke-dasharray:none"
       d="m 388.29829,300.85831 -0.94643,-17.98203 -15.60106,5.56646"
       id="path6048" />
    <path
       sodipodi:nodetypes="cc"
       style="fill:none;stroke:#005a00;stroke-width:2.83000755;stroke-linecap:butt;stroke-linejoin:miter;stroke-miterlimit:4;stroke-opacity:1;stroke-dasharray:none;marker-start:none"
       d="M 874.71796,236.47845 815.0536,134.19162"
       id="path3681" />
    <path
       sodipodi:nodetypes="ccc"
       id="path3683"
       d="m 822.47184,147.9323 15.12995,-6.21136 -8.07264,-13.91919"
       style="fill:none;stroke:#005a00;stroke-width:3;stroke-linecap:butt;stroke-linejoin:miter;stroke-miterlimit:4;stroke-opacity:1;stroke-dasharray:none" />
  </g>
  <g
     style="display:inline"
     inkscape:groupmode="layer"
     id="g6460"
     inkscape:label="Points-to-2nd component">
    <path
       style="fill:none;stroke:#005a00;stroke-width:3.23300004;stroke-linecap:butt;stroke-linejoin:miter;stroke-miterlimit:4;stroke-opacity:1;stroke-dasharray:none;marker-start:none"
       d="M 481.7925,115.66319 555.60219,96.18728"
       id="path6462" />
    <path
       id="path6464"
       d="m 546.52845,82.36077 -17.39231,4.66441 8.68848,14.10283"
       style="fill:none;stroke:#005a00;stroke-width:3;stroke-linecap:butt;stroke-linejoin:miter;stroke-miterlimit:4;stroke-opacity:1;stroke-dasharray:none" />
    <path
       sodipodi:nodetypes="cc"
       id="path6466"
       d="m 875.54378,243.61186 -184.495,72.60259"
       style="fill:none;stroke:#005a00;stroke-width:3;stroke-linecap:butt;stroke-linejoin:miter;stroke-miterlimit:4;stroke-opacity:1;stroke-dasharray:none;marker-start:none" />
    <path
       sodipodi:nodetypes="ccc"
       style="fill:none;stroke:#005a00;stroke-width:3;stroke-linecap:butt;stroke-linejoin:miter;stroke-miterlimit:4;stroke-opacity:1;stroke-dasharray:none"
       d="m 698.95556,330.71143 16.49838,-6.56784 -8.59871,-14.16397"
       id="path6468" />
  </g>
  <g
     inkscape:label="All points - 1"
     inkscape:groupmode="layer"
     id="g3687"
     transform="translate(0,-308.2677)"
     style="display:inline">
    <path
       sodipodi:type="arc"
       style="fill:#2f7eb4;fill-opacity:1;fill-rule:nonzero;stroke:none;stroke-width:1.67974794;marker-start:none;marker-mid:none"
       id="path3695"
       sodipodi:cx="321.55823"
       sodipodi:cy="234.58609"
       sodipodi:rx="15.117731"
       sodipodi:ry="15.117731"
       d="m 336.67596,234.58609 c 0,8.34929 -6.76844,15.11773 -15.11773,15.11773 -8.34929,0 -15.11773,-6.76844 -15.11773,-15.11773 0,-8.34929 6.76844,-15.11773 15.11773,-15.11773 8.34929,0 15.11773,6.76844 15.11773,15.11773 z"
       transform="matrix(0.58953374,0.08285357,0.08285357,-0.58953374,452.517,590.63848)" />
    <path
       transform="matrix(0.58953374,0.08285357,0.08285357,-0.58953374,513.23375,579.02036)"
       d="m 336.67596,234.58609 c 0,8.34929 -6.76844,15.11773 -15.11773,15.11773 -8.34929,0 -15.11773,-6.76844 -15.11773,-15.11773 0,-8.34929 6.76844,-15.11773 15.11773,-15.11773 8.34929,0 15.11773,6.76844 15.11773,15.11773 z"
       sodipodi:ry="15.117731"
       sodipodi:rx="15.117731"
       sodipodi:cy="234.58609"
       sodipodi:cx="321.55823"
       id="path5249"
       style="fill:#2f7eb4;fill-opacity:1;fill-rule:nonzero;stroke:none;stroke-width:1.67974794;marker-start:none;marker-mid:none"
       sodipodi:type="arc" />
    <use
       height="744.09448"
       width="1052.3622"
       transform="translate(33.398639,78.483588)"
       id="use5251"
       xlink:href="#path5249"
       y="0"
       x="0" />
    <use
       height="744.09448"
       width="1052.3622"
       transform="translate(-47.313708,53.414623)"
       x="0"
       y="0"
       xlink:href="#path5249"
       id="use5253" />
    <use
       height="744.09448"
       width="1052.3622"
       transform="translate(-9.5089722,102.56611)"
       id="use5255"
       xlink:href="#path5249"
       y="0"
       x="0" />
    <use
       height="744.09448"
       width="1052.3622"
       transform="translate(64.195163,60.227163)"
       x="0"
       y="0"
       xlink:href="#path5249"
       id="use5257" />
    <use
       height="744.09448"
       width="1052.3622"
       transform="translate(-12.677838,-59.396366)"
       id="use5259"
       xlink:href="#path5249"
       y="0"
       x="0" />
    <use
       height="744.09448"
       width="1052.3622"
       transform="translate(81.189625,-0.43307825)"
       x="0"
       y="0"
       xlink:href="#path5249"
       id="use5261" />
    <path
       transform="matrix(0.58953374,0.08285357,0.08285357,-0.58953374,384.31492,609.79611)"
       d="m 336.67596,234.58609 c 0,8.34929 -6.76844,15.11773 -15.11773,15.11773 -8.34929,0 -15.11773,-6.76844 -15.11773,-15.11773 0,-8.34929 6.76844,-15.11773 15.11773,-15.11773 8.34929,0 15.11773,6.76844 15.11773,15.11773 z"
       sodipodi:ry="15.117731"
       sodipodi:rx="15.117731"
       sodipodi:cy="234.58609"
       sodipodi:cx="321.55823"
       id="path5263"
       style="fill:#2f7eb4;fill-opacity:1;fill-rule:nonzero;stroke:none;stroke-width:1.67974794;marker-start:none;marker-mid:none"
       sodipodi:type="arc" />
    <path
       sodipodi:type="arc"
       style="fill:#2f7eb4;fill-opacity:1;fill-rule:nonzero;stroke:none;stroke-width:1.67974794;marker-start:none;marker-mid:none"
       id="path5265"
       sodipodi:cx="321.55823"
       sodipodi:cy="234.58609"
       sodipodi:rx="15.117731"
       sodipodi:ry="15.117731"
       d="m 336.67596,234.58609 c 0,8.34929 -6.76844,15.11773 -15.11773,15.11773 -8.34929,0 -15.11773,-6.76844 -15.11773,-15.11773 0,-8.34929 6.76844,-15.11773 15.11773,-15.11773 8.34929,0 15.11773,6.76844 15.11773,15.11773 z"
       transform="matrix(0.58953374,0.08285357,0.08285357,-0.58953374,431.42731,646.95908)" />
    <path
       transform="matrix(0.58953374,0.08285357,0.08285357,-0.58953374,375.13168,578.82166)"
       d="m 336.67596,234.58609 c 0,8.34929 -6.76844,15.11773 -15.11773,15.11773 -8.34929,0 -15.11773,-6.76844 -15.11773,-15.11773 0,-8.34929 6.76844,-15.11773 15.11773,-15.11773 8.34929,0 15.11773,6.76844 15.11773,15.11773 z"
       sodipodi:ry="15.117731"
       sodipodi:rx="15.117731"
       sodipodi:cy="234.58609"
       sodipodi:cx="321.55823"
       id="path5267"
       style="fill:#2f7eb4;fill-opacity:1;fill-rule:nonzero;stroke:none;stroke-width:1.67974794;marker-start:none;marker-mid:none"
       sodipodi:type="arc" />
    <path
       sodipodi:type="arc"
       style="fill:#2f7eb4;fill-opacity:1;fill-rule:nonzero;stroke:none;stroke-width:1.67974794;marker-start:none;marker-mid:none"
       id="path5269"
       sodipodi:cx="321.55823"
       sodipodi:cy="234.58609"
       sodipodi:rx="15.117731"
       sodipodi:ry="15.117731"
       d="m 336.67596,234.58609 c 0,8.34929 -6.76844,15.11773 -15.11773,15.11773 -8.34929,0 -15.11773,-6.76844 -15.11773,-15.11773 0,-8.34929 6.76844,-15.11773 15.11773,-15.11773 8.34929,0 15.11773,6.76844 15.11773,15.11773 z"
       transform="matrix(0.58953374,0.08285357,0.08285357,-0.58953374,472.03544,538.80219)" />
    <path
       transform="matrix(0.58953374,0.08285357,0.08285357,-0.58953374,510.09257,617.61757)"
       d="m 336.67596,234.58609 c 0,8.34929 -6.76844,15.11773 -15.11773,15.11773 -8.34929,0 -15.11773,-6.76844 -15.11773,-15.11773 0,-8.34929 6.76844,-15.11773 15.11773,-15.11773 8.34929,0 15.11773,6.76844 15.11773,15.11773 z"
       sodipodi:ry="15.117731"
       sodipodi:rx="15.117731"
       sodipodi:cy="234.58609"
       sodipodi:cx="321.55823"
       id="path5271"
       style="fill:#2f7eb4;fill-opacity:1;fill-rule:nonzero;stroke:none;stroke-width:1.67974794;marker-start:none;marker-mid:none"
       sodipodi:type="arc" />
    <path
       sodipodi:type="arc"
       style="fill:#2f7eb4;fill-opacity:1;fill-rule:nonzero;stroke:none;stroke-width:1.67974794;marker-start:none;marker-mid:none"
       id="path5273"
       sodipodi:cx="321.55823"
       sodipodi:cy="234.58609"
       sodipodi:rx="15.117731"
       sodipodi:ry="15.117731"
       d="m 336.67596,234.58609 c 0,8.34929 -6.76844,15.11773 -15.11773,15.11773 -8.34929,0 -15.11773,-6.76844 -15.11773,-15.11773 0,-8.34929 6.76844,-15.11773 15.11773,-15.11773 8.34929,0 15.11773,6.76844 15.11773,15.11773 z"
       transform="matrix(0.58953374,0.08285357,0.08285357,-0.58953374,287.59053,679.44153)" />
    <path
       transform="matrix(0.58953374,0.08285357,0.08285357,-0.58953374,372.19862,680.04012)"
       d="m 336.67596,234.58609 c 0,8.34929 -6.76844,15.11773 -15.11773,15.11773 -8.34929,0 -15.11773,-6.76844 -15.11773,-15.11773 0,-8.34929 6.76844,-15.11773 15.11773,-15.11773 8.34929,0 15.11773,6.76844 15.11773,15.11773 z"
       sodipodi:ry="15.117731"
       sodipodi:rx="15.117731"
       sodipodi:cy="234.58609"
       sodipodi:cx="321.55823"
       id="path5275"
       style="fill:#2f7eb4;fill-opacity:1;fill-rule:nonzero;stroke:none;stroke-width:1.67974794;marker-start:none;marker-mid:none"
       sodipodi:type="arc" />
    <path
       sodipodi:type="arc"
       style="fill:#2f7eb4;fill-opacity:1;fill-rule:nonzero;stroke:none;stroke-width:1.67974794;marker-start:none;marker-mid:none"
       id="path5277"
       sodipodi:cx="321.55823"
       sodipodi:cy="234.58609"
       sodipodi:rx="15.117731"
       sodipodi:ry="15.117731"
       d="m 336.67596,234.58609 c 0,8.34929 -6.76844,15.11773 -15.11773,15.11773 -8.34929,0 -15.11773,-6.76844 -15.11773,-15.11773 0,-8.34929 6.76844,-15.11773 15.11773,-15.11773 8.34929,0 15.11773,6.76844 15.11773,15.11773 z"
       transform="matrix(0.58953374,0.08285357,0.08285357,-0.58953374,308.87975,594.91821)" />
    <path
       transform="matrix(0.58953374,0.08285357,0.08285357,-0.58953374,348.57999,667.31048)"
       d="m 336.67596,234.58609 c 0,8.34929 -6.76844,15.11773 -15.11773,15.11773 -8.34929,0 -15.11773,-6.76844 -15.11773,-15.11773 0,-8.34929 6.76844,-15.11773 15.11773,-15.11773 8.34929,0 15.11773,6.76844 15.11773,15.11773 z"
       sodipodi:ry="15.117731"
       sodipodi:rx="15.117731"
       sodipodi:cy="234.58609"
       sodipodi:cx="321.55823"
       id="path5279"
       style="fill:#2f7eb4;fill-opacity:1;fill-rule:nonzero;stroke:none;stroke-width:1.67974794;marker-start:none;marker-mid:none"
       sodipodi:type="arc" />
    <path
       sodipodi:type="arc"
       style="fill:#2f7eb4;fill-opacity:1;fill-rule:nonzero;stroke:none;stroke-width:1.67974794;marker-start:none;marker-mid:none"
       id="path5281"
       sodipodi:cx="321.55823"
       sodipodi:cy="234.58609"
       sodipodi:rx="15.117731"
       sodipodi:ry="15.117731"
       d="m 336.67596,234.58609 c 0,8.34929 -6.76844,15.11773 -15.11773,15.11773 -8.34929,0 -15.11773,-6.76844 -15.11773,-15.11773 0,-8.34929 6.76844,-15.11773 15.11773,-15.11773 8.34929,0 15.11773,6.76844 15.11773,15.11773 z"
       transform="matrix(0.58953374,0.08285357,0.08285357,-0.58953374,245.87986,641.55692)" />
    <path
       transform="matrix(0.58953374,0.08285357,0.08285357,-0.58953374,264.64028,728.91345)"
       d="m 336.67596,234.58609 c 0,8.34929 -6.76844,15.11773 -15.11773,15.11773 -8.34929,0 -15.11773,-6.76844 -15.11773,-15.11773 0,-8.34929 6.76844,-15.11773 15.11773,-15.11773 8.34929,0 15.11773,6.76844 15.11773,15.11773 z"
       sodipodi:ry="15.117731"
       sodipodi:rx="15.117731"
       sodipodi:cy="234.58609"
       sodipodi:cx="321.55823"
       id="path5283"
       style="fill:#2f7eb4;fill-opacity:1;fill-rule:nonzero;stroke:none;stroke-width:1.67974794;marker-start:none;marker-mid:none"
       sodipodi:type="arc" />
    <path
       sodipodi:type="arc"
       style="fill:#2f7eb4;fill-opacity:1;fill-rule:nonzero;stroke:none;stroke-width:1.67974794;marker-start:none;marker-mid:none"
       id="path5285"
       sodipodi:cx="321.55823"
       sodipodi:cy="234.58609"
       sodipodi:rx="15.117731"
       sodipodi:ry="15.117731"
       d="m 336.67596,234.58609 c 0,8.34929 -6.76844,15.11773 -15.11773,15.11773 -8.34929,0 -15.11773,-6.76844 -15.11773,-15.11773 0,-8.34929 6.76844,-15.11773 15.11773,-15.11773 8.34929,0 15.11773,6.76844 15.11773,15.11773 z"
       transform="matrix(0.58953374,0.08285357,0.08285357,-0.58953374,235.64067,683.93778)" />
    <path
       transform="matrix(0.58953374,0.08285357,0.08285357,-0.58953374,161.44331,670.61129)"
       d="m 336.67596,234.58609 c 0,8.34929 -6.76844,15.11773 -15.11773,15.11773 -8.34929,0 -15.11773,-6.76844 -15.11773,-15.11773 0,-8.34929 6.76844,-15.11773 15.11773,-15.11773 8.34929,0 15.11773,6.76844 15.11773,15.11773 z"
       sodipodi:ry="15.117731"
       sodipodi:rx="15.117731"
       sodipodi:cy="234.58609"
       sodipodi:cx="321.55823"
       id="path5287"
       style="fill:#2f7eb4;fill-opacity:1;fill-rule:nonzero;stroke:none;stroke-width:1.67974794;marker-start:none;marker-mid:none"
       sodipodi:type="arc" />
    <path
       sodipodi:type="arc"
       style="fill:#2f7eb4;fill-opacity:1;fill-rule:nonzero;stroke:none;stroke-width:1.67974794;marker-start:none;marker-mid:none"
       id="path5289"
       sodipodi:cx="321.55823"
       sodipodi:cy="234.58609"
       sodipodi:rx="15.117731"
       sodipodi:ry="15.117731"
       d="m 336.67596,234.58609 c 0,8.34929 -6.76844,15.11773 -15.11773,15.11773 -8.34929,0 -15.11773,-6.76844 -15.11773,-15.11773 0,-8.34929 6.76844,-15.11773 15.11773,-15.11773 8.34929,0 15.11773,6.76844 15.11773,15.11773 z"
       transform="matrix(0.58953374,0.08285357,0.08285357,-0.58953374,250.80334,613.10481)" />
    <path
       transform="matrix(0.58953374,0.08285357,0.08285357,-0.58953374,196.30338,639.32223)"
       d="m 336.67596,234.58609 c 0,8.34929 -6.76844,15.11773 -15.11773,15.11773 -8.34929,0 -15.11773,-6.76844 -15.11773,-15.11773 0,-8.34929 6.76844,-15.11773 15.11773,-15.11773 8.34929,0 15.11773,6.76844 15.11773,15.11773 z"
       sodipodi:ry="15.117731"
       sodipodi:rx="15.117731"
       sodipodi:cy="234.58609"
       sodipodi:cx="321.55823"
       id="path5291"
       style="fill:#2f7eb4;fill-opacity:1;fill-rule:nonzero;stroke:none;stroke-width:1.67974794;marker-start:none;marker-mid:none"
       sodipodi:type="arc" />
    <path
       sodipodi:type="arc"
       style="fill:#2f7eb4;fill-opacity:1;fill-rule:nonzero;stroke:none;stroke-width:1.67974794;marker-start:none;marker-mid:none"
       id="path5293"
       sodipodi:cx="321.55823"
       sodipodi:cy="234.58609"
       sodipodi:rx="15.117731"
       sodipodi:ry="15.117731"
       d="m 336.67596,234.58609 c 0,8.34929 -6.76844,15.11773 -15.11773,15.11773 -8.34929,0 -15.11773,-6.76844 -15.11773,-15.11773 0,-8.34929 6.76844,-15.11773 15.11773,-15.11773 8.34929,0 15.11773,6.76844 15.11773,15.11773 z"
       transform="matrix(0.58953374,0.08285357,0.08285357,-0.58953374,455.95875,713.4554)" />
    <path
       transform="matrix(0.58953374,0.08285357,0.08285357,-0.58953374,215.92153,747.47416)"
       d="m 336.67596,234.58609 c 0,8.34929 -6.76844,15.11773 -15.11773,15.11773 -8.34929,0 -15.11773,-6.76844 -15.11773,-15.11773 0,-8.34929 6.76844,-15.11773 15.11773,-15.11773 8.34929,0 15.11773,6.76844 15.11773,15.11773 z"
       sodipodi:ry="15.117731"
       sodipodi:rx="15.117731"
       sodipodi:cy="234.58609"
       sodipodi:cx="321.55823"
       id="path5295"
       style="fill:#2f7eb4;fill-opacity:1;fill-rule:nonzero;stroke:none;stroke-width:1.67974794;marker-start:none;marker-mid:none"
       sodipodi:type="arc" />
    <path
       sodipodi:type="arc"
       style="fill:#2f7eb4;fill-opacity:1;fill-rule:nonzero;stroke:none;stroke-width:1.67974794;marker-start:none;marker-mid:none"
       id="path5297"
       sodipodi:cx="321.55823"
       sodipodi:cy="234.58609"
       sodipodi:rx="15.117731"
       sodipodi:ry="15.117731"
       d="m 336.67596,234.58609 c 0,8.34929 -6.76844,15.11773 -15.11773,15.11773 -8.34929,0 -15.11773,-6.76844 -15.11773,-15.11773 0,-8.34929 6.76844,-15.11773 15.11773,-15.11773 8.34929,0 15.11773,6.76844 15.11773,15.11773 z"
       transform="matrix(0.58953374,0.08285357,0.08285357,-0.58953374,267.89756,538.34322)" />
    <path
       transform="matrix(0.58953374,0.08285357,0.08285357,-0.58953374,336.42898,713.59504)"
       d="m 336.67596,234.58609 c 0,8.34929 -6.76844,15.11773 -15.11773,15.11773 -8.34929,0 -15.11773,-6.76844 -15.11773,-15.11773 0,-8.34929 6.76844,-15.11773 15.11773,-15.11773 8.34929,0 15.11773,6.76844 15.11773,15.11773 z"
       sodipodi:ry="15.117731"
       sodipodi:rx="15.117731"
       sodipodi:cy="234.58609"
       sodipodi:cx="321.55823"
       id="path5299"
       style="fill:#2f7eb4;fill-opacity:1;fill-rule:nonzero;stroke:none;stroke-width:1.67974794;marker-start:none;marker-mid:none"
       sodipodi:type="arc" />
    <path
       sodipodi:type="arc"
       style="fill:#2f7eb4;fill-opacity:1;fill-rule:nonzero;stroke:none;stroke-width:1.67974794;marker-start:none;marker-mid:none"
       id="path5301"
       sodipodi:cx="321.55823"
       sodipodi:cy="234.58609"
       sodipodi:rx="15.117731"
       sodipodi:ry="15.117731"
       d="m 336.67596,234.58609 c 0,8.34929 -6.76844,15.11773 -15.11773,15.11773 -8.34929,0 -15.11773,-6.76844 -15.11773,-15.11773 0,-8.34929 6.76844,-15.11773 15.11773,-15.11773 8.34929,0 15.11773,6.76844 15.11773,15.11773 z"
       transform="matrix(0.58953374,0.08285357,0.08285357,-0.58953374,578.55513,534.52309)" />
    <path
       transform="matrix(0.58953374,0.08285357,0.08285357,-0.58953374,391.24817,711.88913)"
       d="m 336.67596,234.58609 c 0,8.34929 -6.76844,15.11773 -15.11773,15.11773 -8.34929,0 -15.11773,-6.76844 -15.11773,-15.11773 0,-8.34929 6.76844,-15.11773 15.11773,-15.11773 8.34929,0 15.11773,6.76844 15.11773,15.11773 z"
       sodipodi:ry="15.117731"
       sodipodi:rx="15.117731"
       sodipodi:cy="234.58609"
       sodipodi:cx="321.55823"
       id="path5303"
       style="fill:#2f7eb4;fill-opacity:1;fill-rule:nonzero;stroke:none;stroke-width:1.67974794;marker-start:none;marker-mid:none"
       sodipodi:type="arc" />
    <path
       sodipodi:type="arc"
       style="fill:#2f7eb4;fill-opacity:1;fill-rule:nonzero;stroke:none;stroke-width:1.67974794;marker-start:none;marker-mid:none"
       id="path5305"
       sodipodi:cx="321.55823"
       sodipodi:cy="234.58609"
       sodipodi:rx="15.117731"
       sodipodi:ry="15.117731"
       d="m 336.67596,234.58609 c 0,8.34929 -6.76844,15.11773 -15.11773,15.11773 -8.34929,0 -15.11773,-6.76844 -15.11773,-15.11773 0,-8.34929 6.76844,-15.11773 15.11773,-15.11773 8.34929,0 15.11773,6.76844 15.11773,15.11773 z"
       transform="matrix(0.58953374,0.08285357,0.08285357,-0.58953374,534.89546,479.88281)" />
    <path
       transform="matrix(0.58953374,0.08285357,0.08285357,-0.58953374,381.06467,559.30355)"
       d="m 336.67596,234.58609 c 0,8.34929 -6.76844,15.11773 -15.11773,15.11773 -8.34929,0 -15.11773,-6.76844 -15.11773,-15.11773 0,-8.34929 6.76844,-15.11773 15.11773,-15.11773 8.34929,0 15.11773,6.76844 15.11773,15.11773 z"
       sodipodi:ry="15.117731"
       sodipodi:rx="15.117731"
       sodipodi:cy="234.58609"
       sodipodi:cx="321.55823"
       id="path5309"
       style="fill:#2f7eb4;fill-opacity:1;fill-rule:nonzero;stroke:none;stroke-width:1.67974794;marker-start:none;marker-mid:none"
       sodipodi:type="arc" />
  </g>
  <g
     inkscape:label="1st component"
     inkscape:groupmode="layer"
     id="g5413"
     transform="translate(0,-308.2677)"
     style="display:inline">
    <path
       sodipodi:nodetypes="cc"
       style="fill:none;stroke:#f56912;stroke-width:4.4000001;stroke-linecap:butt;stroke-linejoin:miter;stroke-miterlimit:4;stroke-opacity:1;stroke-dasharray:none;marker-start:none;marker-end:none"
       d="M 941.52395,390.94336 300.63832,643.71071"
       id="path5415" />
    <text
       sodipodi:linespacing="125%"
       transform="matrix(0.84662731,-0.32498977,0.39517421,1.0294641,0,0)"
       id="text6029"
       y="628.82294"
       x="731.16663"
       style="font-size:21.15283203px;font-style:normal;font-variant:normal;font-weight:normal;font-stretch:normal;text-align:start;line-height:125%;writing-mode:lr-tb;text-anchor:start;fill:#f56912;fill-opacity:1;stroke:none;font-family:Arial Black;-inkscape-font-specification:'Arial Black,'"
       xml:space="preserve"><tspan
         y="628.82294"
         x="731.16663"
         id="tspan6031"
         sodipodi:role="line">1st component</tspan></text>
  </g>
  <g
     style="display:inline"
     transform="translate(0,-308.2677)"
     id="g6420"
     inkscape:groupmode="layer"
     inkscape:label="2nd component">
    <path
       id="path6422"
       d="m 489.99969,296.58167 263.5304,432.20525"
       style="fill:none;stroke:#f56912;stroke-width:4.25114727;stroke-linecap:butt;stroke-linejoin:miter;stroke-miterlimit:4;stroke-opacity:1;stroke-dasharray:none;marker-start:none;marker-end:none"
       sodipodi:nodetypes="cc" />
    <text
       xml:space="preserve"
       style="font-size:21.15283203px;font-style:normal;font-variant:normal;font-weight:normal;font-stretch:normal;text-align:start;line-height:125%;writing-mode:lr-tb;text-anchor:start;fill:#f56912;fill-opacity:1;stroke:none;font-family:Arial Black;-inkscape-font-specification:'Arial Black,'"
       x="1026.9659"
       y="-251.77534"
       id="text6424"
       transform="matrix(0.46706778,0.77733134,-0.94520286,0.56793513,0,0)"
       sodipodi:linespacing="125%"><tspan
         sodipodi:role="line"
         id="tspan6426"
         x="1026.9659"
         y="-251.77534">2nd component</tspan></text>
    <path
       sodipodi:nodetypes="cc"
       style="stroke-linejoin:miter;marker-end:url(#Arrow1Mend7D);stroke-opacity:1;marker-start:none;stroke:#4e009e;stroke-linecap:butt;stroke-miterlimit:4;stroke-dasharray:none;stroke-width:3;fill:none"
       d="M 621.28713,515.02182 526.61282,485.78119"
       id="path2905" />
    <path
       id="path4256"
       d="m 623.84839,516.2941 251.59047,35.45546"
       style="stroke-linejoin:miter;marker-end:url(#Arrow1Mend7a);stroke-opacity:1;marker-start:none;stroke:#4e009e;stroke-linecap:butt;stroke-miterlimit:4;stroke-dasharray:none;stroke-width:3;fill:#800080"
       sodipodi:nodetypes="cc" />
  </g>
  <g
     style="display:inline"
     transform="translate(0,-308.2677)"
     id="g5311"
     inkscape:groupmode="layer"
     inkscape:label="Mean">
    <path
       sodipodi:type="arc"
       style="fill:#af24aa;fill-opacity:1;fill-rule:nonzero;stroke:#000000;stroke-width:3.35949588;stroke-miterlimit:4;stroke-opacity:1;stroke-dasharray:none;marker-start:none;marker-mid:none"
       id="path5329"
       sodipodi:cx="321.55823"
       sodipodi:cy="234.58609"
       sodipodi:rx="15.117731"
       sodipodi:ry="15.117731"
       d="m 336.67596,234.58609 c 0,8.34929 -6.76844,15.11773 -15.11773,15.11773 -8.34929,0 -15.11773,-6.76844 -15.11773,-15.11773 0,-8.34929 6.76844,-15.11773 15.11773,-15.11773 8.34929,0 15.11773,6.76844 15.11773,15.11773 z"
       transform="matrix(0.58953374,0.08285357,0.08285357,-0.58953374,413.42718,627.62322)" />
  </g>
  <g
     inkscape:label="Hotellings T2"
     id="layer2"
     inkscape:groupmode="layer" />
</svg>
