<?xml version="1.0" encoding="UTF-8" standalone="no"?>
<!-- Created with Inkscape (http://www.inkscape.org/) -->

<svg
   xmlns:dc="http://purl.org/dc/elements/1.1/"
   xmlns:cc="http://creativecommons.org/ns#"
   xmlns:rdf="http://www.w3.org/1999/02/22-rdf-syntax-ns#"
   xmlns:svg="http://www.w3.org/2000/svg"
   xmlns="http://www.w3.org/2000/svg"
   xmlns:sodipodi="http://sodipodi.sourceforge.net/DTD/sodipodi-0.dtd"
   xmlns:inkscape="http://www.inkscape.org/namespaces/inkscape"
   width="470"
   height="350"
   id="svg2"
   version="1.1"
   inkscape:version="0.47 r22583"
   sodipodi:docname="PLSDA-classification-observed-vs-predicted.svg"
   inkscape:export-xdpi="300"
   inkscape:export-ydpi="300"
   style="display:inline;enable-background:new"
   inkscape:export-filename="/Users/kevindunn/Statistics course/Course notes/Latent-variable-modelling/images/PLSDA-classification-observed-vs-predicted.png">
  <sodipodi:namedview
     id="base"
     pagecolor="#ffffff"
     bordercolor="#666666"
     borderopacity="1.0"
     inkscape:pageopacity="0.0"
     inkscape:pageshadow="2"
     inkscape:zoom="1.6014577"
     inkscape:cx="273.88423"
     inkscape:cy="175.09411"
     inkscape:document-units="px"
     inkscape:current-layer="g5413"
     showgrid="false"
     inkscape:window-width="1440"
     inkscape:window-height="796"
     inkscape:window-x="0"
     inkscape:window-y="0"
     inkscape:window-maximized="0" />
  <defs
     id="defs4">
    <marker
       style="overflow:visible"
       id="Arrow1Mend"
       refX="0"
       refY="0"
       orient="auto"
       inkscape:stockid="Arrow1Mend">
      <path
         transform="matrix(-0.4,0,0,-0.4,-4,0)"
         style="fill-rule:evenodd;stroke:#000000;stroke-width:1pt;marker-start:none"
         d="M 0,0 5,-5 -12.5,0 5,5 0,0 z"
         id="path3602" />
    </marker>
    <inkscape:perspective
       id="perspective10"
       inkscape:persp3d-origin="372.04724 : 350.78739 : 1"
       inkscape:vp_z="744.09448 : 526.18109 : 1"
       inkscape:vp_y="0 : 1000 : 0"
       inkscape:vp_x="0 : 526.18109 : 1"
       sodipodi:type="inkscape:persp3d" />
    <marker
       style="overflow:visible"
       id="Arrow1Mend7"
       refX="0"
       refY="0"
       orient="auto"
       inkscape:stockid="Arrow1Mend7">
      <path
         transform="matrix(-0.4,0,0,-0.4,-4,0)"
         style="fill:#f56912;fill-rule:evenodd;stroke:#f56912;stroke-width:1pt;marker-start:none"
         d="M 0,0 5,-5 -12.5,0 5,5 0,0 z"
         id="path4059" />
    </marker>
    <marker
       style="overflow:visible"
       id="Arrow1Mend7a"
       refX="0"
       refY="0"
       orient="auto"
       inkscape:stockid="Arrow1Mend7a">
      <path
         transform="matrix(-0.4,0,0,-0.4,-4,0)"
         style="fill:#4e009e;fill-rule:evenodd;stroke:#4e009e;stroke-width:1pt;marker-start:none"
         d="M 0,0 5,-5 -12.5,0 5,5 0,0 z"
         id="path4267" />
    </marker>
    <marker
       style="overflow:visible"
       id="Arrow1Mend7D"
       refX="0"
       refY="0"
       orient="auto"
       inkscape:stockid="Arrow1Mend7D">
      <path
         transform="matrix(-0.4,0,0,-0.4,-4,0)"
         style="fill:#4e009e;fill-rule:evenodd;stroke:#4e009e;stroke-width:1pt;marker-start:none"
         d="M 0,0 5,-5 -12.5,0 5,5 0,0 z"
         id="path4478" />
    </marker>
  </defs>
  <metadata
     id="metadata7">
    <rdf:RDF>
      <cc:Work
         rdf:about="">
        <dc:format>image/svg+xml</dc:format>
        <dc:type
           rdf:resource="http://purl.org/dc/dcmitype/StillImage" />
        <dc:title></dc:title>
      </cc:Work>
    </rdf:RDF>
  </metadata>
  <g
     inkscape:label="Axis-centered"
     inkscape:groupmode="layer"
     id="g5997"
     transform="translate(-304.79936,-369.09899)"
     style="display:inline">
    <path
       style="fill:none;stroke:#000000;stroke-width:3.125;stroke-linecap:butt;stroke-linejoin:miter;stroke-miterlimit:4;stroke-opacity:1;stroke-dasharray:none;marker-end:url(#Arrow1Mend)"
       d="m 422.05824,675.94833 0,-295.13132"
       id="path5999" />
    <text
       xml:space="preserve"
       style="font-size:30px;font-style:normal;font-variant:normal;font-weight:normal;font-stretch:normal;text-align:start;line-height:125%;writing-mode:lr-tb;text-anchor:start;fill:#000000;fill-opacity:1;stroke:none;font-family:Gill Sans;-inkscape-font-specification:Gill Sans"
       x="487.92413"
       y="709.12769"
       id="text6005"
       sodipodi:linespacing="125%"><tspan
         sodipodi:role="line"
         id="tspan3871"
         x="487.92413"
         y="709.12769">Predicted</tspan></text>
    <path
       id="path2869"
       d="m 306.36186,640.94541 452.49923,0"
       style="fill:none;stroke:#000000;stroke-width:3.125;stroke-linecap:butt;stroke-linejoin:miter;stroke-miterlimit:4;stroke-opacity:1;stroke-dasharray:none;marker-end:url(#Arrow1Mend)" />
    <path
       style="fill:none;stroke:#000000;stroke-width:1.56205916;stroke-linecap:butt;stroke-linejoin:miter;stroke-miterlimit:4;stroke-opacity:1;stroke-dasharray:12.49647337, 1.56205917;stroke-dashoffset:0;marker-end:none"
       d="m 422.86884,432.94541 331.54433,0"
       id="path3667" />
    <text
       sodipodi:linespacing="125%"
       id="text3873"
       y="710.46619"
       x="619.0556"
       style="font-size:40px;font-style:italic;font-variant:normal;font-weight:normal;font-stretch:normal;text-align:start;line-height:125%;writing-mode:lr-tb;text-anchor:start;fill:#000000;fill-opacity:1;stroke:none;font-family:Times New Roman;-inkscape-font-specification:'Times New Roman, Italic'"
       xml:space="preserve"><tspan
         sodipodi:role="line"
         id="tspan3877"
         x="619.0556"
         y="710.46619">y</tspan></text>
    <text
       sodipodi:linespacing="125%"
       id="text3881"
       y="333.54831"
       x="-559.89368"
       style="font-size:30px;font-style:normal;font-variant:normal;font-weight:normal;font-stretch:normal;text-align:start;line-height:125%;writing-mode:lr-tb;text-anchor:start;fill:#000000;fill-opacity:1;stroke:none;font-family:Gill Sans;-inkscape-font-specification:Gill Sans"
       xml:space="preserve"
       transform="matrix(0,-1,1,0,0,0)"><tspan
         sodipodi:role="line"
         id="tspan3891"
         x="-559.89368"
         y="333.54831">Actual</tspan></text>
    <text
       xml:space="preserve"
       style="font-size:40px;font-style:italic;font-variant:normal;font-weight:normal;font-stretch:normal;text-align:start;line-height:125%;writing-mode:lr-tb;text-anchor:start;fill:#000000;fill-opacity:1;stroke:none;font-family:Times New Roman;-inkscape-font-specification:'Times New Roman, Italic'"
       x="-466.76224"
       y="334.88681"
       id="text3885"
       sodipodi:linespacing="125%"
       transform="matrix(0,-1,1,0,0,0)"><tspan
         y="334.88681"
         x="-466.76224"
         id="tspan3887"
         sodipodi:role="line">y</tspan></text>
    <text
       xml:space="preserve"
       style="font-size:40px;font-style:normal;font-variant:normal;font-weight:normal;font-stretch:normal;text-align:start;line-height:125%;writing-mode:lr-tb;text-anchor:start;fill:#000000;fill-opacity:1;stroke:none;font-family:Times New Roman;-inkscape-font-specification:'Times New Roman,'"
       x="412.14471"
       y="654.5094"
       id="text3897"
       sodipodi:linespacing="125%"><tspan
         sodipodi:role="line"
         id="tspan3903"
         x="412.14471"
         y="654.5094">0</tspan></text>
    <text
       sodipodi:linespacing="125%"
       id="text3905"
       y="442.5094"
       x="372.14471"
       style="font-size:30px;font-style:normal;font-variant:normal;font-weight:normal;font-stretch:normal;text-align:start;line-height:125%;writing-mode:lr-tb;text-anchor:start;fill:#000000;fill-opacity:1;stroke:none;font-family:Times New Roman;-inkscape-font-specification:'Times New Roman,'"
       xml:space="preserve"><tspan
         sodipodi:role="line"
         id="tspan3909"
         x="372.14471"
         y="442.5094">1.0</tspan></text>
    <text
       xml:space="preserve"
       style="font-size:30px;font-style:normal;font-variant:normal;font-weight:normal;font-stretch:normal;text-align:start;line-height:125%;writing-mode:lr-tb;text-anchor:start;fill:#000000;fill-opacity:1;stroke:none;font-family:Times New Roman;-inkscape-font-specification:'Times New Roman,'"
       x="638.10083"
       y="668.58899"
       id="text3913"
       sodipodi:linespacing="125%"><tspan
         y="668.58899"
         x="638.10083"
         id="tspan3915"
         sodipodi:role="line">1.0</tspan></text>
    <path
       id="path3917"
       d="m 657.0212,640.85001 0,-208.12511"
       style="fill:none;stroke:#000000;stroke-width:2;stroke-linecap:butt;stroke-linejoin:miter;stroke-miterlimit:4;stroke-opacity:1;stroke-dasharray:16, 2;stroke-dashoffset:0;marker-end:none" />
  </g>
  <g
     inkscape:label="X points "
     inkscape:groupmode="layer"
     id="g3687"
     transform="translate(-304.79936,-369.09899)"
     style="display:inline">
    <path
       sodipodi:type="arc"
       style="fill:#2f7eb4;fill-opacity:1;fill-rule:nonzero;stroke:none;stroke-width:1.67974794;marker-start:none;marker-mid:none"
       id="use5261"
       sodipodi:cx="321.55823"
       sodipodi:cy="234.58609"
       sodipodi:rx="15.117731"
       sodipodi:ry="15.117731"
       d="m 336.67596,234.58609 a 15.117731,15.117731 0 1 1 -30.23546,0 15.117731,15.117731 0 1 1 30.23546,0 z"
       transform="matrix(0.45846916,0.06443364,0.06443364,-0.45846916,349.42899,727.77673)" />
    <path
       transform="matrix(0.45846916,0.06443364,0.06443364,-0.45846916,528.52156,519.77673)"
       d="m 336.67596,234.58609 a 15.117731,15.117731 0 1 1 -30.23546,0 15.117731,15.117731 0 1 1 30.23546,0 z"
       sodipodi:ry="15.117731"
       sodipodi:rx="15.117731"
       sodipodi:cy="234.58609"
       sodipodi:cx="321.55823"
       id="path3673"
       style="fill:#ff0000;fill-opacity:1;fill-rule:nonzero;stroke:none;stroke-width:1.67974794;marker-start:none;marker-mid:none"
       sodipodi:type="arc" />
    <path
       sodipodi:type="arc"
       style="fill:#ff0000;fill-opacity:1;fill-rule:nonzero;stroke:none;stroke-width:1.67974794;marker-start:none;marker-mid:none"
       id="path3919"
       sodipodi:cx="321.55823"
       sodipodi:cy="234.58609"
       sodipodi:rx="15.117731"
       sodipodi:ry="15.117731"
       d="m 336.67596,234.58609 a 15.117731,15.117731 0 1 1 -30.23546,0 15.117731,15.117731 0 1 1 30.23546,0 z"
       transform="matrix(0.45846916,0.06443364,0.06443364,-0.45846916,548.52156,519.77673)" />
    <path
       transform="matrix(0.45846916,0.06443364,0.06443364,-0.45846916,576.52156,519.77673)"
       d="m 336.67596,234.58609 a 15.117731,15.117731 0 1 1 -30.23546,0 15.117731,15.117731 0 1 1 30.23546,0 z"
       sodipodi:ry="15.117731"
       sodipodi:rx="15.117731"
       sodipodi:cy="234.58609"
       sodipodi:cx="321.55823"
       id="path3921"
       style="fill:#ff0000;fill-opacity:1;fill-rule:nonzero;stroke:none;stroke-width:1.67974794;marker-start:none;marker-mid:none"
       sodipodi:type="arc" />
    <path
       sodipodi:type="arc"
       style="fill:#ff0000;fill-opacity:1;fill-rule:nonzero;stroke:none;stroke-width:1.67974794;marker-start:none;marker-mid:none"
       id="path3923"
       sodipodi:cx="321.55823"
       sodipodi:cy="234.58609"
       sodipodi:rx="15.117731"
       sodipodi:ry="15.117731"
       d="m 336.67596,234.58609 a 15.117731,15.117731 0 1 1 -30.23546,0 15.117731,15.117731 0 1 1 30.23546,0 z"
       transform="matrix(0.45846916,0.06443364,0.06443364,-0.45846916,560.52156,519.77673)" />
    <path
       transform="matrix(0.45846916,0.06443364,0.06443364,-0.45846916,552.52156,519.77673)"
       d="m 336.67596,234.58609 a 15.117731,15.117731 0 1 1 -30.23546,0 15.117731,15.117731 0 1 1 30.23546,0 z"
       sodipodi:ry="15.117731"
       sodipodi:rx="15.117731"
       sodipodi:cy="234.58609"
       sodipodi:cx="321.55823"
       id="path3925"
       style="fill:#ff0000;fill-opacity:1;fill-rule:nonzero;stroke:none;stroke-width:1.67974794;marker-start:none;marker-mid:none"
       sodipodi:type="arc" />
    <path
       sodipodi:type="arc"
       style="fill:#ff0000;fill-opacity:1;fill-rule:nonzero;stroke:none;stroke-width:1.67974794;marker-start:none;marker-mid:none"
       id="path3927"
       sodipodi:cx="321.55823"
       sodipodi:cy="234.58609"
       sodipodi:rx="15.117731"
       sodipodi:ry="15.117731"
       d="m 336.67596,234.58609 a 15.117731,15.117731 0 1 1 -30.23546,0 15.117731,15.117731 0 1 1 30.23546,0 z"
       transform="matrix(0.45846916,0.06443364,0.06443364,-0.45846916,516.52156,519.77673)" />
    <path
       transform="matrix(0.45846916,0.06443364,0.06443364,-0.45846916,436.52156,519.77673)"
       d="m 336.67596,234.58609 a 15.117731,15.117731 0 1 1 -30.23546,0 15.117731,15.117731 0 1 1 30.23546,0 z"
       sodipodi:ry="15.117731"
       sodipodi:rx="15.117731"
       sodipodi:cy="234.58609"
       sodipodi:cx="321.55823"
       id="path3929"
       style="fill:#ff0000;fill-opacity:1;fill-rule:nonzero;stroke:none;stroke-width:1.67974794;marker-start:none;marker-mid:none"
       sodipodi:type="arc" />
    <path
       sodipodi:type="arc"
       style="fill:#ff0000;fill-opacity:1;fill-rule:nonzero;stroke:none;stroke-width:1.67974794;marker-start:none;marker-mid:none"
       id="path3931"
       sodipodi:cx="321.55823"
       sodipodi:cy="234.58609"
       sodipodi:rx="15.117731"
       sodipodi:ry="15.117731"
       d="m 336.67596,234.58609 a 15.117731,15.117731 0 1 1 -30.23546,0 15.117731,15.117731 0 1 1 30.23546,0 z"
       transform="matrix(0.45846916,0.06443364,0.06443364,-0.45846916,396.52156,519.77673)" />
    <path
       transform="matrix(0.45846916,0.06443364,0.06443364,-0.45846916,416.52156,519.77673)"
       d="m 336.67596,234.58609 a 15.117731,15.117731 0 1 1 -30.23546,0 15.117731,15.117731 0 1 1 30.23546,0 z"
       sodipodi:ry="15.117731"
       sodipodi:rx="15.117731"
       sodipodi:cy="234.58609"
       sodipodi:cx="321.55823"
       id="path3933"
       style="fill:#ff0000;fill-opacity:1;fill-rule:nonzero;stroke:none;stroke-width:1.67974794;marker-start:none;marker-mid:none"
       sodipodi:type="arc" />
    <path
       sodipodi:type="arc"
       style="fill:#ff0000;fill-opacity:1;fill-rule:nonzero;stroke:none;stroke-width:1.67974794;marker-start:none;marker-mid:none"
       id="path3935"
       sodipodi:cx="321.55823"
       sodipodi:cy="234.58609"
       sodipodi:rx="15.117731"
       sodipodi:ry="15.117731"
       d="m 336.67596,234.58609 a 15.117731,15.117731 0 1 1 -30.23546,0 15.117731,15.117731 0 1 1 30.23546,0 z"
       transform="matrix(0.45846916,0.06443364,0.06443364,-0.45846916,346.52156,519.77673)" />
    <path
       transform="matrix(0.45846916,0.06443364,0.06443364,-0.45846916,470.52156,519.77673)"
       d="m 336.67596,234.58609 a 15.117731,15.117731 0 1 1 -30.23546,0 15.117731,15.117731 0 1 1 30.23546,0 z"
       sodipodi:ry="15.117731"
       sodipodi:rx="15.117731"
       sodipodi:cy="234.58609"
       sodipodi:cx="321.55823"
       id="path3937"
       style="fill:#ff0000;fill-opacity:1;fill-rule:nonzero;stroke:none;stroke-width:1.67974794;marker-start:none;marker-mid:none"
       sodipodi:type="arc" />
    <path
       sodipodi:type="arc"
       style="fill:#ff0000;fill-opacity:1;fill-rule:nonzero;stroke:none;stroke-width:1.67974794;marker-start:none;marker-mid:none"
       id="path3939"
       sodipodi:cx="321.55823"
       sodipodi:cy="234.58609"
       sodipodi:rx="15.117731"
       sodipodi:ry="15.117731"
       d="m 336.67596,234.58609 a 15.117731,15.117731 0 1 1 -30.23546,0 15.117731,15.117731 0 1 1 30.23546,0 z"
       transform="matrix(0.45846916,0.06443364,0.06443364,-0.45846916,462.52156,519.77673)" />
    <path
       transform="matrix(0.45846916,0.06443364,0.06443364,-0.45846916,484.52156,519.77673)"
       d="m 336.67596,234.58609 a 15.117731,15.117731 0 1 1 -30.23546,0 15.117731,15.117731 0 1 1 30.23546,0 z"
       sodipodi:ry="15.117731"
       sodipodi:rx="15.117731"
       sodipodi:cy="234.58609"
       sodipodi:cx="321.55823"
       id="path3941"
       style="fill:#ff0000;fill-opacity:1;fill-rule:nonzero;stroke:none;stroke-width:1.67974794;marker-start:none;marker-mid:none"
       sodipodi:type="arc" />
    <path
       sodipodi:type="arc"
       style="fill:#ff0000;fill-opacity:1;fill-rule:nonzero;stroke:none;stroke-width:1.67974794;marker-start:none;marker-mid:none"
       id="path3943"
       sodipodi:cx="321.55823"
       sodipodi:cy="234.58609"
       sodipodi:rx="15.117731"
       sodipodi:ry="15.117731"
       d="m 336.67596,234.58609 a 15.117731,15.117731 0 1 1 -30.23546,0 15.117731,15.117731 0 1 1 30.23546,0 z"
       transform="matrix(0.45846916,0.06443364,0.06443364,-0.45846916,482.52156,519.77673)" />
    <path
       transform="matrix(0.45846916,0.06443364,0.06443364,-0.45846916,369.42899,727.77673)"
       d="m 336.67596,234.58609 a 15.117731,15.117731 0 1 1 -30.23546,0 15.117731,15.117731 0 1 1 30.23546,0 z"
       sodipodi:ry="15.117731"
       sodipodi:rx="15.117731"
       sodipodi:cy="234.58609"
       sodipodi:cx="321.55823"
       id="path3945"
       style="fill:#2f7eb4;fill-opacity:1;fill-rule:nonzero;stroke:none;stroke-width:1.67974794;marker-start:none;marker-mid:none"
       sodipodi:type="arc" />
    <path
       sodipodi:type="arc"
       style="fill:#2f7eb4;fill-opacity:1;fill-rule:nonzero;stroke:none;stroke-width:1.67974794;marker-start:none;marker-mid:none"
       id="path3947"
       sodipodi:cx="321.55823"
       sodipodi:cy="234.58609"
       sodipodi:rx="15.117731"
       sodipodi:ry="15.117731"
       d="m 336.67596,234.58609 a 15.117731,15.117731 0 1 1 -30.23546,0 15.117731,15.117731 0 1 1 30.23546,0 z"
       transform="matrix(0.45846916,0.06443364,0.06443364,-0.45846916,309.42899,727.77673)" />
    <path
       transform="matrix(0.45846916,0.06443364,0.06443364,-0.45846916,169.42899,727.77673)"
       d="m 336.67596,234.58609 a 15.117731,15.117731 0 1 1 -30.23546,0 15.117731,15.117731 0 1 1 30.23546,0 z"
       sodipodi:ry="15.117731"
       sodipodi:rx="15.117731"
       sodipodi:cy="234.58609"
       sodipodi:cx="321.55823"
       id="path3949"
       style="fill:#2f7eb4;fill-opacity:1;fill-rule:nonzero;stroke:none;stroke-width:1.67974794;marker-start:none;marker-mid:none"
       sodipodi:type="arc" />
    <path
       sodipodi:type="arc"
       style="fill:#2f7eb4;fill-opacity:1;fill-rule:nonzero;stroke:none;stroke-width:1.67974794;marker-start:none;marker-mid:none"
       id="path3951"
       sodipodi:cx="321.55823"
       sodipodi:cy="234.58609"
       sodipodi:rx="15.117731"
       sodipodi:ry="15.117731"
       d="m 336.67596,234.58609 a 15.117731,15.117731 0 1 1 -30.23546,0 15.117731,15.117731 0 1 1 30.23546,0 z"
       transform="matrix(0.45846916,0.06443364,0.06443364,-0.45846916,189.42899,727.77673)" />
    <path
       transform="matrix(0.45846916,0.06443364,0.06443364,-0.45846916,199.42899,727.77673)"
       d="m 336.67596,234.58609 a 15.117731,15.117731 0 1 1 -30.23546,0 15.117731,15.117731 0 1 1 30.23546,0 z"
       sodipodi:ry="15.117731"
       sodipodi:rx="15.117731"
       sodipodi:cy="234.58609"
       sodipodi:cx="321.55823"
       id="path3953"
       style="fill:#2f7eb4;fill-opacity:1;fill-rule:nonzero;stroke:none;stroke-width:1.67974794;marker-start:none;marker-mid:none"
       sodipodi:type="arc" />
    <path
       sodipodi:type="arc"
       style="fill:#2f7eb4;fill-opacity:1;fill-rule:nonzero;stroke:none;stroke-width:1.67974794;marker-start:none;marker-mid:none"
       id="path3955"
       sodipodi:cx="321.55823"
       sodipodi:cy="234.58609"
       sodipodi:rx="15.117731"
       sodipodi:ry="15.117731"
       d="m 336.67596,234.58609 a 15.117731,15.117731 0 1 1 -30.23546,0 15.117731,15.117731 0 1 1 30.23546,0 z"
       transform="matrix(0.45846916,0.06443364,0.06443364,-0.45846916,215.42899,727.77673)" />
    <path
       transform="matrix(0.45846916,0.06443364,0.06443364,-0.45846916,225.42899,727.77673)"
       d="m 336.67596,234.58609 a 15.117731,15.117731 0 1 1 -30.23546,0 15.117731,15.117731 0 1 1 30.23546,0 z"
       sodipodi:ry="15.117731"
       sodipodi:rx="15.117731"
       sodipodi:cy="234.58609"
       sodipodi:cx="321.55823"
       id="path3957"
       style="fill:#2f7eb4;fill-opacity:1;fill-rule:nonzero;stroke:none;stroke-width:1.67974794;marker-start:none;marker-mid:none"
       sodipodi:type="arc" />
    <path
       sodipodi:type="arc"
       style="fill:#2f7eb4;fill-opacity:1;fill-rule:nonzero;stroke:none;stroke-width:1.67974794;marker-start:none;marker-mid:none"
       id="path3959"
       sodipodi:cx="321.55823"
       sodipodi:cy="234.58609"
       sodipodi:rx="15.117731"
       sodipodi:ry="15.117731"
       d="m 336.67596,234.58609 a 15.117731,15.117731 0 1 1 -30.23546,0 15.117731,15.117731 0 1 1 30.23546,0 z"
       transform="matrix(0.45846916,0.06443364,0.06443364,-0.45846916,247.42899,727.77673)" />
    <path
       transform="matrix(0.45846916,0.06443364,0.06443364,-0.45846916,271.42899,727.77673)"
       d="m 336.67596,234.58609 a 15.117731,15.117731 0 1 1 -30.23546,0 15.117731,15.117731 0 1 1 30.23546,0 z"
       sodipodi:ry="15.117731"
       sodipodi:rx="15.117731"
       sodipodi:cy="234.58609"
       sodipodi:cx="321.55823"
       id="path3961"
       style="fill:#2f7eb4;fill-opacity:1;fill-rule:nonzero;stroke:none;stroke-width:1.67974794;marker-start:none;marker-mid:none"
       sodipodi:type="arc" />
    <path
       sodipodi:type="arc"
       style="fill:#2f7eb4;fill-opacity:1;fill-rule:nonzero;stroke:none;stroke-width:1.67974794;marker-start:none;marker-mid:none"
       id="path3963"
       sodipodi:cx="321.55823"
       sodipodi:cy="234.58609"
       sodipodi:rx="15.117731"
       sodipodi:ry="15.117731"
       d="m 336.67596,234.58609 a 15.117731,15.117731 0 1 1 -30.23546,0 15.117731,15.117731 0 1 1 30.23546,0 z"
       transform="matrix(0.45846916,0.06443364,0.06443364,-0.45846916,283.42899,727.77673)" />
    <path
       transform="matrix(0.45846916,0.06443364,0.06443364,-0.45846916,297.42899,727.77673)"
       d="m 336.67596,234.58609 a 15.117731,15.117731 0 1 1 -30.23546,0 15.117731,15.117731 0 1 1 30.23546,0 z"
       sodipodi:ry="15.117731"
       sodipodi:rx="15.117731"
       sodipodi:cy="234.58609"
       sodipodi:cx="321.55823"
       id="path3965"
       style="fill:#2f7eb4;fill-opacity:1;fill-rule:nonzero;stroke:none;stroke-width:1.67974794;marker-start:none;marker-mid:none"
       sodipodi:type="arc" />
    <path
       sodipodi:type="arc"
       style="fill:#2f7eb4;fill-opacity:1;fill-rule:nonzero;stroke:none;stroke-width:1.67974794;marker-start:none;marker-mid:none"
       id="path3967"
       sodipodi:cx="321.55823"
       sodipodi:cy="234.58609"
       sodipodi:rx="15.117731"
       sodipodi:ry="15.117731"
       d="m 336.67596,234.58609 a 15.117731,15.117731 0 1 1 -30.23546,0 15.117731,15.117731 0 1 1 30.23546,0 z"
       transform="matrix(0.45846916,0.06443364,0.06443364,-0.45846916,399.42899,727.77673)" />
    <path
       sodipodi:type="arc"
       style="fill:#2f7eb4;fill-opacity:1;fill-rule:nonzero;stroke:none;stroke-width:1.67974794;marker-start:none;marker-mid:none"
       id="path3969"
       sodipodi:cx="321.55823"
       sodipodi:cy="234.58609"
       sodipodi:rx="15.117731"
       sodipodi:ry="15.117731"
       d="m 336.67596,234.58609 a 15.117731,15.117731 0 1 1 -30.23546,0 15.117731,15.117731 0 1 1 30.23546,0 z"
       transform="matrix(0.45846916,0.06443364,0.06443364,-0.45846916,389.42899,727.77673)" />
  </g>
  <g
     inkscape:label="Separator"
     inkscape:groupmode="layer"
     id="g5413"
     transform="translate(-304.79936,-369.09899)"
     style="display:inline">
    <text
       xml:space="preserve"
       style="font-size:40px;font-style:normal;font-weight:normal;fill:#000000;fill-opacity:1;stroke:none;font-family:Bitstream Vera Sans"
       x="671.5899"
       y="560.33655"
       id="text2978"><tspan
         sodipodi:role="line"
         id="tspan2980"
         x="671.5899"
         y="560.33655"> </tspan></text>
    <path
       style="fill:none;stroke:#f56912;stroke-width:3;stroke-linecap:butt;stroke-linejoin:miter;stroke-miterlimit:4;stroke-opacity:1;stroke-dasharray:12, 3;stroke-dashoffset:0"
       d="m 550.16909,402.87005 0,267.94618"
       id="path3911" />
  </g>
</svg>
