<?xml version="1.0" encoding="UTF-8" standalone="no"?>
<!-- Created with Inkscape (http://www.inkscape.org/) -->

<svg
   xmlns:dc="http://purl.org/dc/elements/1.1/"
   xmlns:cc="http://creativecommons.org/ns#"
   xmlns:rdf="http://www.w3.org/1999/02/22-rdf-syntax-ns#"
   xmlns:svg="http://www.w3.org/2000/svg"
   xmlns="http://www.w3.org/2000/svg"
   xmlns:sodipodi="http://sodipodi.sourceforge.net/DTD/sodipodi-0.dtd"
   xmlns:inkscape="http://www.inkscape.org/namespaces/inkscape"
   sodipodi:docname="least-squares-two-x-variables-with-projection.svg"
   inkscape:version="0.48.0 r9654"
   version="1.1"
   id="svg2"
   height="455.89001"
   width="468.79999"
   inkscape:export-filename="least-squares-two-x-variables-with-projection.png"
   inkscape:export-xdpi="250"
   inkscape:export-ydpi="250">
  <sodipodi:namedview
     id="base"
     pagecolor="#ffffff"
     bordercolor="#666666"
     borderopacity="1.0"
     inkscape:pageopacity="0.0"
     inkscape:pageshadow="2"
     inkscape:zoom="1.2905057"
     inkscape:cx="236.90158"
     inkscape:cy="227.9433"
     inkscape:document-units="px"
     inkscape:current-layer="layer1"
     showgrid="false"
     inkscape:window-width="1440"
     inkscape:window-height="796"
     inkscape:window-x="0"
     inkscape:window-y="0"
     inkscape:window-maximized="0"
     fit-margin-top="0"
     fit-margin-left="0"
     fit-margin-right="0"
     fit-margin-bottom="0" />
  <defs
     id="defs4">
    <marker
       inkscape:stockid="Arrow1Mstart"
       orient="auto"
       refY="0"
       refX="0"
       id="Arrow1Mstart"
       style="overflow:visible">
      <path
         id="path3715"
         d="M 0,0 5,-5 -12.5,0 5,5 0,0 z"
         style="fill-rule:evenodd;stroke:#000000;stroke-width:1pt;marker-start:none"
         transform="matrix(0.4,0,0,0.4,4,0)"
         inkscape:connector-curvature="0" />
    </marker>
    <inkscape:perspective
       sodipodi:type="inkscape:persp3d"
       inkscape:vp_x="0 : 372.04724 : 1"
       inkscape:vp_y="0 : 1000 : 0"
       inkscape:vp_z="1052.3622 : 372.04724 : 1"
       inkscape:persp3d-origin="526.18109 : 248.03149 : 1"
       id="perspective2897" />
    <marker
       inkscape:stockid="Arrow1Mend3"
       orient="auto"
       refY="0"
       refX="0"
       id="Arrow1Mend3"
       style="overflow:visible">
      <path
         id="path6925"
         d="M 0,0 5,-5 -12.5,0 5,5 0,0 z"
         style="fill:#006700;fill-rule:evenodd;stroke:#006700;stroke-width:1pt;marker-start:none"
         transform="matrix(-0.4,0,0,-0.4,-4,0)"
         inkscape:connector-curvature="0" />
    </marker>
    <marker
       inkscape:stockid="Arrow1MendU"
       orient="auto"
       refY="0"
       refX="0"
       id="Arrow1MendU"
       style="overflow:visible">
      <path
         id="path7063"
         d="M 0,0 5,-5 -12.5,0 5,5 0,0 z"
         style="fill:#006700;fill-rule:evenodd;stroke:#006700;stroke-width:1pt;marker-start:none"
         transform="matrix(-0.4,0,0,-0.4,-4,0)"
         inkscape:connector-curvature="0" />
    </marker>
    <marker
       inkscape:stockid="Arrow1Mstartf"
       orient="auto"
       refY="0"
       refX="0"
       id="Arrow1Mstartf"
       style="overflow:visible">
      <path
         id="path7066"
         d="M 0,0 5,-5 -12.5,0 5,5 0,0 z"
         style="fill:#006700;fill-rule:evenodd;stroke:#006700;stroke-width:1pt;marker-start:none"
         transform="matrix(0.4,0,0,0.4,4,0)"
         inkscape:connector-curvature="0" />
    </marker>
  </defs>
  <metadata
     id="metadata7">
    <rdf:RDF>
      <cc:Work
         rdf:about="">
        <dc:format>image/svg+xml</dc:format>
        <dc:type
           rdf:resource="http://purl.org/dc/dcmitype/StillImage" />
        <dc:title></dc:title>
      </cc:Work>
    </rdf:RDF>
  </metadata>
  <g
     inkscape:label="Layer 1"
     inkscape:groupmode="layer"
     id="layer1"
     transform="translate(-181.99984,-405.64608)">
    <path
       id="path5083"
       d="m 608.42027,433.16324 0,9.60338"
       style="fill:none;stroke:#000000;stroke-width:1.25;stroke-linecap:butt;stroke-linejoin:miter;stroke-miterlimit:4;stroke-opacity:1;stroke-dasharray:none"
       inkscape:connector-curvature="0" />
    <path
       id="path2912"
       d="m 586.06654,480.04466 0,24.21309"
       style="fill:none;stroke:#000000;stroke-width:1.25;stroke-linecap:butt;stroke-linejoin:miter;stroke-miterlimit:4;stroke-opacity:1;stroke-dasharray:none"
       inkscape:connector-curvature="0" />
    <path
       style="fill:none;stroke:#000000;stroke-width:1.25;stroke-linecap:butt;stroke-linejoin:miter;stroke-miterlimit:4;stroke-opacity:1;stroke-dasharray:none"
       d="m 550.53709,449.4384 0,24.21309"
       id="path5089"
       inkscape:connector-curvature="0" />
    <path
       style="fill:none;stroke:#000000;stroke-width:1.25;stroke-linecap:butt;stroke-linejoin:miter;stroke-miterlimit:4;stroke-opacity:1;stroke-dasharray:none"
       d="m 536.41923,539.21757 0,14.40508"
       id="path5093"
       inkscape:connector-curvature="0" />
    <path
       style="fill:none;stroke:#000000;stroke-width:1.25;stroke-linecap:butt;stroke-linejoin:miter;stroke-miterlimit:4;stroke-opacity:1;stroke-dasharray:none"
       d="m 491.89327,592.95178 0,9.33188"
       id="path5095"
       inkscape:connector-curvature="0" />
    <path
       style="fill:none;stroke:#000000;stroke-width:1.25;stroke-linecap:butt;stroke-linejoin:miter;stroke-miterlimit:4;stroke-opacity:1;stroke-dasharray:none"
       d="m 446.77088,582.16295 0,28.81014"
       id="path5085"
       inkscape:connector-curvature="0" />
    <path
       style="fill:none;stroke:#000000;stroke-width:1.25;stroke-linecap:butt;stroke-linejoin:miter;stroke-miterlimit:4;stroke-opacity:1;stroke-dasharray:none"
       d="m 403.14782,548.42756 0,24.21309"
       id="path5065"
       inkscape:connector-curvature="0" />
    <path
       id="path5067"
       d="m 393.12305,655.54177 0,7.4759"
       style="fill:none;stroke:#000000;stroke-width:1.25;stroke-linecap:butt;stroke-linejoin:miter;stroke-miterlimit:4;stroke-opacity:1;stroke-dasharray:none"
       inkscape:connector-curvature="0" />
    <path
       style="fill:none;stroke:#000000;stroke-width:1.25;stroke-linecap:butt;stroke-linejoin:miter;stroke-miterlimit:4;stroke-opacity:1;stroke-dasharray:none"
       d="m 365.59324,580.82201 0,24.21309"
       id="path5081"
       inkscape:connector-curvature="0" />
    <path
       style="fill:none;stroke:#000000;stroke-width:1.25;stroke-linecap:butt;stroke-linejoin:miter;stroke-miterlimit:4;stroke-opacity:1;stroke-dasharray:none"
       d="m 331.7104,625.75915 0,17.45908"
       id="path5069"
       inkscape:connector-curvature="0" />
    <path
       id="path5073"
       d="m 340.06893,675.36316 0,17.45908"
       style="fill:none;stroke:#000000;stroke-width:1.25;stroke-linecap:butt;stroke-linejoin:miter;stroke-miterlimit:4;stroke-opacity:1;stroke-dasharray:none"
       inkscape:connector-curvature="0" />
    <path
       id="path5079"
       d="m 249.18469,730.82108 0,24.21309"
       style="fill:none;stroke:#000000;stroke-width:1.25;stroke-linecap:butt;stroke-linejoin:miter;stroke-miterlimit:4;stroke-opacity:1;stroke-dasharray:none"
       inkscape:connector-curvature="0" />
    <rect
       style="fill:#0b98ff;fill-opacity:0.40082649;stroke:none"
       id="rect3596"
       width="383.13513"
       height="232.26328"
       x="1127.9777"
       y="1345.4594"
       transform="matrix(0.86602641,-0.49999826,-0.49999826,0.86602641,0,0)" />
    <path
       style="fill:none;stroke:#006700;stroke-width:2.99999547;stroke-linecap:butt;stroke-linejoin:miter;stroke-miterlimit:4;stroke-opacity:1;stroke-dasharray:none;marker-start:url(#Arrow1Mstartf);marker-mid:none"
       d="m 215.5,443.86215 0,397"
       id="path2818"
       inkscape:connector-curvature="0" />
    <path
       id="path3592"
       d="m 215.5,840.86215 397,0"
       style="fill:none;stroke:#006700;stroke-width:2.99999547;stroke-linecap:butt;stroke-linejoin:miter;stroke-miterlimit:4;stroke-opacity:1;stroke-dasharray:none;marker-end:url(#Arrow1MendU)"
       inkscape:connector-curvature="0" />
    <path
       style="fill:none;stroke:#006700;stroke-width:3;stroke-linecap:butt;stroke-linejoin:miter;stroke-miterlimit:4;stroke-opacity:1;stroke-dasharray:none;marker-end:url(#Arrow1Mend3)"
       d="M 215.5,840.86215 559.3121,642.36214"
       id="path3594"
       inkscape:connector-curvature="0" />
    <text
       xml:space="preserve"
       style="font-size:40px;font-style:normal;font-weight:normal;line-height:125%;fill:#006700;fill-opacity:1;stroke:none;font-family:Bitstream Vera Sans"
       x="625.30298"
       y="850.35938"
       id="text5041"
       sodipodi:linespacing="125%"><tspan
         sodipodi:role="line"
         id="tspan5043"
         x="625.30298"
         y="850.35938"
         style="font-size:40px;font-style:italic;font-variant:normal;font-weight:normal;font-stretch:normal;text-align:start;line-height:125%;writing-mode:lr-tb;text-anchor:start;fill:#006700;fill-opacity:1;font-family:Times New Roman;-inkscape-font-specification:'Times New Roman, Italic'">x</tspan></text>
    <text
       sodipodi:linespacing="125%"
       id="text5049"
       y="646.35645"
       x="568.12567"
       style="font-size:40px;font-style:normal;font-weight:normal;line-height:125%;fill:#006700;fill-opacity:1;stroke:none;font-family:Bitstream Vera Sans"
       xml:space="preserve"><tspan
         style="font-size:40px;font-style:italic;font-variant:normal;font-weight:normal;font-stretch:normal;text-align:start;line-height:125%;writing-mode:lr-tb;text-anchor:start;fill:#006700;fill-opacity:1;font-family:Times New Roman;-inkscape-font-specification:'Times New Roman, Italic'"
         y="646.35645"
         x="568.12567"
         id="tspan5051"
         sodipodi:role="line">x</tspan></text>
    <text
       xml:space="preserve"
       style="font-size:40px;font-style:normal;font-weight:normal;line-height:125%;fill:#006700;fill-opacity:1;stroke:none;font-family:Bitstream Vera Sans"
       x="208.12048"
       y="428.58868"
       id="text5053"
       sodipodi:linespacing="125%"><tspan
         sodipodi:role="line"
         id="tspan5055"
         x="208.12048"
         y="428.58868"
         style="font-size:40px;font-style:italic;font-variant:normal;font-weight:normal;font-stretch:normal;text-align:start;line-height:125%;writing-mode:lr-tb;text-anchor:start;fill:#006700;fill-opacity:1;font-family:Times New Roman;-inkscape-font-specification:'Times New Roman, Italic'">y</tspan></text>
    <text
       sodipodi:linespacing="125%"
       id="text5057"
       y="654.23895"
       x="587.89069"
       style="font-size:20px;font-style:normal;font-variant:normal;font-weight:normal;font-stretch:normal;text-align:start;line-height:125%;writing-mode:lr-tb;text-anchor:start;fill:#006700;fill-opacity:1;stroke:none;font-family:Times New Roman;-inkscape-font-specification:'Times New Roman,'"
       xml:space="preserve"><tspan
         style="font-size:20px;font-style:normal;font-variant:normal;font-weight:normal;font-stretch:normal;text-align:start;line-height:125%;writing-mode:lr-tb;text-anchor:start;fill:#006700;fill-opacity:1;font-family:Times New Roman;-inkscape-font-specification:'Times New Roman,'"
         y="654.23895"
         x="587.89069"
         id="tspan5059"
         sodipodi:role="line">2</tspan></text>
    <text
       xml:space="preserve"
       style="font-size:20px;font-style:normal;font-variant:normal;font-weight:normal;font-stretch:normal;text-align:start;line-height:125%;writing-mode:lr-tb;text-anchor:start;fill:#006700;fill-opacity:1;stroke:none;font-family:Times New Roman;-inkscape-font-specification:'Times New Roman,'"
       x="642.24438"
       y="857.53601"
       id="text5061"
       sodipodi:linespacing="125%"><tspan
         sodipodi:role="line"
         id="tspan5063"
         x="642.24438"
         y="857.53601"
         style="font-size:20px;font-style:normal;font-variant:normal;font-weight:normal;font-stretch:normal;text-align:start;line-height:125%;writing-mode:lr-tb;text-anchor:start;fill:#006700;fill-opacity:1;font-family:Times New Roman;-inkscape-font-specification:'Times New Roman,'">1</tspan></text>
    <path
       id="path5289"
       d="M 225.90533,728.95699 298.9707,602.40406"
       style="fill:none;stroke:#000000;stroke-width:2.5;stroke-linecap:butt;stroke-linejoin:miter;stroke-miterlimit:4;stroke-opacity:1;stroke-dasharray:none;stroke-dashoffset:0;marker-end:none"
       inkscape:connector-curvature="0" />
    <path
       sodipodi:type="arc"
       style="fill:#ab0000;fill-opacity:1;stroke:none"
       id="path3621"
       sodipodi:cx="280.23935"
       sodipodi:cy="204.79259"
       sodipodi:rx="31.059271"
       sodipodi:ry="31.059271"
       d="m 311.29862,204.79259 a 31.059271,31.059271 0 1 1 -62.11854,0 31.059271,31.059271 0 1 1 62.11854,0 z"
       transform="matrix(0.16098253,0,0,0.16098253,505.42345,411.91477)" />
    <path
       transform="matrix(0.16098253,0,0,0.16098253,358.03418,510.48256)"
       d="m 311.29862,204.79259 a 31.059271,31.059271 0 1 1 -62.11854,0 31.059271,31.059271 0 1 1 62.11854,0 z"
       sodipodi:ry="31.059271"
       sodipodi:rx="31.059271"
       sodipodi:cy="204.79259"
       sodipodi:cx="280.23935"
       id="path3625"
       style="fill:#ab0000;fill-opacity:1;stroke:none"
       sodipodi:type="arc" />
    <path
       sodipodi:type="arc"
       style="fill:#ab0000;fill-opacity:1;stroke:none"
       id="path3627"
       sodipodi:cx="280.23935"
       sodipodi:cy="204.79259"
       sodipodi:rx="31.059271"
       sodipodi:ry="31.059271"
       d="m 311.29862,204.79259 a 31.059271,31.059271 0 1 1 -62.11854,0 31.059271,31.059271 0 1 1 62.11854,0 z"
       transform="matrix(0.16098253,0,0,0.16098253,453.89329,489.68063)" />
    <path
       transform="matrix(0.16098253,0,0,0.16098253,204.07105,693.31103)"
       d="m 311.29862,204.79259 a 31.059271,31.059271 0 1 1 -62.11854,0 31.059271,31.059271 0 1 1 62.11854,0 z"
       sodipodi:ry="31.059271"
       sodipodi:rx="31.059271"
       sodipodi:cy="204.79259"
       sodipodi:cx="280.23935"
       id="path3629"
       style="fill:#ab0000;fill-opacity:1;stroke:none"
       sodipodi:type="arc" />
    <path
       sodipodi:type="arc"
       style="fill:#ab0000;fill-opacity:1;stroke:none"
       id="path3631"
       sodipodi:cx="280.23935"
       sodipodi:cy="204.79259"
       sodipodi:rx="31.059271"
       sodipodi:ry="31.059271"
       d="m 311.29862,204.79259 a 31.059271,31.059271 0 1 1 -62.11854,0 31.059271,31.059271 0 1 1 62.11854,0 z"
       transform="matrix(0.16098253,0,0,0.16098253,286.59676,587.7997)" />
    <path
       transform="matrix(0.16098253,0,0,0.16098253,348.00941,617.44719)"
       d="m 311.29862,204.79259 a 31.059271,31.059271 0 1 1 -62.11854,0 31.059271,31.059271 0 1 1 62.11854,0 z"
       sodipodi:ry="31.059271"
       sodipodi:rx="31.059271"
       sodipodi:cy="204.79259"
       sodipodi:cx="280.23935"
       id="path3633"
       style="fill:#ab0000;fill-opacity:1;stroke:none"
       sodipodi:type="arc" />
    <path
       sodipodi:type="arc"
       style="fill:#ab0000;fill-opacity:1;stroke:none"
       id="path3635"
       sodipodi:cx="280.23935"
       sodipodi:cy="204.79259"
       sodipodi:rx="31.059271"
       sodipodi:ry="31.059271"
       d="m 311.29862,204.79259 a 31.059271,31.059271 0 1 1 -62.11854,0 31.059271,31.059271 0 1 1 62.11854,0 z"
       transform="matrix(0.16098253,0,0,0.16098253,348.00941,617.44719)" />
    <path
       transform="matrix(0.16098253,0,0,0.16098253,446.77963,554.97843)"
       d="m 311.29862,204.79259 a 31.059271,31.059271 0 1 1 -62.11854,0 31.059271,31.059271 0 1 1 62.11854,0 z"
       sodipodi:ry="31.059271"
       sodipodi:rx="31.059271"
       sodipodi:cy="204.79259"
       sodipodi:cx="280.23935"
       id="path3637"
       style="fill:#ab0000;fill-opacity:1;stroke:none"
       sodipodi:type="arc" />
    <path
       sodipodi:type="arc"
       style="fill:#ab0000;fill-opacity:1;stroke:none"
       id="path3639"
       sodipodi:cx="280.23935"
       sodipodi:cy="204.79259"
       sodipodi:rx="31.059271"
       sodipodi:ry="31.059271"
       d="m 311.29862,204.79259 a 31.059271,31.059271 0 1 1 -62.11854,0 31.059271,31.059271 0 1 1 62.11854,0 z"
       transform="matrix(0.16098253,0,0,0.16098253,563.30663,395.20924)" />
    <path
       transform="matrix(0.16098253,0,0,0.16098253,540.9529,476.73922)"
       d="m 311.29862,204.79259 a 31.059271,31.059271 0 1 1 -62.11854,0 31.059271,31.059271 0 1 1 62.11854,0 z"
       sodipodi:ry="31.059271"
       sodipodi:rx="31.059271"
       sodipodi:cy="204.79259"
       sodipodi:cx="280.23935"
       id="path3641"
       style="fill:none;stroke:#000000;stroke-width:7.76481771;stroke-miterlimit:4;stroke-opacity:1;stroke-dasharray:none"
       sodipodi:type="arc" />
    <path
       sodipodi:type="arc"
       style="fill:none;stroke:#000000;stroke-width:7.76481771;stroke-miterlimit:4;stroke-opacity:1;stroke-dasharray:none"
       id="path3643"
       sodipodi:cx="280.23935"
       sodipodi:cy="204.79259"
       sodipodi:rx="31.059271"
       sodipodi:ry="31.059271"
       d="m 311.29862,204.79259 a 31.059271,31.059271 0 1 1 -62.11854,0 31.059271,31.059271 0 1 1 62.11854,0 z"
       transform="matrix(0.16098253,0,0,0.16098253,398.12778,532.74008)" />
    <path
       sodipodi:type="arc"
       style="fill:none;stroke:#000000;stroke-width:7.76481771;stroke-miterlimit:4;stroke-opacity:1;stroke-dasharray:none"
       id="path3645"
       sodipodi:cx="280.23935"
       sodipodi:cy="204.79259"
       sodipodi:rx="31.059271"
       sodipodi:ry="31.059271"
       d="m 311.29862,204.79259 a 31.059271,31.059271 0 1 1 -62.11854,0 31.059271,31.059271 0 1 1 62.11854,0 z"
       transform="matrix(0.16098253,0,0,0.16098253,491.30559,525.68116)" />
    <path
       transform="matrix(0.16098253,0,0,0.16098253,401.65724,583.4105)"
       d="m 311.29862,204.79259 a 31.059271,31.059271 0 1 1 -62.11854,0 31.059271,31.059271 0 1 1 62.11854,0 z"
       sodipodi:ry="31.059271"
       sodipodi:rx="31.059271"
       sodipodi:cy="204.79259"
       sodipodi:cx="280.23935"
       id="path3647"
       style="fill:none;stroke:#000000;stroke-width:7.76481771;stroke-miterlimit:4;stroke-opacity:1;stroke-dasharray:none"
       sodipodi:type="arc" />
    <path
       sodipodi:type="arc"
       style="fill:none;stroke:#000000;stroke-width:7.76481771;stroke-miterlimit:4;stroke-opacity:1;stroke-dasharray:none"
       id="path3649"
       sodipodi:cx="280.23935"
       sodipodi:cy="204.79259"
       sodipodi:rx="31.059271"
       sodipodi:ry="31.059271"
       d="m 311.29862,204.79259 a 31.059271,31.059271 0 1 1 -62.11854,0 31.059271,31.059271 0 1 1 62.11854,0 z"
       transform="matrix(0.16098253,0,0,0.16098253,294.95529,664.41641)" />
    <path
       transform="matrix(0.16098253,0,0,0.16098253,320.4796,576.15222)"
       d="m 311.29862,204.79259 a 31.059271,31.059271 0 1 1 -62.11854,0 31.059271,31.059271 0 1 1 62.11854,0 z"
       sodipodi:ry="31.059271"
       sodipodi:rx="31.059271"
       sodipodi:cy="204.79259"
       sodipodi:cx="280.23935"
       id="path3651"
       style="fill:none;stroke:#000000;stroke-width:7.76481771;stroke-miterlimit:4;stroke-opacity:1;stroke-dasharray:none"
       sodipodi:type="arc" />
    <path
       id="path5087"
       d="m 443.24142,554.43769 0,5.76202"
       style="fill:none;stroke:#000000;stroke-width:1.25;stroke-linecap:butt;stroke-linejoin:miter;stroke-miterlimit:4;stroke-opacity:1;stroke-dasharray:none"
       inkscape:connector-curvature="0" />
    <path
       id="path5091"
       d="m 499.00693,527.39003 0,3.84136"
       style="fill:none;stroke:#000000;stroke-width:1.25;stroke-linecap:butt;stroke-linejoin:miter;stroke-miterlimit:4;stroke-opacity:1;stroke-dasharray:none"
       inkscape:connector-curvature="0" />
    <path
       style="fill:none;stroke:#000000;stroke-width:2.5;stroke-linecap:butt;stroke-linejoin:miter;stroke-miterlimit:4;stroke-opacity:1;stroke-dasharray:10, 5;stroke-dashoffset:0;marker-end:none"
       d="m 225.44122,729.00178 73.5337,-42.45451"
       id="path5097"
       inkscape:connector-curvature="0" />
    <path
       id="path5291"
       d="M 407.10453,684.04883 519.75252,619.01179"
       style="fill:none;stroke:#000000;stroke-width:2.5;stroke-linecap:butt;stroke-linejoin:miter;stroke-miterlimit:4;stroke-opacity:1;stroke-dasharray:none;stroke-dashoffset:0;marker-end:none"
       inkscape:connector-curvature="0" />
    <path
       style="fill:none;stroke:#000000;stroke-width:2.5;stroke-linecap:butt;stroke-linejoin:miter;stroke-miterlimit:4;stroke-opacity:1;stroke-dasharray:10, 5;stroke-dashoffset:0;marker-end:none"
       d="m 299.13444,684.50086 7.2e-4,-79.40161"
       id="path5665"
       inkscape:connector-curvature="0" />
    <path
       style="fill:none;stroke:#000000;stroke-width:2.5;stroke-linecap:butt;stroke-linejoin:miter;stroke-miterlimit:4;stroke-opacity:1;stroke-dasharray:10, 5;stroke-dashoffset:0;marker-end:none"
       d="m 405.76598,684.75356 114.35528,2.4e-4"
       id="path5853"
       inkscape:connector-curvature="0" />
    <path
       id="path6227"
       d="m 520.602,684.59614 8.6e-4,-64.7064"
       style="fill:none;stroke:#000000;stroke-width:2.5;stroke-linecap:butt;stroke-linejoin:miter;stroke-miterlimit:4;stroke-opacity:1;stroke-dasharray:10, 5;stroke-dashoffset:0;marker-end:none"
       inkscape:connector-curvature="0" />
    <text
       xml:space="preserve"
       style="font-size:40px;font-style:normal;font-weight:normal;line-height:125%;fill:#000000;fill-opacity:1;stroke:none;font-family:Bitstream Vera Sans"
       x="238.53674"
       y="654.48572"
       id="text7196"
       sodipodi:linespacing="125%"><tspan
         sodipodi:role="line"
         id="tspan7198"
         x="238.53674"
         y="654.48572"
         style="font-size:30px;font-style:italic;font-variant:normal;font-weight:normal;font-stretch:normal;text-align:start;line-height:125%;writing-mode:lr-tb;text-anchor:start;font-family:Times New Roman;-inkscape-font-specification:'Times New Roman, Italic'">b</tspan></text>
    <text
       sodipodi:linespacing="125%"
       id="text7200"
       y="670.61865"
       x="471.2226"
       style="font-size:40px;font-style:normal;font-weight:normal;line-height:125%;fill:#000000;fill-opacity:1;stroke:none;font-family:Bitstream Vera Sans"
       xml:space="preserve"><tspan
         style="font-size:30px;font-style:italic;font-variant:normal;font-weight:normal;font-stretch:normal;text-align:start;line-height:125%;writing-mode:lr-tb;text-anchor:start;font-family:Times New Roman;-inkscape-font-specification:'Times New Roman, Italic'"
         y="670.61865"
         x="471.2226"
         id="tspan7202"
         sodipodi:role="line">b</tspan></text>
    <flowRoot
       xml:space="preserve"
       id="flowRoot7204"
       style="font-size:40px;font-style:normal;font-weight:normal;fill:#000000;fill-opacity:1;stroke:none;font-family:Bitstream Vera Sans"
       transform="translate(14,264.26767)"><flowRegion
         id="flowRegion7206"><rect
           id="rect7208"
           width="48.933689"
           height="40.889793"
           x="498.05112"
           y="456.52527" /></flowRegion><flowPara
         id="flowPara7210"> </flowPara></flowRoot>    <text
       xml:space="preserve"
       style="font-size:16px;font-style:normal;font-variant:normal;font-weight:normal;font-stretch:normal;text-align:start;line-height:125%;writing-mode:lr-tb;text-anchor:start;fill:#000000;fill-opacity:1;stroke:none;font-family:Times New Roman;-inkscape-font-specification:'Times New Roman,'"
       x="482.55719"
       y="679.33289"
       id="text7212"
       sodipodi:linespacing="125%"><tspan
         sodipodi:role="line"
         id="tspan7214"
         x="482.55719"
         y="679.33289"
         style="font-size:16px;font-style:normal;font-variant:normal;font-weight:normal;font-stretch:normal;text-align:start;line-height:125%;writing-mode:lr-tb;text-anchor:start;font-family:Times New Roman;-inkscape-font-specification:'Times New Roman,'">1</tspan></text>
    <text
       sodipodi:linespacing="125%"
       id="text7220"
       y="662.13361"
       x="249.80856"
       style="font-size:16px;font-style:normal;font-variant:normal;font-weight:normal;font-stretch:normal;text-align:start;line-height:125%;writing-mode:lr-tb;text-anchor:start;fill:#000000;fill-opacity:1;stroke:none;font-family:Times New Roman;-inkscape-font-specification:'Times New Roman,'"
       xml:space="preserve"><tspan
         sodipodi:role="line"
         id="tspan7224"
         x="249.80856"
         y="662.13361">2</tspan></text>
    <path
       style="fill:none;stroke:#000000;stroke-width:2;stroke-linecap:butt;stroke-linejoin:miter;stroke-miterlimit:4;stroke-opacity:1;stroke-dasharray:none;marker-start:url(#Arrow1Mstart)"
       d="m 513.07341,500.6329 c -92.421,-59.00726 -129.3894,-17.77328 -129.3894,-17.77328"
       id="path2914"
       sodipodi:nodetypes="cc"
       inkscape:connector-curvature="0" />
    <text
       sodipodi:linespacing="125%"
       id="text4160"
       y="501.81458"
       x="357.10339"
       style="font-size:40px;font-style:normal;font-weight:normal;line-height:125%;fill:#000000;fill-opacity:1;stroke:none;font-family:Bitstream Vera Sans"
       xml:space="preserve"><tspan
         style="font-size:40px;font-style:italic;font-variant:normal;font-weight:normal;font-stretch:normal;text-align:start;line-height:125%;writing-mode:lr-tb;text-anchor:start;fill:#000000;fill-opacity:1;font-family:Times New Roman;-inkscape-font-specification:'Times New Roman, Italic'"
         y="501.81458"
         x="357.10339"
         id="tspan4162"
         sodipodi:role="line">y</tspan></text>
    <text
       xml:space="preserve"
       style="font-size:30px;font-style:normal;font-variant:normal;font-weight:bold;font-stretch:normal;text-align:start;line-height:125%;writing-mode:lr-tb;text-anchor:start;fill:#000000;fill-opacity:1;stroke:none;font-family:Times New Roman;-inkscape-font-specification:'Times New Roman, Bold'"
       x="359.54822"
       y="490.72968"
       id="text4164"
       sodipodi:linespacing="125%"><tspan
         sodipodi:role="line"
         id="tspan4168"
         x="359.54822"
         y="490.72968">^</tspan></text>
    <path
       transform="matrix(0.16098253,0,0,0.16098253,505.42345,631.91477)"
       d="m 311.29862,204.79259 a 31.059271,31.059271 0 1 1 -62.11854,0 31.059271,31.059271 0 1 1 62.11854,0 z"
       sodipodi:ry="31.059271"
       sodipodi:rx="31.059271"
       sodipodi:cy="204.79259"
       sodipodi:cx="280.23935"
       id="path3067"
       style="fill:#ab0000;fill-opacity:1;stroke:none"
       sodipodi:type="arc" />
    <path
       sodipodi:type="arc"
       style="fill:#ab0000;fill-opacity:1;stroke:none"
       id="path3069"
       sodipodi:cx="280.23935"
       sodipodi:cy="204.79259"
       sodipodi:rx="31.059271"
       sodipodi:ry="31.059271"
       d="m 311.29862,204.79259 a 31.059271,31.059271 0 1 1 -62.11854,0 31.059271,31.059271 0 1 1 62.11854,0 z"
       transform="matrix(0.16098253,0,0,0.16098253,358.03418,710.4826)" />
    <path
       transform="matrix(0.16098253,0,0,0.16098253,453.89329,705.68063)"
       d="m 311.29862,204.79259 a 31.059271,31.059271 0 1 1 -62.11854,0 31.059271,31.059271 0 1 1 62.11854,0 z"
       sodipodi:ry="31.059271"
       sodipodi:rx="31.059271"
       sodipodi:cy="204.79259"
       sodipodi:cx="280.23935"
       id="path3071"
       style="fill:#ab0000;fill-opacity:1;stroke:none"
       sodipodi:type="arc" />
    <path
       sodipodi:type="arc"
       style="fill:#ab0000;fill-opacity:1;stroke:none"
       id="path3073"
       sodipodi:cx="280.23935"
       sodipodi:cy="204.79259"
       sodipodi:rx="31.059271"
       sodipodi:ry="31.059271"
       d="m 311.29862,204.79259 a 31.059271,31.059271 0 1 1 -62.11854,0 31.059271,31.059271 0 1 1 62.11854,0 z"
       transform="matrix(0.16098253,0,0,0.16098253,204.07105,797.311)" />
    <path
       transform="matrix(0.16098253,0,0,0.16098253,286.59676,747.7997)"
       d="m 311.29862,204.79259 a 31.059271,31.059271 0 1 1 -62.11854,0 31.059271,31.059271 0 1 1 62.11854,0 z"
       sodipodi:ry="31.059271"
       sodipodi:rx="31.059271"
       sodipodi:cy="204.79259"
       sodipodi:cx="280.23935"
       id="path3075"
       style="fill:#ab0000;fill-opacity:1;stroke:none"
       sodipodi:type="arc" />
    <path
       transform="matrix(0.16098253,0,0,0.16098253,348.00941,777.4472)"
       d="m 311.29862,204.79259 a 31.059271,31.059271 0 1 1 -62.11854,0 31.059271,31.059271 0 1 1 62.11854,0 z"
       sodipodi:ry="31.059271"
       sodipodi:rx="31.059271"
       sodipodi:cy="204.79259"
       sodipodi:cx="280.23935"
       id="path3077"
       style="fill:#ab0000;fill-opacity:1;stroke:none"
       sodipodi:type="arc" />
    <path
       sodipodi:type="arc"
       style="fill:#ab0000;fill-opacity:1;stroke:none"
       id="path3079"
       sodipodi:cx="280.23935"
       sodipodi:cy="204.79259"
       sodipodi:rx="31.059271"
       sodipodi:ry="31.059271"
       d="m 311.29862,204.79259 a 31.059271,31.059271 0 1 1 -62.11854,0 31.059271,31.059271 0 1 1 62.11854,0 z"
       transform="matrix(0.16098253,0,0,0.16098253,446.77963,788.9784)" />
    <path
       transform="matrix(0.16098253,0,0,0.16098253,563.30663,675.20924)"
       d="m 311.29862,204.79259 a 31.059271,31.059271 0 1 1 -62.11854,0 31.059271,31.059271 0 1 1 62.11854,0 z"
       sodipodi:ry="31.059271"
       sodipodi:rx="31.059271"
       sodipodi:cy="204.79259"
       sodipodi:cx="280.23935"
       id="path3081"
       style="fill:#ab0000;fill-opacity:1;stroke:none"
       sodipodi:type="arc" />
    <path
       sodipodi:type="arc"
       style="fill:none;stroke:#000000;stroke-width:7.76481771;stroke-miterlimit:4;stroke-opacity:1;stroke-dasharray:none"
       id="path3083"
       sodipodi:cx="280.23935"
       sodipodi:cy="204.79259"
       sodipodi:rx="31.059271"
       sodipodi:ry="31.059271"
       d="m 311.29862,204.79259 a 31.059271,31.059271 0 1 1 -62.11854,0 31.059271,31.059271 0 1 1 62.11854,0 z"
       transform="matrix(0.16098253,0,0,0.16098253,540.9529,728.73922)" />
    <path
       transform="matrix(0.16098253,0,0,0.16098253,398.12778,718.7401)"
       d="m 311.29862,204.79259 a 31.059271,31.059271 0 1 1 -62.11854,0 31.059271,31.059271 0 1 1 62.11854,0 z"
       sodipodi:ry="31.059271"
       sodipodi:rx="31.059271"
       sodipodi:cy="204.79259"
       sodipodi:cx="280.23935"
       id="path3085"
       style="fill:none;stroke:#000000;stroke-width:7.76481771;stroke-miterlimit:4;stroke-opacity:1;stroke-dasharray:none"
       sodipodi:type="arc" />
    <path
       transform="matrix(0.16098253,0,0,0.16098253,491.30559,765.6812)"
       d="m 311.29862,204.79259 a 31.059271,31.059271 0 1 1 -62.11854,0 31.059271,31.059271 0 1 1 62.11854,0 z"
       sodipodi:ry="31.059271"
       sodipodi:rx="31.059271"
       sodipodi:cy="204.79259"
       sodipodi:cx="280.23935"
       id="path3087"
       style="fill:none;stroke:#000000;stroke-width:7.76481771;stroke-miterlimit:4;stroke-opacity:1;stroke-dasharray:none"
       sodipodi:type="arc" />
    <path
       sodipodi:type="arc"
       style="fill:none;stroke:#000000;stroke-width:7.76481771;stroke-miterlimit:4;stroke-opacity:1;stroke-dasharray:none"
       id="path3089"
       sodipodi:cx="280.23935"
       sodipodi:cy="204.79259"
       sodipodi:rx="31.059271"
       sodipodi:ry="31.059271"
       d="m 311.29862,204.79259 a 31.059271,31.059271 0 1 1 -62.11854,0 31.059271,31.059271 0 1 1 62.11854,0 z"
       transform="matrix(0.16098253,0,0,0.16098253,401.65724,783.4105)" />
    <path
       transform="matrix(0.16098253,0,0,0.16098253,294.95529,794.4164)"
       d="m 311.29862,204.79259 a 31.059271,31.059271 0 1 1 -62.11854,0 31.059271,31.059271 0 1 1 62.11854,0 z"
       sodipodi:ry="31.059271"
       sodipodi:rx="31.059271"
       sodipodi:cy="204.79259"
       sodipodi:cx="280.23935"
       id="path3091"
       style="fill:none;stroke:#000000;stroke-width:7.76481771;stroke-miterlimit:4;stroke-opacity:1;stroke-dasharray:none"
       sodipodi:type="arc" />
    <path
       sodipodi:type="arc"
       style="fill:none;stroke:#000000;stroke-width:7.76481771;stroke-miterlimit:4;stroke-opacity:1;stroke-dasharray:none"
       id="path3093"
       sodipodi:cx="280.23935"
       sodipodi:cy="204.79259"
       sodipodi:rx="31.059271"
       sodipodi:ry="31.059271"
       d="m 311.29862,204.79259 a 31.059271,31.059271 0 1 1 -62.11854,0 31.059271,31.059271 0 1 1 62.11854,0 z"
       transform="matrix(0.16098253,0,0,0.16098253,320.4796,748.1522)" />
  </g>
</svg>
