<?xml version="1.0" encoding="UTF-8" standalone="no"?>
<!-- Created with Inkscape (http://www.inkscape.org/) -->

<svg
   xmlns:dc="http://purl.org/dc/elements/1.1/"
   xmlns:cc="http://creativecommons.org/ns#"
   xmlns:rdf="http://www.w3.org/1999/02/22-rdf-syntax-ns#"
   xmlns:svg="http://www.w3.org/2000/svg"
   xmlns="http://www.w3.org/2000/svg"
   xmlns:sodipodi="http://sodipodi.sourceforge.net/DTD/sodipodi-0.dtd"
   xmlns:inkscape="http://www.inkscape.org/namespaces/inkscape"
   sodipodi:docname="least-squares-dummy-variable-and-intercept.svg"
   inkscape:version="0.47 r22583"
   version="1.1"
   id="svg2"
   height="744.09448"
   width="1052.3622">
  <sodipodi:namedview
     id="base"
     pagecolor="#ffffff"
     bordercolor="#666666"
     borderopacity="1.0"
     inkscape:pageopacity="0.0"
     inkscape:pageshadow="2"
     inkscape:zoom="1.6217085"
     inkscape:cx="402.81388"
     inkscape:cy="360.49164"
     inkscape:document-units="px"
     inkscape:current-layer="layer1"
     showgrid="false"
     inkscape:window-width="1440"
     inkscape:window-height="796"
     inkscape:window-x="0"
     inkscape:window-y="0"
     inkscape:window-maximized="0" />
  <defs
     id="defs4">
    <marker
       inkscape:stockid="Arrow1Mend"
       orient="auto"
       refY="0.0"
       refX="0.0"
       id="Arrow1Mend"
       style="overflow:visible;">
      <path
         id="path3977"
         d="M 0.0,0.0 L 5.0,-5.0 L -12.5,0.0 L 5.0,5.0 L 0.0,0.0 z "
         style="fill-rule:evenodd;stroke:#000000;stroke-width:1.0pt;marker-start:none;"
         transform="scale(0.4) rotate(180) translate(10,0)" />
    </marker>
    <marker
       inkscape:stockid="Arrow1Mstart"
       orient="auto"
       refY="0.0"
       refX="0.0"
       id="Arrow1Mstart"
       style="overflow:visible">
      <path
         id="path3715"
         d="M 0.0,0.0 L 5.0,-5.0 L -12.5,0.0 L 5.0,5.0 L 0.0,0.0 z "
         style="fill-rule:evenodd;stroke:#000000;stroke-width:1.0pt;marker-start:none"
         transform="scale(0.4) translate(10,0)" />
    </marker>
    <inkscape:perspective
       sodipodi:type="inkscape:persp3d"
       inkscape:vp_x="0 : 372.04724 : 1"
       inkscape:vp_y="0 : 1000 : 0"
       inkscape:vp_z="1052.3622 : 372.04724 : 1"
       inkscape:persp3d-origin="526.18109 : 248.03149 : 1"
       id="perspective2897" />
    <marker
       inkscape:stockid="Arrow1Mend3"
       orient="auto"
       refY="0.0"
       refX="0.0"
       id="Arrow1Mend3"
       style="overflow:visible;">
      <path
         id="path6925"
         d="M 0.0,0.0 L 5.0,-5.0 L -12.5,0.0 L 5.0,5.0 L 0.0,0.0 z "
         style="marker-start:none;stroke:#006700;stroke-width:1.0pt;fill:#006700;fill-rule:evenodd"
         transform="scale(0.4) rotate(180) translate(10,0)" />
    </marker>
    <marker
       inkscape:stockid="Arrow1MendU"
       orient="auto"
       refY="0.0"
       refX="0.0"
       id="Arrow1MendU"
       style="overflow:visible;">
      <path
         id="path7063"
         d="M 0.0,0.0 L 5.0,-5.0 L -12.5,0.0 L 5.0,5.0 L 0.0,0.0 z "
         style="marker-start:none;stroke:#006700;stroke-width:1.0pt;fill:#006700;fill-rule:evenodd"
         transform="scale(0.4) rotate(180) translate(10,0)" />
    </marker>
    <marker
       inkscape:stockid="Arrow1Mstartf"
       orient="auto"
       refY="0.0"
       refX="0.0"
       id="Arrow1Mstartf"
       style="overflow:visible">
      <path
         id="path7066"
         d="M 0.0,0.0 L 5.0,-5.0 L -12.5,0.0 L 5.0,5.0 L 0.0,0.0 z "
         style="marker-start:none;stroke:#006700;stroke-width:1.0pt;fill:#006700;fill-rule:evenodd"
         transform="scale(0.4) translate(10,0)" />
    </marker>
  </defs>
  <metadata
     id="metadata7">
    <rdf:RDF>
      <cc:Work
         rdf:about="">
        <dc:format>image/svg+xml</dc:format>
        <dc:type
           rdf:resource="http://purl.org/dc/dcmitype/StillImage" />
        <dc:title></dc:title>
      </cc:Work>
    </rdf:RDF>
  </metadata>
  <g
     inkscape:label="Layer 1"
     inkscape:groupmode="layer"
     id="layer1"
     transform="translate(0,-308.26767)">
    <path
       style="fill:none;stroke:#006700;stroke-width:2.62449789;stroke-linecap:butt;stroke-linejoin:miter;stroke-miterlimit:4;stroke-opacity:1;stroke-dasharray:none;marker-start:url(#Arrow1Mstartf);marker-mid:none"
       d="m 201.5,557.70274 0,293.34716"
       id="path2818" />
    <path
       id="path3592"
       d="m 201.5,850.86215 397,0"
       style="fill:none;stroke:#006700;stroke-width:2.99999547;stroke-linecap:butt;stroke-linejoin:miter;stroke-miterlimit:4;stroke-opacity:1;stroke-dasharray:none;marker-end:url(#Arrow1MendU)" />
    <text
       xml:space="preserve"
       style="font-size:18px;font-style:normal;font-variant:normal;font-weight:normal;font-stretch:normal;text-align:start;line-height:125%;writing-mode:lr-tb;text-anchor:start;fill:#000000;fill-opacity:1;stroke:none;font-family:Bitstream Vera Sans;-inkscape-font-specification:Bitstream Vera Sans"
       x="469.36911"
       y="545.19543"
       id="text3657"
       sodipodi:linespacing="125%"><tspan
         sodipodi:role="line"
         id="tspan3659"
         x="469.36911"
         y="545.19543">Axial impeller</tspan></text>
    <text
       sodipodi:linespacing="125%"
       id="text3661"
       y="582.60785"
       x="469.36911"
       style="font-size:18px;font-style:normal;font-variant:normal;font-weight:normal;font-stretch:normal;text-align:start;line-height:125%;writing-mode:lr-tb;text-anchor:start;fill:#000000;fill-opacity:1;stroke:none;font-family:Bitstream Vera Sans;-inkscape-font-specification:Bitstream Vera Sans"
       xml:space="preserve"><tspan
         y="582.60785"
         x="469.36911"
         id="tspan3663"
         sodipodi:role="line">Radial impeller</tspan></text>
    <text
       xml:space="preserve"
       style="font-size:40px;font-style:normal;font-weight:normal;line-height:125%;fill:#006700;fill-opacity:1;stroke:none;font-family:Bitstream Vera Sans"
       x="611.30298"
       y="860.35938"
       id="text5041"
       sodipodi:linespacing="125%"><tspan
         sodipodi:role="line"
         id="tspan5043"
         x="611.30298"
         y="860.35938"
         style="font-size:40px;font-style:italic;font-variant:normal;font-weight:normal;font-stretch:normal;text-align:start;line-height:125%;writing-mode:lr-tb;text-anchor:start;fill:#006700;fill-opacity:1;font-family:Times New Roman;-inkscape-font-specification:'Times New Roman, Italic'">x</tspan></text>
    <text
       xml:space="preserve"
       style="font-size:40px;font-style:normal;font-weight:normal;fill:#000000;fill-opacity:1;stroke:none;font-family:Bitstream Vera Sans"
       x="695.30414"
       y="550.67993"
       id="text5045"
       transform="translate(0,308.26767)"><tspan
         sodipodi:role="line"
         id="tspan5047"
         x="695.30414"
         y="550.67993"> </tspan></text>
    <text
       xml:space="preserve"
       style="font-size:40px;font-style:normal;font-weight:normal;line-height:125%;fill:#006700;fill-opacity:1;stroke:none;font-family:Bitstream Vera Sans"
       x="194.12048"
       y="540.58868"
       id="text5053"
       sodipodi:linespacing="125%"><tspan
         sodipodi:role="line"
         id="tspan5055"
         x="194.12048"
         y="540.58868"
         style="font-size:40px;font-style:italic;font-variant:normal;font-weight:normal;font-stretch:normal;text-align:start;line-height:125%;writing-mode:lr-tb;text-anchor:start;fill:#006700;fill-opacity:1;font-family:Times New Roman;-inkscape-font-specification:'Times New Roman, Italic'">y</tspan></text>
    <path
       sodipodi:type="arc"
       style="fill:#ab0000;fill-opacity:1;stroke:none"
       id="path3631"
       sodipodi:cx="280.23935"
       sodipodi:cy="204.79259"
       sodipodi:rx="31.059271"
       sodipodi:ry="31.059271"
       d="m 311.29862,204.79259 a 31.059271,31.059271 0 1 1 -62.11854,0 31.059271,31.059271 0 1 1 62.11854,0 z"
       transform="matrix(0.16098253,0,0,0.16098253,204.76706,633.80367)" />
    <path
       transform="matrix(0.16098253,0,0,0.16098253,281.08776,651.54635)"
       d="m 311.29862,204.79259 a 31.059271,31.059271 0 1 1 -62.11854,0 31.059271,31.059271 0 1 1 62.11854,0 z"
       sodipodi:ry="31.059271"
       sodipodi:rx="31.059271"
       sodipodi:cy="204.79259"
       sodipodi:cx="280.23935"
       id="path3637"
       style="fill:#ab0000;fill-opacity:1;stroke:none"
       sodipodi:type="arc" />
    <path
       sodipodi:type="arc"
       style="fill:none;stroke:#000000;stroke-width:7.76481771;stroke-miterlimit:4;stroke-opacity:1;stroke-dasharray:none"
       id="path3649"
       sodipodi:cx="280.23935"
       sodipodi:cy="204.79259"
       sodipodi:rx="31.059271"
       sodipodi:ry="31.059271"
       d="m 311.29862,204.79259 a 31.059271,31.059271 0 1 1 -62.11854,0 31.059271,31.059271 0 1 1 62.11854,0 z"
       transform="matrix(0.16098253,0,0,0.16098253,327.20281,775.16691)" />
    <path
       transform="matrix(0.16098253,0,0,0.16098253,179.45307,753.49915)"
       d="m 311.29862,204.79259 a 31.059271,31.059271 0 1 1 -62.11854,0 31.059271,31.059271 0 1 1 62.11854,0 z"
       sodipodi:ry="31.059271"
       sodipodi:rx="31.059271"
       sodipodi:cy="204.79259"
       sodipodi:cx="280.23935"
       id="path3651"
       style="fill:none;stroke:#000000;stroke-width:7.76481771;stroke-miterlimit:4;stroke-opacity:1;stroke-dasharray:none"
       sodipodi:type="arc" />
    <path
       transform="matrix(0.16098253,0,0,0.16098253,412.61091,505.60633)"
       d="m 311.29862,204.79259 a 31.059271,31.059271 0 1 1 -62.11854,0 31.059271,31.059271 0 1 1 62.11854,0 z"
       sodipodi:ry="31.059271"
       sodipodi:rx="31.059271"
       sodipodi:cy="204.79259"
       sodipodi:cx="280.23935"
       id="path3653"
       style="fill:none;stroke:#000000;stroke-width:12.42370796;stroke-miterlimit:4;stroke-opacity:1;stroke-dasharray:none"
       sodipodi:type="arc" />
    <path
       transform="matrix(0.16098253,0,0,0.16098253,411.61091,543.01868)"
       d="m 311.29862,204.79259 a 31.059271,31.059271 0 1 1 -62.11854,0 31.059271,31.059271 0 1 1 62.11854,0 z"
       sodipodi:ry="31.059271"
       sodipodi:rx="31.059271"
       sodipodi:cy="204.79259"
       sodipodi:cx="280.23935"
       id="path3655"
       style="fill:#ab0000;fill-opacity:1;stroke:none"
       sodipodi:type="arc" />
    <flowRoot
       xml:space="preserve"
       id="flowRoot7204"
       style="font-size:40px;font-style:normal;font-weight:normal;fill:#000000;fill-opacity:1;stroke:none;font-family:Bitstream Vera Sans"
       transform="translate(0,320.26767)"><flowRegion
         id="flowRegion7206"><rect
           id="rect7208"
           width="48.933689"
           height="40.889793"
           x="498.05112"
           y="456.52527" /></flowRegion><flowPara
         id="flowPara7210"> </flowPara></flowRoot>    <text
       xml:space="preserve"
       style="font-size:40px;font-style:normal;font-weight:normal;fill:#000000;fill-opacity:1;stroke:none;font-family:Bitstream Vera Sans"
       x="632.78632"
       y="610.33209"
       id="text7216"><tspan
         sodipodi:role="line"
         id="tspan7218"
         x="632.78632"
         y="610.33209"> </tspan></text>
    <path
       style="fill:none;stroke:#000000;stroke-width:2;stroke-linecap:butt;stroke-linejoin:miter;stroke-miterlimit:4;stroke-opacity:1;stroke-dasharray:none"
       d="m 200.24117,797.84149 354.71294,0"
       id="path2927" />
    <path
       id="path2929"
       d="m 200.24117,677.84149 354.71294,0"
       style="fill:none;stroke:#000000;stroke-width:2;stroke-linecap:butt;stroke-linejoin:miter;stroke-miterlimit:4;stroke-opacity:1;stroke-dasharray:none" />
    <path
       sodipodi:type="arc"
       style="fill:#ab0000;fill-opacity:1;stroke:none"
       id="path3727"
       sodipodi:cx="280.23935"
       sodipodi:cy="204.79259"
       sodipodi:rx="31.059271"
       sodipodi:ry="31.059271"
       d="m 311.29862,204.79259 a 31.059271,31.059271 0 1 1 -62.11854,0 31.059271,31.059271 0 1 1 62.11854,0 z"
       transform="matrix(0.16098253,0,0,0.16098253,338.43469,633.04734)" />
    <path
       transform="matrix(0.16098253,0,0,0.16098253,463.61131,656.47941)"
       d="m 311.29862,204.79259 a 31.059271,31.059271 0 1 1 -62.11854,0 31.059271,31.059271 0 1 1 62.11854,0 z"
       sodipodi:ry="31.059271"
       sodipodi:rx="31.059271"
       sodipodi:cy="204.79259"
       sodipodi:cx="280.23935"
       id="path3729"
       style="fill:#ab0000;fill-opacity:1;stroke:none"
       sodipodi:type="arc" />
    <path
       sodipodi:type="arc"
       style="fill:#ab0000;fill-opacity:1;stroke:none"
       id="path3731"
       sodipodi:cx="280.23935"
       sodipodi:cy="204.79259"
       sodipodi:rx="31.059271"
       sodipodi:ry="31.059271"
       d="m 311.29862,204.79259 a 31.059271,31.059271 0 1 1 -62.11854,0 31.059271,31.059271 0 1 1 62.11854,0 z"
       transform="matrix(0.16098253,0,0,0.16098253,388.38201,654.01288)" />
    <path
       transform="matrix(0.16098253,0,0,0.16098253,442.02913,639.21367)"
       d="m 311.29862,204.79259 a 31.059271,31.059271 0 1 1 -62.11854,0 31.059271,31.059271 0 1 1 62.11854,0 z"
       sodipodi:ry="31.059271"
       sodipodi:rx="31.059271"
       sodipodi:cy="204.79259"
       sodipodi:cx="280.23935"
       id="path3733"
       style="fill:#ab0000;fill-opacity:1;stroke:none"
       sodipodi:type="arc" />
    <path
       sodipodi:type="arc"
       style="fill:#ab0000;fill-opacity:1;stroke:none"
       id="path3735"
       sodipodi:cx="280.23935"
       sodipodi:cy="204.79259"
       sodipodi:rx="31.059271"
       sodipodi:ry="31.059271"
       d="m 311.29862,204.79259 a 31.059271,31.059271 0 1 1 -62.11854,0 31.059271,31.059271 0 1 1 62.11854,0 z"
       transform="matrix(0.16098253,0,0,0.16098253,242.23984,667.57882)" />
    <path
       sodipodi:type="arc"
       style="fill:none;stroke:#000000;stroke-width:7.76481771;stroke-miterlimit:4;stroke-opacity:1;stroke-dasharray:none"
       id="path3737"
       sodipodi:cx="280.23935"
       sodipodi:cy="204.79259"
       sodipodi:rx="31.059271"
       sodipodi:ry="31.059271"
       d="m 311.29862,204.79259 a 31.059271,31.059271 0 1 1 -62.11854,0 31.059271,31.059271 0 1 1 62.11854,0 z"
       transform="matrix(0.16098253,0,0,0.16098253,234.33346,778.16449)" />
    <path
       transform="matrix(0.16098253,0,0,0.16098253,279.96435,759.66548)"
       d="m 311.29862,204.79259 a 31.059271,31.059271 0 1 1 -62.11854,0 31.059271,31.059271 0 1 1 62.11854,0 z"
       sodipodi:ry="31.059271"
       sodipodi:rx="31.059271"
       sodipodi:cy="204.79259"
       sodipodi:cx="280.23935"
       id="path3739"
       style="fill:none;stroke:#000000;stroke-width:7.76481771;stroke-miterlimit:4;stroke-opacity:1;stroke-dasharray:none"
       sodipodi:type="arc" />
    <path
       sodipodi:type="arc"
       style="fill:none;stroke:#000000;stroke-width:7.76481771;stroke-miterlimit:4;stroke-opacity:1;stroke-dasharray:none"
       id="path3741"
       sodipodi:cx="280.23935"
       sodipodi:cy="204.79259"
       sodipodi:rx="31.059271"
       sodipodi:ry="31.059271"
       d="m 311.29862,204.79259 a 31.059271,31.059271 0 1 1 -62.11854,0 31.059271,31.059271 0 1 1 62.11854,0 z"
       transform="matrix(0.16098253,0,0,0.16098253,358.89345,775.08132)" />
    <path
       transform="matrix(0.16098253,0,0,0.16098253,358.89345,775.08132)"
       d="m 311.29862,204.79259 a 31.059271,31.059271 0 1 1 -62.11854,0 31.059271,31.059271 0 1 1 62.11854,0 z"
       sodipodi:ry="31.059271"
       sodipodi:rx="31.059271"
       sodipodi:cy="204.79259"
       sodipodi:cx="280.23935"
       id="path3743"
       style="fill:none;stroke:#000000;stroke-width:7.76481771;stroke-miterlimit:4;stroke-opacity:1;stroke-dasharray:none"
       sodipodi:type="arc" />
    <path
       transform="matrix(0.16098253,0,0,0.16098253,398.11568,787.49958)"
       d="m 311.29862,204.79259 a 31.059271,31.059271 0 1 1 -62.11854,0 31.059271,31.059271 0 1 1 62.11854,0 z"
       sodipodi:ry="31.059271"
       sodipodi:rx="31.059271"
       sodipodi:cy="204.79259"
       sodipodi:cx="280.23935"
       id="path3745"
       style="fill:none;stroke:#000000;stroke-width:7.76481771;stroke-miterlimit:4;stroke-opacity:1;stroke-dasharray:none"
       sodipodi:type="arc" />
    <path
       sodipodi:type="arc"
       style="fill:none;stroke:#000000;stroke-width:7.76481771;stroke-miterlimit:4;stroke-opacity:1;stroke-dasharray:none"
       id="path3747"
       sodipodi:cx="280.23935"
       sodipodi:cy="204.79259"
       sodipodi:rx="31.059271"
       sodipodi:ry="31.059271"
       d="m 311.29862,204.79259 a 31.059271,31.059271 0 1 1 -62.11854,0 31.059271,31.059271 0 1 1 62.11854,0 z"
       transform="matrix(0.16098253,0,0,0.16098253,470.26181,728.30275)" />
    <path
       transform="matrix(0.16098253,0,0,0.16098253,438.19686,762.2176)"
       d="m 311.29862,204.79259 a 31.059271,31.059271 0 1 1 -62.11854,0 31.059271,31.059271 0 1 1 62.11854,0 z"
       sodipodi:ry="31.059271"
       sodipodi:rx="31.059271"
       sodipodi:cy="204.79259"
       sodipodi:cx="280.23935"
       id="path3749"
       style="fill:none;stroke:#000000;stroke-width:7.76481771;stroke-miterlimit:4;stroke-opacity:1;stroke-dasharray:none"
       sodipodi:type="arc" />
    <path
       sodipodi:type="arc"
       style="fill:none;stroke:#000000;stroke-width:7.76481771;stroke-miterlimit:4;stroke-opacity:1;stroke-dasharray:none"
       id="path3751"
       sodipodi:cx="280.23935"
       sodipodi:cy="204.79259"
       sodipodi:rx="31.059271"
       sodipodi:ry="31.059271"
       d="m 311.29862,204.79259 a 31.059271,31.059271 0 1 1 -62.11854,0 31.059271,31.059271 0 1 1 62.11854,0 z"
       transform="matrix(0.16098253,0,0,0.16098253,501.71012,754.20136)" />
    <text
       sodipodi:linespacing="125%"
       id="text3757"
       y="682.52142"
       x="141.72836"
       style="font-size:24px;font-style:italic;font-variant:normal;font-weight:normal;font-stretch:normal;text-align:start;line-height:125%;writing-mode:lr-tb;text-anchor:start;fill:#000000;fill-opacity:1;stroke:none;font-family:Times New Roman;-inkscape-font-specification:'Times New Roman, Italic'"
       xml:space="preserve"><tspan
         style="font-size:24px;font-style:italic;font-variant:normal;font-weight:normal;font-stretch:normal;text-align:start;line-height:125%;writing-mode:lr-tb;text-anchor:start;fill:#000000;fill-opacity:1;font-family:Times New Roman;-inkscape-font-specification:'Times New Roman, Italic'"
         y="682.52142"
         x="141.72836"
         id="tspan3759"
         sodipodi:role="line">b + g</tspan></text>
    <text
       xml:space="preserve"
       style="font-size:15px;font-style:normal;font-variant:normal;font-weight:normal;font-stretch:normal;text-align:start;line-height:125%;writing-mode:lr-tb;text-anchor:start;fill:#000000;fill-opacity:1;stroke:none;font-family:Times New Roman;-inkscape-font-specification:'Times New Roman,'"
       x="151.5945"
       y="690.38757"
       id="text3761"
       sodipodi:linespacing="125%"><tspan
         sodipodi:role="line"
         id="tspan3763"
         x="151.5945"
         y="690.38757"
         style="font-size:15px;font-style:normal;font-variant:normal;font-weight:normal;font-stretch:normal;text-align:start;line-height:125%;writing-mode:lr-tb;text-anchor:start;fill:#000000;fill-opacity:1;font-family:Times New Roman;-inkscape-font-specification:'Times New Roman,'">0</tspan></text>
    <text
       xml:space="preserve"
       style="font-size:24px;font-style:italic;font-variant:normal;font-weight:normal;font-stretch:normal;text-align:start;line-height:125%;writing-mode:lr-tb;text-anchor:start;fill:#000000;fill-opacity:1;stroke:none;font-family:Times New Roman;-inkscape-font-specification:'Times New Roman, Italic'"
       x="176.02856"
       y="800.9151"
       id="text3765"
       sodipodi:linespacing="125%"><tspan
         sodipodi:role="line"
         id="tspan3767"
         x="176.02856"
         y="800.9151"
         style="font-size:24px;font-style:italic;font-variant:normal;font-weight:normal;font-stretch:normal;text-align:start;line-height:125%;writing-mode:lr-tb;text-anchor:start;fill:#000000;fill-opacity:1;font-family:Times New Roman;-inkscape-font-specification:'Times New Roman, Italic'">b </tspan></text>
    <text
       sodipodi:linespacing="125%"
       id="text3769"
       y="808.78125"
       x="185.8947"
       style="font-size:15px;font-style:normal;font-variant:normal;font-weight:normal;font-stretch:normal;text-align:start;line-height:125%;writing-mode:lr-tb;text-anchor:start;fill:#000000;fill-opacity:1;stroke:none;font-family:Times New Roman;-inkscape-font-specification:'Times New Roman,'"
       xml:space="preserve"><tspan
         style="font-size:15px;font-style:normal;font-variant:normal;font-weight:normal;font-stretch:normal;text-align:start;line-height:125%;writing-mode:lr-tb;text-anchor:start;fill:#000000;fill-opacity:1;font-family:Times New Roman;-inkscape-font-specification:'Times New Roman,'"
         y="808.78125"
         x="185.8947"
         id="tspan3771"
         sodipodi:role="line">0</tspan></text>
    <path
       style="fill:none;stroke:#000000;stroke-width:1px;stroke-linecap:butt;stroke-linejoin:miter;stroke-opacity:1;marker-start:url(#Arrow1Mstart);marker-end:url(#Arrow1Mend)"
       d="m 128.87642,678.43466 0.61664,117.16039"
       id="path3773" />
    <text
       xml:space="preserve"
       style="font-size:24px;font-style:italic;font-variant:normal;font-weight:normal;font-stretch:normal;text-align:start;line-height:125%;writing-mode:lr-tb;text-anchor:start;fill:#000000;fill-opacity:1;stroke:none;font-family:Times New Roman;-inkscape-font-specification:'Times New Roman, Italic'"
       x="110.96815"
       y="738.83405"
       id="text4421"
       sodipodi:linespacing="125%"><tspan
         sodipodi:role="line"
         id="tspan4423"
         x="110.96815"
         y="738.83405"
         style="font-size:24px;font-style:italic;font-variant:normal;font-weight:normal;font-stretch:normal;text-align:start;line-height:125%;writing-mode:lr-tb;text-anchor:start;fill:#000000;fill-opacity:1;font-family:Times New Roman;-inkscape-font-specification:'Times New Roman, Italic'">g</tspan></text>
  </g>
</svg>
