<?xml version="1.0" encoding="UTF-8" standalone="no"?>
<svg
   xmlns:dc="http://purl.org/dc/elements/1.1/"
   xmlns:cc="http://creativecommons.org/ns#"
   xmlns:rdf="http://www.w3.org/1999/02/22-rdf-syntax-ns#"
   xmlns:svg="http://www.w3.org/2000/svg"
   xmlns="http://www.w3.org/2000/svg"
   xmlns:sodipodi="http://sodipodi.sourceforge.net/DTD/sodipodi-0.dtd"
   xmlns:inkscape="http://www.inkscape.org/namespaces/inkscape"
   width="1445.40"
   height="722.70"
   viewBox="0,0,1445.40,722.70"
   id="svg2"
   sodipodi:version="0.32"
   inkscape:version="0.46"
   sodipodi:docname="explain-PCR-two-raw.svg"
   inkscape:output_extension="org.inkscape.output.svg.inkscape">
  <metadata
     id="metadata71">
    <rdf:RDF>
      <cc:Work
         rdf:about="">
        <dc:format>image/svg+xml</dc:format>
        <dc:type
           rdf:resource="http://purl.org/dc/dcmitype/StillImage" />
      </cc:Work>
    </rdf:RDF>
  </metadata>
  <defs
     id="defs69">
    <inkscape:perspective
       sodipodi:type="inkscape:persp3d"
       inkscape:vp_x="0 : 361.35001 : 1"
       inkscape:vp_y="0 : 1000 : 0"
       inkscape:vp_z="1445.4 : 361.35001 : 1"
       inkscape:persp3d-origin="722.70001 : 240.9 : 1"
       id="perspective73" />
  </defs>
  <sodipodi:namedview
     inkscape:window-height="801"
     inkscape:window-width="1440"
     inkscape:pageshadow="2"
     inkscape:pageopacity="0.0"
     guidetolerance="10.0"
     gridtolerance="10.0"
     objecttolerance="10.0"
     borderopacity="1.0"
     bordercolor="#666666"
     pagecolor="#ffffff"
     id="base"
     showgrid="false"
     inkscape:zoom="0.66909711"
     inkscape:cx="728.95004"
     inkscape:cy="347.5218"
     inkscape:window-x="0"
     inkscape:window-y="0"
     inkscape:current-layer="svg2" />
  <desc
     id="desc4">R SVG Plot!</desc>
  <polyline
     points="327.75 , 656.27 328.02 , 656.27 328.29 , 656.27 328.56 , 656.27 328.83 , 656.27 329.10 , 656.27 329.37 , 656.27 329.64 , 656.27 329.90 , 656.27 330.17 , 656.27 330.44 , 656.27 330.71 , 656.27 330.98 , 656.27 331.25 , 656.27 331.52 , 656.27 331.79 , 656.27 332.06 , 656.27 332.32 , 656.27 332.59 , 656.27 332.86 , 656.27 333.13 , 656.27 333.40 , 656.27 333.67 , 656.27 333.94 , 656.27 334.21 , 656.27 334.48 , 656.27 334.74 , 656.27 335.01 , 656.27 335.28 , 656.27 335.55 , 656.27 335.82 , 656.27 336.09 , 656.27 336.36 , 656.27 336.63 , 656.27 336.90 , 656.27 337.16 , 656.27 337.43 , 656.27 337.70 , 656.27 337.97 , 656.27 338.24 , 656.27 338.51 , 656.27 338.78 , 656.27 339.05 , 656.27 339.31 , 656.27 339.58 , 656.27 339.85 , 656.27 340.12 , 656.27 340.39 , 656.27 340.66 , 656.27 340.93 , 656.27 341.20 , 656.27 341.47 , 656.27 341.73 , 656.27 342.00 , 656.27 342.27 , 656.27 342.54 , 656.27 342.81 , 656.27 343.08 , 656.27 343.35 , 656.27 343.62 , 656.27 343.89 , 656.27 344.15 , 656.27 344.42 , 656.27 344.69 , 656.27 344.96 , 656.27 345.23 , 656.27 345.50 , 656.27 345.77 , 656.27 346.04 , 656.27 346.30 , 656.27 346.57 , 656.27 346.84 , 656.27 347.11 , 656.27 347.38 , 656.27 347.65 , 656.27 347.92 , 656.27 348.19 , 656.27 348.46 , 656.27 348.72 , 656.27 348.99 , 656.27 349.26 , 656.27 349.53 , 656.27 349.80 , 656.27 350.07 , 656.27 350.34 , 656.27 350.61 , 656.27 350.88 , 656.27 351.14 , 656.27 351.41 , 656.27 351.68 , 656.27 351.95 , 656.27 352.22 , 656.27 352.49 , 656.27 352.76 , 656.27 353.03 , 656.27 353.30 , 656.27 353.56 , 656.27 353.83 , 656.27 354.10 , 656.27 354.37 , 656.27 354.64 , 656.27 354.91 , 656.27 355.18 , 656.27 355.45 , 656.27 355.71 , 656.27 355.98 , 656.27 356.25 , 656.27 356.52 , 656.27 356.79 , 656.27 357.06 , 656.27 357.33 , 656.27 357.60 , 656.27 357.87 , 656.27 358.13 , 656.27 358.40 , 656.27 358.67 , 656.27 358.94 , 656.27 359.21 , 656.27 359.48 , 656.27 359.75 , 656.27 360.02 , 656.27 360.29 , 656.27 360.55 , 656.27 360.82 , 656.27 361.09 , 656.27 361.36 , 656.27 361.63 , 656.27 361.90 , 656.27 362.17 , 656.27 362.44 , 656.27 362.70 , 656.27 362.97 , 656.27 363.24 , 656.27 363.51 , 656.27 363.78 , 656.27 364.05 , 656.27 364.32 , 656.27 364.59 , 656.27 364.86 , 656.27 365.12 , 656.27 365.39 , 656.27 365.66 , 656.27 365.93 , 656.27 366.20 , 656.27 366.47 , 656.27 366.74 , 656.27 367.01 , 656.27 367.28 , 656.27 367.54 , 656.27 367.81 , 656.27 368.08 , 656.27 368.35 , 656.27 368.62 , 656.27 368.89 , 656.27 369.16 , 656.27 369.43 , 656.27 369.70 , 656.27 369.96 , 656.27 370.23 , 656.27 370.50 , 656.27 370.77 , 656.27 371.04 , 656.27 371.31 , 656.27 371.58 , 656.27 371.85 , 656.27 372.11 , 656.27 372.38 , 656.27 372.65 , 656.27 372.92 , 656.27 373.19 , 656.27 373.46 , 656.27 373.73 , 656.27 374.00 , 656.27 374.27 , 656.27 374.53 , 656.27 374.80 , 656.27 375.07 , 656.27 375.34 , 656.27 375.61 , 656.27 375.88 , 656.27 376.15 , 656.27 376.42 , 656.27 376.69 , 656.27 376.95 , 656.27 377.22 , 656.27 377.49 , 656.27 377.76 , 656.27 378.03 , 656.27 378.30 , 656.27 378.57 , 656.27 378.84 , 656.27 379.10 , 656.27 379.37 , 656.27 379.64 , 656.27 379.91 , 656.27 380.18 , 656.27 380.45 , 656.27 380.72 , 656.27 380.99 , 656.27 381.26 , 656.27 381.52 , 656.27 381.79 , 656.27 382.06 , 656.27 382.33 , 656.27 382.60 , 656.27 382.87 , 656.27 383.14 , 656.27 383.41 , 656.27 383.68 , 656.27 383.94 , 656.27 384.21 , 656.27 384.48 , 656.27 384.75 , 656.27 385.02 , 656.27 385.29 , 656.27 385.56 , 656.27 385.83 , 656.27 386.10 , 656.27 386.36 , 656.27 386.63 , 656.27 386.90 , 656.27 387.17 , 656.27 387.44 , 656.27 387.71 , 656.27 387.98 , 656.27 388.25 , 656.27 388.51 , 656.27 388.78 , 656.27 389.05 , 656.27 389.32 , 656.27 389.59 , 656.27 389.86 , 656.27 390.13 , 656.27 390.40 , 656.27 390.67 , 656.27 390.93 , 656.27 391.20 , 656.27 391.47 , 656.27 391.74 , 656.27 392.01 , 656.27 392.28 , 656.27 392.55 , 656.27 392.82 , 656.27 393.09 , 656.27 393.35 , 656.27 393.62 , 656.27 393.89 , 656.27 394.16 , 656.27 394.43 , 656.27 394.70 , 656.27 394.97 , 656.27 395.24 , 656.27 395.50 , 656.27 395.77 , 656.27 396.04 , 656.27 396.31 , 656.27 396.58 , 656.27 396.85 , 656.27 397.12 , 656.27 397.39 , 656.27 397.66 , 656.27 397.92 , 656.27 398.19 , 656.27 398.46 , 656.27 398.73 , 656.27 399.00 , 656.27 399.27 , 656.27 399.54 , 656.27 399.81 , 656.27 400.08 , 656.27 400.34 , 656.27 400.61 , 656.27 400.88 , 656.27 401.15 , 656.27 401.42 , 656.27 401.69 , 656.27 401.96 , 656.27 402.23 , 656.27 402.50 , 656.27 402.76 , 656.27 403.03 , 656.27 403.30 , 656.27 403.57 , 656.27 403.84 , 656.27 404.11 , 656.27 404.38 , 656.27 404.65 , 656.27 404.91 , 656.27 405.18 , 656.27 405.45 , 656.27 405.72 , 656.27 405.99 , 656.27 406.26 , 656.27 406.53 , 656.27 406.80 , 656.27 407.07 , 656.27 407.33 , 656.27 407.60 , 656.27 407.87 , 656.27 408.14 , 656.27 408.41 , 656.27 408.68 , 656.27 408.95 , 656.27 409.22 , 656.27 409.49 , 656.27 409.75 , 656.27 410.02 , 656.27 410.29 , 656.27 410.56 , 656.27 410.83 , 656.27 411.10 , 656.27 411.37 , 656.27 411.64 , 656.27 411.90 , 656.27 412.17 , 656.27 412.44 , 656.27 412.71 , 656.27 412.98 , 656.27 413.25 , 656.27 413.52 , 656.27 413.79 , 656.27 414.06 , 656.27 414.32 , 656.27 414.59 , 656.27 414.86 , 656.27 415.13 , 656.27 415.40 , 656.27 415.67 , 656.27 415.94 , 656.27 416.21 , 656.27 416.48 , 656.27 416.74 , 656.27 417.01 , 656.27 417.28 , 656.27 417.55 , 656.27 417.82 , 656.27 418.09 , 656.27 418.36 , 656.27 418.63 , 656.27 418.90 , 656.27 419.16 , 656.27 419.43 , 656.27 419.70 , 656.27 419.97 , 656.27 420.24 , 656.27 420.51 , 656.27 420.78 , 656.27 421.05 , 656.27 421.31 , 656.27 421.58 , 656.27 421.85 , 656.27 422.12 , 656.27 422.39 , 656.27 422.66 , 656.27 422.93 , 656.27 423.20 , 656.27 423.47 , 656.27 423.73 , 656.27 424.00 , 656.27 424.27 , 656.27 424.54 , 656.27 424.81 , 656.27 425.08 , 656.27 425.35 , 656.27 425.62 , 656.27 425.89 , 656.27 426.15 , 656.27 426.42 , 656.27 426.69 , 656.27 426.96 , 656.27 427.23 , 656.27 427.50 , 656.27 427.77 , 656.27 428.04 , 656.27 428.30 , 656.27 428.57 , 656.27 428.84 , 656.27 429.11 , 656.27 429.38 , 656.27 429.65 , 656.27 429.92 , 656.27 430.19 , 656.27 430.46 , 656.27 430.72 , 656.27 430.99 , 656.27 431.26 , 656.27 431.53 , 656.27 431.80 , 656.27 432.07 , 656.27 432.34 , 656.27 432.61 , 656.27 432.88 , 656.27 433.14 , 656.27 433.41 , 656.27 433.68 , 656.27 433.95 , 656.27 434.22 , 656.27 434.49 , 656.27 434.76 , 656.27 435.03 , 656.27 435.30 , 656.27 435.56 , 656.27 435.83 , 656.27 436.10 , 656.27 436.37 , 656.27 436.64 , 656.27 436.91 , 656.27 437.18 , 656.27 437.45 , 656.27 437.71 , 656.27 437.98 , 656.27 438.25 , 656.27 438.52 , 656.27 438.79 , 656.27 439.06 , 656.27 439.33 , 656.27 439.60 , 656.27 439.87 , 656.27 440.13 , 656.27 440.40 , 656.27 440.67 , 656.27 440.94 , 656.27 441.21 , 656.27 441.48 , 656.27 441.75 , 656.27 442.02 , 656.27 442.29 , 656.27 442.55 , 656.27 442.82 , 656.27 443.09 , 656.27 443.36 , 656.27 443.63 , 656.27 443.90 , 656.27 444.17 , 656.27 444.44 , 656.27 444.71 , 656.27 444.97 , 656.27 445.24 , 656.27 445.51 , 656.27 445.78 , 656.27 446.05 , 656.27 446.32 , 656.27 446.59 , 656.27 446.86 , 656.27 447.12 , 656.27 447.39 , 656.27 447.66 , 656.27 447.93 , 656.27 448.20 , 656.27 448.47 , 656.27 448.74 , 656.27 449.01 , 656.27 449.28 , 656.27 449.54 , 656.27 449.81 , 656.27 450.08 , 656.27 450.35 , 656.27 450.62 , 656.27 450.89 , 656.27 451.16 , 656.27 451.43 , 656.27 451.70 , 656.27 451.96 , 656.27 452.23 , 656.27 452.50 , 656.27 452.77 , 656.27 453.04 , 656.27 453.31 , 656.27 453.58 , 656.27 453.85 , 656.27 454.11 , 656.27 454.38 , 656.27 454.65 , 656.27 454.92 , 656.27 455.19 , 656.27 455.46 , 656.27 455.73 , 656.27 456.00 , 656.27 456.27 , 656.27 456.53 , 656.27 456.80 , 656.27 457.07 , 656.27 457.34 , 656.27 457.61 , 656.27 457.88 , 656.27 458.15 , 656.27 458.42 , 656.27 458.69 , 656.27 458.95 , 656.27 459.22 , 656.27 459.49 , 656.27 459.76 , 656.27 460.03 , 656.27 460.30 , 656.27 460.57 , 656.27 460.84 , 656.27 461.11 , 656.27 461.37 , 656.27 461.64 , 656.27 461.91 , 656.27 462.18 , 656.27 462.45 , 656.27 462.72 , 656.27 462.99 , 656.27 463.26 , 656.27 463.52 , 656.27 463.79 , 656.27 464.06 , 656.27 464.33 , 656.27 464.60 , 656.27 464.87 , 656.27 465.14 , 656.27 465.41 , 656.27 465.68 , 656.27 465.94 , 656.27 466.21 , 656.27 466.48 , 656.27 466.75 , 656.27 467.02 , 656.27 467.29 , 656.27 467.56 , 656.27 467.83 , 656.27 468.10 , 656.27 468.36 , 656.27 468.63 , 656.27 468.90 , 656.27 469.17 , 656.27 469.44 , 656.27 469.71 , 656.27 469.98 , 656.27 470.25 , 656.27 470.51 , 656.27 470.78 , 656.27 471.05 , 656.27 471.32 , 656.27 471.59 , 656.27 471.86 , 656.27 472.13 , 656.27 472.40 , 656.27 472.67 , 656.27 472.93 , 656.27 473.20 , 656.27 473.47 , 656.27 473.74 , 656.27 474.01 , 656.27 474.28 , 656.27 474.55 , 656.27 474.82 , 656.27 475.09 , 656.27 475.35 , 656.27 475.62 , 656.27 475.89 , 656.27 476.16 , 656.27 476.43 , 656.27 476.70 , 656.27 476.97 , 656.27 477.24 , 656.27 477.51 , 656.27 477.77 , 656.27 478.04 , 656.27 478.31 , 656.27 478.58 , 656.27 478.85 , 656.27 479.12 , 656.27 479.39 , 656.27 479.66 , 656.27 479.92 , 656.27 480.19 , 656.27 480.46 , 656.27 480.73 , 656.27 481.00 , 656.27 481.27 , 656.27 481.54 , 656.27 481.81 , 656.27 482.08 , 656.27 482.34 , 656.27 482.61 , 656.27 482.88 , 656.27 483.15 , 656.27 483.42 , 656.27 483.69 , 656.27 483.96 , 656.27 484.23 , 656.27 484.50 , 656.27 484.76 , 656.27 485.03 , 656.27 485.30 , 656.27 485.57 , 656.27 485.84 , 656.27 486.11 , 656.27 486.38 , 656.27 486.65 , 656.27 486.91 , 656.27 487.18 , 656.27 487.45 , 656.27 487.72 , 656.27 487.99 , 656.27 488.26 , 656.27 488.53 , 656.27 488.80 , 656.27 489.07 , 656.27 489.33 , 656.27 489.60 , 656.27 489.87 , 656.27 490.14 , 656.27 490.41 , 656.27 490.68 , 656.27 490.95 , 656.27 491.22 , 656.27 491.49 , 656.27 491.75 , 656.27 492.02 , 656.27 492.29 , 656.27 492.56 , 656.27 492.83 , 656.27 493.10 , 656.27 493.37 , 656.27 493.64 , 656.27 493.91 , 656.27 494.17 , 656.27 494.44 , 656.27 494.71 , 656.27 494.98 , 656.27 495.25 , 656.27 495.52 , 656.27 495.79 , 656.27 496.06 , 656.27 496.32 , 656.27 496.59 , 656.27 496.86 , 656.27 497.13 , 656.27 497.40 , 656.27 497.67 , 656.27 497.94 , 656.27 498.21 , 656.27 498.48 , 656.27 498.74 , 656.27 499.01 , 656.27 499.28 , 656.27 499.55 , 656.27 499.82 , 656.27 500.09 , 656.27 500.36 , 656.27 500.63 , 656.27 500.90 , 656.27 501.16 , 656.27 501.43 , 656.27 501.70 , 656.27 501.97 , 656.27 502.24 , 656.27 502.51 , 656.27 502.78 , 656.27 503.05 , 656.27 503.31 , 656.27 503.58 , 656.27 503.85 , 656.27 504.12 , 656.27 504.39 , 656.27 504.66 , 656.27 504.93 , 656.27 505.20 , 656.27 505.47 , 656.27 505.73 , 656.27 506.00 , 656.27 506.27 , 656.27 506.54 , 656.27 506.81 , 656.27 507.08 , 656.27 507.35 , 656.27 507.62 , 656.27 507.89 , 656.27 508.15 , 656.27 508.42 , 656.27 508.69 , 656.27 508.96 , 656.27 509.23 , 656.27 509.50 , 656.27 509.77 , 656.27 510.04 , 656.27 510.31 , 656.27 510.57 , 656.27 510.84 , 656.27 511.11 , 656.27 511.38 , 656.27 511.65 , 656.27 511.92 , 656.27 512.19 , 656.27 512.46 , 656.27 512.72 , 656.27 512.99 , 656.27 513.26 , 656.27 513.53 , 656.27 513.80 , 656.27 514.07 , 656.27 514.34 , 656.27 514.61 , 656.27 514.88 , 656.27 515.14 , 656.27 515.41 , 656.27 515.68 , 656.27 515.95 , 656.27 516.22 , 656.27 516.49 , 656.27 516.76 , 656.27 517.03 , 656.27 517.30 , 656.27 517.56 , 656.27 517.83 , 656.27 518.10 , 656.27 518.37 , 656.27 518.64 , 656.27 518.91 , 656.27 519.18 , 656.27 519.45 , 656.27 519.71 , 656.27 519.98 , 656.27 520.25 , 656.27 520.52 , 656.27 520.79 , 656.27 521.06 , 656.27 521.33 , 656.27 521.60 , 656.27 521.87 , 656.27 522.13 , 656.27 522.40 , 656.27 522.67 , 656.27 522.94 , 656.27 523.21 , 656.27 523.48 , 656.27 523.75 , 656.27 524.02 , 656.27 524.29 , 656.27 524.55 , 656.27 524.82 , 656.27 525.09 , 656.27 525.36 , 656.27 525.63 , 656.27 525.90 , 656.27 526.17 , 656.27 526.44 , 656.27 526.71 , 656.27 526.97 , 656.27 527.24 , 656.27 527.51 , 656.27 527.78 , 656.27 528.05 , 656.27 528.32 , 656.27 528.59 , 656.27 528.86 , 656.27 529.12 , 656.27 529.39 , 656.27 529.66 , 656.27 529.93 , 656.27 530.20 , 656.27 530.47 , 656.27 530.74 , 656.27 531.01 , 656.27 531.28 , 656.27 531.54 , 656.27 531.81 , 656.27 532.08 , 656.27 532.35 , 656.27 532.62 , 656.27 532.89 , 656.27 533.16 , 656.27 533.43 , 656.27 533.70 , 656.27 533.96 , 656.27 534.23 , 656.27 534.50 , 656.27 534.77 , 656.27 535.04 , 656.27 535.31 , 656.27 535.58 , 656.27 535.85 , 656.27 536.11 , 656.27 536.38 , 656.27 536.65 , 656.27 536.92 , 656.27 537.19 , 656.27 537.46 , 656.27 537.73 , 656.27 538.00 , 656.27 538.27 , 656.27 538.53 , 656.27 538.80 , 656.27 539.07 , 656.27 539.34 , 656.27 539.61 , 656.27 539.88 , 656.27 540.15 , 656.27 540.42 , 656.27 540.69 , 656.27 540.95 , 656.27 541.22 , 656.27 541.49 , 656.27 541.76 , 656.27 542.03 , 656.27 542.30 , 656.27 542.57 , 656.27 542.84 , 656.27 543.11 , 656.27 543.37 , 656.27 543.64 , 656.27 543.91 , 656.27 544.18 , 656.27 544.45 , 656.27 544.72 , 656.27 544.99 , 656.27 545.26 , 656.27 545.52 , 656.27 545.79 , 656.27 546.06 , 656.27 546.33 , 656.27 546.60 , 656.27 546.87 , 656.27 547.14 , 656.27 547.41 , 656.27 547.68 , 656.27 547.94 , 656.27 548.21 , 656.27 548.48 , 656.27 548.75 , 656.27 549.02 , 656.27 549.29 , 656.27 549.56 , 656.27 549.83 , 656.27 550.10 , 656.27 550.36 , 656.27 550.63 , 656.27 550.90 , 656.27 551.17 , 656.27 551.44 , 656.27 551.71 , 656.27 551.98 , 656.27 552.25 , 656.27 552.52 , 656.27 552.78 , 656.27 553.05 , 656.27 553.32 , 656.27 553.59 , 656.27 553.86 , 656.27 554.13 , 656.27 554.40 , 656.27 554.67 , 656.27 554.93 , 656.27 555.20 , 656.27 555.47 , 656.27 555.74 , 656.27 556.01 , 656.27 556.28 , 656.27 556.55 , 656.27 556.82 , 656.27 557.09 , 656.27 557.35 , 656.27 557.62 , 656.27 557.89 , 656.27 558.16 , 656.27 558.43 , 656.27 558.70 , 656.27 558.97 , 656.27 559.24 , 656.27 559.51 , 656.27 559.77 , 656.27 560.04 , 656.27 560.31 , 656.27 560.58 , 656.27 560.85 , 656.27 561.12 , 656.27 561.39 , 656.27 561.66 , 656.27 561.92 , 656.27 562.19 , 656.27 562.46 , 656.27 562.73 , 656.27 563.00 , 656.27 563.27 , 656.27 563.54 , 656.27 563.81 , 656.27 564.08 , 656.27 564.34 , 656.27 564.61 , 656.27 564.88 , 656.27 565.15 , 656.27 565.42 , 656.27 565.69 , 656.27 565.96 , 656.27 566.23 , 656.27 566.50 , 656.27 566.76 , 656.27 567.03 , 656.27 567.30 , 656.27 567.57 , 656.27 567.84 , 656.27 568.11 , 656.27 568.38 , 656.27 568.65 , 656.27 568.92 , 656.27 569.18 , 656.27 569.45 , 656.27 569.72 , 656.27 569.99 , 656.27 570.26 , 656.27 570.53 , 656.27 570.80 , 656.27 571.07 , 656.27 571.33 , 656.27 571.60 , 656.27 571.87 , 656.27 572.14 , 656.27 572.41 , 656.27 572.68 , 656.27 572.95 , 656.27 573.22 , 656.27 573.49 , 656.27 573.75 , 656.27 574.02 , 656.27 574.29 , 656.27 574.56 , 656.27 574.83 , 656.27 575.10 , 656.27 575.37 , 656.27 575.64 , 656.27 575.91 , 656.27 576.17 , 656.27 576.44 , 656.27 576.71 , 656.27 576.98 , 656.27 577.25 , 656.27 577.52 , 656.27 577.79 , 656.27 578.06 , 656.27 578.32 , 656.27 578.59 , 656.27 578.86 , 656.27 579.13 , 656.27 579.40 , 656.27 579.67 , 656.27 579.94 , 656.27 580.21 , 656.27 580.48 , 656.27 580.74 , 656.27 581.01 , 656.27 581.28 , 656.27 581.55 , 656.27 581.82 , 656.27 582.09 , 656.27 582.36 , 656.27 582.63 , 656.27 582.90 , 656.27 583.16 , 656.27 583.43 , 656.27 583.70 , 656.27 583.97 , 656.27 584.24 , 656.27 584.51 , 656.27 584.78 , 656.27 585.05 , 656.27 585.32 , 656.27 585.58 , 656.27 585.85 , 656.27 586.12 , 656.27 586.39 , 656.27 586.66 , 656.27 586.93 , 656.27 587.20 , 656.27 587.47 , 656.27 587.73 , 656.27 588.00 , 656.27 588.27 , 656.27 588.54 , 656.27 588.81 , 656.27 589.08 , 656.27 589.35 , 656.27 589.62 , 656.27 589.89 , 656.27 590.15 , 656.27 590.42 , 656.27 590.69 , 656.27 590.96 , 656.27 591.23 , 656.27 591.50 , 656.27 591.77 , 656.27 592.04 , 656.27 592.31 , 656.27 592.57 , 656.27 592.84 , 656.27 593.11 , 656.27 593.38 , 656.27 593.65 , 656.27 593.92 , 656.27 594.19 , 656.27 594.46 , 656.27 594.72 , 656.27 594.99 , 656.27 595.26 , 656.27 595.53 , 656.27 595.80 , 656.27 596.07 , 656.27 596.34 , 656.27 596.61 , 656.27 596.88 , 656.27 597.14 , 656.27 597.41 , 656.27 597.68 , 656.27 597.95 , 656.27 598.22 , 656.27 598.49 , 656.27 598.76 , 656.27 599.03 , 656.27 599.30 , 656.27 599.56 , 656.27 599.83 , 656.27 600.10 , 656.27 600.37 , 656.27 600.64 , 656.27 600.91 , 656.27 601.18 , 656.27 601.45 , 656.27 601.72 , 656.27 601.98 , 656.27 602.25 , 656.27 602.52 , 656.27 602.79 , 656.27 603.06 , 656.27 603.33 , 656.27 603.60 , 656.26 603.87 , 656.26 604.13 , 656.26 604.40 , 656.26 604.67 , 656.26 604.94 , 656.26 605.21 , 656.26 605.48 , 656.26 605.75 , 656.26 606.02 , 656.26 606.29 , 656.26 606.55 , 656.26 606.82 , 656.26 607.09 , 656.26 607.36 , 656.26 607.63 , 656.26 607.90 , 656.26 608.17 , 656.26 608.44 , 656.25 608.71 , 656.25 608.97 , 656.25 609.24 , 656.25 609.51 , 656.25 609.78 , 656.25 610.05 , 656.25 610.32 , 656.25 610.59 , 656.25 610.86 , 656.25 611.12 , 656.24 611.39 , 656.24 611.66 , 656.24 611.93 , 656.24 612.20 , 656.24 612.47 , 656.24 612.74 , 656.24 613.01 , 656.23 613.28 , 656.23 613.54 , 656.23 613.81 , 656.23 614.08 , 656.23 614.35 , 656.22 614.62 , 656.22 614.89 , 656.22 615.16 , 656.22 615.43 , 656.22 615.70 , 656.21 615.96 , 656.21 616.23 , 656.21 616.50 , 656.20 616.77 , 656.20 617.04 , 656.20 617.31 , 656.19 617.58 , 656.19 617.85 , 656.19 618.12 , 656.18 618.38 , 656.18 618.65 , 656.18 618.92 , 656.17 619.19 , 656.17 619.46 , 656.16 619.73 , 656.16 620.00 , 656.15 620.27 , 656.15 620.53 , 656.14 620.80 , 656.14 621.07 , 656.13 621.34 , 656.13 621.61 , 656.12 621.88 , 656.12 622.15 , 656.11 622.42 , 656.10 622.69 , 656.09 622.95 , 656.09 623.22 , 656.08 623.49 , 656.07 623.76 , 656.06 624.03 , 656.06 624.30 , 656.05 624.57 , 656.04 624.84 , 656.03 625.11 , 656.02 625.37 , 656.01 625.64 , 656.00 625.91 , 655.99 626.18 , 655.97 626.45 , 655.96 626.72 , 655.95 626.99 , 655.94 627.26 , 655.92 627.52 , 655.91 627.79 , 655.90 628.06 , 655.88 628.33 , 655.87 628.60 , 655.85 628.87 , 655.84 629.14 , 655.82 629.41 , 655.80 629.68 , 655.78 629.94 , 655.76 630.21 , 655.74 630.48 , 655.72 630.75 , 655.70 631.02 , 655.68 631.29 , 655.66 631.56 , 655.64 631.83 , 655.61 632.10 , 655.59 632.36 , 655.56 632.63 , 655.53 632.90 , 655.51 633.17 , 655.48 633.44 , 655.45 633.71 , 655.42 633.98 , 655.39 634.25 , 655.36 634.52 , 655.32 634.78 , 655.29 635.05 , 655.25 635.32 , 655.21 635.59 , 655.18 635.86 , 655.14 636.13 , 655.10 636.40 , 655.05 636.67 , 655.01 636.93 , 654.96 637.20 , 654.92 637.47 , 654.87 637.74 , 654.82 638.01 , 654.77 638.28 , 654.72 638.55 , 654.66 638.82 , 654.61 639.09 , 654.55 639.35 , 654.49 639.62 , 654.43 639.89 , 654.36 640.16 , 654.30 640.43 , 654.23 640.70 , 654.16 640.97 , 654.09 641.24 , 654.01 641.51 , 653.93 641.77 , 653.86 642.04 , 653.77 642.31 , 653.69 642.58 , 653.60 642.85 , 653.51 643.12 , 653.42 643.39 , 653.33 643.66 , 653.23 643.92 , 653.13 644.19 , 653.03 644.46 , 652.92 644.73 , 652.81 645.00 , 652.70 645.27 , 652.58 645.54 , 652.46 645.81 , 652.34 646.08 , 652.21 646.34 , 652.08 646.61 , 651.95 646.88 , 651.81 647.15 , 651.67 647.42 , 651.52 647.69 , 651.37 647.96 , 651.22 648.23 , 651.06 648.50 , 650.90 648.76 , 650.73 649.03 , 650.56 649.30 , 650.38 649.57 , 650.20 649.84 , 650.02 650.11 , 649.82 650.38 , 649.63 650.65 , 649.43 650.92 , 649.22 651.18 , 649.01 651.45 , 648.79 651.72 , 648.56 651.99 , 648.33 652.26 , 648.09 652.53 , 647.85 652.80 , 647.60 653.07 , 647.35 653.33 , 647.09 653.60 , 646.82 653.87 , 646.54 654.14 , 646.26 654.41 , 645.97 654.68 , 645.67 654.95 , 645.37 655.22 , 645.05 655.49 , 644.73 655.75 , 644.40 656.02 , 644.07 656.29 , 643.72 656.56 , 643.37 656.83 , 643.01 657.10 , 642.64 657.37 , 642.26 657.64 , 641.87 657.91 , 641.47 658.17 , 641.06 658.44 , 640.65 658.71 , 640.22 658.98 , 639.78 659.25 , 639.34 659.52 , 638.88 659.79 , 638.41 660.06 , 637.93 660.33 , 637.44 660.59 , 636.94 660.86 , 636.43 661.13 , 635.91 661.40 , 635.37 661.67 , 634.82 661.94 , 634.26 662.21 , 633.69 662.48 , 633.11 662.74 , 632.51 663.01 , 631.90 663.28 , 631.28 663.55 , 630.64 663.82 , 629.99 664.09 , 629.33 664.36 , 628.65 664.63 , 627.96 664.90 , 627.25 665.16 , 626.53 665.43 , 625.79 665.70 , 625.04 665.97 , 624.27 666.24 , 623.49 666.51 , 622.69 666.78 , 621.88 667.05 , 621.05 667.32 , 620.20 667.58 , 619.34 667.85 , 618.46 668.12 , 617.56 668.39 , 616.65 668.66 , 615.72 668.93 , 614.77 669.20 , 613.80 669.47 , 612.81 669.73 , 611.81 670.00 , 610.79 670.27 , 609.74 670.54 , 608.68 670.81 , 607.60 671.08 , 606.50 671.35 , 605.38 671.62 , 604.24 671.89 , 603.08 672.15 , 601.90 672.42 , 600.70 672.69 , 599.48 672.96 , 598.24 673.23 , 596.97 673.50 , 595.69 673.77 , 594.38 674.04 , 593.05 674.31 , 591.70 674.57 , 590.32 674.84 , 588.93 675.11 , 587.51 675.38 , 586.07 675.65 , 584.60 675.92 , 583.11 676.19 , 581.60 676.46 , 580.07 676.73 , 578.51 676.99 , 576.93 677.26 , 575.32 677.53 , 573.69 677.80 , 572.03 678.07 , 570.35 678.34 , 568.65 678.61 , 566.92 678.88 , 565.16 679.14 , 563.38 679.41 , 561.58 679.68 , 559.74 679.95 , 557.89 680.22 , 556.01 680.49 , 554.10 680.76 , 552.16 681.03 , 550.20 681.30 , 548.22 681.56 , 546.21 681.83 , 544.17 682.10 , 542.10 682.37 , 540.01 682.64 , 537.89 682.91 , 535.75 683.18 , 533.58 683.45 , 531.38 683.72 , 529.16 683.98 , 526.91 684.25 , 524.63 684.52 , 522.33 684.79 , 520.00 685.06 , 517.64 685.33 , 515.25 685.60 , 512.84 685.87 , 510.41 686.13 , 507.94 686.40 , 505.45 686.67 , 502.94 686.94 , 500.39 687.21 , 497.82 687.48 , 495.23 687.75 , 492.60 688.02 , 489.96 688.29 , 487.28 688.55 , 484.58 688.82 , 481.86 689.09 , 479.11 689.36 , 476.33 689.63 , 473.53 689.90 , 470.70 690.17 , 467.85 690.44 , 464.97 690.71 , 462.07 690.97 , 459.15 691.24 , 456.20 691.51 , 453.23 691.78 , 450.23 692.05 , 447.21 692.32 , 444.17 692.59 , 441.10 692.86 , 438.01 693.13 , 434.90 693.39 , 431.77 693.66 , 428.62 693.93 , 425.44 694.20 , 422.25 694.47 , 419.03 694.74 , 415.79 695.01 , 412.54 695.28 , 409.26 695.54 , 405.97 695.81 , 402.65 696.08 , 399.32 696.35 , 395.97 696.62 , 392.61 696.89 , 389.22 697.16 , 385.82 697.43 , 382.41 697.70 , 378.98 697.96 , 375.53 698.23 , 372.07 698.50 , 368.60 698.77 , 365.11 699.04 , 361.61 699.31 , 358.10 699.58 , 354.57 699.85 , 351.04 700.12 , 347.49 700.38 , 343.93 700.65 , 340.37 700.92 , 336.79 701.19 , 333.21 701.46 , 329.62 701.73 , 326.03 702.00 , 322.42 702.27 , 318.82 702.53 , 315.20 702.80 , 311.58 703.07 , 307.96 703.34 , 304.34 703.61 , 300.71 703.88 , 297.09 704.15 , 293.46 704.42 , 289.83 704.69 , 286.20 704.95 , 282.58 705.22 , 278.95 705.49 , 275.33 705.76 , 271.72 706.03 , 268.10 706.30 , 264.50 706.57 , 260.90 706.84 , 257.30 707.11 , 253.71 707.37 , 250.14 707.64 , 246.57 707.91 , 243.01 708.18 , 239.46 708.45 , 235.92 708.72 , 232.40 708.99 , 228.89 709.26 , 225.39 709.53 , 221.91 709.79 , 218.44 710.06 , 214.99 710.33 , 211.55 710.60 , 208.14 710.87 , 204.74 711.14 , 201.37 711.41 , 198.01 711.68 , 194.68 711.94 , 191.36 712.21 , 188.08 712.48 , 184.81 712.75 , 181.57 713.02 , 178.35 713.29 , 175.17 713.56 , 172.00 713.83 , 168.87 714.10 , 165.77 714.36 , 162.69 714.63 , 159.65 714.90 , 156.63 715.17 , 153.65 715.44 , 150.70 715.71 , 147.79 715.98 , 144.90 716.25 , 142.06 716.52 , 139.25 716.78 , 136.47 717.05 , 133.74 717.32 , 131.04 717.59 , 128.38 717.86 , 125.76 718.13 , 123.18 718.40 , 120.64 718.67 , 118.15 718.93 , 115.69 719.20 , 113.28 719.47 , 110.92 719.74 , 108.59 720.01 , 106.32 720.28 , 104.08 720.55 , 101.90 720.82 , 99.76 721.09 , 97.67 721.35 , 95.63 721.62 , 93.63 721.89 , 91.69 722.16 , 89.79 722.43 , 87.95 722.70 , 86.16 722.97 , 84.42 723.24 , 82.73 723.51 , 81.09 723.77 , 79.50 724.04 , 77.97 724.31 , 76.50 724.58 , 75.08 724.85 , 73.71 725.12 , 72.40 725.39 , 71.14 725.66 , 69.94 725.93 , 68.79 726.19 , 67.71 726.46 , 66.68 726.73 , 65.70 727.00 , 64.79 727.27 , 63.93 727.54 , 63.13 727.81 , 62.39 728.08 , 61.70 728.34 , 61.08 728.61 , 60.51 728.88 , 60.00 729.15 , 59.56 729.42 , 59.17 729.69 , 58.84 729.96 , 58.57 730.23 , 58.36 730.50 , 58.21 730.76 , 58.12 731.03 , 58.09 731.30 , 58.12 731.57 , 58.21 731.84 , 58.36 732.11 , 58.57 732.38 , 58.84 732.65 , 59.17 732.92 , 59.56 733.18 , 60.00 733.45 , 60.51 733.72 , 61.08 733.99 , 61.70 734.26 , 62.39 734.53 , 63.13 734.80 , 63.93 735.07 , 64.79 735.33 , 65.70 735.60 , 66.68 735.87 , 67.71 736.14 , 68.79 736.41 , 69.94 736.68 , 71.14 736.95 , 72.40 737.22 , 73.71 737.49 , 75.08 737.75 , 76.50 738.02 , 77.97 738.29 , 79.50 738.56 , 81.09 738.83 , 82.73 739.10 , 84.42 739.37 , 86.16 739.64 , 87.95 739.91 , 89.79 740.17 , 91.69 740.44 , 93.63 740.71 , 95.63 740.98 , 97.67 741.25 , 99.76 741.52 , 101.90 741.79 , 104.08 742.06 , 106.32 742.33 , 108.59 742.59 , 110.92 742.86 , 113.28 743.13 , 115.69 743.40 , 118.15 743.67 , 120.64 743.94 , 123.18 744.21 , 125.76 744.48 , 128.38 744.74 , 131.04 745.01 , 133.74 745.28 , 136.47 745.55 , 139.25 745.82 , 142.06 746.09 , 144.90 746.36 , 147.79 746.63 , 150.70 746.90 , 153.65 747.16 , 156.63 747.43 , 159.65 747.70 , 162.69 747.97 , 165.77 748.24 , 168.87 748.51 , 172.00 748.78 , 175.17 749.05 , 178.35 749.32 , 181.57 749.58 , 184.81 749.85 , 188.08 750.12 , 191.36 750.39 , 194.68 750.66 , 198.01 750.93 , 201.37 751.20 , 204.74 751.47 , 208.14 751.74 , 211.55 752.00 , 214.99 752.27 , 218.44 752.54 , 221.91 752.81 , 225.39 753.08 , 228.89 753.35 , 232.40 753.62 , 235.92 753.89 , 239.46 754.15 , 243.01 754.42 , 246.57 754.69 , 250.14 754.96 , 253.71 755.23 , 257.30 755.50 , 260.90 755.77 , 264.50 756.04 , 268.10 756.31 , 271.72 756.57 , 275.33 756.84 , 278.95 757.11 , 282.58 757.38 , 286.20 757.65 , 289.83 757.92 , 293.46 758.19 , 297.09 758.46 , 300.71 758.73 , 304.34 758.99 , 307.96 759.26 , 311.58 759.53 , 315.20 759.80 , 318.82 760.07 , 322.42 760.34 , 326.03 760.61 , 329.62 760.88 , 333.21 761.14 , 336.79 761.41 , 340.37 761.68 , 343.93 761.95 , 347.49 762.22 , 351.04 762.49 , 354.57 762.76 , 358.10 763.03 , 361.61 763.30 , 365.11 763.56 , 368.60 763.83 , 372.07 764.10 , 375.53 764.37 , 378.98 764.64 , 382.41 764.91 , 385.82 765.18 , 389.22 765.45 , 392.61 765.72 , 395.97 765.98 , 399.32 766.25 , 402.65 766.52 , 405.97 766.79 , 409.26 767.06 , 412.54 767.33 , 415.79 767.60 , 419.03 767.87 , 422.25 768.14 , 425.44 768.40 , 428.62 768.67 , 431.77 768.94 , 434.90 769.21 , 438.01 769.48 , 441.10 769.75 , 444.17 770.02 , 447.21 770.29 , 450.23 770.55 , 453.23 770.82 , 456.20 771.09 , 459.15 771.36 , 462.07 771.63 , 464.97 771.90 , 467.85 772.17 , 470.70 772.44 , 473.53 772.71 , 476.33 772.97 , 479.11 773.24 , 481.86 773.51 , 484.58 773.78 , 487.28 774.05 , 489.96 774.32 , 492.60 774.59 , 495.23 774.86 , 497.82 775.13 , 500.39 775.39 , 502.94 775.66 , 505.45 775.93 , 507.94 776.20 , 510.41 776.47 , 512.84 776.74 , 515.25 777.01 , 517.64 777.28 , 520.00 777.54 , 522.33 777.81 , 524.63 778.08 , 526.91 778.35 , 529.16 778.62 , 531.38 778.89 , 533.58 779.16 , 535.75 779.43 , 537.89 779.70 , 540.01 779.96 , 542.10 780.23 , 544.17 780.50 , 546.21 780.77 , 548.22 781.04 , 550.20 781.31 , 552.16 781.58 , 554.10 781.85 , 556.01 782.12 , 557.89 782.38 , 559.74 782.65 , 561.58 782.92 , 563.38 783.19 , 565.16 783.46 , 566.92 783.73 , 568.65 784.00 , 570.35 784.27 , 572.03 784.54 , 573.69 784.80 , 575.32 785.07 , 576.93 785.34 , 578.51 785.61 , 580.07 785.88 , 581.60 786.15 , 583.11 786.42 , 584.60 786.69 , 586.07 786.95 , 587.51 787.22 , 588.93 787.49 , 590.32 787.76 , 591.70 788.03 , 593.05 788.30 , 594.38 788.57 , 595.69 788.84 , 596.97 789.11 , 598.24 789.37 , 599.48 789.64 , 600.70 789.91 , 601.90 790.18 , 603.08 790.45 , 604.24 790.72 , 605.38 790.99 , 606.50 791.26 , 607.60 791.53 , 608.68 791.79 , 609.74 792.06 , 610.79 792.33 , 611.81 792.60 , 612.81 792.87 , 613.80 793.14 , 614.77 793.41 , 615.72 793.68 , 616.65 793.94 , 617.56 794.21 , 618.46 794.48 , 619.34 794.75 , 620.20 795.02 , 621.05 795.29 , 621.88 795.56 , 622.69 795.83 , 623.49 796.10 , 624.27 796.36 , 625.04 796.63 , 625.79 796.90 , 626.53 797.17 , 627.25 797.44 , 627.96 797.71 , 628.65 797.98 , 629.33 798.25 , 629.99 798.52 , 630.64 798.78 , 631.28 799.05 , 631.90 799.32 , 632.51 799.59 , 633.11 799.86 , 633.69 800.13 , 634.26 800.40 , 634.82 800.67 , 635.37 800.94 , 635.91 801.20 , 636.43 801.47 , 636.94 801.74 , 637.44 802.01 , 637.93 802.28 , 638.41 802.55 , 638.88 802.82 , 639.34 803.09 , 639.78 803.35 , 640.22 803.62 , 640.65 803.89 , 641.06 804.16 , 641.47 804.43 , 641.87 804.70 , 642.26 804.97 , 642.64 805.24 , 643.01 805.51 , 643.37 805.77 , 643.72 806.04 , 644.07 806.31 , 644.40 806.58 , 644.73 806.85 , 645.05 807.12 , 645.37 807.39 , 645.67 807.66 , 645.97 807.93 , 646.26 808.19 , 646.54 808.46 , 646.82 808.73 , 647.09 809.00 , 647.35 809.27 , 647.60 809.54 , 647.85 809.81 , 648.09 810.08 , 648.33 810.34 , 648.56 810.61 , 648.79 810.88 , 649.01 811.15 , 649.22 811.42 , 649.43 811.69 , 649.63 811.96 , 649.82 812.23 , 650.02 812.50 , 650.20 812.76 , 650.38 813.03 , 650.56 813.30 , 650.73 813.57 , 650.90 813.84 , 651.06 814.11 , 651.22 814.38 , 651.37 814.65 , 651.52 814.92 , 651.67 815.18 , 651.81 815.45 , 651.95 815.72 , 652.08 815.99 , 652.21 816.26 , 652.34 816.53 , 652.46 816.80 , 652.58 817.07 , 652.70 817.34 , 652.81 817.60 , 652.92 817.87 , 653.03 818.14 , 653.13 818.41 , 653.23 818.68 , 653.33 818.95 , 653.42 819.22 , 653.51 819.49 , 653.60 819.75 , 653.69 820.02 , 653.77 820.29 , 653.86 820.56 , 653.93 820.83 , 654.01 821.10 , 654.09 821.37 , 654.16 821.64 , 654.23 821.91 , 654.30 822.17 , 654.36 822.44 , 654.43 822.71 , 654.49 822.98 , 654.55 823.25 , 654.61 823.52 , 654.66 823.79 , 654.72 824.06 , 654.77 824.33 , 654.82 824.59 , 654.87 824.86 , 654.92 825.13 , 654.96 825.40 , 655.01 825.67 , 655.05 825.94 , 655.10 826.21 , 655.14 826.48 , 655.18 826.74 , 655.21 827.01 , 655.25 827.28 , 655.29 827.55 , 655.32 827.82 , 655.36 828.09 , 655.39 828.36 , 655.42 828.63 , 655.45 828.90 , 655.48 829.16 , 655.51 829.43 , 655.53 829.70 , 655.56 829.97 , 655.59 830.24 , 655.61 830.51 , 655.64 830.78 , 655.66 831.05 , 655.68 831.32 , 655.70 831.58 , 655.72 831.85 , 655.74 832.12 , 655.76 832.39 , 655.78 832.66 , 655.80 832.93 , 655.82 833.20 , 655.84 833.47 , 655.85 833.74 , 655.87 834.00 , 655.88 834.27 , 655.90 834.54 , 655.91 834.81 , 655.92 835.08 , 655.94 835.35 , 655.95 835.62 , 655.96 835.89 , 655.97 836.15 , 655.99 836.42 , 656.00 836.69 , 656.01 836.96 , 656.02 837.23 , 656.03 837.50 , 656.04 837.77 , 656.05 838.04 , 656.06 838.31 , 656.06 838.57 , 656.07 838.84 , 656.08 839.11 , 656.09 839.38 , 656.09 839.65 , 656.10 839.92 , 656.11 840.19 , 656.12 840.46 , 656.12 840.73 , 656.13 840.99 , 656.13 841.26 , 656.14 841.53 , 656.14 841.80 , 656.15 842.07 , 656.15 842.34 , 656.16 842.61 , 656.16 842.88 , 656.17 843.14 , 656.17 843.41 , 656.18 843.68 , 656.18 843.95 , 656.18 844.22 , 656.19 844.49 , 656.19 844.76 , 656.19 845.03 , 656.20 845.30 , 656.20 845.56 , 656.20 845.83 , 656.21 846.10 , 656.21 846.37 , 656.21 846.64 , 656.22 846.91 , 656.22 847.18 , 656.22 847.45 , 656.22 847.72 , 656.22 847.98 , 656.23 848.25 , 656.23 848.52 , 656.23 848.79 , 656.23 849.06 , 656.23 849.33 , 656.24 849.60 , 656.24 849.87 , 656.24 850.14 , 656.24 850.40 , 656.24 850.67 , 656.24 850.94 , 656.24 851.21 , 656.25 851.48 , 656.25 851.75 , 656.25 852.02 , 656.25 852.29 , 656.25 852.55 , 656.25 852.82 , 656.25 853.09 , 656.25 853.36 , 656.25 853.63 , 656.25 853.90 , 656.26 854.17 , 656.26 854.44 , 656.26 854.71 , 656.26 854.97 , 656.26 855.24 , 656.26 855.51 , 656.26 855.78 , 656.26 856.05 , 656.26 856.32 , 656.26 856.59 , 656.26 856.86 , 656.26 857.13 , 656.26 857.39 , 656.26 857.66 , 656.26 857.93 , 656.26 858.20 , 656.26 858.47 , 656.26 858.74 , 656.27 859.01 , 656.27 859.28 , 656.27 859.55 , 656.27 859.81 , 656.27 860.08 , 656.27 860.35 , 656.27 860.62 , 656.27 860.89 , 656.27 861.16 , 656.27 861.43 , 656.27 861.70 , 656.27 861.96 , 656.27 862.23 , 656.27 862.50 , 656.27 862.77 , 656.27 863.04 , 656.27 863.31 , 656.27 863.58 , 656.27 863.85 , 656.27 864.12 , 656.27 864.38 , 656.27 864.65 , 656.27 864.92 , 656.27 865.19 , 656.27 865.46 , 656.27 865.73 , 656.27 866.00 , 656.27 866.27 , 656.27 866.54 , 656.27 866.80 , 656.27 867.07 , 656.27 867.34 , 656.27 867.61 , 656.27 867.88 , 656.27 868.15 , 656.27 868.42 , 656.27 868.69 , 656.27 868.95 , 656.27 869.22 , 656.27 869.49 , 656.27 869.76 , 656.27 870.03 , 656.27 870.30 , 656.27 870.57 , 656.27 870.84 , 656.27 871.11 , 656.27 871.37 , 656.27 871.64 , 656.27 871.91 , 656.27 872.18 , 656.27 872.45 , 656.27 872.72 , 656.27 872.99 , 656.27 873.26 , 656.27 873.53 , 656.27 873.79 , 656.27 874.06 , 656.27 874.33 , 656.27 874.60 , 656.27 874.87 , 656.27 875.14 , 656.27 875.41 , 656.27 875.68 , 656.27 875.95 , 656.27 876.21 , 656.27 876.48 , 656.27 876.75 , 656.27 877.02 , 656.27 877.29 , 656.27 877.56 , 656.27 877.83 , 656.27 878.10 , 656.27 878.36 , 656.27 878.63 , 656.27 878.90 , 656.27 879.17 , 656.27 879.44 , 656.27 879.71 , 656.27 879.98 , 656.27 880.25 , 656.27 880.52 , 656.27 880.78 , 656.27 881.05 , 656.27 881.32 , 656.27 881.59 , 656.27 881.86 , 656.27 882.13 , 656.27 882.40 , 656.27 882.67 , 656.27 882.94 , 656.27 883.20 , 656.27 883.47 , 656.27 883.74 , 656.27 884.01 , 656.27 884.28 , 656.27 884.55 , 656.27 884.82 , 656.27 885.09 , 656.27 885.35 , 656.27 885.62 , 656.27 885.89 , 656.27 886.16 , 656.27 886.43 , 656.27 886.70 , 656.27 886.97 , 656.27 887.24 , 656.27 887.51 , 656.27 887.77 , 656.27 888.04 , 656.27 888.31 , 656.27 888.58 , 656.27 888.85 , 656.27 889.12 , 656.27 889.39 , 656.27 889.66 , 656.27 889.93 , 656.27 890.19 , 656.27 890.46 , 656.27 890.73 , 656.27 891.00 , 656.27 891.27 , 656.27 891.54 , 656.27 891.81 , 656.27 892.08 , 656.27 892.35 , 656.27 892.61 , 656.27 892.88 , 656.27 893.15 , 656.27 893.42 , 656.27 893.69 , 656.27 893.96 , 656.27 894.23 , 656.27 894.50 , 656.27 894.76 , 656.27 895.03 , 656.27 895.30 , 656.27 895.57 , 656.27 895.84 , 656.27 896.11 , 656.27 896.38 , 656.27 896.65 , 656.27 896.92 , 656.27 897.18 , 656.27 897.45 , 656.27 897.72 , 656.27 897.99 , 656.27 898.26 , 656.27 898.53 , 656.27 898.80 , 656.27 899.07 , 656.27 899.34 , 656.27 899.60 , 656.27 899.87 , 656.27 900.14 , 656.27 900.41 , 656.27 900.68 , 656.27 900.95 , 656.27 901.22 , 656.27 901.49 , 656.27 901.75 , 656.27 902.02 , 656.27 902.29 , 656.27 902.56 , 656.27 902.83 , 656.27 903.10 , 656.27 903.37 , 656.27 903.64 , 656.27 903.91 , 656.27 904.17 , 656.27 904.44 , 656.27 904.71 , 656.27 904.98 , 656.27 905.25 , 656.27 905.52 , 656.27 905.79 , 656.27 906.06 , 656.27 906.33 , 656.27 906.59 , 656.27 906.86 , 656.27 907.13 , 656.27 907.40 , 656.27 907.67 , 656.27 907.94 , 656.27 908.21 , 656.27 908.48 , 656.27 908.75 , 656.27 909.01 , 656.27 909.28 , 656.27 909.55 , 656.27 909.82 , 656.27 910.09 , 656.27 910.36 , 656.27 910.63 , 656.27 910.90 , 656.27 911.16 , 656.27 911.43 , 656.27 911.70 , 656.27 911.97 , 656.27 912.24 , 656.27 912.51 , 656.27 912.78 , 656.27 913.05 , 656.27 913.32 , 656.27 913.58 , 656.27 913.85 , 656.27 914.12 , 656.27 914.39 , 656.27 914.66 , 656.27 914.93 , 656.27 915.20 , 656.27 915.47 , 656.27 915.74 , 656.27 916.00 , 656.27 916.27 , 656.27 916.54 , 656.27 916.81 , 656.27 917.08 , 656.27 917.35 , 656.27 917.62 , 656.27 917.89 , 656.27 918.15 , 656.27 918.42 , 656.27 918.69 , 656.27 918.96 , 656.27 919.23 , 656.27 919.50 , 656.27 919.77 , 656.27 920.04 , 656.27 920.31 , 656.27 920.57 , 656.27 920.84 , 656.27 921.11 , 656.27 921.38 , 656.27 921.65 , 656.27 921.92 , 656.27 922.19 , 656.27 922.46 , 656.27 922.73 , 656.27 922.99 , 656.27 923.26 , 656.27 923.53 , 656.27 923.80 , 656.27 924.07 , 656.27 924.34 , 656.27 924.61 , 656.27 924.88 , 656.27 925.15 , 656.27 925.41 , 656.27 925.68 , 656.27 925.95 , 656.27 926.22 , 656.27 926.49 , 656.27 926.76 , 656.27 927.03 , 656.27 927.30 , 656.27 927.56 , 656.27 927.83 , 656.27 928.10 , 656.27 928.37 , 656.27 928.64 , 656.27 928.91 , 656.27 929.18 , 656.27 929.45 , 656.27 929.72 , 656.27 929.98 , 656.27 930.25 , 656.27 930.52 , 656.27 930.79 , 656.27 931.06 , 656.27 931.33 , 656.27 931.60 , 656.27 931.87 , 656.27 932.14 , 656.27 932.40 , 656.27 932.67 , 656.27 932.94 , 656.27 933.21 , 656.27 933.48 , 656.27 933.75 , 656.27 934.02 , 656.27 934.29 , 656.27 934.55 , 656.27 934.82 , 656.27 935.09 , 656.27 935.36 , 656.27 935.63 , 656.27 935.90 , 656.27 936.17 , 656.27 936.44 , 656.27 936.71 , 656.27 936.97 , 656.27 937.24 , 656.27 937.51 , 656.27 937.78 , 656.27 938.05 , 656.27 938.32 , 656.27 938.59 , 656.27 938.86 , 656.27 939.13 , 656.27 939.39 , 656.27 939.66 , 656.27 939.93 , 656.27 940.20 , 656.27 940.47 , 656.27 940.74 , 656.27 941.01 , 656.27 941.28 , 656.27 941.55 , 656.27 941.81 , 656.27 942.08 , 656.27 942.35 , 656.27 942.62 , 656.27 942.89 , 656.27 943.16 , 656.27 943.43 , 656.27 943.70 , 656.27 943.96 , 656.27 944.23 , 656.27 944.50 , 656.27 944.77 , 656.27 945.04 , 656.27 945.31 , 656.27 945.58 , 656.27 945.85 , 656.27 946.12 , 656.27 946.38 , 656.27 946.65 , 656.27 946.92 , 656.27 947.19 , 656.27 947.46 , 656.27 947.73 , 656.27 948.00 , 656.27 948.27 , 656.27 948.54 , 656.27 948.80 , 656.27 949.07 , 656.27 949.34 , 656.27 949.61 , 656.27 949.88 , 656.27 950.15 , 656.27 950.42 , 656.27 950.69 , 656.27 950.95 , 656.27 951.22 , 656.27 951.49 , 656.27 951.76 , 656.27 952.03 , 656.27 952.30 , 656.27 952.57 , 656.27 952.84 , 656.27 953.11 , 656.27 953.37 , 656.27 953.64 , 656.27 953.91 , 656.27 954.18 , 656.27 954.45 , 656.27 954.72 , 656.27 954.99 , 656.27 955.26 , 656.27 955.53 , 656.27 955.79 , 656.27 956.06 , 656.27 956.33 , 656.27 956.60 , 656.27 956.87 , 656.27 957.14 , 656.27 957.41 , 656.27 957.68 , 656.27 957.95 , 656.27 958.21 , 656.27 958.48 , 656.27 958.75 , 656.27 959.02 , 656.27 959.29 , 656.27 959.56 , 656.27 959.83 , 656.27 960.10 , 656.27 960.36 , 656.27 960.63 , 656.27 960.90 , 656.27 961.17 , 656.27 961.44 , 656.27 961.71 , 656.27 961.98 , 656.27 962.25 , 656.27 962.52 , 656.27 962.78 , 656.27 963.05 , 656.27 963.32 , 656.27 963.59 , 656.27 963.86 , 656.27 964.13 , 656.27 964.40 , 656.27 964.67 , 656.27 964.94 , 656.27 965.20 , 656.27 965.47 , 656.27 965.74 , 656.27 966.01 , 656.27 966.28 , 656.27 966.55 , 656.27 966.82 , 656.27 967.09 , 656.27 967.36 , 656.27 967.62 , 656.27 967.89 , 656.27 968.16 , 656.27 968.43 , 656.27 968.70 , 656.27 968.97 , 656.27 969.24 , 656.27 969.51 , 656.27 969.77 , 656.27 970.04 , 656.27 970.31 , 656.27 970.58 , 656.27 970.85 , 656.27 971.12 , 656.27 971.39 , 656.27 971.66 , 656.27 971.93 , 656.27 972.19 , 656.27 972.46 , 656.27 972.73 , 656.27 973.00 , 656.27 973.27 , 656.27 973.54 , 656.27 973.81 , 656.27 974.08 , 656.27 974.35 , 656.27 974.61 , 656.27 974.88 , 656.27 975.15 , 656.27 975.42 , 656.27 975.69 , 656.27 975.96 , 656.27 976.23 , 656.27 976.50 , 656.27 976.76 , 656.27 977.03 , 656.27 977.30 , 656.27 977.57 , 656.27 977.84 , 656.27 978.11 , 656.27 978.38 , 656.27 978.65 , 656.27 978.92 , 656.27 979.18 , 656.27 979.45 , 656.27 979.72 , 656.27 979.99 , 656.27 980.26 , 656.27 980.53 , 656.27 980.80 , 656.27 981.07 , 656.27 981.34 , 656.27 981.60 , 656.27 981.87 , 656.27 982.14 , 656.27 982.41 , 656.27 982.68 , 656.27 982.95 , 656.27 983.22 , 656.27 983.49 , 656.27 983.76 , 656.27 984.02 , 656.27 984.29 , 656.27 984.56 , 656.27 984.83 , 656.27 985.10 , 656.27 985.37 , 656.27 985.64 , 656.27 985.91 , 656.27 986.17 , 656.27 986.44 , 656.27 986.71 , 656.27 986.98 , 656.27 987.25 , 656.27 987.52 , 656.27 987.79 , 656.27 988.06 , 656.27 988.33 , 656.27 988.59 , 656.27 988.86 , 656.27 989.13 , 656.27 989.40 , 656.27 989.67 , 656.27 989.94 , 656.27 990.21 , 656.27 990.48 , 656.27 990.75 , 656.27 991.01 , 656.27 991.28 , 656.27 991.55 , 656.27 991.82 , 656.27 992.09 , 656.27 992.36 , 656.27 992.63 , 656.27 992.90 , 656.27 993.16 , 656.27 993.43 , 656.27 993.70 , 656.27 993.97 , 656.27 994.24 , 656.27 994.51 , 656.27 994.78 , 656.27 995.05 , 656.27 995.32 , 656.27 995.58 , 656.27 995.85 , 656.27 996.12 , 656.27 996.39 , 656.27 996.66 , 656.27 996.93 , 656.27 997.20 , 656.27 997.47 , 656.27 997.74 , 656.27 998.00 , 656.27 998.27 , 656.27 998.54 , 656.27 998.81 , 656.27 999.08 , 656.27 999.35 , 656.27 999.62 , 656.27 999.89 , 656.27 1000.16 , 656.27 1000.42 , 656.27 1000.69 , 656.27 1000.96 , 656.27 1001.23 , 656.27 1001.50 , 656.27 1001.77 , 656.27 1002.04 , 656.27 1002.31 , 656.27 1002.57 , 656.27 1002.84 , 656.27 1003.11 , 656.27 1003.38 , 656.27 1003.65 , 656.27 1003.92 , 656.27 1004.19 , 656.27 1004.46 , 656.27 1004.73 , 656.27 1004.99 , 656.27 1005.26 , 656.27 1005.53 , 656.27 1005.80 , 656.27 1006.07 , 656.27 1006.34 , 656.27 1006.61 , 656.27 1006.88 , 656.27 1007.15 , 656.27 1007.41 , 656.27 1007.68 , 656.27 1007.95 , 656.27 1008.22 , 656.27 1008.49 , 656.27 1008.76 , 656.27 1009.03 , 656.27 1009.30 , 656.27 1009.56 , 656.27 1009.83 , 656.27 1010.10 , 656.27 1010.37 , 656.27 1010.64 , 656.27 1010.91 , 656.27 1011.18 , 656.27 1011.45 , 656.27 1011.72 , 656.27 1011.98 , 656.27 1012.25 , 656.27 1012.52 , 656.27 1012.79 , 656.27 1013.06 , 656.27 1013.33 , 656.27 1013.60 , 656.27 1013.87 , 656.27 1014.14 , 656.27 1014.40 , 656.27 1014.67 , 656.27 1014.94 , 656.27 1015.21 , 656.27 1015.48 , 656.27 1015.75 , 656.27 1016.02 , 656.27 1016.29 , 656.27 1016.56 , 656.27 1016.82 , 656.27 1017.09 , 656.27 1017.36 , 656.27 1017.63 , 656.27 1017.90 , 656.27 1018.17 , 656.27 1018.44 , 656.27 1018.71 , 656.27 1018.97 , 656.27 1019.24 , 656.27 1019.51 , 656.27 1019.78 , 656.27 1020.05 , 656.27 1020.32 , 656.27 1020.59 , 656.27 1020.86 , 656.27 1021.13 , 656.27 1021.39 , 656.27 1021.66 , 656.27 1021.93 , 656.27 1022.20 , 656.27 1022.47 , 656.27 1022.74 , 656.27 1023.01 , 656.27 1023.28 , 656.27 1023.55 , 656.27 1023.81 , 656.27 1024.08 , 656.27 1024.35 , 656.27 1024.62 , 656.27 1024.89 , 656.27 1025.16 , 656.27 1025.43 , 656.27 1025.70 , 656.27 1025.96 , 656.27 1026.23 , 656.27 1026.50 , 656.27 1026.77 , 656.27 1027.04 , 656.27 1027.31 , 656.27 1027.58 , 656.27 1027.85 , 656.27 1028.12 , 656.27 1028.38 , 656.27 1028.65 , 656.27 1028.92 , 656.27 1029.19 , 656.27 1029.46 , 656.27 1029.73 , 656.27 1030.00 , 656.27 1030.27 , 656.27 1030.54 , 656.27 1030.80 , 656.27 1031.07 , 656.27 1031.34 , 656.27 1031.61 , 656.27 1031.88 , 656.27 1032.15 , 656.27 1032.42 , 656.27 1032.69 , 656.27 1032.96 , 656.27 1033.22 , 656.27 1033.49 , 656.27 1033.76 , 656.27 1034.03 , 656.27 1034.30 , 656.27 1034.57 , 656.27 1034.84 , 656.27 1035.11 , 656.27 1035.37 , 656.27 1035.64 , 656.27 1035.91 , 656.27 1036.18 , 656.27 1036.45 , 656.27 1036.72 , 656.27 1036.99 , 656.27 1037.26 , 656.27 1037.53 , 656.27 1037.79 , 656.27 1038.06 , 656.27 1038.33 , 656.27 1038.60 , 656.27 1038.87 , 656.27 1039.14 , 656.27 1039.41 , 656.27 1039.68 , 656.27 1039.95 , 656.27 1040.21 , 656.27 1040.48 , 656.27 1040.75 , 656.27 1041.02 , 656.27 1041.29 , 656.27 1041.56 , 656.27 1041.83 , 656.27 1042.10 , 656.27 1042.36 , 656.27 1042.63 , 656.27 1042.90 , 656.27 1043.17 , 656.27 1043.44 , 656.27 1043.71 , 656.27 1043.98 , 656.27 1044.25 , 656.27 1044.52 , 656.27 1044.78 , 656.27 1045.05 , 656.27 1045.32 , 656.27 1045.59 , 656.27 1045.86 , 656.27 1046.13 , 656.27 1046.40 , 656.27 1046.67 , 656.27 1046.94 , 656.27 1047.20 , 656.27 1047.47 , 656.27 1047.74 , 656.27 1048.01 , 656.27 1048.28 , 656.27 1048.55 , 656.27 1048.82 , 656.27 1049.09 , 656.27 1049.36 , 656.27 1049.62 , 656.27 1049.89 , 656.27 1050.16 , 656.27 1050.43 , 656.27 1050.70 , 656.27 1050.97 , 656.27 1051.24 , 656.27 1051.51 , 656.27 1051.77 , 656.27 1052.04 , 656.27 1052.31 , 656.27 1052.58 , 656.27 1052.85 , 656.27 1053.12 , 656.27 1053.39 , 656.27 1053.66 , 656.27 1053.93 , 656.27 1054.19 , 656.27 1054.46 , 656.27 1054.73 , 656.27 1055.00 , 656.27 1055.27 , 656.27 1055.54 , 656.27 1055.81 , 656.27 1056.08 , 656.27 1056.35 , 656.27 1056.61 , 656.27 1056.88 , 656.27 1057.15 , 656.27 1057.42 , 656.27 1057.69 , 656.27 1057.96 , 656.27 1058.23 , 656.27 1058.50 , 656.27 1058.76 , 656.27 1059.03 , 656.27 1059.30 , 656.27 1059.57 , 656.27 1059.84 , 656.27 1060.11 , 656.27 1060.38 , 656.27 1060.65 , 656.27 1060.92 , 656.27 1061.18 , 656.27 1061.45 , 656.27 1061.72 , 656.27 1061.99 , 656.27 1062.26 , 656.27 1062.53 , 656.27 1062.80 , 656.27 1063.07 , 656.27 1063.34 , 656.27 1063.60 , 656.27 1063.87 , 656.27 1064.14 , 656.27 1064.41 , 656.27 1064.68 , 656.27 1064.95 , 656.27 1065.22 , 656.27 1065.49 , 656.27 1065.76 , 656.27 1066.02 , 656.27 1066.29 , 656.27 1066.56 , 656.27 1066.83 , 656.27 1067.10 , 656.27 1067.37 , 656.27 1067.64 , 656.27 1067.91 , 656.27 1068.17 , 656.27 1068.44 , 656.27 1068.71 , 656.27 1068.98 , 656.27 1069.25 , 656.27 1069.52 , 656.27 1069.79 , 656.27 1070.06 , 656.27 1070.33 , 656.27 1070.59 , 656.27 1070.86 , 656.27 1071.13 , 656.27 1071.40 , 656.27 1071.67 , 656.27 1071.94 , 656.27 1072.21 , 656.27 1072.48 , 656.27 1072.75 , 656.27 1073.01 , 656.27 1073.28 , 656.27 1073.55 , 656.27 1073.82 , 656.27 1074.09 , 656.27 1074.36 , 656.27 1074.63 , 656.27 1074.90 , 656.27 1075.17 , 656.27 1075.43 , 656.27 1075.70 , 656.27 1075.97 , 656.27 1076.24 , 656.27 1076.51 , 656.27 1076.78 , 656.27 1077.05 , 656.27 1077.32 , 656.27 1077.58 , 656.27 1077.85 , 656.27 1078.12 , 656.27 1078.39 , 656.27 1078.66 , 656.27 1078.93 , 656.27 1079.20 , 656.27 1079.47 , 656.27 1079.74 , 656.27 1080.00 , 656.27 1080.27 , 656.27 1080.54 , 656.27 1080.81 , 656.27 1081.08 , 656.27 1081.35 , 656.27 1081.62 , 656.27 1081.89 , 656.27 1082.16 , 656.27 1082.42 , 656.27 1082.69 , 656.27 1082.96 , 656.27 1083.23 , 656.27 1083.50 , 656.27 1083.77 , 656.27 1084.04 , 656.27 1084.31 , 656.27 1084.57 , 656.27 1084.84 , 656.27 1085.11 , 656.27 1085.38 , 656.27 1085.65 , 656.27 1085.92 , 656.27 1086.19 , 656.27 1086.46 , 656.27 1086.73 , 656.27 1086.99 , 656.27 1087.26 , 656.27 1087.53 , 656.27 1087.80 , 656.27 1088.07 , 656.27 1088.34 , 656.27 1088.61 , 656.27 1088.88 , 656.27 1089.15 , 656.27 1089.41 , 656.27 1089.68 , 656.27 1089.95 , 656.27 1090.22 , 656.27 1090.49 , 656.27 1090.76 , 656.27 1091.03 , 656.27 1091.30 , 656.27 1091.57 , 656.27 1091.83 , 656.27 1092.10 , 656.27 1092.37 , 656.27 1092.64 , 656.27 1092.91 , 656.27 1093.18 , 656.27 1093.45 , 656.27 1093.72 , 656.27 1093.98 , 656.27 1094.25 , 656.27 1094.52 , 656.27 1094.79 , 656.27 1095.06 , 656.27 1095.33 , 656.27 1095.60 , 656.27 1095.87 , 656.27 1096.14 , 656.27 1096.40 , 656.27 1096.67 , 656.27 1096.94 , 656.27 1097.21 , 656.27 1097.48 , 656.27 1097.75 , 656.27 1098.02 , 656.27 1098.29 , 656.27 1098.56 , 656.27 1098.82 , 656.27 1099.09 , 656.27 1099.36 , 656.27 1099.63 , 656.27 1099.90 , 656.27 1100.17 , 656.27 1100.44 , 656.27 1100.71 , 656.27 1100.97 , 656.27 1101.24 , 656.27 1101.51 , 656.27 1101.78 , 656.27 1102.05 , 656.27 1102.32 , 656.27 1102.59 , 656.27 1102.86 , 656.27 1103.13 , 656.27 1103.39 , 656.27 1103.66 , 656.27 1103.93 , 656.27 1104.20 , 656.27 1104.47 , 656.27 1104.74 , 656.27 1105.01 , 656.27 1105.28 , 656.27 1105.55 , 656.27 1105.81 , 656.27 1106.08 , 656.27 1106.35 , 656.27 1106.62 , 656.27 1106.89 , 656.27 1107.16 , 656.27 1107.43 , 656.27 1107.70 , 656.27 1107.97 , 656.27 1108.23 , 656.27 1108.50 , 656.27 1108.77 , 656.27 1109.04 , 656.27 1109.31 , 656.27 1109.58 , 656.27 1109.85 , 656.27 1110.12 , 656.27 1110.38 , 656.27 1110.65 , 656.27 1110.92 , 656.27 1111.19 , 656.27 1111.46 , 656.27 1111.73 , 656.27 1112.00 , 656.27 1112.27 , 656.27 1112.54 , 656.27 1112.80 , 656.27 1113.07 , 656.27 1113.34 , 656.27 1113.61 , 656.27 1113.88 , 656.27 1114.15 , 656.27 1114.42 , 656.27 1114.69 , 656.27 1114.96 , 656.27 1115.22 , 656.27 1115.49 , 656.27 1115.76 , 656.27 1116.03 , 656.27 1116.30 , 656.27 1116.57 , 656.27 1116.84 , 656.27 1117.11 , 656.27 1117.37 , 656.27 1117.64 , 656.27 1117.91 , 656.27 1118.18 , 656.27 1118.45 , 656.27 1118.72 , 656.27 1118.99 , 656.27 1119.26 , 656.27 1119.53 , 656.27 1119.79 , 656.27 1120.06 , 656.27 1120.33 , 656.27 1120.60 , 656.27 1120.87 , 656.27 1121.14 , 656.27 1121.41 , 656.27 1121.68 , 656.27 1121.95 , 656.27 1122.21 , 656.27 1122.48 , 656.27 1122.75 , 656.27 1123.02 , 656.27 1123.29 , 656.27 1123.56 , 656.27 1123.83 , 656.27 1124.10 , 656.27 1124.37 , 656.27 1124.63 , 656.27 1124.90 , 656.27 1125.17 , 656.27 1125.44 , 656.27 1125.71 , 656.27 1125.98 , 656.27 1126.25 , 656.27 1126.52 , 656.27 1126.78 , 656.27 1127.05 , 656.27 1127.32 , 656.27 1127.59 , 656.27 1127.86 , 656.27 1128.13 , 656.27 1128.40 , 656.27 1128.67 , 656.27 1128.94 , 656.27 1129.20 , 656.27 1129.47 , 656.27 1129.74 , 656.27 1130.01 , 656.27 1130.28 , 656.27 1130.55 , 656.27 1130.82 , 656.27 1131.09 , 656.27 1131.36 , 656.27 1131.62 , 656.27 1131.89 , 656.27 1132.16 , 656.27 1132.43 , 656.27 1132.70 , 656.27 1132.97 , 656.27 1133.24 , 656.27 1133.51 , 656.27 1133.77 , 656.27 1134.04 , 656.27 1134.31 , 656.27 "
     style="stroke-width:2.99999995;stroke:#000000;fill:#000000;stroke-opacity:1;fill-opacity:0;stroke-miterlimit:4;stroke-dasharray:none"
     id="polyline8" />
  <line
     x1="85.79"
     y1="680.20"
     x2="1376.28"
     y2="680.20"
     style="stroke-width:1;stroke:#000000;fill:#000000;stroke-opacity:1.000000;fill-opacity:0.000000"
     id="line10" />
  <line
     x1="85.79"
     y1="680.20"
     x2="85.79"
     y2="684.37"
     style="stroke-width:1;stroke:#000000;fill:#000000;stroke-opacity:1.000000;fill-opacity:0.000000"
     id="line12" />
  <line
     x1="300.87"
     y1="680.20"
     x2="300.87"
     y2="684.37"
     style="stroke-width:1;stroke:#000000;fill:#000000;stroke-opacity:1.000000;fill-opacity:0.000000"
     id="line14" />
  <line
     x1="515.95"
     y1="680.20"
     x2="515.95"
     y2="684.37"
     style="stroke-width:1;stroke:#000000;fill:#000000;stroke-opacity:1.000000;fill-opacity:0.000000"
     id="line16" />
  <line
     x1="731.03"
     y1="680.20"
     x2="731.03"
     y2="684.37"
     style="stroke-width:1;stroke:#000000;fill:#000000;stroke-opacity:1.000000;fill-opacity:0.000000"
     id="line18" />
  <line
     x1="946.12"
     y1="680.20"
     x2="946.12"
     y2="684.37"
     style="stroke-width:1;stroke:#000000;fill:#000000;stroke-opacity:1.000000;fill-opacity:0.000000"
     id="line20" />
  <line
     x1="1161.20"
     y1="680.20"
     x2="1161.20"
     y2="684.37"
     style="stroke-width:1;stroke:#000000;fill:#000000;stroke-opacity:1.000000;fill-opacity:0.000000"
     id="line22" />
  <line
     x1="1376.28"
     y1="680.20"
     x2="1376.28"
     y2="684.37"
     style="stroke-width:1;stroke:#000000;fill:#000000;stroke-opacity:1.000000;fill-opacity:0.000000"
     id="line24" />
  <text
     style="font-size:40px;font-style:normal;font-variant:normal;font-weight:normal;font-stretch:normal;text-align:start;line-height:125%;writing-mode:lr-tb;text-anchor:start;font-family:Bitstream Vera Sans;-inkscape-font-specification:Bitstream Vera Sans"
     id="text26"
     sodipodi:linespacing="125%"
     x="60.790001"
     y="716.87">20</text>
  <text
     style="font-size:40px;font-style:normal;font-variant:normal;font-weight:normal;font-stretch:normal;text-align:start;line-height:125%;writing-mode:lr-tb;text-anchor:start;font-family:Bitstream Vera Sans;-inkscape-font-specification:Bitstream Vera Sans"
     id="text28"
     sodipodi:linespacing="125%"
     x="274.97"
     y="716.87">40</text>
  <text
     style="font-size:40px;font-style:normal;font-variant:normal;font-weight:normal;font-stretch:normal;text-align:start;line-height:125%;writing-mode:lr-tb;text-anchor:start;font-family:Bitstream Vera Sans;-inkscape-font-specification:Bitstream Vera Sans"
     id="text30"
     sodipodi:linespacing="125%"
     x="490.04999"
     y="716.87">60</text>
  <text
     style="font-size:40px;font-style:normal;font-variant:normal;font-weight:normal;font-stretch:normal;text-align:start;line-height:125%;writing-mode:lr-tb;text-anchor:start;font-family:Bitstream Vera Sans;-inkscape-font-specification:Bitstream Vera Sans"
     id="text32"
     sodipodi:linespacing="125%"
     x="705.13"
     y="716.87">80</text>
  <text
     style="font-size:40px;font-style:normal;font-variant:normal;font-weight:normal;font-stretch:normal;text-align:start;line-height:125%;writing-mode:lr-tb;text-anchor:start;font-family:Bitstream Vera Sans;-inkscape-font-specification:Bitstream Vera Sans"
     id="text34"
     sodipodi:linespacing="125%"
     x="915.27002"
     y="716.87">100</text>
  <text
     style="font-size:40px;font-style:normal;font-variant:normal;font-weight:normal;font-stretch:normal;text-align:start;line-height:125%;writing-mode:lr-tb;text-anchor:start;font-family:Bitstream Vera Sans;-inkscape-font-specification:Bitstream Vera Sans"
     id="text36"
     sodipodi:linespacing="125%"
     x="1130.35"
     y="716.87">120</text>
  <text
     style="font-size:40px;font-style:normal;font-variant:normal;font-weight:normal;font-stretch:normal;text-align:start;line-height:125%;writing-mode:lr-tb;text-anchor:start;font-family:Bitstream Vera Sans;-inkscape-font-specification:Bitstream Vera Sans"
     id="text38"
     sodipodi:linespacing="125%"
     x="1345.4301"
     y="716.87">140</text>
  <line
     x1="34.17"
     y1="656.27"
     x2="34.17"
     y2="93.99"
     style="stroke-width:1;stroke:#000000;fill:#000000;stroke-opacity:1.000000;fill-opacity:0.000000"
     id="line40" />
  <line
     x1="34.17"
     y1="656.27"
     x2="30.00"
     y2="656.27"
     style="stroke-width:1;stroke:#000000;fill:#000000;stroke-opacity:1.000000;fill-opacity:0.000000"
     id="line42" />
  <line
     x1="731.03"
     y1="680.20"
     x2="731.03"
     y2="34.17"
     style="stroke-width:2.49999996;stroke:#CCCCCC;fill:#000000;stroke-opacity:1;fill-opacity:0;stroke-miterlimit:4;stroke-dasharray:none"
     id="line60" />
  <line
     x1="892.34998"
     y1="680.44708"
     x2="892.34998"
     y2="353.63623"
     style="fill:#000000;fill-opacity:0;stroke:#666666;stroke-width:2.49999996;stroke-opacity:1;stroke-miterlimit:4;stroke-dasharray:none"
     id="line62" />
  <line
     x1="569.71997"
     y1="680.44617"
     x2="569.71997"
     y2="352.47031"
     style="fill:#000000;fill-opacity:0;stroke:#666666;stroke-width:2.49999996;stroke-opacity:1;stroke-miterlimit:4;stroke-dasharray:none"
     id="line64" />
  <line
     x1="34.17"
     y1="656.27"
     x2="1427.90"
     y2="656.27"
     style="stroke-width:1;stroke:#000000;fill:#000000;stroke-opacity:1.000000;fill-opacity:0.000000"
     id="line66" />
  <text
     xml:space="preserve"
     style="font-size:40px;font-style:normal;font-weight:normal;fill:#000000;fill-opacity:1;stroke:none;stroke-width:1px;stroke-linecap:butt;stroke-linejoin:miter;stroke-opacity:1;font-family:Bitstream Vera Sans"
     x="532.85474"
     y="325.97546"
     id="text3236"><tspan
       sodipodi:role="line"
       id="tspan3238"
       x="532.85474"
       y="325.97546">LSL</tspan></text>
  <text
     xml:space="preserve"
     style="font-size:40px;font-style:normal;font-weight:normal;fill:#000000;fill-opacity:1;stroke:none;stroke-width:1px;stroke-linecap:butt;stroke-linejoin:miter;stroke-opacity:1;font-family:Bitstream Vera Sans"
     x="852.19373"
     y="325.97546"
     id="text3244"
     inkscape:transform-center-x="348.88423"><tspan
       sodipodi:role="line"
       id="tspan3246"
       x="852.19373"
       y="325.97546">USL</tspan></text>
</svg>
