<?xml version="1.0" encoding="UTF-8" standalone="no"?>
<svg
   xmlns:dc="http://purl.org/dc/elements/1.1/"
   xmlns:cc="http://creativecommons.org/ns#"
   xmlns:rdf="http://www.w3.org/1999/02/22-rdf-syntax-ns#"
   xmlns:svg="http://www.w3.org/2000/svg"
   xmlns="http://www.w3.org/2000/svg"
   xmlns:sodipodi="http://sodipodi.sourceforge.net/DTD/sodipodi-0.dtd"
   xmlns:inkscape="http://www.inkscape.org/namespaces/inkscape"
   width="1445.40"
   height="722.70"
   viewBox="0,0,1445.40,722.70"
   id="svg2"
   sodipodi:version="0.32"
   inkscape:version="0.46"
   sodipodi:docname="explain-PCR-half-raw.svg"
   inkscape:output_extension="org.inkscape.output.svg.inkscape">
  <metadata
     id="metadata75">
    <rdf:RDF>
      <cc:Work
         rdf:about="">
        <dc:format>image/svg+xml</dc:format>
        <dc:type
           rdf:resource="http://purl.org/dc/dcmitype/StillImage" />
      </cc:Work>
    </rdf:RDF>
  </metadata>
  <defs
     id="defs73">
    <inkscape:perspective
       sodipodi:type="inkscape:persp3d"
       inkscape:vp_x="0 : 361.35001 : 1"
       inkscape:vp_y="0 : 1000 : 0"
       inkscape:vp_z="1445.4 : 361.35001 : 1"
       inkscape:persp3d-origin="722.70001 : 240.9 : 1"
       id="perspective77" />
  </defs>
  <sodipodi:namedview
     inkscape:window-height="801"
     inkscape:window-width="1440"
     inkscape:pageshadow="2"
     inkscape:pageopacity="0.0"
     guidetolerance="10.0"
     gridtolerance="10.0"
     objecttolerance="10.0"
     borderopacity="1.0"
     bordercolor="#666666"
     pagecolor="#ffffff"
     id="base"
     showgrid="false"
     inkscape:zoom="0.66909711"
     inkscape:cx="728.95004"
     inkscape:cy="347.5218"
     inkscape:window-x="0"
     inkscape:window-y="0"
     inkscape:current-layer="svg2" />
  <desc
     id="desc4">R SVG Plot!</desc>
  <polyline
     points="85.79 , 656.27 86.71 , 656.27 87.63 , 656.27 88.55 , 656.27 89.47 , 656.27 90.40 , 656.27 91.32 , 656.27 92.24 , 656.27 93.16 , 656.27 94.08 , 656.27 95.00 , 656.27 95.93 , 656.27 96.85 , 656.27 97.77 , 656.27 98.69 , 656.27 99.61 , 656.27 100.53 , 656.27 101.46 , 656.27 102.38 , 656.27 103.30 , 656.27 104.22 , 656.27 105.14 , 656.27 106.07 , 656.27 106.99 , 656.27 107.91 , 656.27 108.83 , 656.27 109.75 , 656.27 110.67 , 656.27 111.60 , 656.27 112.52 , 656.27 113.44 , 656.27 114.36 , 656.27 115.28 , 656.27 116.21 , 656.27 117.13 , 656.27 118.05 , 656.27 118.97 , 656.27 119.89 , 656.27 120.81 , 656.27 121.74 , 656.27 122.66 , 656.27 123.58 , 656.27 124.50 , 656.27 125.42 , 656.27 126.34 , 656.27 127.27 , 656.27 128.19 , 656.27 129.11 , 656.27 130.03 , 656.27 130.95 , 656.27 131.88 , 656.27 132.80 , 656.27 133.72 , 656.27 134.64 , 656.27 135.56 , 656.27 136.48 , 656.27 137.41 , 656.27 138.33 , 656.27 139.25 , 656.27 140.17 , 656.27 141.09 , 656.27 142.02 , 656.27 142.94 , 656.27 143.86 , 656.27 144.78 , 656.27 145.70 , 656.27 146.62 , 656.27 147.55 , 656.27 148.47 , 656.27 149.39 , 656.27 150.31 , 656.27 151.23 , 656.27 152.15 , 656.27 153.08 , 656.27 154.00 , 656.27 154.92 , 656.27 155.84 , 656.27 156.76 , 656.27 157.69 , 656.27 158.61 , 656.27 159.53 , 656.27 160.45 , 656.27 161.37 , 656.27 162.29 , 656.27 163.22 , 656.27 164.14 , 656.27 165.06 , 656.27 165.98 , 656.27 166.90 , 656.27 167.82 , 656.27 168.75 , 656.27 169.67 , 656.27 170.59 , 656.27 171.51 , 656.27 172.43 , 656.27 173.36 , 656.27 174.28 , 656.27 175.20 , 656.27 176.12 , 656.27 177.04 , 656.27 177.96 , 656.27 178.89 , 656.27 179.81 , 656.27 180.73 , 656.27 181.65 , 656.27 182.57 , 656.27 183.50 , 656.27 184.42 , 656.27 185.34 , 656.27 186.26 , 656.27 187.18 , 656.27 188.10 , 656.27 189.03 , 656.27 189.95 , 656.27 190.87 , 656.27 191.79 , 656.27 192.71 , 656.27 193.63 , 656.27 194.56 , 656.27 195.48 , 656.27 196.40 , 656.27 197.32 , 656.27 198.24 , 656.27 199.17 , 656.27 200.09 , 656.27 201.01 , 656.27 201.93 , 656.27 202.85 , 656.27 203.77 , 656.27 204.70 , 656.27 205.62 , 656.27 206.54 , 656.27 207.46 , 656.27 208.38 , 656.27 209.31 , 656.27 210.23 , 656.27 211.15 , 656.27 212.07 , 656.27 212.99 , 656.27 213.91 , 656.27 214.84 , 656.27 215.76 , 656.27 216.68 , 656.27 217.60 , 656.27 218.52 , 656.27 219.44 , 656.27 220.37 , 656.27 221.29 , 656.27 222.21 , 656.27 223.13 , 656.27 224.05 , 656.27 224.98 , 656.27 225.90 , 656.27 226.82 , 656.27 227.74 , 656.27 228.66 , 656.27 229.58 , 656.27 230.51 , 656.27 231.43 , 656.27 232.35 , 656.27 233.27 , 656.27 234.19 , 656.27 235.11 , 656.27 236.04 , 656.27 236.96 , 656.27 237.88 , 656.27 238.80 , 656.27 239.72 , 656.27 240.65 , 656.27 241.57 , 656.27 242.49 , 656.27 243.41 , 656.27 244.33 , 656.27 245.25 , 656.27 246.18 , 656.27 247.10 , 656.27 248.02 , 656.27 248.94 , 656.27 249.86 , 656.27 250.79 , 656.27 251.71 , 656.27 252.63 , 656.27 253.55 , 656.27 254.47 , 656.27 255.39 , 656.27 256.32 , 656.27 257.24 , 656.27 258.16 , 656.27 259.08 , 656.27 260.00 , 656.27 260.92 , 656.27 261.85 , 656.27 262.77 , 656.27 263.69 , 656.27 264.61 , 656.27 265.53 , 656.27 266.46 , 656.27 267.38 , 656.27 268.30 , 656.27 269.22 , 656.27 270.14 , 656.27 271.06 , 656.27 271.99 , 656.27 272.91 , 656.27 273.83 , 656.27 274.75 , 656.27 275.67 , 656.27 276.60 , 656.27 277.52 , 656.27 278.44 , 656.27 279.36 , 656.27 280.28 , 656.27 281.20 , 656.27 282.13 , 656.27 283.05 , 656.27 283.97 , 656.27 284.89 , 656.27 285.81 , 656.27 286.73 , 656.27 287.66 , 656.27 288.58 , 656.27 289.50 , 656.27 290.42 , 656.27 291.34 , 656.27 292.27 , 656.27 293.19 , 656.27 294.11 , 656.26 295.03 , 656.26 295.95 , 656.26 296.87 , 656.26 297.80 , 656.26 298.72 , 656.26 299.64 , 656.26 300.56 , 656.26 301.48 , 656.26 302.41 , 656.26 303.33 , 656.26 304.25 , 656.26 305.17 , 656.26 306.09 , 656.26 307.01 , 656.26 307.94 , 656.26 308.86 , 656.26 309.78 , 656.26 310.70 , 656.25 311.62 , 656.25 312.54 , 656.25 313.47 , 656.25 314.39 , 656.25 315.31 , 656.25 316.23 , 656.25 317.15 , 656.25 318.08 , 656.25 319.00 , 656.25 319.92 , 656.24 320.84 , 656.24 321.76 , 656.24 322.68 , 656.24 323.61 , 656.24 324.53 , 656.24 325.45 , 656.24 326.37 , 656.23 327.29 , 656.23 328.21 , 656.23 329.14 , 656.23 330.06 , 656.23 330.98 , 656.22 331.90 , 656.22 332.82 , 656.22 333.75 , 656.22 334.67 , 656.22 335.59 , 656.21 336.51 , 656.21 337.43 , 656.21 338.35 , 656.20 339.28 , 656.20 340.20 , 656.20 341.12 , 656.19 342.04 , 656.19 342.96 , 656.19 343.89 , 656.18 344.81 , 656.18 345.73 , 656.18 346.65 , 656.17 347.57 , 656.17 348.49 , 656.16 349.42 , 656.16 350.34 , 656.15 351.26 , 656.15 352.18 , 656.14 353.10 , 656.14 354.02 , 656.13 354.95 , 656.13 355.87 , 656.12 356.79 , 656.12 357.71 , 656.11 358.63 , 656.10 359.56 , 656.09 360.48 , 656.09 361.40 , 656.08 362.32 , 656.07 363.24 , 656.06 364.16 , 656.06 365.09 , 656.05 366.01 , 656.04 366.93 , 656.03 367.85 , 656.02 368.77 , 656.01 369.70 , 656.00 370.62 , 655.99 371.54 , 655.97 372.46 , 655.96 373.38 , 655.95 374.30 , 655.94 375.23 , 655.92 376.15 , 655.91 377.07 , 655.90 377.99 , 655.88 378.91 , 655.87 379.83 , 655.85 380.76 , 655.84 381.68 , 655.82 382.60 , 655.80 383.52 , 655.78 384.44 , 655.76 385.37 , 655.74 386.29 , 655.72 387.21 , 655.70 388.13 , 655.68 389.05 , 655.66 389.97 , 655.64 390.90 , 655.61 391.82 , 655.59 392.74 , 655.56 393.66 , 655.53 394.58 , 655.51 395.50 , 655.48 396.43 , 655.45 397.35 , 655.42 398.27 , 655.39 399.19 , 655.36 400.11 , 655.32 401.04 , 655.29 401.96 , 655.25 402.88 , 655.21 403.80 , 655.18 404.72 , 655.14 405.64 , 655.10 406.57 , 655.05 407.49 , 655.01 408.41 , 654.96 409.33 , 654.92 410.25 , 654.87 411.18 , 654.82 412.10 , 654.77 413.02 , 654.72 413.94 , 654.66 414.86 , 654.61 415.78 , 654.55 416.71 , 654.49 417.63 , 654.43 418.55 , 654.36 419.47 , 654.30 420.39 , 654.23 421.31 , 654.16 422.24 , 654.09 423.16 , 654.01 424.08 , 653.93 425.00 , 653.86 425.92 , 653.77 426.85 , 653.69 427.77 , 653.60 428.69 , 653.51 429.61 , 653.42 430.53 , 653.33 431.45 , 653.23 432.38 , 653.13 433.30 , 653.03 434.22 , 652.92 435.14 , 652.81 436.06 , 652.70 436.99 , 652.58 437.91 , 652.46 438.83 , 652.34 439.75 , 652.21 440.67 , 652.08 441.59 , 651.95 442.52 , 651.81 443.44 , 651.67 444.36 , 651.52 445.28 , 651.37 446.20 , 651.22 447.12 , 651.06 448.05 , 650.90 448.97 , 650.73 449.89 , 650.56 450.81 , 650.38 451.73 , 650.20 452.66 , 650.02 453.58 , 649.82 454.50 , 649.63 455.42 , 649.43 456.34 , 649.22 457.26 , 649.01 458.19 , 648.79 459.11 , 648.56 460.03 , 648.33 460.95 , 648.09 461.87 , 647.85 462.79 , 647.60 463.72 , 647.35 464.64 , 647.09 465.56 , 646.82 466.48 , 646.54 467.40 , 646.26 468.33 , 645.97 469.25 , 645.67 470.17 , 645.37 471.09 , 645.05 472.01 , 644.73 472.93 , 644.40 473.86 , 644.07 474.78 , 643.72 475.70 , 643.37 476.62 , 643.01 477.54 , 642.64 478.47 , 642.26 479.39 , 641.87 480.31 , 641.47 481.23 , 641.06 482.15 , 640.65 483.07 , 640.22 484.00 , 639.78 484.92 , 639.34 485.84 , 638.88 486.76 , 638.41 487.68 , 637.93 488.60 , 637.44 489.53 , 636.94 490.45 , 636.43 491.37 , 635.91 492.29 , 635.37 493.21 , 634.82 494.14 , 634.26 495.06 , 633.69 495.98 , 633.11 496.90 , 632.51 497.82 , 631.90 498.74 , 631.28 499.67 , 630.64 500.59 , 629.99 501.51 , 629.33 502.43 , 628.65 503.35 , 627.96 504.28 , 627.25 505.20 , 626.53 506.12 , 625.79 507.04 , 625.04 507.96 , 624.27 508.88 , 623.49 509.81 , 622.69 510.73 , 621.88 511.65 , 621.05 512.57 , 620.20 513.49 , 619.34 514.41 , 618.46 515.34 , 617.56 516.26 , 616.65 517.18 , 615.72 518.10 , 614.77 519.02 , 613.80 519.95 , 612.81 520.87 , 611.81 521.79 , 610.79 522.71 , 609.74 523.63 , 608.68 524.55 , 607.60 525.48 , 606.50 526.40 , 605.38 527.32 , 604.24 528.24 , 603.08 529.16 , 601.90 530.09 , 600.70 531.01 , 599.48 531.93 , 598.24 532.85 , 596.97 533.77 , 595.69 534.69 , 594.38 535.62 , 593.05 536.54 , 591.70 537.46 , 590.32 538.38 , 588.93 539.30 , 587.51 540.22 , 586.07 541.15 , 584.60 542.07 , 583.11 542.99 , 581.60 543.91 , 580.07 544.83 , 578.51 545.76 , 576.93 546.68 , 575.32 547.60 , 573.69 548.52 , 572.03 549.44 , 570.35 550.36 , 568.65 551.29 , 566.92 552.21 , 565.16 553.13 , 563.38 554.05 , 561.58 554.97 , 559.74 555.89 , 557.89 556.82 , 556.01 557.74 , 554.10 558.66 , 552.16 559.58 , 550.20 560.50 , 548.22 561.43 , 546.21 562.35 , 544.17 563.27 , 542.10 564.19 , 540.01 565.11 , 537.89 566.03 , 535.75 566.96 , 533.58 567.88 , 531.38 568.80 , 529.16 569.72 , 526.91 570.64 , 524.63 571.57 , 522.33 572.49 , 520.00 573.41 , 517.64 574.33 , 515.25 575.25 , 512.84 576.17 , 510.41 577.10 , 507.94 578.02 , 505.45 578.94 , 502.94 579.86 , 500.39 580.78 , 497.82 581.70 , 495.23 582.63 , 492.60 583.55 , 489.96 584.47 , 487.28 585.39 , 484.58 586.31 , 481.86 587.24 , 479.11 588.16 , 476.33 589.08 , 473.53 590.00 , 470.70 590.92 , 467.85 591.84 , 464.97 592.77 , 462.07 593.69 , 459.15 594.61 , 456.20 595.53 , 453.23 596.45 , 450.23 597.38 , 447.21 598.30 , 444.17 599.22 , 441.10 600.14 , 438.01 601.06 , 434.90 601.98 , 431.77 602.91 , 428.62 603.83 , 425.44 604.75 , 422.25 605.67 , 419.03 606.59 , 415.79 607.51 , 412.54 608.44 , 409.26 609.36 , 405.97 610.28 , 402.65 611.20 , 399.32 612.12 , 395.97 613.05 , 392.61 613.97 , 389.22 614.89 , 385.82 615.81 , 382.41 616.73 , 378.98 617.65 , 375.53 618.58 , 372.07 619.50 , 368.60 620.42 , 365.11 621.34 , 361.61 622.26 , 358.10 623.18 , 354.57 624.11 , 351.04 625.03 , 347.49 625.95 , 343.93 626.87 , 340.37 627.79 , 336.79 628.72 , 333.21 629.64 , 329.62 630.56 , 326.03 631.48 , 322.42 632.40 , 318.82 633.32 , 315.20 634.25 , 311.58 635.17 , 307.96 636.09 , 304.34 637.01 , 300.71 637.93 , 297.09 638.86 , 293.46 639.78 , 289.83 640.70 , 286.20 641.62 , 282.58 642.54 , 278.95 643.46 , 275.33 644.39 , 271.72 645.31 , 268.10 646.23 , 264.50 647.15 , 260.90 648.07 , 257.30 648.99 , 253.71 649.92 , 250.14 650.84 , 246.57 651.76 , 243.01 652.68 , 239.46 653.60 , 235.92 654.53 , 232.40 655.45 , 228.89 656.37 , 225.39 657.29 , 221.91 658.21 , 218.44 659.13 , 214.99 660.06 , 211.55 660.98 , 208.14 661.90 , 204.74 662.82 , 201.37 663.74 , 198.01 664.67 , 194.68 665.59 , 191.36 666.51 , 188.08 667.43 , 184.81 668.35 , 181.57 669.27 , 178.35 670.20 , 175.17 671.12 , 172.00 672.04 , 168.87 672.96 , 165.77 673.88 , 162.69 674.80 , 159.65 675.73 , 156.63 676.65 , 153.65 677.57 , 150.70 678.49 , 147.79 679.41 , 144.90 680.34 , 142.06 681.26 , 139.25 682.18 , 136.47 683.10 , 133.74 684.02 , 131.04 684.94 , 128.38 685.87 , 125.76 686.79 , 123.18 687.71 , 120.64 688.63 , 118.15 689.55 , 115.69 690.47 , 113.28 691.40 , 110.92 692.32 , 108.59 693.24 , 106.32 694.16 , 104.08 695.08 , 101.90 696.01 , 99.76 696.93 , 97.67 697.85 , 95.63 698.77 , 93.63 699.69 , 91.69 700.61 , 89.79 701.54 , 87.95 702.46 , 86.16 703.38 , 84.42 704.30 , 82.73 705.22 , 81.09 706.15 , 79.50 707.07 , 77.97 707.99 , 76.50 708.91 , 75.08 709.83 , 73.71 710.75 , 72.40 711.68 , 71.14 712.60 , 69.94 713.52 , 68.79 714.44 , 67.71 715.36 , 66.68 716.28 , 65.70 717.21 , 64.79 718.13 , 63.93 719.05 , 63.13 719.97 , 62.39 720.89 , 61.70 721.82 , 61.08 722.74 , 60.51 723.66 , 60.00 724.58 , 59.56 725.50 , 59.17 726.42 , 58.84 727.35 , 58.57 728.27 , 58.36 729.19 , 58.21 730.11 , 58.12 731.03 , 58.09 731.96 , 58.12 732.88 , 58.21 733.80 , 58.36 734.72 , 58.57 735.64 , 58.84 736.56 , 59.17 737.49 , 59.56 738.41 , 60.00 739.33 , 60.51 740.25 , 61.08 741.17 , 61.70 742.09 , 62.39 743.02 , 63.13 743.94 , 63.93 744.86 , 64.79 745.78 , 65.70 746.70 , 66.68 747.63 , 67.71 748.55 , 68.79 749.47 , 69.94 750.39 , 71.14 751.31 , 72.40 752.23 , 73.71 753.16 , 75.08 754.08 , 76.50 755.00 , 77.97 755.92 , 79.50 756.84 , 81.09 757.76 , 82.73 758.69 , 84.42 759.61 , 86.16 760.53 , 87.95 761.45 , 89.79 762.37 , 91.69 763.30 , 93.63 764.22 , 95.63 765.14 , 97.67 766.06 , 99.76 766.98 , 101.90 767.90 , 104.08 768.83 , 106.32 769.75 , 108.59 770.67 , 110.92 771.59 , 113.28 772.51 , 115.69 773.44 , 118.15 774.36 , 120.64 775.28 , 123.18 776.20 , 125.76 777.12 , 128.38 778.04 , 131.04 778.97 , 133.74 779.89 , 136.47 780.81 , 139.25 781.73 , 142.06 782.65 , 144.90 783.57 , 147.79 784.50 , 150.70 785.42 , 153.65 786.34 , 156.63 787.26 , 159.65 788.18 , 162.69 789.11 , 165.77 790.03 , 168.87 790.95 , 172.00 791.87 , 175.17 792.79 , 178.35 793.71 , 181.57 794.64 , 184.81 795.56 , 188.08 796.48 , 191.36 797.40 , 194.68 798.32 , 198.01 799.25 , 201.37 800.17 , 204.74 801.09 , 208.14 802.01 , 211.55 802.93 , 214.99 803.85 , 218.44 804.78 , 221.91 805.70 , 225.39 806.62 , 228.89 807.54 , 232.40 808.46 , 235.92 809.38 , 239.46 810.31 , 243.01 811.23 , 246.57 812.15 , 250.14 813.07 , 253.71 813.99 , 257.30 814.92 , 260.90 815.84 , 264.50 816.76 , 268.10 817.68 , 271.72 818.60 , 275.33 819.52 , 278.95 820.45 , 282.58 821.37 , 286.20 822.29 , 289.83 823.21 , 293.46 824.13 , 297.09 825.06 , 300.71 825.98 , 304.34 826.90 , 307.96 827.82 , 311.58 828.74 , 315.20 829.66 , 318.82 830.59 , 322.42 831.51 , 326.03 832.43 , 329.62 833.35 , 333.21 834.27 , 336.79 835.19 , 340.37 836.12 , 343.93 837.04 , 347.49 837.96 , 351.04 838.88 , 354.57 839.80 , 358.10 840.73 , 361.61 841.65 , 365.11 842.57 , 368.60 843.49 , 372.07 844.41 , 375.53 845.33 , 378.98 846.26 , 382.41 847.18 , 385.82 848.10 , 389.22 849.02 , 392.61 849.94 , 395.97 850.86 , 399.32 851.79 , 402.65 852.71 , 405.97 853.63 , 409.26 854.55 , 412.54 855.47 , 415.79 856.40 , 419.03 857.32 , 422.25 858.24 , 425.44 859.16 , 428.62 860.08 , 431.77 861.00 , 434.90 861.93 , 438.01 862.85 , 441.10 863.77 , 444.17 864.69 , 447.21 865.61 , 450.23 866.54 , 453.23 867.46 , 456.20 868.38 , 459.15 869.30 , 462.07 870.22 , 464.97 871.14 , 467.85 872.07 , 470.70 872.99 , 473.53 873.91 , 476.33 874.83 , 479.11 875.75 , 481.86 876.67 , 484.58 877.60 , 487.28 878.52 , 489.96 879.44 , 492.60 880.36 , 495.23 881.28 , 497.82 882.21 , 500.39 883.13 , 502.94 884.05 , 505.45 884.97 , 507.94 885.89 , 510.41 886.81 , 512.84 887.74 , 515.25 888.66 , 517.64 889.58 , 520.00 890.50 , 522.33 891.42 , 524.63 892.35 , 526.91 893.27 , 529.16 894.19 , 531.38 895.11 , 533.58 896.03 , 535.75 896.95 , 537.89 897.88 , 540.01 898.80 , 542.10 899.72 , 544.17 900.64 , 546.21 901.56 , 548.22 902.48 , 550.20 903.41 , 552.16 904.33 , 554.10 905.25 , 556.01 906.17 , 557.89 907.09 , 559.74 908.02 , 561.58 908.94 , 563.38 909.86 , 565.16 910.78 , 566.92 911.70 , 568.65 912.62 , 570.35 913.55 , 572.03 914.47 , 573.69 915.39 , 575.32 916.31 , 576.93 917.23 , 578.51 918.15 , 580.07 919.08 , 581.60 920.00 , 583.11 920.92 , 584.60 921.84 , 586.07 922.76 , 587.51 923.69 , 588.93 924.61 , 590.32 925.53 , 591.70 926.45 , 593.05 927.37 , 594.38 928.29 , 595.69 929.22 , 596.97 930.14 , 598.24 931.06 , 599.48 931.98 , 600.70 932.90 , 601.90 933.83 , 603.08 934.75 , 604.24 935.67 , 605.38 936.59 , 606.50 937.51 , 607.60 938.43 , 608.68 939.36 , 609.74 940.28 , 610.79 941.20 , 611.81 942.12 , 612.81 943.04 , 613.80 943.96 , 614.77 944.89 , 615.72 945.81 , 616.65 946.73 , 617.56 947.65 , 618.46 948.57 , 619.34 949.50 , 620.20 950.42 , 621.05 951.34 , 621.88 952.26 , 622.69 953.18 , 623.49 954.10 , 624.27 955.03 , 625.04 955.95 , 625.79 956.87 , 626.53 957.79 , 627.25 958.71 , 627.96 959.64 , 628.65 960.56 , 629.33 961.48 , 629.99 962.40 , 630.64 963.32 , 631.28 964.24 , 631.90 965.17 , 632.51 966.09 , 633.11 967.01 , 633.69 967.93 , 634.26 968.85 , 634.82 969.77 , 635.37 970.70 , 635.91 971.62 , 636.43 972.54 , 636.94 973.46 , 637.44 974.38 , 637.93 975.31 , 638.41 976.23 , 638.88 977.15 , 639.34 978.07 , 639.78 978.99 , 640.22 979.91 , 640.65 980.84 , 641.06 981.76 , 641.47 982.68 , 641.87 983.60 , 642.26 984.52 , 642.64 985.44 , 643.01 986.37 , 643.37 987.29 , 643.72 988.21 , 644.07 989.13 , 644.40 990.05 , 644.73 990.98 , 645.05 991.90 , 645.37 992.82 , 645.67 993.74 , 645.97 994.66 , 646.26 995.58 , 646.54 996.51 , 646.82 997.43 , 647.09 998.35 , 647.35 999.27 , 647.60 1000.19 , 647.85 1001.12 , 648.09 1002.04 , 648.33 1002.96 , 648.56 1003.88 , 648.79 1004.80 , 649.01 1005.72 , 649.22 1006.65 , 649.43 1007.57 , 649.63 1008.49 , 649.82 1009.41 , 650.02 1010.33 , 650.20 1011.25 , 650.38 1012.18 , 650.56 1013.10 , 650.73 1014.02 , 650.90 1014.94 , 651.06 1015.86 , 651.22 1016.79 , 651.37 1017.71 , 651.52 1018.63 , 651.67 1019.55 , 651.81 1020.47 , 651.95 1021.39 , 652.08 1022.32 , 652.21 1023.24 , 652.34 1024.16 , 652.46 1025.08 , 652.58 1026.00 , 652.70 1026.93 , 652.81 1027.85 , 652.92 1028.77 , 653.03 1029.69 , 653.13 1030.61 , 653.23 1031.53 , 653.33 1032.46 , 653.42 1033.38 , 653.51 1034.30 , 653.60 1035.22 , 653.69 1036.14 , 653.77 1037.06 , 653.86 1037.99 , 653.93 1038.91 , 654.01 1039.83 , 654.09 1040.75 , 654.16 1041.67 , 654.23 1042.60 , 654.30 1043.52 , 654.36 1044.44 , 654.43 1045.36 , 654.49 1046.28 , 654.55 1047.20 , 654.61 1048.13 , 654.66 1049.05 , 654.72 1049.97 , 654.77 1050.89 , 654.82 1051.81 , 654.87 1052.74 , 654.92 1053.66 , 654.96 1054.58 , 655.01 1055.50 , 655.05 1056.42 , 655.10 1057.34 , 655.14 1058.27 , 655.18 1059.19 , 655.21 1060.11 , 655.25 1061.03 , 655.29 1061.95 , 655.32 1062.87 , 655.36 1063.80 , 655.39 1064.72 , 655.42 1065.64 , 655.45 1066.56 , 655.48 1067.48 , 655.51 1068.41 , 655.53 1069.33 , 655.56 1070.25 , 655.59 1071.17 , 655.61 1072.09 , 655.64 1073.01 , 655.66 1073.94 , 655.68 1074.86 , 655.70 1075.78 , 655.72 1076.70 , 655.74 1077.62 , 655.76 1078.54 , 655.78 1079.47 , 655.80 1080.39 , 655.82 1081.31 , 655.84 1082.23 , 655.85 1083.15 , 655.87 1084.08 , 655.88 1085.00 , 655.90 1085.92 , 655.91 1086.84 , 655.92 1087.76 , 655.94 1088.68 , 655.95 1089.61 , 655.96 1090.53 , 655.97 1091.45 , 655.99 1092.37 , 656.00 1093.29 , 656.01 1094.22 , 656.02 1095.14 , 656.03 1096.06 , 656.04 1096.98 , 656.05 1097.90 , 656.06 1098.82 , 656.06 1099.75 , 656.07 1100.67 , 656.08 1101.59 , 656.09 1102.51 , 656.09 1103.43 , 656.10 1104.35 , 656.11 1105.28 , 656.12 1106.20 , 656.12 1107.12 , 656.13 1108.04 , 656.13 1108.96 , 656.14 1109.89 , 656.14 1110.81 , 656.15 1111.73 , 656.15 1112.65 , 656.16 1113.57 , 656.16 1114.49 , 656.17 1115.42 , 656.17 1116.34 , 656.18 1117.26 , 656.18 1118.18 , 656.18 1119.10 , 656.19 1120.03 , 656.19 1120.95 , 656.19 1121.87 , 656.20 1122.79 , 656.20 1123.71 , 656.20 1124.63 , 656.21 1125.56 , 656.21 1126.48 , 656.21 1127.40 , 656.22 1128.32 , 656.22 1129.24 , 656.22 1130.16 , 656.22 1131.09 , 656.22 1132.01 , 656.23 1132.93 , 656.23 1133.85 , 656.23 1134.77 , 656.23 1135.70 , 656.23 1136.62 , 656.24 1137.54 , 656.24 1138.46 , 656.24 1139.38 , 656.24 1140.30 , 656.24 1141.23 , 656.24 1142.15 , 656.24 1143.07 , 656.25 1143.99 , 656.25 1144.91 , 656.25 1145.83 , 656.25 1146.76 , 656.25 1147.68 , 656.25 1148.60 , 656.25 1149.52 , 656.25 1150.44 , 656.25 1151.37 , 656.25 1152.29 , 656.26 1153.21 , 656.26 1154.13 , 656.26 1155.05 , 656.26 1155.97 , 656.26 1156.90 , 656.26 1157.82 , 656.26 1158.74 , 656.26 1159.66 , 656.26 1160.58 , 656.26 1161.51 , 656.26 1162.43 , 656.26 1163.35 , 656.26 1164.27 , 656.26 1165.19 , 656.26 1166.11 , 656.26 1167.04 , 656.26 1167.96 , 656.26 1168.88 , 656.27 1169.80 , 656.27 1170.72 , 656.27 1171.64 , 656.27 1172.57 , 656.27 1173.49 , 656.27 1174.41 , 656.27 1175.33 , 656.27 1176.25 , 656.27 1177.18 , 656.27 1178.10 , 656.27 1179.02 , 656.27 1179.94 , 656.27 1180.86 , 656.27 1181.78 , 656.27 1182.71 , 656.27 1183.63 , 656.27 1184.55 , 656.27 1185.47 , 656.27 1186.39 , 656.27 1187.32 , 656.27 1188.24 , 656.27 1189.16 , 656.27 1190.08 , 656.27 1191.00 , 656.27 1191.92 , 656.27 1192.85 , 656.27 1193.77 , 656.27 1194.69 , 656.27 1195.61 , 656.27 1196.53 , 656.27 1197.45 , 656.27 1198.38 , 656.27 1199.30 , 656.27 1200.22 , 656.27 1201.14 , 656.27 1202.06 , 656.27 1202.99 , 656.27 1203.91 , 656.27 1204.83 , 656.27 1205.75 , 656.27 1206.67 , 656.27 1207.59 , 656.27 1208.52 , 656.27 1209.44 , 656.27 1210.36 , 656.27 1211.28 , 656.27 1212.20 , 656.27 1213.12 , 656.27 1214.05 , 656.27 1214.97 , 656.27 1215.89 , 656.27 1216.81 , 656.27 1217.73 , 656.27 1218.66 , 656.27 1219.58 , 656.27 1220.50 , 656.27 1221.42 , 656.27 1222.34 , 656.27 1223.26 , 656.27 1224.19 , 656.27 1225.11 , 656.27 1226.03 , 656.27 1226.95 , 656.27 1227.87 , 656.27 1228.80 , 656.27 1229.72 , 656.27 1230.64 , 656.27 1231.56 , 656.27 1232.48 , 656.27 1233.40 , 656.27 1234.33 , 656.27 1235.25 , 656.27 1236.17 , 656.27 1237.09 , 656.27 1238.01 , 656.27 1238.93 , 656.27 1239.86 , 656.27 1240.78 , 656.27 1241.70 , 656.27 1242.62 , 656.27 1243.54 , 656.27 1244.47 , 656.27 1245.39 , 656.27 1246.31 , 656.27 1247.23 , 656.27 1248.15 , 656.27 1249.07 , 656.27 1250.00 , 656.27 1250.92 , 656.27 1251.84 , 656.27 1252.76 , 656.27 1253.68 , 656.27 1254.61 , 656.27 1255.53 , 656.27 1256.45 , 656.27 1257.37 , 656.27 1258.29 , 656.27 1259.21 , 656.27 1260.14 , 656.27 1261.06 , 656.27 1261.98 , 656.27 1262.90 , 656.27 1263.82 , 656.27 1264.74 , 656.27 1265.67 , 656.27 1266.59 , 656.27 1267.51 , 656.27 1268.43 , 656.27 1269.35 , 656.27 1270.28 , 656.27 1271.20 , 656.27 1272.12 , 656.27 1273.04 , 656.27 1273.96 , 656.27 1274.88 , 656.27 1275.81 , 656.27 1276.73 , 656.27 1277.65 , 656.27 1278.57 , 656.27 1279.49 , 656.27 1280.41 , 656.27 1281.34 , 656.27 1282.26 , 656.27 1283.18 , 656.27 1284.10 , 656.27 1285.02 , 656.27 1285.95 , 656.27 1286.87 , 656.27 1287.79 , 656.27 1288.71 , 656.27 1289.63 , 656.27 1290.55 , 656.27 1291.48 , 656.27 1292.40 , 656.27 1293.32 , 656.27 1294.24 , 656.27 1295.16 , 656.27 1296.09 , 656.27 1297.01 , 656.27 1297.93 , 656.27 1298.85 , 656.27 1299.77 , 656.27 1300.69 , 656.27 1301.62 , 656.27 1302.54 , 656.27 1303.46 , 656.27 1304.38 , 656.27 1305.30 , 656.27 1306.22 , 656.27 1307.15 , 656.27 1308.07 , 656.27 1308.99 , 656.27 1309.91 , 656.27 1310.83 , 656.27 1311.76 , 656.27 1312.68 , 656.27 1313.60 , 656.27 1314.52 , 656.27 1315.44 , 656.27 1316.36 , 656.27 1317.29 , 656.27 1318.21 , 656.27 1319.13 , 656.27 1320.05 , 656.27 1320.97 , 656.27 1321.90 , 656.27 1322.82 , 656.27 1323.74 , 656.27 1324.66 , 656.27 1325.58 , 656.27 1326.50 , 656.27 1327.43 , 656.27 1328.35 , 656.27 1329.27 , 656.27 1330.19 , 656.27 1331.11 , 656.27 1332.03 , 656.27 1332.96 , 656.27 1333.88 , 656.27 1334.80 , 656.27 1335.72 , 656.27 1336.64 , 656.27 1337.57 , 656.27 1338.49 , 656.27 1339.41 , 656.27 1340.33 , 656.27 1341.25 , 656.27 1342.17 , 656.27 1343.10 , 656.27 1344.02 , 656.27 1344.94 , 656.27 1345.86 , 656.27 1346.78 , 656.27 1347.71 , 656.27 1348.63 , 656.27 1349.55 , 656.27 1350.47 , 656.27 1351.39 , 656.27 1352.31 , 656.27 1353.24 , 656.27 1354.16 , 656.27 1355.08 , 656.27 1356.00 , 656.27 1356.92 , 656.27 1357.84 , 656.27 1358.77 , 656.27 1359.69 , 656.27 1360.61 , 656.27 1361.53 , 656.27 1362.45 , 656.27 1363.38 , 656.27 1364.30 , 656.27 1365.22 , 656.27 1366.14 , 656.27 1367.06 , 656.27 1367.98 , 656.27 1368.91 , 656.27 1369.83 , 656.27 1370.75 , 656.27 1371.67 , 656.27 1372.59 , 656.27 1373.51 , 656.27 1374.44 , 656.27 1375.36 , 656.27 1376.28 , 656.27 "
     style="stroke-width:3.99999993;stroke:#000000;fill:#000000;stroke-opacity:1;fill-opacity:0;stroke-miterlimit:4;stroke-dasharray:none"
     id="polyline8" />
  <line
     x1="177.96"
     y1="680.20"
     x2="1284.10"
     y2="680.20"
     style="stroke-width:1;stroke:#000000;fill:#000000;stroke-opacity:1.000000;fill-opacity:0.000000"
     id="line10" />
  <line
     x1="177.96"
     y1="680.20"
     x2="177.96"
     y2="684.37"
     style="stroke-width:1;stroke:#000000;fill:#000000;stroke-opacity:1.000000;fill-opacity:0.000000"
     id="line12" />
  <line
     x1="362.32"
     y1="680.20"
     x2="362.32"
     y2="684.37"
     style="stroke-width:1;stroke:#000000;fill:#000000;stroke-opacity:1.000000;fill-opacity:0.000000"
     id="line14" />
  <line
     x1="546.68"
     y1="680.20"
     x2="546.68"
     y2="684.37"
     style="stroke-width:1;stroke:#000000;fill:#000000;stroke-opacity:1.000000;fill-opacity:0.000000"
     id="line16" />
  <line
     x1="731.03"
     y1="680.20"
     x2="731.03"
     y2="684.37"
     style="stroke-width:1;stroke:#000000;fill:#000000;stroke-opacity:1.000000;fill-opacity:0.000000"
     id="line18" />
  <line
     x1="915.39"
     y1="680.20"
     x2="915.39"
     y2="684.37"
     style="stroke-width:1;stroke:#000000;fill:#000000;stroke-opacity:1.000000;fill-opacity:0.000000"
     id="line20" />
  <line
     x1="1099.75"
     y1="680.20"
     x2="1099.75"
     y2="684.37"
     style="stroke-width:1;stroke:#000000;fill:#000000;stroke-opacity:1.000000;fill-opacity:0.000000"
     id="line22" />
  <line
     x1="1284.10"
     y1="680.20"
     x2="1284.10"
     y2="684.37"
     style="stroke-width:1;stroke:#000000;fill:#000000;stroke-opacity:1.000000;fill-opacity:0.000000"
     id="line24" />
  <text
     style="font-size:40px;font-style:normal;font-variant:normal;font-weight:normal;font-stretch:normal;text-align:start;line-height:125%;writing-mode:lr-tb;text-anchor:start;font-family:Bitstream Vera Sans;-inkscape-font-specification:Bitstream Vera Sans"
     id="text26"
     sodipodi:linespacing="125%"
     x="152.96001"
     y="716.87">20</text>
  <text
     style="font-size:40px;font-style:normal;font-variant:normal;font-weight:normal;font-stretch:normal;text-align:start;line-height:125%;writing-mode:lr-tb;text-anchor:start;font-family:Bitstream Vera Sans;-inkscape-font-specification:Bitstream Vera Sans"
     id="text28"
     sodipodi:linespacing="125%"
     x="336.42001"
     y="716.87">40</text>
  <text
     style="font-size:40px;font-style:normal;font-variant:normal;font-weight:normal;font-stretch:normal;text-align:start;line-height:125%;writing-mode:lr-tb;text-anchor:start;font-family:Bitstream Vera Sans;-inkscape-font-specification:Bitstream Vera Sans"
     id="text30"
     sodipodi:linespacing="125%"
     x="520.78003"
     y="716.87">60</text>
  <text
     style="font-size:40px;font-style:normal;font-variant:normal;font-weight:normal;font-stretch:normal;text-align:start;line-height:125%;writing-mode:lr-tb;text-anchor:start;font-family:Bitstream Vera Sans;-inkscape-font-specification:Bitstream Vera Sans"
     id="text32"
     sodipodi:linespacing="125%"
     x="705.13"
     y="716.87">80</text>
  <text
     style="font-size:40px;font-style:normal;font-variant:normal;font-weight:normal;font-stretch:normal;text-align:start;line-height:125%;writing-mode:lr-tb;text-anchor:start;font-family:Bitstream Vera Sans;-inkscape-font-specification:Bitstream Vera Sans"
     id="text34"
     sodipodi:linespacing="125%"
     x="884.53998"
     y="716.87">100</text>
  <text
     style="font-size:40px;font-style:normal;font-variant:normal;font-weight:normal;font-stretch:normal;text-align:start;line-height:125%;writing-mode:lr-tb;text-anchor:start;font-family:Bitstream Vera Sans;-inkscape-font-specification:Bitstream Vera Sans"
     id="text36"
     sodipodi:linespacing="125%"
     x="1068.9"
     y="716.87">120</text>
  <text
     style="font-size:40px;font-style:normal;font-variant:normal;font-weight:normal;font-stretch:normal;text-align:start;line-height:125%;writing-mode:lr-tb;text-anchor:start;font-family:Bitstream Vera Sans;-inkscape-font-specification:Bitstream Vera Sans"
     id="text38"
     sodipodi:linespacing="125%"
     x="1253.25"
     y="716.87">140</text>
  <line
     x1="34.17"
     y1="656.27"
     x2="34.17"
     y2="56.51"
     style="stroke-width:1;stroke:#000000;fill:#000000;stroke-opacity:1.000000;fill-opacity:0.000000"
     id="line40" />
  <line
     x1="34.17"
     y1="656.27"
     x2="30.00"
     y2="656.27"
     style="stroke-width:1;stroke:#000000;fill:#000000;stroke-opacity:1.000000;fill-opacity:0.000000"
     id="line42" />
  <line
     x1="731.03"
     y1="680.20"
     x2="731.03"
     y2="34.17"
     style="stroke-width:2.49999996;stroke:#CCCCCC;fill:#000000;stroke-opacity:1;fill-opacity:0;stroke-miterlimit:4;stroke-dasharray:none"
     id="line64" />
  <line
     x1="869.29999"
     y1="680.6557"
     x2="869.29999"
     y2="329.043"
     style="fill:#000000;fill-opacity:0;stroke:#666666;stroke-width:2.49999996;stroke-miterlimit:4;stroke-dasharray:none;stroke-opacity:1"
     id="line66" />
  <line
     x1="592.77002"
     y1="680.6557"
     x2="592.77002"
     y2="329.043"
     style="fill:#000000;fill-opacity:0;stroke:#666666;stroke-width:2.49999996;stroke-miterlimit:4;stroke-dasharray:none;stroke-opacity:1"
     id="line68" />
  <line
     x1="34.17"
     y1="656.27"
     x2="1427.90"
     y2="656.27"
     style="stroke-width:1;stroke:#000000;fill:#000000;stroke-opacity:1.000000;fill-opacity:0.000000"
     id="line70" />
  <path
     style="opacity:1;fill:#004780;fill-opacity:0.97407406;stroke:none;stroke-width:2;stroke-miterlimit:4;stroke-dasharray:none;stroke-dashoffset:0;stroke-opacity:1"
     d="M 437.80934,654.75072 C 483.4732,648.53648 510.82187,632.11763 536.64825,595.41251 C 554.17827,570.49839 569.82818,536.55645 587.79307,484.48831 L 592.06301,472.11259 L 592.08808,563.81244 L 592.11312,655.51228 L 512.57632,655.45607 C 443.30888,655.40709 433.65537,655.31602 437.80934,654.75072 L 437.80934,654.75072 z"
     id="path3224" />
  <path
     style="opacity:1;fill:#004780;fill-opacity:0.97407406;stroke:none;stroke-width:2;stroke-miterlimit:4;stroke-dasharray:none;stroke-dashoffset:0;stroke-opacity:1"
     d="M 869.92881,563.80083 L 869.95016,472.10672 L 875.47744,487.96456 C 886.66964,520.07516 894.9144,540.28731 905.23657,560.91949 C 918.27985,586.99065 930.73877,604.9505 946.18905,619.95341 C 966.58725,639.76097 989.45093,649.99771 1023.7872,654.69637 C 1028.0463,655.27918 1017.5958,655.38281 949.3245,655.43465 L 869.90742,655.49495 L 869.92881,563.80083 z"
     id="path3226" />
  <text
     xml:space="preserve"
     style="font-size:40px;font-style:normal;font-weight:normal;fill:#000000;fill-opacity:1;stroke:none;stroke-width:1px;stroke-linecap:butt;stroke-linejoin:miter;stroke-opacity:1;font-family:Bitstream Vera Sans"
     x="555.90479"
     y="316.87613"
     id="text3228"><tspan
       sodipodi:role="line"
       id="tspan3230"
       x="555.90479"
       y="316.87613">LSL</tspan></text>
  <text
     id="text3232"
     y="316.87613"
     x="829.14374"
     style="font-size:40px;font-style:normal;font-variant:normal;font-weight:normal;font-stretch:normal;text-align:start;line-height:125%;writing-mode:lr-tb;text-anchor:start;fill:#000000;fill-opacity:1;stroke:none;stroke-width:1px;stroke-linecap:butt;stroke-linejoin:miter;stroke-opacity:1;font-family:Bitstream Vera Sans;-inkscape-font-specification:Bitstream Vera Sans"
     xml:space="preserve"
     sodipodi:linespacing="125%"><tspan
       sodipodi:role="line"
       id="tspan3236"
       x="829.14374"
       y="316.87613">USL</tspan></text>
</svg>
