<?xml version="1.0" encoding="UTF-8" standalone="no"?>
<svg
   xmlns:dc="http://purl.org/dc/elements/1.1/"
   xmlns:cc="http://creativecommons.org/ns#"
   xmlns:rdf="http://www.w3.org/1999/02/22-rdf-syntax-ns#"
   xmlns:svg="http://www.w3.org/2000/svg"
   xmlns="http://www.w3.org/2000/svg"
   xmlns:sodipodi="http://sodipodi.sourceforge.net/DTD/sodipodi-0.dtd"
   xmlns:inkscape="http://www.inkscape.org/namespaces/inkscape"
   width="1445.40"
   height="722.70"
   viewBox="0,0,1445.40,722.70"
   id="svg2383"
   sodipodi:version="0.32"
   inkscape:version="0.46"
   sodipodi:docname="show-shift-beta-error.svg"
   inkscape:output_extension="org.inkscape.output.svg.inkscape">
  <metadata
     id="metadata2464">
    <rdf:RDF>
      <cc:Work
         rdf:about="">
        <dc:format>image/svg+xml</dc:format>
        <dc:type
           rdf:resource="http://purl.org/dc/dcmitype/StillImage" />
      </cc:Work>
    </rdf:RDF>
  </metadata>
  <defs
     id="defs2462">
    <marker
       inkscape:stockid="Arrow1Mend"
       orient="auto"
       refY="0.0"
       refX="0.0"
       id="Arrow1Mend"
       style="overflow:visible;">
      <path
         id="path3260"
         d="M 0.0,0.0 L 5.0,-5.0 L -12.5,0.0 L 5.0,5.0 L 0.0,0.0 z "
         style="fill-rule:evenodd;stroke:#000000;stroke-width:1.0pt;marker-start:none;"
         transform="scale(0.4) rotate(180) translate(10,0)" />
    </marker>
    <inkscape:perspective
       sodipodi:type="inkscape:persp3d"
       inkscape:vp_x="0 : 361.35001 : 1"
       inkscape:vp_y="0 : 1000 : 0"
       inkscape:vp_z="1445.4 : 361.35001 : 1"
       inkscape:persp3d-origin="722.70001 : 240.9 : 1"
       id="perspective2466" />
  </defs>
  <sodipodi:namedview
     inkscape:window-height="801"
     inkscape:window-width="1440"
     inkscape:pageshadow="2"
     inkscape:pageopacity="0.0"
     guidetolerance="10.0"
     gridtolerance="10.0"
     objecttolerance="10.0"
     borderopacity="1.0"
     bordercolor="#666666"
     pagecolor="#ffffff"
     id="base"
     showgrid="false"
     inkscape:zoom="0.67253157"
     inkscape:cx="731.03504"
     inkscape:cy="344.3968"
     inkscape:window-x="0"
     inkscape:window-y="0"
     inkscape:current-layer="svg2383" />
  <desc
     id="desc2385">R SVG Plot!</desc>
  <polyline
     points="85.79 , 656.27 87.08 , 656.27 88.37 , 656.27 89.66 , 656.27 90.95 , 656.27 92.24 , 656.27 93.53 , 656.27 94.82 , 656.27 96.11 , 656.27 97.40 , 656.27 98.69 , 656.27 99.98 , 656.27 101.27 , 656.27 102.56 , 656.27 103.85 , 656.27 105.14 , 656.27 106.43 , 656.27 107.72 , 656.27 109.02 , 656.27 110.31 , 656.27 111.60 , 656.27 112.89 , 656.27 114.18 , 656.27 115.47 , 656.27 116.76 , 656.27 118.05 , 656.27 119.34 , 656.27 120.63 , 656.27 121.92 , 656.27 123.21 , 656.27 124.50 , 656.27 125.79 , 656.27 127.08 , 656.27 128.37 , 656.27 129.66 , 656.27 130.95 , 656.27 132.24 , 656.27 133.53 , 656.27 134.83 , 656.27 136.12 , 656.27 137.41 , 656.27 138.70 , 656.27 139.99 , 656.27 141.28 , 656.27 142.57 , 656.27 143.86 , 656.27 145.15 , 656.27 146.44 , 656.27 147.73 , 656.27 149.02 , 656.27 150.31 , 656.27 151.60 , 656.27 152.89 , 656.27 154.18 , 656.27 155.47 , 656.27 156.76 , 656.27 158.05 , 656.27 159.34 , 656.27 160.64 , 656.27 161.93 , 656.27 163.22 , 656.27 164.51 , 656.27 165.80 , 656.27 167.09 , 656.27 168.38 , 656.27 169.67 , 656.27 170.96 , 656.27 172.25 , 656.27 173.54 , 656.27 174.83 , 656.27 176.12 , 656.27 177.41 , 656.27 178.70 , 656.27 179.99 , 656.27 181.28 , 656.27 182.57 , 656.27 183.86 , 656.27 185.15 , 656.27 186.44 , 656.27 187.74 , 656.27 189.03 , 656.27 190.32 , 656.27 191.61 , 656.27 192.90 , 656.27 194.19 , 656.27 195.48 , 656.27 196.77 , 656.27 198.06 , 656.27 199.35 , 656.27 200.64 , 656.27 201.93 , 656.27 203.22 , 656.27 204.51 , 656.27 205.80 , 656.27 207.09 , 656.27 208.38 , 656.27 209.67 , 656.27 210.96 , 656.27 212.25 , 656.27 213.55 , 656.27 214.84 , 656.27 216.13 , 656.27 217.42 , 656.27 218.71 , 656.27 220.00 , 656.27 221.29 , 656.27 222.58 , 656.27 223.87 , 656.27 225.16 , 656.27 226.45 , 656.27 227.74 , 656.27 229.03 , 656.27 230.32 , 656.27 231.61 , 656.27 232.90 , 656.27 234.19 , 656.27 235.48 , 656.27 236.77 , 656.27 238.06 , 656.27 239.36 , 656.27 240.65 , 656.27 241.94 , 656.27 243.23 , 656.27 244.52 , 656.27 245.81 , 656.27 247.10 , 656.27 248.39 , 656.27 249.68 , 656.27 250.97 , 656.27 252.26 , 656.27 253.55 , 656.27 254.84 , 656.27 256.13 , 656.27 257.42 , 656.27 258.71 , 656.27 260.00 , 656.27 261.29 , 656.27 262.58 , 656.27 263.87 , 656.27 265.17 , 656.27 266.46 , 656.27 267.75 , 656.27 269.04 , 656.27 270.33 , 656.27 271.62 , 656.27 272.91 , 656.27 274.20 , 656.27 275.49 , 656.27 276.78 , 656.27 278.07 , 656.27 279.36 , 656.27 280.65 , 656.27 281.94 , 656.27 283.23 , 656.27 284.52 , 656.27 285.81 , 656.27 287.10 , 656.27 288.39 , 656.27 289.68 , 656.27 290.97 , 656.27 292.27 , 656.27 293.56 , 656.27 294.85 , 656.27 296.14 , 656.27 297.43 , 656.27 298.72 , 656.27 300.01 , 656.27 301.30 , 656.27 302.59 , 656.27 303.88 , 656.27 305.17 , 656.27 306.46 , 656.27 307.75 , 656.27 309.04 , 656.27 310.33 , 656.27 311.62 , 656.27 312.91 , 656.27 314.20 , 656.27 315.49 , 656.27 316.78 , 656.27 318.08 , 656.27 319.37 , 656.27 320.66 , 656.27 321.95 , 656.27 323.24 , 656.27 324.53 , 656.27 325.82 , 656.27 327.11 , 656.27 328.40 , 656.27 329.69 , 656.27 330.98 , 656.27 332.27 , 656.27 333.56 , 656.27 334.85 , 656.27 336.14 , 656.27 337.43 , 656.27 338.72 , 656.27 340.01 , 656.27 341.30 , 656.27 342.59 , 656.27 343.89 , 656.27 345.18 , 656.27 346.47 , 656.27 347.76 , 656.27 349.05 , 656.27 350.34 , 656.27 351.63 , 656.27 352.92 , 656.27 354.21 , 656.27 355.50 , 656.27 356.79 , 656.27 358.08 , 656.27 359.37 , 656.27 360.66 , 656.27 361.95 , 656.27 363.24 , 656.27 364.53 , 656.27 365.82 , 656.27 367.11 , 656.27 368.40 , 656.27 369.70 , 656.27 370.99 , 656.27 372.28 , 656.27 373.57 , 656.27 374.86 , 656.27 376.15 , 656.27 377.44 , 656.27 378.73 , 656.27 380.02 , 656.27 381.31 , 656.27 382.60 , 656.27 383.89 , 656.27 385.18 , 656.27 386.47 , 656.27 387.76 , 656.27 389.05 , 656.27 390.34 , 656.27 391.63 , 656.27 392.92 , 656.27 394.21 , 656.27 395.50 , 656.27 396.80 , 656.27 398.09 , 656.27 399.38 , 656.27 400.67 , 656.27 401.96 , 656.27 403.25 , 656.27 404.54 , 656.27 405.83 , 656.27 407.12 , 656.27 408.41 , 656.27 409.70 , 656.27 410.99 , 656.27 412.28 , 656.27 413.57 , 656.27 414.86 , 656.27 416.15 , 656.27 417.44 , 656.27 418.73 , 656.27 420.02 , 656.27 421.31 , 656.27 422.61 , 656.27 423.90 , 656.27 425.19 , 656.27 426.48 , 656.27 427.77 , 656.27 429.06 , 656.26 430.35 , 656.26 431.64 , 656.26 432.93 , 656.26 434.22 , 656.26 435.51 , 656.26 436.80 , 656.26 438.09 , 656.26 439.38 , 656.26 440.67 , 656.25 441.96 , 656.25 443.25 , 656.25 444.54 , 656.25 445.83 , 656.25 447.12 , 656.24 448.42 , 656.24 449.71 , 656.24 451.00 , 656.23 452.29 , 656.23 453.58 , 656.23 454.87 , 656.22 456.16 , 656.22 457.45 , 656.21 458.74 , 656.21 460.03 , 656.20 461.32 , 656.20 462.61 , 656.19 463.90 , 656.18 465.19 , 656.17 466.48 , 656.17 467.77 , 656.16 469.06 , 656.15 470.35 , 656.14 471.64 , 656.13 472.93 , 656.11 474.23 , 656.10 475.52 , 656.09 476.81 , 656.07 478.10 , 656.05 479.39 , 656.04 480.68 , 656.02 481.97 , 656.00 483.26 , 655.97 484.55 , 655.95 485.84 , 655.92 487.13 , 655.90 488.42 , 655.87 489.71 , 655.83 491.00 , 655.80 492.29 , 655.76 493.58 , 655.73 494.87 , 655.68 496.16 , 655.64 497.45 , 655.59 498.74 , 655.54 500.03 , 655.49 501.33 , 655.43 502.62 , 655.37 503.91 , 655.30 505.20 , 655.23 506.49 , 655.15 507.78 , 655.07 509.07 , 654.99 510.36 , 654.90 511.65 , 654.80 512.94 , 654.70 514.23 , 654.59 515.52 , 654.47 516.81 , 654.34 518.10 , 654.21 519.39 , 654.07 520.68 , 653.92 521.97 , 653.77 523.26 , 653.60 524.55 , 653.42 525.84 , 653.23 527.14 , 653.03 528.43 , 652.82 529.72 , 652.60 531.01 , 652.36 532.30 , 652.12 533.59 , 651.85 534.88 , 651.57 536.17 , 651.28 537.46 , 650.97 538.75 , 650.64 540.04 , 650.30 541.33 , 649.94 542.62 , 649.55 543.91 , 649.15 545.20 , 648.73 546.49 , 648.28 547.78 , 647.81 549.07 , 647.32 550.36 , 646.80 551.65 , 646.26 552.95 , 645.69 554.24 , 645.09 555.53 , 644.46 556.82 , 643.81 558.11 , 643.12 559.40 , 642.39 560.69 , 641.64 561.98 , 640.85 563.27 , 640.02 564.56 , 639.16 565.85 , 638.26 567.14 , 637.31 568.43 , 636.33 569.72 , 635.30 571.01 , 634.23 572.30 , 633.12 573.59 , 631.95 574.88 , 630.74 576.17 , 629.48 577.46 , 628.17 578.76 , 626.81 580.05 , 625.39 581.34 , 623.91 582.63 , 622.38 583.92 , 620.80 585.21 , 619.15 586.50 , 617.44 587.79 , 615.67 589.08 , 613.83 590.37 , 611.93 591.66 , 609.97 592.95 , 607.93 594.24 , 605.83 595.53 , 603.65 596.82 , 601.41 598.11 , 599.09 599.40 , 596.69 600.69 , 594.23 601.98 , 591.68 603.27 , 589.06 604.56 , 586.36 605.86 , 583.58 607.15 , 580.71 608.44 , 577.77 609.73 , 574.75 611.02 , 571.64 612.31 , 568.45 613.60 , 565.18 614.89 , 561.82 616.18 , 558.38 617.47 , 554.85 618.76 , 551.24 620.05 , 547.54 621.34 , 543.76 622.63 , 539.89 623.92 , 535.94 625.21 , 531.90 626.50 , 527.78 627.79 , 523.57 629.08 , 519.28 630.37 , 514.91 631.67 , 510.46 632.96 , 505.93 634.25 , 501.32 635.54 , 496.64 636.83 , 491.87 638.12 , 487.04 639.41 , 482.13 640.70 , 477.15 641.99 , 472.10 643.28 , 466.98 644.57 , 461.80 645.86 , 456.56 647.15 , 451.25 648.44 , 445.90 649.73 , 440.48 651.02 , 435.02 652.31 , 429.51 653.60 , 423.96 654.89 , 418.36 656.18 , 412.73 657.48 , 407.06 658.77 , 401.37 660.06 , 395.64 661.35 , 389.90 662.64 , 384.14 663.93 , 378.36 665.22 , 372.58 666.51 , 366.79 667.80 , 361.00 669.09 , 355.22 670.38 , 349.44 671.67 , 343.68 672.96 , 337.94 674.25 , 332.22 675.54 , 326.53 676.83 , 320.88 678.12 , 315.27 679.41 , 309.70 680.70 , 304.18 681.99 , 298.71 683.29 , 293.31 684.58 , 287.97 685.87 , 282.71 687.16 , 277.51 688.45 , 272.40 689.74 , 267.38 691.03 , 262.45 692.32 , 257.62 693.61 , 252.88 694.90 , 248.26 696.19 , 243.75 697.48 , 239.35 698.77 , 235.08 700.06 , 230.93 701.35 , 226.91 702.64 , 223.03 703.93 , 219.29 705.22 , 215.69 706.51 , 212.24 707.80 , 208.94 709.09 , 205.80 710.39 , 202.82 711.68 , 200.00 712.97 , 197.34 714.26 , 194.86 715.55 , 192.54 716.84 , 190.41 718.13 , 188.45 719.42 , 186.66 720.71 , 185.07 722.00 , 183.65 723.29 , 182.42 724.58 , 181.38 725.87 , 180.52 727.16 , 179.85 728.45 , 179.38 729.74 , 179.09 731.03 , 179.00 732.32 , 179.09 733.61 , 179.38 734.90 , 179.85 736.20 , 180.52 737.49 , 181.38 738.78 , 182.42 740.07 , 183.65 741.36 , 185.07 742.65 , 186.66 743.94 , 188.45 745.23 , 190.41 746.52 , 192.54 747.81 , 194.86 749.10 , 197.34 750.39 , 200.00 751.68 , 202.82 752.97 , 205.80 754.26 , 208.94 755.55 , 212.24 756.84 , 215.69 758.13 , 219.29 759.42 , 223.03 760.71 , 226.91 762.01 , 230.93 763.30 , 235.08 764.59 , 239.35 765.88 , 243.75 767.17 , 248.26 768.46 , 252.88 769.75 , 257.62 771.04 , 262.45 772.33 , 267.38 773.62 , 272.40 774.91 , 277.51 776.20 , 282.71 777.49 , 287.97 778.78 , 293.31 780.07 , 298.71 781.36 , 304.18 782.65 , 309.70 783.94 , 315.27 785.23 , 320.88 786.52 , 326.53 787.82 , 332.22 789.11 , 337.94 790.40 , 343.68 791.69 , 349.44 792.98 , 355.22 794.27 , 361.00 795.56 , 366.79 796.85 , 372.58 798.14 , 378.36 799.43 , 384.14 800.72 , 389.90 802.01 , 395.64 803.30 , 401.37 804.59 , 407.06 805.88 , 412.73 807.17 , 418.36 808.46 , 423.96 809.75 , 429.51 811.04 , 435.02 812.33 , 440.48 813.62 , 445.90 814.92 , 451.25 816.21 , 456.56 817.50 , 461.80 818.79 , 466.98 820.08 , 472.10 821.37 , 477.15 822.66 , 482.13 823.95 , 487.04 825.24 , 491.87 826.53 , 496.64 827.82 , 501.32 829.11 , 505.93 830.40 , 510.46 831.69 , 514.91 832.98 , 519.28 834.27 , 523.57 835.56 , 527.78 836.85 , 531.90 838.14 , 535.94 839.43 , 539.89 840.73 , 543.76 842.02 , 547.54 843.31 , 551.24 844.60 , 554.85 845.89 , 558.38 847.18 , 561.82 848.47 , 565.18 849.76 , 568.45 851.05 , 571.64 852.34 , 574.75 853.63 , 577.77 854.92 , 580.71 856.21 , 583.58 857.50 , 586.36 858.79 , 589.06 860.08 , 591.68 861.37 , 594.23 862.66 , 596.69 863.95 , 599.09 865.24 , 601.41 866.54 , 603.65 867.83 , 605.83 869.12 , 607.93 870.41 , 609.97 871.70 , 611.93 872.99 , 613.83 874.28 , 615.67 875.57 , 617.44 876.86 , 619.15 878.15 , 620.80 879.44 , 622.38 880.73 , 623.91 882.02 , 625.39 883.31 , 626.81 884.60 , 628.17 885.89 , 629.48 887.18 , 630.74 888.47 , 631.95 889.76 , 633.12 891.05 , 634.23 892.35 , 635.30 893.64 , 636.33 894.93 , 637.31 896.22 , 638.26 897.51 , 639.16 898.80 , 640.02 900.09 , 640.85 901.38 , 641.64 902.67 , 642.39 903.96 , 643.12 905.25 , 643.81 906.54 , 644.46 907.83 , 645.09 909.12 , 645.69 910.41 , 646.26 911.70 , 646.80 912.99 , 647.32 914.28 , 647.81 915.57 , 648.28 916.86 , 648.73 918.15 , 649.15 919.45 , 649.55 920.74 , 649.94 922.03 , 650.30 923.32 , 650.64 924.61 , 650.97 925.90 , 651.28 927.19 , 651.57 928.48 , 651.85 929.77 , 652.12 931.06 , 652.36 932.35 , 652.60 933.64 , 652.82 934.93 , 653.03 936.22 , 653.23 937.51 , 653.42 938.80 , 653.60 940.09 , 653.77 941.38 , 653.92 942.67 , 654.07 943.96 , 654.21 945.26 , 654.34 946.55 , 654.47 947.84 , 654.59 949.13 , 654.70 950.42 , 654.80 951.71 , 654.90 953.00 , 654.99 954.29 , 655.07 955.58 , 655.15 956.87 , 655.23 958.16 , 655.30 959.45 , 655.37 960.74 , 655.43 962.03 , 655.49 963.32 , 655.54 964.61 , 655.59 965.90 , 655.64 967.19 , 655.68 968.48 , 655.73 969.77 , 655.76 971.07 , 655.80 972.36 , 655.83 973.65 , 655.87 974.94 , 655.90 976.23 , 655.92 977.52 , 655.95 978.81 , 655.97 980.10 , 656.00 981.39 , 656.02 982.68 , 656.04 983.97 , 656.05 985.26 , 656.07 986.55 , 656.09 987.84 , 656.10 989.13 , 656.11 990.42 , 656.13 991.71 , 656.14 993.00 , 656.15 994.29 , 656.16 995.58 , 656.17 996.88 , 656.17 998.17 , 656.18 999.46 , 656.19 1000.75 , 656.20 1002.04 , 656.20 1003.33 , 656.21 1004.62 , 656.21 1005.91 , 656.22 1007.20 , 656.22 1008.49 , 656.23 1009.78 , 656.23 1011.07 , 656.23 1012.36 , 656.24 1013.65 , 656.24 1014.94 , 656.24 1016.23 , 656.25 1017.52 , 656.25 1018.81 , 656.25 1020.10 , 656.25 1021.39 , 656.25 1022.68 , 656.26 1023.98 , 656.26 1025.27 , 656.26 1026.56 , 656.26 1027.85 , 656.26 1029.14 , 656.26 1030.43 , 656.26 1031.72 , 656.26 1033.01 , 656.26 1034.30 , 656.27 1035.59 , 656.27 1036.88 , 656.27 1038.17 , 656.27 1039.46 , 656.27 1040.75 , 656.27 1042.04 , 656.27 1043.33 , 656.27 1044.62 , 656.27 1045.91 , 656.27 1047.20 , 656.27 1048.49 , 656.27 1049.79 , 656.27 1051.08 , 656.27 1052.37 , 656.27 1053.66 , 656.27 1054.95 , 656.27 1056.24 , 656.27 1057.53 , 656.27 1058.82 , 656.27 1060.11 , 656.27 1061.40 , 656.27 1062.69 , 656.27 1063.98 , 656.27 1065.27 , 656.27 1066.56 , 656.27 1067.85 , 656.27 1069.14 , 656.27 1070.43 , 656.27 1071.72 , 656.27 1073.01 , 656.27 1074.30 , 656.27 1075.60 , 656.27 1076.89 , 656.27 1078.18 , 656.27 1079.47 , 656.27 1080.76 , 656.27 1082.05 , 656.27 1083.34 , 656.27 1084.63 , 656.27 1085.92 , 656.27 1087.21 , 656.27 1088.50 , 656.27 1089.79 , 656.27 1091.08 , 656.27 1092.37 , 656.27 1093.66 , 656.27 1094.95 , 656.27 1096.24 , 656.27 1097.53 , 656.27 1098.82 , 656.27 1100.11 , 656.27 1101.41 , 656.27 1102.70 , 656.27 1103.99 , 656.27 1105.28 , 656.27 1106.57 , 656.27 1107.86 , 656.27 1109.15 , 656.27 1110.44 , 656.27 1111.73 , 656.27 1113.02 , 656.27 1114.31 , 656.27 1115.60 , 656.27 1116.89 , 656.27 1118.18 , 656.27 1119.47 , 656.27 1120.76 , 656.27 1122.05 , 656.27 1123.34 , 656.27 1124.63 , 656.27 1125.92 , 656.27 1127.21 , 656.27 1128.51 , 656.27 1129.80 , 656.27 1131.09 , 656.27 1132.38 , 656.27 1133.67 , 656.27 1134.96 , 656.27 1136.25 , 656.27 1137.54 , 656.27 1138.83 , 656.27 1140.12 , 656.27 1141.41 , 656.27 1142.70 , 656.27 1143.99 , 656.27 1145.28 , 656.27 1146.57 , 656.27 1147.86 , 656.27 1149.15 , 656.27 1150.44 , 656.27 1151.73 , 656.27 1153.02 , 656.27 1154.32 , 656.27 1155.61 , 656.27 1156.90 , 656.27 1158.19 , 656.27 1159.48 , 656.27 1160.77 , 656.27 1162.06 , 656.27 1163.35 , 656.27 1164.64 , 656.27 1165.93 , 656.27 1167.22 , 656.27 1168.51 , 656.27 1169.80 , 656.27 1171.09 , 656.27 1172.38 , 656.27 1173.67 , 656.27 1174.96 , 656.27 1176.25 , 656.27 1177.54 , 656.27 1178.83 , 656.27 1180.13 , 656.27 1181.42 , 656.27 1182.71 , 656.27 1184.00 , 656.27 1185.29 , 656.27 1186.58 , 656.27 1187.87 , 656.27 1189.16 , 656.27 1190.45 , 656.27 1191.74 , 656.27 1193.03 , 656.27 1194.32 , 656.27 1195.61 , 656.27 1196.90 , 656.27 1198.19 , 656.27 1199.48 , 656.27 1200.77 , 656.27 1202.06 , 656.27 1203.35 , 656.27 1204.64 , 656.27 1205.94 , 656.27 1207.23 , 656.27 1208.52 , 656.27 1209.81 , 656.27 1211.10 , 656.27 1212.39 , 656.27 1213.68 , 656.27 1214.97 , 656.27 1216.26 , 656.27 1217.55 , 656.27 1218.84 , 656.27 1220.13 , 656.27 1221.42 , 656.27 1222.71 , 656.27 1224.00 , 656.27 1225.29 , 656.27 1226.58 , 656.27 1227.87 , 656.27 1229.16 , 656.27 1230.45 , 656.27 1231.74 , 656.27 1233.04 , 656.27 1234.33 , 656.27 1235.62 , 656.27 1236.91 , 656.27 1238.20 , 656.27 1239.49 , 656.27 1240.78 , 656.27 1242.07 , 656.27 1243.36 , 656.27 1244.65 , 656.27 1245.94 , 656.27 1247.23 , 656.27 1248.52 , 656.27 1249.81 , 656.27 1251.10 , 656.27 1252.39 , 656.27 1253.68 , 656.27 1254.97 , 656.27 1256.26 , 656.27 1257.55 , 656.27 1258.85 , 656.27 1260.14 , 656.27 1261.43 , 656.27 1262.72 , 656.27 1264.01 , 656.27 1265.30 , 656.27 1266.59 , 656.27 1267.88 , 656.27 1269.17 , 656.27 1270.46 , 656.27 1271.75 , 656.27 1273.04 , 656.27 1274.33 , 656.27 1275.62 , 656.27 1276.91 , 656.27 1278.20 , 656.27 1279.49 , 656.27 1280.78 , 656.27 1282.07 , 656.27 1283.36 , 656.27 1284.66 , 656.27 1285.95 , 656.27 1287.24 , 656.27 1288.53 , 656.27 1289.82 , 656.27 1291.11 , 656.27 1292.40 , 656.27 1293.69 , 656.27 1294.98 , 656.27 1296.27 , 656.27 1297.56 , 656.27 1298.85 , 656.27 1300.14 , 656.27 1301.43 , 656.27 1302.72 , 656.27 1304.01 , 656.27 1305.30 , 656.27 1306.59 , 656.27 1307.88 , 656.27 1309.17 , 656.27 1310.47 , 656.27 1311.76 , 656.27 1313.05 , 656.27 1314.34 , 656.27 1315.63 , 656.27 1316.92 , 656.27 1318.21 , 656.27 1319.50 , 656.27 1320.79 , 656.27 1322.08 , 656.27 1323.37 , 656.27 1324.66 , 656.27 1325.95 , 656.27 1327.24 , 656.27 1328.53 , 656.27 1329.82 , 656.27 1331.11 , 656.27 1332.40 , 656.27 1333.69 , 656.27 1334.98 , 656.27 1336.27 , 656.27 1337.57 , 656.27 1338.86 , 656.27 1340.15 , 656.27 1341.44 , 656.27 1342.73 , 656.27 1344.02 , 656.27 1345.31 , 656.27 1346.60 , 656.27 1347.89 , 656.27 1349.18 , 656.27 1350.47 , 656.27 1351.76 , 656.27 1353.05 , 656.27 1354.34 , 656.27 1355.63 , 656.27 1356.92 , 656.27 1358.21 , 656.27 1359.50 , 656.27 1360.79 , 656.27 1362.08 , 656.27 1363.38 , 656.27 1364.67 , 656.27 1365.96 , 656.27 1367.25 , 656.27 1368.54 , 656.27 1369.83 , 656.27 1371.12 , 656.27 1372.41 , 656.27 1373.70 , 656.27 1374.99 , 656.27 1376.28 , 656.27 "
     style="stroke-width:2;stroke:#000000;fill:#000000;stroke-opacity:1.000000;fill-opacity:0.000000"
     id="polyline2389" />
  <line
     x1="214.84"
     y1="680.20"
     x2="1247.23"
     y2="680.20"
     style="stroke-width:1;stroke:#000000;fill:#000000;stroke-opacity:1.000000;fill-opacity:0.000000"
     id="line2391" />
  <line
     x1="214.84"
     y1="680.20"
     x2="214.84"
     y2="684.37"
     style="stroke-width:1;stroke:#000000;fill:#000000;stroke-opacity:1.000000;fill-opacity:0.000000"
     id="line2393" />
  <line
     x1="472.93"
     y1="680.20"
     x2="472.93"
     y2="684.37"
     style="stroke-width:1;stroke:#000000;fill:#000000;stroke-opacity:1.000000;fill-opacity:0.000000"
     id="line2395" />
  <line
     x1="731.03"
     y1="680.20"
     x2="731.03"
     y2="684.37"
     style="stroke-width:1;stroke:#000000;fill:#000000;stroke-opacity:1.000000;fill-opacity:0.000000"
     id="line2397" />
  <line
     x1="989.13"
     y1="680.20"
     x2="989.13"
     y2="684.37"
     style="stroke-width:1;stroke:#000000;fill:#000000;stroke-opacity:1.000000;fill-opacity:0.000000"
     id="line2399" />
  <line
     x1="1247.23"
     y1="680.20"
     x2="1247.23"
     y2="684.37"
     style="stroke-width:1;stroke:#000000;fill:#000000;stroke-opacity:1.000000;fill-opacity:0.000000"
     id="line2401" />
  <text
     style="font-size:40px;font-style:normal;font-variant:normal;font-weight:normal;font-stretch:normal;text-align:start;line-height:125%;writing-mode:lr-tb;text-anchor:start;font-family:Bitstream Vera Sans;-inkscape-font-specification:Bitstream Vera Sans"
     id="text2403"
     sodipodi:linespacing="125%"
     x="203.34"
     y="722.87">2</text>
  <text
     style="font-size:40px;font-style:normal;font-variant:normal;font-weight:normal;font-stretch:normal;text-align:start;line-height:125%;writing-mode:lr-tb;text-anchor:start;font-family:Bitstream Vera Sans;-inkscape-font-specification:Bitstream Vera Sans"
     id="text2405"
     sodipodi:linespacing="125%"
     x="460.67999"
     y="722.87">4</text>
  <text
     style="font-size:40px;font-style:normal;font-variant:normal;font-weight:normal;font-stretch:normal;text-align:start;line-height:125%;writing-mode:lr-tb;text-anchor:start;font-family:Bitstream Vera Sans;-inkscape-font-specification:Bitstream Vera Sans"
     id="text2407"
     sodipodi:linespacing="125%"
     x="718.78003"
     y="722.87">6</text>
  <text
     style="font-size:40px;font-style:normal;font-variant:normal;font-weight:normal;font-stretch:normal;text-align:start;line-height:125%;writing-mode:lr-tb;text-anchor:start;font-family:Bitstream Vera Sans;-inkscape-font-specification:Bitstream Vera Sans"
     id="text2409"
     sodipodi:linespacing="125%"
     x="976.88"
     y="722.87">8</text>
  <text
     style="font-size:40px;font-style:normal;font-variant:normal;font-weight:normal;font-stretch:normal;text-align:start;line-height:125%;writing-mode:lr-tb;text-anchor:start;font-family:Bitstream Vera Sans;-inkscape-font-specification:Bitstream Vera Sans"
     id="text2411"
     sodipodi:linespacing="125%"
     x="1226.73"
     y="722.87">10</text>
  <line
     x1="34.17"
     y1="656.27"
     x2="34.17"
     y2="58.09"
     style="stroke-width:1;stroke:#000000;fill:#000000;stroke-opacity:1.000000;fill-opacity:0.000000"
     id="line2413" />
  <polyline
     points="85.79 , 656.27 87.08 , 656.27 88.37 , 656.27 89.66 , 656.27 90.95 , 656.27 92.24 , 656.27 93.53 , 656.27 94.82 , 656.27 96.11 , 656.27 97.40 , 656.27 98.69 , 656.27 99.98 , 656.27 101.27 , 656.27 102.56 , 656.27 103.85 , 656.27 105.14 , 656.27 106.43 , 656.27 107.72 , 656.27 109.02 , 656.27 110.31 , 656.27 111.60 , 656.27 112.89 , 656.27 114.18 , 656.27 115.47 , 656.27 116.76 , 656.27 118.05 , 656.27 119.34 , 656.27 120.63 , 656.27 121.92 , 656.27 123.21 , 656.27 124.50 , 656.27 125.79 , 656.27 127.08 , 656.27 128.37 , 656.27 129.66 , 656.27 130.95 , 656.27 132.24 , 656.27 133.53 , 656.27 134.83 , 656.27 136.12 , 656.27 137.41 , 656.27 138.70 , 656.27 139.99 , 656.27 141.28 , 656.27 142.57 , 656.27 143.86 , 656.27 145.15 , 656.27 146.44 , 656.27 147.73 , 656.27 149.02 , 656.27 150.31 , 656.27 151.60 , 656.27 152.89 , 656.27 154.18 , 656.27 155.47 , 656.27 156.76 , 656.27 158.05 , 656.27 159.34 , 656.27 160.64 , 656.27 161.93 , 656.27 163.22 , 656.27 164.51 , 656.27 165.80 , 656.27 167.09 , 656.27 168.38 , 656.27 169.67 , 656.27 170.96 , 656.27 172.25 , 656.27 173.54 , 656.27 174.83 , 656.27 176.12 , 656.27 177.41 , 656.27 178.70 , 656.27 179.99 , 656.27 181.28 , 656.27 182.57 , 656.27 183.86 , 656.27 185.15 , 656.27 186.44 , 656.27 187.74 , 656.27 189.03 , 656.27 190.32 , 656.27 191.61 , 656.27 192.90 , 656.27 194.19 , 656.27 195.48 , 656.27 196.77 , 656.27 198.06 , 656.27 199.35 , 656.27 200.64 , 656.27 201.93 , 656.27 203.22 , 656.27 204.51 , 656.27 205.80 , 656.27 207.09 , 656.27 208.38 , 656.27 209.67 , 656.27 210.96 , 656.27 212.25 , 656.27 213.55 , 656.27 214.84 , 656.27 216.13 , 656.27 217.42 , 656.27 218.71 , 656.27 220.00 , 656.27 221.29 , 656.27 222.58 , 656.27 223.87 , 656.27 225.16 , 656.27 226.45 , 656.27 227.74 , 656.27 229.03 , 656.27 230.32 , 656.27 231.61 , 656.27 232.90 , 656.27 234.19 , 656.27 235.48 , 656.27 236.77 , 656.27 238.06 , 656.27 239.36 , 656.27 240.65 , 656.27 241.94 , 656.27 243.23 , 656.27 244.52 , 656.27 245.81 , 656.27 247.10 , 656.27 248.39 , 656.27 249.68 , 656.27 250.97 , 656.27 252.26 , 656.27 253.55 , 656.27 254.84 , 656.27 256.13 , 656.27 257.42 , 656.27 258.71 , 656.27 260.00 , 656.27 261.29 , 656.27 262.58 , 656.27 263.87 , 656.27 265.17 , 656.27 266.46 , 656.27 267.75 , 656.27 269.04 , 656.27 270.33 , 656.27 271.62 , 656.27 272.91 , 656.27 274.20 , 656.27 275.49 , 656.27 276.78 , 656.27 278.07 , 656.27 279.36 , 656.27 280.65 , 656.27 281.94 , 656.27 283.23 , 656.27 284.52 , 656.27 285.81 , 656.27 287.10 , 656.27 288.39 , 656.27 289.68 , 656.27 290.97 , 656.27 292.27 , 656.27 293.56 , 656.27 294.85 , 656.27 296.14 , 656.27 297.43 , 656.27 298.72 , 656.27 300.01 , 656.27 301.30 , 656.27 302.59 , 656.27 303.88 , 656.27 305.17 , 656.27 306.46 , 656.27 307.75 , 656.27 309.04 , 656.27 310.33 , 656.27 311.62 , 656.27 312.91 , 656.27 314.20 , 656.27 315.49 , 656.27 316.78 , 656.27 318.08 , 656.27 319.37 , 656.27 320.66 , 656.27 321.95 , 656.27 323.24 , 656.27 324.53 , 656.27 325.82 , 656.27 327.11 , 656.27 328.40 , 656.27 329.69 , 656.27 330.98 , 656.27 332.27 , 656.27 333.56 , 656.27 334.85 , 656.27 336.14 , 656.27 337.43 , 656.27 338.72 , 656.27 340.01 , 656.27 341.30 , 656.27 342.59 , 656.27 343.89 , 656.27 345.18 , 656.27 346.47 , 656.27 347.76 , 656.27 349.05 , 656.27 350.34 , 656.27 351.63 , 656.27 352.92 , 656.27 354.21 , 656.27 355.50 , 656.27 356.79 , 656.27 358.08 , 656.27 359.37 , 656.27 360.66 , 656.27 361.95 , 656.27 363.24 , 656.27 364.53 , 656.27 365.82 , 656.27 367.11 , 656.27 368.40 , 656.27 369.70 , 656.27 370.99 , 656.27 372.28 , 656.27 373.57 , 656.27 374.86 , 656.27 376.15 , 656.27 377.44 , 656.27 378.73 , 656.27 380.02 , 656.27 381.31 , 656.27 382.60 , 656.27 383.89 , 656.27 385.18 , 656.27 386.47 , 656.27 387.76 , 656.27 389.05 , 656.27 390.34 , 656.27 391.63 , 656.27 392.92 , 656.27 394.21 , 656.27 395.50 , 656.27 396.80 , 656.27 398.09 , 656.27 399.38 , 656.27 400.67 , 656.27 401.96 , 656.27 403.25 , 656.27 404.54 , 656.27 405.83 , 656.27 407.12 , 656.27 408.41 , 656.27 409.70 , 656.27 410.99 , 656.27 412.28 , 656.27 413.57 , 656.27 414.86 , 656.27 416.15 , 656.27 417.44 , 656.27 418.73 , 656.27 420.02 , 656.27 421.31 , 656.27 422.61 , 656.27 423.90 , 656.27 425.19 , 656.27 426.48 , 656.27 427.77 , 656.27 429.06 , 656.27 430.35 , 656.27 431.64 , 656.27 432.93 , 656.27 434.22 , 656.27 435.51 , 656.27 436.80 , 656.27 438.09 , 656.27 439.38 , 656.27 440.67 , 656.27 441.96 , 656.27 443.25 , 656.27 444.54 , 656.27 445.83 , 656.27 447.12 , 656.27 448.42 , 656.27 449.71 , 656.27 451.00 , 656.27 452.29 , 656.27 453.58 , 656.27 454.87 , 656.27 456.16 , 656.27 457.45 , 656.27 458.74 , 656.27 460.03 , 656.27 461.32 , 656.27 462.61 , 656.27 463.90 , 656.27 465.19 , 656.27 466.48 , 656.27 467.77 , 656.27 469.06 , 656.27 470.35 , 656.27 471.64 , 656.27 472.93 , 656.27 474.23 , 656.27 475.52 , 656.27 476.81 , 656.27 478.10 , 656.27 479.39 , 656.27 480.68 , 656.27 481.97 , 656.27 483.26 , 656.27 484.55 , 656.27 485.84 , 656.27 487.13 , 656.27 488.42 , 656.27 489.71 , 656.27 491.00 , 656.27 492.29 , 656.27 493.58 , 656.27 494.87 , 656.27 496.16 , 656.27 497.45 , 656.27 498.74 , 656.27 500.03 , 656.27 501.33 , 656.27 502.62 , 656.27 503.91 , 656.27 505.20 , 656.27 506.49 , 656.27 507.78 , 656.27 509.07 , 656.27 510.36 , 656.27 511.65 , 656.27 512.94 , 656.27 514.23 , 656.27 515.52 , 656.27 516.81 , 656.27 518.10 , 656.27 519.39 , 656.27 520.68 , 656.27 521.97 , 656.27 523.26 , 656.27 524.55 , 656.27 525.84 , 656.27 527.14 , 656.27 528.43 , 656.27 529.72 , 656.27 531.01 , 656.27 532.30 , 656.27 533.59 , 656.27 534.88 , 656.27 536.17 , 656.27 537.46 , 656.27 538.75 , 656.27 540.04 , 656.27 541.33 , 656.27 542.62 , 656.27 543.91 , 656.27 545.20 , 656.27 546.49 , 656.27 547.78 , 656.27 549.07 , 656.27 550.36 , 656.27 551.65 , 656.27 552.95 , 656.27 554.24 , 656.27 555.53 , 656.27 556.82 , 656.27 558.11 , 656.26 559.40 , 656.26 560.69 , 656.26 561.98 , 656.26 563.27 , 656.26 564.56 , 656.26 565.85 , 656.26 567.14 , 656.26 568.43 , 656.26 569.72 , 656.25 571.01 , 656.25 572.30 , 656.25 573.59 , 656.25 574.88 , 656.25 576.17 , 656.24 577.46 , 656.24 578.76 , 656.24 580.05 , 656.23 581.34 , 656.23 582.63 , 656.23 583.92 , 656.22 585.21 , 656.22 586.50 , 656.21 587.79 , 656.21 589.08 , 656.20 590.37 , 656.20 591.66 , 656.19 592.95 , 656.18 594.24 , 656.17 595.53 , 656.17 596.82 , 656.16 598.11 , 656.15 599.40 , 656.14 600.69 , 656.13 601.98 , 656.11 603.27 , 656.10 604.56 , 656.09 605.86 , 656.07 607.15 , 656.05 608.44 , 656.04 609.73 , 656.02 611.02 , 656.00 612.31 , 655.97 613.60 , 655.95 614.89 , 655.92 616.18 , 655.90 617.47 , 655.87 618.76 , 655.83 620.05 , 655.80 621.34 , 655.76 622.63 , 655.73 623.92 , 655.68 625.21 , 655.64 626.50 , 655.59 627.79 , 655.54 629.08 , 655.49 630.37 , 655.43 631.67 , 655.37 632.96 , 655.30 634.25 , 655.23 635.54 , 655.15 636.83 , 655.07 638.12 , 654.99 639.41 , 654.90 640.70 , 654.80 641.99 , 654.70 643.28 , 654.59 644.57 , 654.47 645.86 , 654.34 647.15 , 654.21 648.44 , 654.07 649.73 , 653.92 651.02 , 653.77 652.31 , 653.60 653.60 , 653.42 654.89 , 653.23 656.18 , 653.03 657.48 , 652.82 658.77 , 652.60 660.06 , 652.36 661.35 , 652.12 662.64 , 651.85 663.93 , 651.57 665.22 , 651.28 666.51 , 650.97 667.80 , 650.64 669.09 , 650.30 670.38 , 649.94 671.67 , 649.55 672.96 , 649.15 674.25 , 648.73 675.54 , 648.28 676.83 , 647.81 678.12 , 647.32 679.41 , 646.80 680.70 , 646.26 681.99 , 645.69 683.29 , 645.09 684.58 , 644.46 685.87 , 643.81 687.16 , 643.12 688.45 , 642.39 689.74 , 641.64 691.03 , 640.85 692.32 , 640.02 693.61 , 639.16 694.90 , 638.26 696.19 , 637.31 697.48 , 636.33 698.77 , 635.30 700.06 , 634.23 701.35 , 633.12 702.64 , 631.95 703.93 , 630.74 705.22 , 629.48 706.51 , 628.17 707.80 , 626.81 709.09 , 625.39 710.39 , 623.91 711.68 , 622.38 712.97 , 620.80 714.26 , 619.15 715.55 , 617.44 716.84 , 615.67 718.13 , 613.83 719.42 , 611.93 720.71 , 609.97 722.00 , 607.93 723.29 , 605.83 724.58 , 603.65 725.87 , 601.41 727.16 , 599.09 728.45 , 596.69 729.74 , 594.23 731.03 , 591.68 732.32 , 589.06 733.61 , 586.36 734.90 , 583.58 736.20 , 580.71 737.49 , 577.77 738.78 , 574.75 740.07 , 571.64 741.36 , 568.45 742.65 , 565.18 743.94 , 561.82 745.23 , 558.38 746.52 , 554.85 747.81 , 551.24 749.10 , 547.54 750.39 , 543.76 751.68 , 539.89 752.97 , 535.94 754.26 , 531.90 755.55 , 527.78 756.84 , 523.57 758.13 , 519.28 759.42 , 514.91 760.71 , 510.46 762.01 , 505.93 763.30 , 501.32 764.59 , 496.64 765.88 , 491.87 767.17 , 487.04 768.46 , 482.13 769.75 , 477.15 771.04 , 472.10 772.33 , 466.98 773.62 , 461.80 774.91 , 456.56 776.20 , 451.25 777.49 , 445.90 778.78 , 440.48 780.07 , 435.02 781.36 , 429.51 782.65 , 423.96 783.94 , 418.36 785.23 , 412.73 786.52 , 407.06 787.82 , 401.37 789.11 , 395.64 790.40 , 389.90 791.69 , 384.14 792.98 , 378.36 794.27 , 372.58 795.56 , 366.79 796.85 , 361.00 798.14 , 355.22 799.43 , 349.44 800.72 , 343.68 802.01 , 337.94 803.30 , 332.22 804.59 , 326.53 805.88 , 320.88 807.17 , 315.27 808.46 , 309.70 809.75 , 304.18 811.04 , 298.71 812.33 , 293.31 813.62 , 287.97 814.92 , 282.71 816.21 , 277.51 817.50 , 272.40 818.79 , 267.38 820.08 , 262.45 821.37 , 257.62 822.66 , 252.88 823.95 , 248.26 825.24 , 243.75 826.53 , 239.35 827.82 , 235.08 829.11 , 230.93 830.40 , 226.91 831.69 , 223.03 832.98 , 219.29 834.27 , 215.69 835.56 , 212.24 836.85 , 208.94 838.14 , 205.80 839.43 , 202.82 840.73 , 200.00 842.02 , 197.34 843.31 , 194.86 844.60 , 192.54 845.89 , 190.41 847.18 , 188.45 848.47 , 186.66 849.76 , 185.07 851.05 , 183.65 852.34 , 182.42 853.63 , 181.38 854.92 , 180.52 856.21 , 179.85 857.50 , 179.38 858.79 , 179.09 860.08 , 179.00 861.37 , 179.09 862.66 , 179.38 863.95 , 179.85 865.24 , 180.52 866.54 , 181.38 867.83 , 182.42 869.12 , 183.65 870.41 , 185.07 871.70 , 186.66 872.99 , 188.45 874.28 , 190.41 875.57 , 192.54 876.86 , 194.86 878.15 , 197.34 879.44 , 200.00 880.73 , 202.82 882.02 , 205.80 883.31 , 208.94 884.60 , 212.24 885.89 , 215.69 887.18 , 219.29 888.47 , 223.03 889.76 , 226.91 891.05 , 230.93 892.35 , 235.08 893.64 , 239.35 894.93 , 243.75 896.22 , 248.26 897.51 , 252.88 898.80 , 257.62 900.09 , 262.45 901.38 , 267.38 902.67 , 272.40 903.96 , 277.51 905.25 , 282.71 906.54 , 287.97 907.83 , 293.31 909.12 , 298.71 910.41 , 304.18 911.70 , 309.70 912.99 , 315.27 914.28 , 320.88 915.57 , 326.53 916.86 , 332.22 918.15 , 337.94 919.45 , 343.68 920.74 , 349.44 922.03 , 355.22 923.32 , 361.00 924.61 , 366.79 925.90 , 372.58 927.19 , 378.36 928.48 , 384.14 929.77 , 389.90 931.06 , 395.64 932.35 , 401.37 933.64 , 407.06 934.93 , 412.73 936.22 , 418.36 937.51 , 423.96 938.80 , 429.51 940.09 , 435.02 941.38 , 440.48 942.67 , 445.90 943.96 , 451.25 945.26 , 456.56 946.55 , 461.80 947.84 , 466.98 949.13 , 472.10 950.42 , 477.15 951.71 , 482.13 953.00 , 487.04 954.29 , 491.87 955.58 , 496.64 956.87 , 501.32 958.16 , 505.93 959.45 , 510.46 960.74 , 514.91 962.03 , 519.28 963.32 , 523.57 964.61 , 527.78 965.90 , 531.90 967.19 , 535.94 968.48 , 539.89 969.77 , 543.76 971.07 , 547.54 972.36 , 551.24 973.65 , 554.85 974.94 , 558.38 976.23 , 561.82 977.52 , 565.18 978.81 , 568.45 980.10 , 571.64 981.39 , 574.75 982.68 , 577.77 983.97 , 580.71 985.26 , 583.58 986.55 , 586.36 987.84 , 589.06 989.13 , 591.68 990.42 , 594.23 991.71 , 596.69 993.00 , 599.09 994.29 , 601.41 995.58 , 603.65 996.88 , 605.83 998.17 , 607.93 999.46 , 609.97 1000.75 , 611.93 1002.04 , 613.83 1003.33 , 615.67 1004.62 , 617.44 1005.91 , 619.15 1007.20 , 620.80 1008.49 , 622.38 1009.78 , 623.91 1011.07 , 625.39 1012.36 , 626.81 1013.65 , 628.17 1014.94 , 629.48 1016.23 , 630.74 1017.52 , 631.95 1018.81 , 633.12 1020.10 , 634.23 1021.39 , 635.30 1022.68 , 636.33 1023.98 , 637.31 1025.27 , 638.26 1026.56 , 639.16 1027.85 , 640.02 1029.14 , 640.85 1030.43 , 641.64 1031.72 , 642.39 1033.01 , 643.12 1034.30 , 643.81 1035.59 , 644.46 1036.88 , 645.09 1038.17 , 645.69 1039.46 , 646.26 1040.75 , 646.80 1042.04 , 647.32 1043.33 , 647.81 1044.62 , 648.28 1045.91 , 648.73 1047.20 , 649.15 1048.49 , 649.55 1049.79 , 649.94 1051.08 , 650.30 1052.37 , 650.64 1053.66 , 650.97 1054.95 , 651.28 1056.24 , 651.57 1057.53 , 651.85 1058.82 , 652.12 1060.11 , 652.36 1061.40 , 652.60 1062.69 , 652.82 1063.98 , 653.03 1065.27 , 653.23 1066.56 , 653.42 1067.85 , 653.60 1069.14 , 653.77 1070.43 , 653.92 1071.72 , 654.07 1073.01 , 654.21 1074.30 , 654.34 1075.60 , 654.47 1076.89 , 654.59 1078.18 , 654.70 1079.47 , 654.80 1080.76 , 654.90 1082.05 , 654.99 1083.34 , 655.07 1084.63 , 655.15 1085.92 , 655.23 1087.21 , 655.30 1088.50 , 655.37 1089.79 , 655.43 1091.08 , 655.49 1092.37 , 655.54 1093.66 , 655.59 1094.95 , 655.64 1096.24 , 655.68 1097.53 , 655.73 1098.82 , 655.76 1100.11 , 655.80 1101.41 , 655.83 1102.70 , 655.87 1103.99 , 655.90 1105.28 , 655.92 1106.57 , 655.95 1107.86 , 655.97 1109.15 , 656.00 1110.44 , 656.02 1111.73 , 656.04 1113.02 , 656.05 1114.31 , 656.07 1115.60 , 656.09 1116.89 , 656.10 1118.18 , 656.11 1119.47 , 656.13 1120.76 , 656.14 1122.05 , 656.15 1123.34 , 656.16 1124.63 , 656.17 1125.92 , 656.17 1127.21 , 656.18 1128.51 , 656.19 1129.80 , 656.20 1131.09 , 656.20 1132.38 , 656.21 1133.67 , 656.21 1134.96 , 656.22 1136.25 , 656.22 1137.54 , 656.23 1138.83 , 656.23 1140.12 , 656.23 1141.41 , 656.24 1142.70 , 656.24 1143.99 , 656.24 1145.28 , 656.25 1146.57 , 656.25 1147.86 , 656.25 1149.15 , 656.25 1150.44 , 656.25 1151.73 , 656.26 1153.02 , 656.26 1154.32 , 656.26 1155.61 , 656.26 1156.90 , 656.26 1158.19 , 656.26 1159.48 , 656.26 1160.77 , 656.26 1162.06 , 656.26 1163.35 , 656.27 1164.64 , 656.27 1165.93 , 656.27 1167.22 , 656.27 1168.51 , 656.27 1169.80 , 656.27 1171.09 , 656.27 1172.38 , 656.27 1173.67 , 656.27 1174.96 , 656.27 1176.25 , 656.27 1177.54 , 656.27 1178.83 , 656.27 1180.13 , 656.27 1181.42 , 656.27 1182.71 , 656.27 1184.00 , 656.27 1185.29 , 656.27 1186.58 , 656.27 1187.87 , 656.27 1189.16 , 656.27 1190.45 , 656.27 1191.74 , 656.27 1193.03 , 656.27 1194.32 , 656.27 1195.61 , 656.27 1196.90 , 656.27 1198.19 , 656.27 1199.48 , 656.27 1200.77 , 656.27 1202.06 , 656.27 1203.35 , 656.27 1204.64 , 656.27 1205.94 , 656.27 1207.23 , 656.27 1208.52 , 656.27 1209.81 , 656.27 1211.10 , 656.27 1212.39 , 656.27 1213.68 , 656.27 1214.97 , 656.27 1216.26 , 656.27 1217.55 , 656.27 1218.84 , 656.27 1220.13 , 656.27 1221.42 , 656.27 1222.71 , 656.27 1224.00 , 656.27 1225.29 , 656.27 1226.58 , 656.27 1227.87 , 656.27 1229.16 , 656.27 1230.45 , 656.27 1231.74 , 656.27 1233.04 , 656.27 1234.33 , 656.27 1235.62 , 656.27 1236.91 , 656.27 1238.20 , 656.27 1239.49 , 656.27 1240.78 , 656.27 1242.07 , 656.27 1243.36 , 656.27 1244.65 , 656.27 1245.94 , 656.27 1247.23 , 656.27 1248.52 , 656.27 1249.81 , 656.27 1251.10 , 656.27 1252.39 , 656.27 1253.68 , 656.27 1254.97 , 656.27 1256.26 , 656.27 1257.55 , 656.27 1258.85 , 656.27 1260.14 , 656.27 1261.43 , 656.27 1262.72 , 656.27 1264.01 , 656.27 1265.30 , 656.27 1266.59 , 656.27 1267.88 , 656.27 1269.17 , 656.27 1270.46 , 656.27 1271.75 , 656.27 1273.04 , 656.27 1274.33 , 656.27 1275.62 , 656.27 1276.91 , 656.27 1278.20 , 656.27 1279.49 , 656.27 1280.78 , 656.27 1282.07 , 656.27 1283.36 , 656.27 1284.66 , 656.27 1285.95 , 656.27 1287.24 , 656.27 1288.53 , 656.27 1289.82 , 656.27 1291.11 , 656.27 1292.40 , 656.27 1293.69 , 656.27 1294.98 , 656.27 1296.27 , 656.27 1297.56 , 656.27 1298.85 , 656.27 1300.14 , 656.27 1301.43 , 656.27 1302.72 , 656.27 1304.01 , 656.27 1305.30 , 656.27 1306.59 , 656.27 1307.88 , 656.27 1309.17 , 656.27 1310.47 , 656.27 1311.76 , 656.27 1313.05 , 656.27 1314.34 , 656.27 1315.63 , 656.27 1316.92 , 656.27 1318.21 , 656.27 1319.50 , 656.27 1320.79 , 656.27 1322.08 , 656.27 1323.37 , 656.27 1324.66 , 656.27 1325.95 , 656.27 1327.24 , 656.27 1328.53 , 656.27 1329.82 , 656.27 1331.11 , 656.27 1332.40 , 656.27 1333.69 , 656.27 1334.98 , 656.27 1336.27 , 656.27 1337.57 , 656.27 1338.86 , 656.27 1340.15 , 656.27 1341.44 , 656.27 1342.73 , 656.27 1344.02 , 656.27 1345.31 , 656.27 1346.60 , 656.27 1347.89 , 656.27 1349.18 , 656.27 1350.47 , 656.27 1351.76 , 656.27 1353.05 , 656.27 1354.34 , 656.27 1355.63 , 656.27 1356.92 , 656.27 1358.21 , 656.27 1359.50 , 656.27 1360.79 , 656.27 1362.08 , 656.27 1363.38 , 656.27 1364.67 , 656.27 1365.96 , 656.27 1367.25 , 656.27 1368.54 , 656.27 1369.83 , 656.27 1371.12 , 656.27 1372.41 , 656.27 1373.70 , 656.27 1374.99 , 656.27 1376.28 , 656.27 "
     style="stroke-width:2;stroke:#FF0000;fill:#000000;stroke-opacity:1.000000;fill-opacity:0.000000"
     id="polyline2441" />
  <line
     x1="731.03003"
     y1="680.35986"
     x2="731.03003"
     y2="137.59282"
     style="fill:#000000;fill-opacity:0;stroke:#999999;stroke-width:1.68031526;stroke-miterlimit:4;stroke-dasharray:none;stroke-opacity:1"
     id="line2443" />
  <line
     x1="924.61"
     y1="680.20"
     x2="924.61"
     y2="34.17"
     style="stroke-width:1.99999997;stroke:#999999;fill:#000000;stroke-opacity:1;fill-opacity:0;stroke-miterlimit:4;stroke-dasharray:none"
     id="line2445" />
  <line
     x1="537.46"
     y1="680.20"
     x2="537.46"
     y2="34.17"
     style="stroke-width:1.99999997;stroke:#999999;fill:#000000;stroke-opacity:1;fill-opacity:0;stroke-miterlimit:4;stroke-dasharray:none"
     id="line2447" />
  <line
     x1="34.17"
     y1="656.27"
     x2="1427.90"
     y2="656.27"
     style="stroke-width:1;stroke:#000000;fill:#000000;stroke-opacity:1.000000;fill-opacity:0.000000"
     id="line2449" />
  <line
     x1="731.03003"
     y1="91.910004"
     x2="924.60999"
     y2="91.910004"
     style="fill:#000000;fill-opacity:0;stroke:#000000;stroke-width:2;marker-mid:none;stroke-miterlimit:4;stroke-dasharray:none;stroke-opacity:1"
     id="line2451" />
  <polyline
     points="908.96 , 126.95 924.61 , 117.91 908.96 , 108.88 "
     style="fill:#000000;fill-opacity:0;stroke:#000000;stroke-width:2;stroke-miterlimit:4;stroke-dasharray:none;stroke-opacity:1"
     id="polyline2453"
     transform="translate(0,-26)" />
  <line
     x1="731.03003"
     y1="91.910004"
     x2="537.46002"
     y2="91.910004"
     style="fill:#000000;fill-opacity:0;stroke:#000000;stroke-width:2;marker-mid:none;stroke-miterlimit:4;stroke-dasharray:none;stroke-opacity:1"
     id="line2455" />
  <polyline
     points="553.11 , 108.88 537.46 , 117.91 553.11 , 126.95 "
     style="fill:#000000;fill-opacity:0;stroke:#000000;stroke-width:2;stroke-miterlimit:4;stroke-dasharray:none;stroke-opacity:1"
     id="polyline2457"
     transform="translate(0,-26)" />
  <text
     style="font-size:40px;font-style:normal;font-variant:normal;font-weight:normal;font-stretch:normal;text-align:start;line-height:125%;writing-mode:lr-tb;text-anchor:start;font-family:Bitstream Vera Sans;-inkscape-font-specification:Bitstream Vera Sans"
     id="text2459"
     sodipodi:linespacing="125%"
     x="560.1427"
     y="75.56604">From LCL to UCL</text>
  <path
     style="opacity:1;fill:#004780;fill-opacity:0.97407406;stroke:none;stroke-width:1;stroke-miterlimit:4;stroke-dasharray:none;stroke-dashoffset:0;stroke-opacity:1"
     d="M 952.443,653.43905 C 945.08533,652.83027 929.43575,650.59843 927.60882,649.89737 C 926.20621,649.35923 925.9688,629.19402 926.02577,515.49776 L 926.09274,381.73132 L 935.30877,421.16336 C 956.59266,512.229 969.3797,553.88521 987.15861,590.07374 C 997.73158,611.59455 1008.2354,626.41676 1019.34,635.48511 C 1027.8844,642.46291 1042.5802,649.92444 1052.5024,652.32297 C 1058.984,653.88975 1055.3986,654.02013 1008.3541,653.92843 C 980.19256,653.87352 955.03256,653.65332 952.443,653.43906 L 952.443,653.43905 z"
     id="path2468" />
  <path
     style="opacity:1;fill:#004780;fill-opacity:0.97407406;stroke:none;stroke-width:1;stroke-miterlimit:4;stroke-dasharray:none;stroke-dashoffset:0;stroke-opacity:1"
     d="M 925.2735,654.04353 C 925.2735,652.46755 925.64569,652.37924 928.9898,653.16183 C 930.13953,653.43089 933.58873,654.03437 936.65468,654.50289 L 942.22914,655.35475 L 933.75132,655.39595 L 925.2735,655.43715 L 925.2735,654.04353 z"
     id="path2470" />
  <path
     style="opacity:1;fill:#004780;fill-opacity:0.97407406;stroke:none;stroke-width:1;stroke-miterlimit:4;stroke-dasharray:none;stroke-dashoffset:0;stroke-opacity:1"
     d="M 925.85417,650.01957 C 925.39135,649.83282 925.28152,622.00346 925.31301,512.90139 C 925.34679,395.88645 925.44506,376.38836 925.99013,378.57247 C 926.76452,381.67545 926.81066,382.43232 926.20257,382.0565 C 925.89337,381.86541 925.74363,418.01042 925.75477,490.15032 C 925.77164,599.34518 926.16766,646.64874 927.08507,649.04975 C 927.58319,650.35337 927.27777,650.59401 925.85417,650.01958 L 925.85417,650.01957 z"
     id="path2472" />
  <path
     style="opacity:1;fill:#004780;fill-opacity:0.97407406;stroke:none;stroke-width:1;stroke-miterlimit:4;stroke-dasharray:none;stroke-dashoffset:0;stroke-opacity:1"
     d="M 966.84965,654.45247 C 960.46225,654.24585 954.81812,654.01706 954.30713,653.94403 C 953.79613,653.871 976.11886,653.81127 1003.9132,653.81127 C 1045.0682,653.81127 1054.5182,653.69834 1054.8247,653.20287 C 1055.1306,652.70828 1056.1485,652.77011 1060.2664,653.53338 C 1063.0523,654.04978 1065.8543,654.55639 1066.4931,654.65919 C 1068.6993,655.01424 978.42747,654.82698 966.84965,654.45247 L 966.84965,654.45247 z"
     id="path2474" />
  <line
     id="line2476"
     style="fill:#000000;fill-opacity:0;stroke:#000000;stroke-width:1.99999997;marker-end:url(#Arrow1Mend);stroke-miterlimit:4;stroke-dasharray:none;stroke-opacity:1"
     y2="166.1701"
     x2="856.59088"
     y1="166.1701"
     x1="730.83154" />
  <text
     y="157.96133"
     x="764.95392"
     sodipodi:linespacing="125%"
     id="text4541"
     style="font-size:26px;font-style:oblique;font-variant:normal;font-weight:normal;font-stretch:normal;text-align:start;line-height:125%;writing-mode:lr-tb;text-anchor:start;font-family:Bitstream Vera Sans;-inkscape-font-specification:Bitstream Vera Sans Oblique">
    <tspan
       sodipodi:role="line"
       id="tspan4543"
       x="764.95392"
       y="157.96133">Shift</tspan>
  </text>
</svg>
