<?xml version="1.0" encoding="UTF-8" standalone="no"?>
<svg
   xmlns:dc="http://purl.org/dc/elements/1.1/"
   xmlns:cc="http://creativecommons.org/ns#"
   xmlns:rdf="http://www.w3.org/1999/02/22-rdf-syntax-ns#"
   xmlns:svg="http://www.w3.org/2000/svg"
   xmlns="http://www.w3.org/2000/svg"
   xmlns:sodipodi="http://sodipodi.sourceforge.net/DTD/sodipodi-0.dtd"
   xmlns:inkscape="http://www.inkscape.org/namespaces/inkscape"
   width="1445.40"
   height="722.70"
   viewBox="0,0,1445.40,722.70"
   id="svg2"
   version="1.1"
   inkscape:version="0.47 r22583"
   sodipodi:docname="show-confidence-interval.svg"
   inkscape:export-filename="/Users/kevindunn/Statistics course/Course notes/Assignments/Assignment 2/show-confidence-interval.png"
   inkscape:export-xdpi="200.05074"
   inkscape:export-ydpi="200.05074">
  <metadata
     id="metadata54">
    <rdf:RDF>
      <cc:Work
         rdf:about="">
        <dc:format>image/svg+xml</dc:format>
        <dc:type
           rdf:resource="http://purl.org/dc/dcmitype/StillImage" />
        <dc:title></dc:title>
      </cc:Work>
    </rdf:RDF>
  </metadata>
  <defs
     id="defs52">
    <inkscape:perspective
       sodipodi:type="inkscape:persp3d"
       inkscape:vp_x="0 : 361.35001 : 1"
       inkscape:vp_y="0 : 1000 : 0"
       inkscape:vp_z="1445.4 : 361.35001 : 1"
       inkscape:persp3d-origin="722.70001 : 240.9 : 1"
       id="perspective56" />
  </defs>
  <sodipodi:namedview
     pagecolor="#ffffff"
     bordercolor="#666666"
     borderopacity="1"
     objecttolerance="10"
     gridtolerance="10"
     guidetolerance="10"
     inkscape:pageopacity="0"
     inkscape:pageshadow="2"
     inkscape:window-width="1680"
     inkscape:window-height="944"
     id="namedview50"
     showgrid="false"
     inkscape:zoom="0.84116708"
     inkscape:cx="709.75564"
     inkscape:cy="350.06294"
     inkscape:window-x="1440"
     inkscape:window-y="22"
     inkscape:window-maximized="0"
     inkscape:current-layer="svg2" />
  <desc
     id="desc4">R SVG Plot!</desc>
  <polyline
     points="85.79 , 656.27 93.85 , 656.23 101.92 , 656.18 109.98 , 656.11 118.05 , 656.04 126.11 , 655.94 134.18 , 655.84 142.25 , 655.71 150.31 , 655.56 158.38 , 655.38 166.44 , 655.16 174.51 , 654.92 182.57 , 654.63 190.64 , 654.29 198.70 , 653.89 206.77 , 653.43 214.84 , 652.90 222.90 , 652.28 230.97 , 651.57 239.03 , 650.76 247.10 , 649.83 255.16 , 648.76 263.23 , 647.55 271.29 , 646.17 279.36 , 644.60 287.43 , 642.83 295.49 , 640.84 303.56 , 638.61 311.62 , 636.10 319.69 , 633.30 327.75 , 630.18 335.82 , 626.72 343.89 , 622.88 351.95 , 618.65 360.02 , 613.99 368.08 , 608.87 376.15 , 603.26 384.21 , 597.15 392.28 , 590.50 400.34 , 583.29 408.41 , 575.49 416.48 , 567.09 424.54 , 558.06 432.61 , 548.38 440.67 , 538.06 448.74 , 527.06 456.80 , 515.41 464.87 , 503.08 472.93 , 490.10 481.00 , 476.47 489.07 , 462.21 497.13 , 447.34 505.20 , 431.90 513.26 , 415.91 521.33 , 399.44 529.39 , 382.52 537.46 , 365.21 545.52 , 347.59 553.59 , 329.71 561.66 , 311.67 569.72 , 293.54 577.79 , 275.41 585.85 , 257.37 593.92 , 239.52 601.98 , 221.96 610.05 , 204.79 618.12 , 188.12 626.18 , 172.04 634.25 , 156.66 642.31 , 142.09 650.38 , 128.41 658.44 , 115.71 666.51 , 104.10 674.57 , 93.64 682.64 , 84.42 690.71 , 76.50 698.77 , 69.94 706.84 , 64.79 714.90 , 61.08 722.97 , 58.84 731.03 , 58.09 739.10 , 58.84 747.16 , 61.08 755.23 , 64.79 763.30 , 69.94 771.36 , 76.50 779.43 , 84.42 787.49 , 93.64 795.56 , 104.10 803.62 , 115.71 811.69 , 128.41 819.75 , 142.09 827.82 , 156.66 835.89 , 172.04 843.95 , 188.12 852.02 , 204.79 860.08 , 221.96 868.15 , 239.52 876.21 , 257.37 884.28 , 275.41 892.35 , 293.54 900.41 , 311.67 908.48 , 329.71 916.54 , 347.59 924.61 , 365.21 932.67 , 382.52 940.74 , 399.44 948.80 , 415.91 956.87 , 431.90 964.94 , 447.34 973.00 , 462.21 981.07 , 476.47 989.13 , 490.10 997.20 , 503.08 1005.26 , 515.41 1013.33 , 527.06 1021.39 , 538.06 1029.46 , 548.38 1037.53 , 558.06 1045.59 , 567.09 1053.66 , 575.49 1061.72 , 583.29 1069.79 , 590.50 1077.85 , 597.15 1085.92 , 603.26 1093.98 , 608.87 1102.05 , 613.99 1110.12 , 618.65 1118.18 , 622.88 1126.25 , 626.72 1134.31 , 630.18 1142.38 , 633.30 1150.44 , 636.10 1158.51 , 638.61 1166.58 , 640.84 1174.64 , 642.83 1182.71 , 644.60 1190.77 , 646.17 1198.84 , 647.55 1206.90 , 648.76 1214.97 , 649.83 1223.03 , 650.76 1231.10 , 651.57 1239.17 , 652.28 1247.23 , 652.90 1255.30 , 653.43 1263.36 , 653.89 1271.43 , 654.29 1279.49 , 654.63 1287.56 , 654.92 1295.62 , 655.16 1303.69 , 655.38 1311.76 , 655.56 1319.82 , 655.71 1327.89 , 655.84 1335.95 , 655.94 1344.02 , 656.04 1352.08 , 656.11 1360.15 , 656.18 1368.21 , 656.23 1376.28 , 656.27 "
     style="stroke-width:3;stroke:#000000;fill:#000000;stroke-opacity:1.000000;fill-opacity:0.000000"
     id="polyline8" />
  <line
     x1="34.17"
     y1="656.47"
     x2="34.17"
     y2="56.51"
     style="stroke-width:1;stroke:#000000;fill:#000000;stroke-opacity:1.000000;fill-opacity:0.000000"
     id="line10" />
  <line
     x1="34.17"
     y1="656.47"
     x2="30.00"
     y2="656.47"
     style="stroke-width:1;stroke:#000000;fill:#000000;stroke-opacity:1.000000;fill-opacity:0.000000"
     id="line12" />
  <line
     x1="34.17"
     y1="506.48"
     x2="30.00"
     y2="506.48"
     style="stroke-width:1;stroke:#000000;fill:#000000;stroke-opacity:1.000000;fill-opacity:0.000000"
     id="line14" />
  <line
     x1="34.17"
     y1="356.49"
     x2="30.00"
     y2="356.49"
     style="stroke-width:1;stroke:#000000;fill:#000000;stroke-opacity:1.000000;fill-opacity:0.000000"
     id="line16" />
  <line
     x1="34.17"
     y1="206.50"
     x2="30.00"
     y2="206.50"
     style="stroke-width:1;stroke:#000000;fill:#000000;stroke-opacity:1.000000;fill-opacity:0.000000"
     id="line18" />
  <line
     x1="34.17"
     y1="56.51"
     x2="30.00"
     y2="56.51"
     style="stroke-width:1;stroke:#000000;fill:#000000;stroke-opacity:1.000000;fill-opacity:0.000000"
     id="line20" />
  <text
     transform="matrix(0,-1,1,0,0,0)"
     style="font-size:36px;font-style:normal;font-variant:normal;font-weight:normal;font-stretch:normal;text-align:start;line-height:125%;writing-mode:lr-tb;text-anchor:start;font-family:Bitstream Vera Sans;-inkscape-font-specification:Bitstream Vera Sans"
     id="text22"
     sodipodi:linespacing="125%"
     x="-681.96997"
     y="17.83">0.0</text>
  <text
     transform="matrix(0,-1,1,0,0,0)"
     style="font-size:36px;font-style:normal;font-variant:normal;font-weight:normal;font-stretch:normal;text-align:start;line-height:125%;writing-mode:lr-tb;text-anchor:start;font-family:Bitstream Vera Sans;-inkscape-font-specification:Bitstream Vera Sans"
     id="text24"
     sodipodi:linespacing="125%"
     x="-533.13"
     y="17.83">0.1</text>
  <text
     transform="matrix(0,-1,1,0,0,0)"
     style="font-size:36px;font-style:normal;font-variant:normal;font-weight:normal;font-stretch:normal;text-align:start;line-height:125%;writing-mode:lr-tb;text-anchor:start;font-family:Bitstream Vera Sans;-inkscape-font-specification:Bitstream Vera Sans"
     id="text26"
     sodipodi:linespacing="125%"
     x="-383.14001"
     y="17.83">0.2</text>
  <text
     transform="matrix(0,-1,1,0,0,0)"
     style="font-size:36px;font-style:normal;font-variant:normal;font-weight:normal;font-stretch:normal;text-align:start;line-height:125%;writing-mode:lr-tb;text-anchor:start;font-family:Bitstream Vera Sans;-inkscape-font-specification:Bitstream Vera Sans"
     id="text28"
     sodipodi:linespacing="125%"
     x="-233.14999"
     y="17.83">0.3</text>
  <text
     transform="matrix(0,-1,1,0,0,0)"
     style="font-size:36px;font-style:normal;font-variant:normal;font-weight:normal;font-stretch:normal;text-align:start;line-height:125%;writing-mode:lr-tb;text-anchor:start;font-family:Bitstream Vera Sans;-inkscape-font-specification:Bitstream Vera Sans"
     id="text30"
     sodipodi:linespacing="125%"
     x="-83.160004"
     y="17.83">0.4</text>
  <polyline
     points="34.17 , 680.20 1427.90 , 680.20 1427.90 , 34.17 34.17 , 34.17 34.17 , 680.20 "
     style="stroke-width:1;stroke:#000000;fill:#000000;stroke-opacity:1.000000;fill-opacity:0.000000"
     id="polyline32" />
  <line
     x1="376.15"
     y1="680.20"
     x2="376.15"
     y2="34.17"
     style="stroke-width:1;stroke:#B3B3B3;fill:#000000;stroke-opacity:1.000000;fill-opacity:0.000000"
     id="line34" />
  <line
     x1="1085.92"
     y1="680.20"
     x2="1085.92"
     y2="34.17"
     style="stroke-width:1;stroke:#B3B3B3;fill:#000000;stroke-opacity:1.000000;fill-opacity:0.000000"
     id="line36" />
  <line
     x1="376.15"
     y1="680.20"
     x2="1085.92"
     y2="680.20"
     style="stroke-width:1;stroke:#000000;fill:#000000;stroke-opacity:1.000000;fill-opacity:0.000000"
     id="line40" />
  <line
     x1="376.15"
     y1="680.20"
     x2="376.15"
     y2="684.37"
     style="stroke-width:1;stroke:#000000;fill:#000000;stroke-opacity:1.000000;fill-opacity:0.000000"
     id="line42" />
  <line
     x1="1085.92"
     y1="680.20"
     x2="1085.92"
     y2="684.37"
     style="stroke-width:1;stroke:#000000;fill:#000000;stroke-opacity:1.000000;fill-opacity:0.000000"
     id="line44" />
  <text
     style="font-size:36px;font-style:normal;font-variant:normal;font-weight:normal;font-stretch:normal;text-align:start;line-height:125%;writing-mode:lr-tb;text-anchor:start;font-family:Bitstream Vera Sans;-inkscape-font-specification:Bitstream Vera Sans"
     id="text46"
     sodipodi:linespacing="125%"
     x="351.87"
     y="716.87">-c</text>
  <text
     style="font-size:36px;font-style:normal;font-variant:normal;font-weight:normal;font-stretch:normal;text-align:start;line-height:125%;writing-mode:lr-tb;text-anchor:start;font-family:Bitstream Vera Sans;-inkscape-font-specification:Bitstream Vera Sans"
     id="text48"
     sodipodi:linespacing="125%"
     x="1059.2"
     y="716.87">+c</text>
  <path
     style="fill:#1e8080;fill-opacity:0.2614108;stroke:none"
     d="m 376.71777,630.60682 0,-24.80735 9.60485,-7.76097 c 52.85239,-42.70617 96.52435,-109.06177 153.9314,-233.88491 4.9904,-10.85088 19.72293,-43.55929 32.73894,-72.68535 30.77576,-68.86715 35.0883,-78.17222 50.28971,-108.50884 33.30396,-66.46292 58.96826,-101.709873 84.4439,-115.973941 34.85353,-19.514839 69.0363,4.311187 110.52124,77.035361 17.56795,30.79707 33.73921,64.44686 70.52053,146.74185 30.71092,68.71298 38.87438,86.45746 54.30528,118.04049 31.70632,64.89457 61.66548,113.90541 90.13108,147.44742 10.3403,12.1843 31.501,32.97146 41.8444,41.10567 l 9.7879,7.69735 0.022,25.18028 0.022,25.18028 -354.08145,0 -354.08148,0 0,-24.80734 z"
     id="path3646" />
</svg>
